<?xml version="1.0" standalone="no"?>
<!DOCTYPE svg PUBLIC "-//W3C//DTD SVG 1.1//EN" "http://www.w3.org/Graphics/SVG/1.1/DTD/svg11.dtd" >
<svg xmlns="http://www.w3.org/2000/svg" xmlns:xlink="http://www.w3.org/1999/xlink" version="1.1">
<metadata>
Created by FontForge 20160407 at Fri Oct 14 08:11:06 2016
 By Jimmy Wärting
Copyright (c) 2005 by Frantisek Storm, www.stormtype.com. All rights reserved.
</metadata>
<defs>
<font id="EtelkaReg" horiz-adv-x="587" >
  <font-face 
    font-family="EtelkaReg"
    font-weight="400"
    font-stretch="normal"
    units-per-em="1000"
    panose-1="2 11 5 3 3 0 0 2 0 4"
    ascent="750"
    descent="-250"
    x-height="507"
    cap-height="697"
    bbox="-250.087 -314 1343 949"
    underline-thickness="50"
    underline-position="-150"
    stemh="87"
    stemv="94"
    unicode-range="U+0020-FB17"
  />
<missing-glyph horiz-adv-x="515" 
 />
    <glyph glyph-name="fi" unicode="fi" horiz-adv-x="574" 
d="M502 507v-507h-95v423h-217v-423h-94v423h-87v84h87v34c0 149 98 180 221 180c64 0 127 -11 180 -32l-25 -77c-41 16 -92 26 -147 26c-81 0 -135 -14 -135 -100v-31h312z" />
    <glyph glyph-name="fl" unicode="fl" horiz-adv-x="579" 
d="M502 689v-553c0 -56 12 -80 43 -114l-80 -44c-38 39 -58 80 -58 154v493c-31 9 -64 13 -97 13c-68 0 -120 -14 -120 -100v-31h158v-84h-158v-423h-94v423h-87v84h87v34c0 150 96 180 215 180c66 0 128 -10 191 -32z" />
    <glyph glyph-name="ff" unicode="ff" horiz-adv-x="677" 
d="M502 544v-37h172v-84h-172v-423h-95v423h-217v-423h-94v423h-87v84h87v34c0 157 105 180 215 180c53 0 106 -11 153 -29c31 24 74 29 117 29c42 0 91 -7 128 -19l-23 -77c-24 8 -65 13 -94 13c-54 0 -90 -18 -90 -94zM190 538v-31h217v40c0 30 4 55 11 74
c-35 11 -71 17 -108 17c-73 0 -120 -15 -120 -100z" />
    <glyph glyph-name="ffi" unicode="ffi" horiz-adv-x="885" 
d="M813 507v-507h-94v423h-217v-423h-95v423h-217v-423h-94v423h-87v84h87v34c0 150 96 180 203 180c56 0 122 -12 174 -33c41 26 95 33 155 33c64 0 127 -11 180 -32l-24 -77c-42 16 -93 26 -148 26c-80 0 -134 -14 -134 -100v-31h311zM190 538v-31h217v34c0 32 5 57 14 78
c-35 13 -76 19 -111 19c-73 0 -120 -15 -120 -100z" />
    <glyph glyph-name="Th" unicode="Th" horiz-adv-x="1059" 
d="M989 289v-289h-95v277c0 132 -33 158 -117 158c-62 0 -119 -21 -119 -58v-377h-95v610h-217v-610h-103v610h-239v87h654v-214c29 19 85 38 143 38c128 0 188 -45 188 -232z" />
    <glyph glyph-name="ffl" unicode="ffl" horiz-adv-x="891" 
d="M813 689v-553c0 -48 10 -78 44 -114l-81 -44c-38 39 -57 80 -57 154v493c-31 9 -64 13 -98 13c-69 0 -119 -18 -119 -100v-31h157v-84h-157v-423h-95v423h-217v-423h-94v423h-87v84h87v34c0 150 96 180 203 180c59 0 120 -11 173 -33c39 26 92 33 150 33
c66 0 128 -10 191 -32zM407 541c0 33 5 58 15 79c-36 11 -73 18 -112 18c-87 0 -120 -24 -120 -115v-16h217v34z" />
    <glyph glyph-name="ffk" unicode="ffk" horiz-adv-x="1161" 
d="M813 689v-689h-94v625c-31 9 -64 13 -98 13c-68 0 -119 -15 -119 -100v-31h157v-84h-157v-423h-95v423h-217v-423h-94v423h-87v84h87v34c0 144 92 179 195 179c62 0 126 -8 181 -32c39 26 92 33 150 33c76 -1 133 -11 191 -32zM407 541c0 33 5 58 15 79
c-36 11 -73 18 -112 18c-85 0 -120 -24 -120 -115v-16h217v34zM1162 0h-115c-124 165 -203 256 -234 268c31 23 108 106 217 239h115c-107 -132 -183 -209 -212 -230c28 -16 108 -109 229 -277z" />
    <glyph glyph-name="fk" unicode="fk" horiz-adv-x="849" 
d="M502 0h-95v625c-31 9 -64 13 -97 13c-67 0 -120 -15 -120 -100v-31h158v-84h-158v-423h-94v423h-87v84h87v34c0 150 96 180 215 180c75 0 133 -11 191 -32v-689zM851 0h-116c-124 165 -202 256 -233 268c31 23 108 106 217 239h115c-108 -132 -183 -209 -213 -230
c29 -16 108 -109 230 -277z" />
    <glyph glyph-name="fj" unicode="fj" horiz-adv-x="574" 
d="M407 -20v443h-217v-423h-94v423h-87v84h87v34c0 149 98 180 221 180c64 0 127 -11 180 -32l-25 -77c-41 16 -92 26 -147 26c-81 0 -135 -14 -135 -100v-31h312v-527c0 -141 -72 -188 -188 -183v82c62 0 93 17 93 101z" />
    <glyph glyph-name=".notdef" horiz-adv-x="515" 
 />
    <glyph glyph-name="space" unicode=" " horiz-adv-x="276" 
 />
    <glyph glyph-name="thorn" unicode="&#xfe;" horiz-adv-x="580" 
d="M73 -192v908h94v-209c39 9 83 14 119 14c162 0 236 -59 236 -266s-78 -269 -225 -269c-64 0 -104 18 -130 36v-214h-94zM167 419v-289c0 -39 54 -61 119 -61c103 0 137 38 137 184c0 156 -34 184 -137 184c-42 0 -87 -6 -119 -18z" />
    <glyph glyph-name="Zcaron" unicode="&#x17d;" horiz-adv-x="615" 
d="M19 0v30c137 178 302 406 420 580h-396v87h551v-28c-122 -187 -291 -424 -420 -582h407v-87h-562zM247 876l78 -84l76 84h94l-122 -129h-97l-126 129h97z" />
    <glyph glyph-name="zcaron" unicode="&#x17e;" horiz-adv-x="496" 
d="M44 507h420v-25c-81 -126 -216 -315 -286 -398h282v-84h-433v26c108 134 233 306 290 397h-273v84zM79 697h99l76 -81l74 81h96l-122 -129h-97z" />
    <glyph glyph-name="onehalf" unicode="&#xbd;" horiz-adv-x="820" 
d="M493 340l-14 76c36 10 85 18 128 18c123 0 177 -36 177 -127c0 -63 -27 -112 -102 -140c-72 -26 -113 -42 -120 -95h223v-72h-322c12 138 60 182 152 217c58 21 82 47 82 86c0 40 -26 53 -94 53c-36 0 -88 -7 -110 -16zM520 697h96l-412 -697h-97zM228 286h-84v327
l-94 -43l-21 73l199 83v-440z" />
    <glyph glyph-name="exclam" unicode="!" horiz-adv-x="332" 
d="M103 697h124l-27 -487h-70zM166 123c50 0 66 -8 66 -60c0 -56 -16 -65 -66 -65c-48 0 -65 9 -65 65c0 52 17 60 65 60z" />
    <glyph glyph-name="quotedbl" unicode="&#x22;" horiz-adv-x="337" 
d="M45 697h94l-19 -235h-64zM201 697h91l-19 -235h-63z" />
    <glyph glyph-name="numbersign" unicode="#" horiz-adv-x="685" 
d="M42 445l5 77h135l11 175h89l-10 -175h151l11 175h90l-11 -175h142l-5 -77h-142l-12 -177h145l-5 -76h-144l-12 -192h-90l12 192h-151l-13 -192h-89l12 192h-134l6 76h132l12 177h-135zM266 445l-11 -177h152l11 177h-152z" />
    <glyph glyph-name="percent" unicode="%" horiz-adv-x="911" 
d="M612 697h94l-411 -697h-94zM210 714c115 0 169 -45 169 -219c0 -175 -54 -226 -169 -226c-114 0 -168 51 -168 226c0 174 54 219 168 219zM210 339c63 0 83 32 83 155c0 126 -20 149 -83 149c-60 0 -83 -23 -83 -149c0 -123 23 -155 83 -155zM700 431
c115 0 168 -45 168 -219c0 -175 -53 -226 -168 -226c-114 0 -168 51 -168 226c0 174 54 219 168 219zM700 56c62 0 83 33 83 155c0 126 -21 150 -83 150c-60 0 -83 -24 -83 -150c0 -122 23 -155 83 -155z" />
    <glyph glyph-name="parenleft" unicode="(" horiz-adv-x="279" 
d="M68 249c0 317 94 457 210 512l45 -73c-81 -34 -154 -150 -154 -439s73 -405 154 -439l-45 -73c-116 55 -210 195 -210 512z" />
    <glyph glyph-name="asterisk" unicode="*" horiz-adv-x="457" 
d="M30 498v77h131l-66 115l68 38l65 -114l65 114l69 -39l-67 -114h132v-77h-132l66 -114l-68 -38l-65 112l-65 -112l-68 39l65 113h-130z" />
    <glyph glyph-name="comma" unicode="," horiz-adv-x="270" 
d="M214 100l-112 -259h-86l79 259h119z" />
    <glyph glyph-name="hyphen" unicode="-" horiz-adv-x="290" 
d="M31 234v89h228v-89h-228z" />
    <glyph glyph-name="hyphen" unicode="&#xad;" horiz-adv-x="290" 
d="M31 234v89h228v-89h-228z" />
    <glyph glyph-name="period" unicode="." horiz-adv-x="270" 
d="M134 123c51 0 66 -8 66 -60c0 -56 -15 -65 -66 -65c-48 0 -64 9 -64 65c0 52 16 60 64 60z" />
    <glyph glyph-name="four" unicode="4" horiz-adv-x="619" 
d="M377 191h-350v29c69 127 199 340 303 477h146v-421h96v-85h-96v-191h-99v191zM377 276v341c-81 -101 -179 -263 -222 -341h222z" />
    <glyph glyph-name="seven" unicode="7" horiz-adv-x="624" 
d="M593 697v-33c-101 -163 -239 -465 -307 -664h-116c78 213 197 475 287 610h-378v87h514z" />
    <glyph glyph-name="eight" unicode="8" horiz-adv-x="624" 
d="M312 70c114 0 148 35 148 127c0 96 -41 132 -148 132s-148 -36 -148 -132c0 -92 34 -127 148 -127zM312 410c95 0 134 33 134 115c0 76 -34 104 -134 104s-134 -28 -134 -104c0 -82 40 -115 134 -115zM312 -14c-176 0 -255 52 -255 204c0 100 30 176 163 182
c-125 11 -146 81 -146 168c0 117 59 174 238 174s239 -57 239 -174c0 -87 -21 -157 -146 -168c132 -6 162 -82 162 -182c0 -152 -78 -204 -255 -204z" />
    <glyph glyph-name="nine" unicode="9" horiz-adv-x="624" 
d="M180 0c100 89 193 183 242 283c-36 -5 -84 -8 -110 -8c-193 0 -257 52 -257 206c0 171 73 233 256 233c200 0 260 -50 260 -242c0 -204 -129 -353 -259 -472h-132zM319 362c44 0 93 3 134 10c8 27 11 56 11 87c0 150 -42 166 -153 166c-123 0 -149 -45 -149 -137
c0 -103 29 -126 157 -126z" />
    <glyph glyph-name="colon" unicode=":" horiz-adv-x="270" 
d="M134 123c51 0 66 -8 66 -60c0 -56 -15 -65 -66 -65c-48 0 -64 9 -64 65c0 52 16 60 64 60zM134 510c51 0 66 -8 66 -60c0 -56 -15 -65 -66 -65c-48 0 -64 9 -64 65c0 52 16 60 64 60z" />
    <glyph glyph-name="semicolon" unicode=";" horiz-adv-x="270" 
d="M214 100l-112 -259h-86l79 259h119zM134 510c51 0 66 -8 66 -60c0 -56 -15 -65 -66 -65c-48 0 -64 9 -64 65c0 52 16 60 64 60z" />
    <glyph glyph-name="less" unicode="&#x3c;" horiz-adv-x="602" 
d="M515 605l-294 -245l294 -247l-51 -66l-366 288v48l365 287z" />
    <glyph glyph-name="equal" unicode="=" horiz-adv-x="602" 
d="M59 194v89h483v-89h-483zM59 431v89h483v-89h-483z" />
    <glyph glyph-name="A" unicode="A" horiz-adv-x="675" 
d="M567 0c-23 58 -50 124 -75 194h-323c-22 -66 -43 -131 -63 -194h-105c73 220 167 476 258 697h165c75 -230 176 -508 257 -697h-114zM351 613h-28c-43 -107 -85 -219 -125 -332h264c-40 110 -78 226 -111 332z" />
    <glyph glyph-name="B" unicode="B" horiz-adv-x="700" 
d="M196 86h247c61 0 83 45 83 117c0 75 -27 125 -87 125h-243v-242zM196 611v-200h239c58 0 76 45 76 102c0 63 -17 98 -76 98h-239zM477 372c132 -6 158 -78 158 -178c0 -133 -65 -194 -177 -194h-363v697h355c139 0 168 -71 168 -166c0 -87 -17 -148 -141 -159z" />
    <glyph glyph-name="D" unicode="D" horiz-adv-x="720" 
d="M95 697h240c219 0 326 -76 326 -346s-106 -351 -326 -351h-240v697zM553 350c0 224 -58 260 -224 260h-133v-523h133c166 0 224 50 224 263z" />
    <glyph glyph-name="E" unicode="E" horiz-adv-x="615" 
d="M95 697h491v-87h-390v-198h277v-86h-277v-239h390v-87h-491v697z" />
    <glyph glyph-name="F" unicode="F" horiz-adv-x="577" 
d="M95 697h482v-87h-381v-233h277v-86h-277v-291h-101v697z" />
    <glyph glyph-name="G" unicode="G" horiz-adv-x="689" 
d="M508 91v215h-167v85h270v-379c-55 -17 -159 -26 -230 -26c-219 0 -323 85 -323 369c0 285 111 359 332 359c63 0 149 -11 203 -26l-25 -90c-40 15 -121 24 -172 24c-167 0 -228 -33 -228 -268c0 -234 61 -276 225 -276c43 0 89 7 115 13z" />
    <glyph glyph-name="H" unicode="H" horiz-adv-x="725" 
d="M196 325v-325h-101v697h101v-279h334v279h101v-697h-101v325h-334z" />
    <glyph glyph-name="I" unicode="I" horiz-adv-x="290" 
d="M95 697h101v-697h-101v697z" />
    <glyph glyph-name="J" unicode="J" horiz-adv-x="451" 
d="M357 697v-505c0 -169 -99 -206 -200 -206c-51 0 -107 13 -147 29l25 92c30 -14 78 -24 115 -24c52 0 104 20 104 118v496h103z" />
    <glyph glyph-name="K" unicode="K" horiz-adv-x="639" 
d="M196 697v-697h-101v697h101zM649 0h-129c-154 231 -278 352 -323 368c48 31 167 149 301 329h128c-142 -180 -252 -291 -291 -320c37 -23 161 -146 314 -377z" />
    <glyph glyph-name="L" unicode="L" horiz-adv-x="548" 
d="M95 697h101v-608h345v-89h-446v697z" />
    <glyph glyph-name="M" unicode="M" horiz-adv-x="892" 
d="M450 212c62 161 137 331 212 485h136v-697h-100v568c-74 -161 -151 -341 -216 -498h-78c-64 159 -139 341 -211 498v-568h-98v697h144c74 -155 149 -325 211 -485z" />
    <glyph glyph-name="N" unicode="N" horiz-adv-x="752" 
d="M657 697v-697h-124c-102 189 -217 384 -338 575v-575h-100v697h135c113 -172 224 -362 325 -546v546h102z" />
    <glyph glyph-name="O" unicode="O" horiz-adv-x="764" 
d="M382 714c219 0 324 -77 324 -361c0 -287 -104 -367 -324 -367c-219 0 -324 80 -324 367c0 284 105 361 324 361zM382 77c166 0 216 48 216 274c0 234 -50 273 -216 273c-165 0 -214 -39 -214 -273c0 -226 49 -274 214 -274z" />
    <glyph glyph-name="P" unicode="P" horiz-adv-x="661" 
d="M196 330h216c69 0 103 51 103 135c0 94 -34 146 -99 146h-220v-281zM196 0h-102v697h337c151 0 196 -105 196 -233c0 -114 -53 -221 -192 -221h-239v-243z" />
    <glyph glyph-name="Q" unicode="Q" horiz-adv-x="784" 
d="M392 714c219 0 324 -77 324 -361c0 -232 -68 -325 -210 -350c46 -9 116 -71 210 -195h-124c-80 118 -157 173 -204 178c-216 1 -320 82 -320 367c0 284 105 361 324 361zM392 77c166 0 216 48 216 274c0 234 -50 273 -216 273c-165 0 -215 -39 -215 -273
c0 -226 50 -274 215 -274z" />
    <glyph glyph-name="R" unicode="R" horiz-adv-x="691" 
d="M196 611v-241h216c66 0 102 43 102 117c0 81 -35 124 -98 124h-220zM435 307c49 -17 125 -117 239 -307h-127c-110 193 -188 284 -237 284h-114v-284h-101v697h337c151 0 195 -93 195 -203c0 -98 -46 -185 -192 -187z" />
    <glyph glyph-name="S" unicode="S" horiz-adv-x="623" 
d="M547 685l-24 -89c-36 14 -114 25 -178 25c-117 0 -180 -26 -180 -114c0 -61 33 -93 165 -104c164 -15 237 -75 237 -205c0 -156 -106 -212 -291 -212c-70 0 -153 12 -208 30l25 88c43 -14 119 -25 181 -25c117 0 185 25 185 114c0 61 -32 105 -168 117
c-161 13 -235 60 -235 188c0 157 106 216 289 216c68 0 148 -12 202 -29z" />
    <glyph glyph-name="T" unicode="T" horiz-adv-x="588" 
d="M346 0h-103v610h-239v87h580v-87h-238v-610z" />
    <glyph glyph-name="U" unicode="U" horiz-adv-x="740" 
d="M555 697h102v-471c0 -197 -105 -240 -287 -240c-181 0 -287 43 -287 240v471h103v-461c0 -127 55 -158 184 -158c126 0 185 29 185 158v461z" />
    <glyph glyph-name="V" unicode="V" horiz-adv-x="644" 
d="M-7 697h114c71 -170 157 -404 216 -603c81 194 153 409 213 603h106c-71 -221 -165 -477 -259 -697h-132c-71 228 -172 507 -258 697z" />
    <glyph glyph-name="W" unicode="W" horiz-adv-x="940" 
d="M478 536c-31 -156 -88 -354 -143 -536h-129c-59 228 -136 507 -204 697h112c57 -170 114 -369 163 -578c48 160 119 412 152 578h98c44 -164 111 -412 142 -578c68 207 117 383 162 578h104c-55 -221 -129 -477 -204 -697h-130c-35 184 -84 381 -123 536z" />
    <glyph glyph-name="X" unicode="X" horiz-adv-x="661" 
d="M139 697c60 -77 127 -164 198 -257c65 87 128 175 185 257h123c-76 -109 -160 -225 -246 -341c91 -123 182 -249 257 -356h-126c-61 86 -126 177 -194 270c-71 -94 -141 -185 -208 -270h-123c80 101 176 228 269 353c-90 120 -183 242 -264 344h129z" />
    <glyph glyph-name="Y" unicode="Y" horiz-adv-x="622" 
d="M110 697c68 -85 141 -185 209 -286c73 96 144 196 202 286h121c-83 -122 -179 -255 -277 -379v-318h-102v318c-89 128 -191 265 -285 379h132z" />
    <glyph glyph-name="Z" unicode="Z" horiz-adv-x="615" 
d="M19 0v30c137 178 302 406 420 580h-396v87h551v-28c-122 -187 -291 -424 -420 -582h407v-87h-562z" />
    <glyph glyph-name="bracketleft" unicode="[" horiz-adv-x="303" 
d="M88 755h235v-83h-136v-850h136v-82h-235v1015z" />
    <glyph glyph-name="asciicircum" unicode="^" horiz-adv-x="501" 
d="M388 296l-140 302l-139 -302h-97l190 401h94l193 -401h-101z" />
    <glyph glyph-name="underscore" unicode="_" horiz-adv-x="434" 
d="M31 -147v89h372v-89h-372z" />
    <glyph glyph-name="a" unicode="a" horiz-adv-x="551" 
d="M480 324v-298c-60 -25 -149 -40 -217 -40c-153 0 -210 38 -210 170c0 144 84 167 200 167c48 0 87 -5 135 -15c0 106 -27 130 -138 130c-52 0 -109 -8 -150 -24l-20 82c45 12 114 25 185 25c149 0 215 -44 215 -197zM388 83v155c-32 8 -75 11 -118 11
c-86 0 -115 -9 -115 -88c0 -85 23 -98 114 -98c42 0 85 8 119 20z" />
    <glyph glyph-name="f" unicode="f" horiz-adv-x="366" 
d="M190 544v-37h173v-84h-173v-423h-94v423h-87v84h87v40c0 154 87 174 185 174c40 0 83 -8 116 -19l-22 -77c-25 8 -65 13 -95 13c-53 0 -90 -16 -90 -94z" />
    <glyph glyph-name="i" unicode="i" horiz-adv-x="239" 
d="M167 507v-507h-94v507h94zM121 709c42 0 56 -6 56 -50c0 -48 -14 -56 -56 -56c-43 0 -57 8 -57 56c0 44 14 50 57 50z" />
    <glyph glyph-name="j" unicode="j" horiz-adv-x="239" 
d="M121 709c42 0 56 -6 56 -50c0 -48 -14 -56 -56 -56c-43 0 -57 8 -57 56c0 44 14 50 57 50zM167 507v-526c0 -150 -70 -184 -187 -184v81c61 0 93 17 93 101v528h94z" />
    <glyph glyph-name="k" unicode="k" horiz-adv-x="515" 
d="M167 722v-722h-94v722h94zM516 0h-115c-124 165 -203 256 -234 268c31 23 108 106 217 239h115c-107 -131 -183 -209 -212 -230c28 -16 108 -108 229 -277z" />
    <glyph glyph-name="l" unicode="l" horiz-adv-x="245" 
d="M167 722v-586c0 -49 11 -77 44 -114l-80 -44c-39 40 -58 80 -58 154v590h94z" />
    <glyph glyph-name="s" unicode="s" horiz-adv-x="497" 
d="M430 495l-24 -80c-41 15 -97 26 -147 26c-73 0 -110 -9 -110 -75c0 -42 28 -59 115 -67c127 -11 182 -51 182 -148c0 -127 -74 -165 -206 -165c-52 0 -133 10 -182 27l23 80c36 -15 105 -27 157 -27c74 0 112 11 112 78c0 45 -24 66 -117 74c-117 10 -181 41 -181 140
c0 126 79 163 209 163c51 0 115 -10 169 -26z" />
    <glyph glyph-name="v" unicode="v" horiz-adv-x="510" 
d="M254 93c54 137 106 277 143 414h98c-50 -167 -116 -340 -185 -507h-123c-50 173 -110 360 -175 507h101c50 -120 101 -273 141 -414z" />
    <glyph glyph-name="x" unicode="x" horiz-adv-x="521" 
d="M502 0h-110c-34 55 -77 118 -122 182c-49 -65 -97 -126 -143 -182h-109c63 72 134 164 201 253c-67 92 -139 183 -200 254h119c41 -51 88 -113 134 -177c48 64 88 126 121 177h108c-51 -76 -112 -164 -176 -250c63 -86 125 -177 177 -257z" />
    <glyph glyph-name="z" unicode="z" horiz-adv-x="496" 
d="M44 507h420v-25c-81 -126 -216 -315 -286 -398h282v-84h-433v26c108 134 233 306 290 397h-273v84z" />
    <glyph glyph-name="braceleft" unicode="{" horiz-adv-x="299" 
d="M23 210v-1v78c59 0 109 41 109 201c0 170 74 246 157 274l45 -74c-66 -20 -108 -65 -108 -220c0 -162 -55 -209 -88 -219c33 -10 88 -58 88 -221c0 -154 41 -199 108 -219l-45 -73c-83 28 -157 103 -157 273c0 160 -50 201 -109 201z" />
    <glyph glyph-name="bar" unicode="|" horiz-adv-x="341" 
d="M120 755h101v-1011h-101v1011z" />
    <glyph glyph-name="Ccedilla" unicode="&#xc7;" horiz-adv-x="597" 
d="M58 355c0 285 104 359 323 359c63 0 144 -11 197 -26l-25 -91c-40 15 -109 24 -160 24c-164 0 -225 -32 -225 -267c0 -234 61 -274 225 -274c51 0 120 9 160 23l25 -91c-54 -16 -134 -26 -197 -26c-219 0 -323 85 -323 369zM339 0h42v-44c84 0 114 -17 114 -77
c0 -63 -36 -82 -131 -82c-48 0 -77 5 -102 18l20 48c19 -9 48 -14 79 -14c37 0 50 5 50 30c0 27 -25 33 -108 28z" />
    <glyph glyph-name="Eacute" unicode="&#xc9;" horiz-adv-x="615" 
d="M95 697h491v-87h-390v-198h277v-86h-277v-239h390v-87h-491v697zM345 747h-88l132 129h114z" />
    <glyph glyph-name="Ntilde" unicode="&#xd1;" horiz-adv-x="752" 
d="M657 697v-697h-124c-102 189 -217 384 -338 575v-575h-100v697h135c113 -172 224 -362 325 -546v546h102zM513 873l51 -41c-20 -55 -60 -92 -115 -92s-97 61 -144 61c-20 0 -38 -15 -55 -55l-45 44c28 50 57 79 104 79c61 0 99 -57 146 -57c24 0 42 14 58 61z" />
    <glyph glyph-name="Odieresis" unicode="&#xd6;" horiz-adv-x="764" 
d="M382 714c219 0 324 -77 324 -361c0 -287 -104 -367 -324 -367c-219 0 -324 80 -324 367c0 284 105 361 324 361zM382 77c166 0 216 48 216 274c0 234 -50 273 -216 273c-165 0 -214 -39 -214 -273c0 -226 49 -274 214 -274zM281 855c38 0 50 -6 50 -47
c0 -45 -12 -52 -50 -52c-39 0 -51 7 -51 52c0 41 12 47 51 47zM482 855c38 0 50 -6 50 -47c0 -45 -12 -52 -50 -52c-39 0 -51 7 -51 52c0 41 12 47 51 47z" />
    <glyph glyph-name="Udieresis" unicode="&#xdc;" horiz-adv-x="740" 
d="M555 697h102v-471c0 -197 -105 -240 -287 -240c-181 0 -287 43 -287 240v471h103v-461c0 -127 55 -158 184 -158c126 0 185 29 185 158v461zM267 855c38 0 50 -6 50 -47c0 -45 -12 -52 -50 -52c-39 0 -51 7 -51 52c0 41 12 47 51 47zM468 855c38 0 50 -6 50 -47
c0 -45 -12 -52 -50 -52c-39 0 -51 7 -51 52c0 41 12 47 51 47z" />
    <glyph glyph-name="aacute" unicode="&#xe1;" horiz-adv-x="551" 
d="M480 324v-298c-60 -25 -149 -40 -217 -40c-153 0 -210 38 -210 170c0 144 84 167 200 167c48 0 87 -5 135 -15c0 106 -27 130 -138 130c-52 0 -109 -8 -150 -24l-20 82c45 12 114 25 185 25c149 0 215 -44 215 -197zM388 83v155c-32 8 -75 11 -118 11
c-86 0 -115 -9 -115 -88c0 -85 23 -98 114 -98c42 0 85 8 119 20zM283 568h-90l121 129h107z" />
    <glyph glyph-name="agrave" unicode="&#xe0;" horiz-adv-x="551" 
d="M480 324v-298c-60 -25 -149 -40 -217 -40c-153 0 -210 38 -210 170c0 144 84 167 200 167c48 0 87 -5 135 -15c0 106 -27 130 -138 130c-52 0 -109 -8 -150 -24l-20 82c45 12 114 25 185 25c149 0 215 -44 215 -197zM388 83v155c-32 8 -75 11 -118 11
c-86 0 -115 -9 -115 -88c0 -85 23 -98 114 -98c42 0 85 8 119 20zM358 568h-89l-139 129h108z" />
    <glyph glyph-name="acircumflex" unicode="&#xe2;" horiz-adv-x="551" 
d="M480 324v-298c-60 -25 -149 -40 -217 -40c-153 0 -210 38 -210 170c0 144 84 167 200 167c48 0 87 -5 135 -15c0 106 -27 130 -138 130c-52 0 -109 -8 -150 -24l-20 82c45 12 114 25 185 25c149 0 215 -44 215 -197zM388 83v155c-32 8 -75 11 -118 11
c-86 0 -115 -9 -115 -88c0 -85 23 -98 114 -98c42 0 85 8 119 20zM352 568c-25 27 -50 53 -76 81c-24 -28 -49 -54 -74 -81h-95c41 43 81 86 122 129h97l126 -129h-100z" />
    <glyph glyph-name="adieresis" unicode="&#xe4;" horiz-adv-x="551" 
d="M480 324v-298c-60 -25 -149 -40 -217 -40c-153 0 -210 38 -210 170c0 144 84 167 200 167c48 0 87 -5 135 -15c0 106 -27 130 -138 130c-52 0 -109 -8 -150 -24l-20 82c45 12 114 25 185 25c149 0 215 -44 215 -197zM388 83v155c-32 8 -75 11 -118 11
c-86 0 -115 -9 -115 -88c0 -85 23 -98 114 -98c42 0 85 8 119 20zM169 669c38 0 50 -6 50 -47c0 -45 -12 -52 -50 -52c-39 0 -51 7 -51 52c0 41 12 47 51 47zM370 669c38 0 50 -6 50 -47c0 -45 -12 -52 -50 -52c-39 0 -51 7 -51 52c0 41 12 47 51 47z" />
    <glyph glyph-name="atilde" unicode="&#xe3;" horiz-adv-x="551" 
d="M480 324v-298c-60 -25 -149 -40 -217 -40c-153 0 -210 38 -210 170c0 144 84 167 200 167c48 0 87 -5 135 -15c0 106 -27 130 -138 130c-52 0 -109 -8 -150 -24l-20 82c45 12 114 25 185 25c149 0 215 -44 215 -197zM388 83v155c-32 8 -75 11 -118 11
c-86 0 -115 -9 -115 -88c0 -85 23 -98 114 -98c42 0 85 8 119 20zM396 695l52 -41c-21 -56 -55 -92 -112 -92c-56 0 -91 60 -139 60c-21 0 -39 -15 -56 -56l-46 45c29 51 59 81 106 81c63 0 91 -59 138 -59c25 0 40 15 57 62z" />
    <glyph glyph-name="aring" unicode="&#xe5;" horiz-adv-x="551" 
d="M480 324v-298c-60 -25 -149 -40 -217 -40c-153 0 -210 38 -210 170c0 144 84 167 200 167c48 0 87 -5 135 -15c0 106 -27 130 -138 130c-52 0 -109 -8 -150 -24l-20 82c45 12 114 25 185 25c149 0 215 -44 215 -197zM388 83v155c-32 8 -75 11 -118 11
c-86 0 -115 -9 -115 -88c0 -85 23 -98 114 -98c42 0 85 8 119 20zM280 739c75 0 114 -28 114 -96c0 -67 -39 -96 -114 -96s-114 29 -114 96c0 68 31 96 114 96zM280 689c-42 0 -54 -16 -54 -47c0 -30 12 -48 54 -48c43 0 55 18 55 48c0 31 -12 47 -55 47z" />
    <glyph glyph-name="ccedilla" unicode="&#xe7;" horiz-adv-x="468" 
d="M430 96l25 -83c-39 -17 -104 -27 -150 -27c-156 0 -248 62 -248 270c0 207 93 265 248 265c46 0 112 -10 150 -24l-25 -84c-34 15 -79 23 -121 23c-103 0 -152 -25 -152 -182c0 -149 49 -183 152 -183c44 0 87 11 121 25zM256 0h42v-44c84 0 114 -17 114 -77
c0 -63 -36 -82 -131 -82c-48 0 -77 5 -102 18l20 48c19 -9 48 -14 79 -14c37 0 50 5 50 30c0 27 -25 33 -108 28z" />
    <glyph glyph-name="eacute" unicode="&#xe9;" horiz-adv-x="549" 
d="M453 93l18 -79c-52 -16 -125 -28 -173 -28c-150 0 -241 62 -241 270c0 201 83 265 232 265c152 0 219 -56 214 -287h-345c1 -136 48 -165 151 -165c36 0 103 10 144 24zM293 442c-92 0 -126 -30 -134 -131h250c-5 108 -34 131 -116 131zM295 568h-90l121 129h107z" />
    <glyph glyph-name="egrave" unicode="&#xe8;" horiz-adv-x="549" 
d="M453 93l18 -79c-52 -16 -125 -28 -173 -28c-150 0 -241 62 -241 270c0 201 83 265 232 265c152 0 219 -56 214 -287h-345c1 -136 48 -165 151 -165c36 0 103 10 144 24zM293 442c-92 0 -126 -30 -134 -131h250c-5 108 -34 131 -116 131zM383 568h-89l-139 129h108z" />
    <glyph glyph-name="ecircumflex" unicode="&#xea;" horiz-adv-x="549" 
d="M453 93l18 -79c-52 -16 -125 -28 -173 -28c-150 0 -241 62 -241 270c0 201 83 265 232 265c152 0 219 -56 214 -287h-345c1 -136 48 -165 151 -165c36 0 103 10 144 24zM293 442c-92 0 -126 -30 -134 -131h250c-5 108 -34 131 -116 131zM367 568c-25 27 -50 53 -76 81
c-24 -28 -49 -54 -74 -81h-95c41 43 81 86 122 129h97l126 -129h-100z" />
    <glyph glyph-name="edieresis" unicode="&#xeb;" horiz-adv-x="549" 
d="M453 93l18 -79c-52 -16 -125 -28 -173 -28c-150 0 -241 62 -241 270c0 201 83 265 232 265c152 0 219 -56 214 -287h-345c1 -136 48 -165 151 -165c36 0 103 10 144 24zM293 442c-92 0 -126 -30 -134 -131h250c-5 108 -34 131 -116 131zM191 669c38 0 50 -6 50 -47
c0 -45 -12 -52 -50 -52c-39 0 -51 7 -51 52c0 41 12 47 51 47zM392 669c38 0 50 -6 50 -47c0 -45 -12 -52 -50 -52c-39 0 -51 7 -51 52c0 41 12 47 51 47z" />
    <glyph glyph-name="iacute" unicode="&#xed;" horiz-adv-x="239" 
d="M167 507v-507h-94v507h94zM137 568h-90l121 129h107z" />
    <glyph glyph-name="igrave" unicode="&#xec;" horiz-adv-x="239" 
d="M167 507v-507h-94v507h94zM187 568h-89l-139 129h108z" />
    <glyph glyph-name="icircumflex" unicode="&#xee;" horiz-adv-x="239" 
d="M167 507v-507h-94v507h94zM193 568c-25 27 -50 53 -76 81c-24 -28 -49 -54 -74 -81h-95c41 43 81 86 122 129h97l126 -129h-100z" />
    <glyph glyph-name="idieresis" unicode="&#xef;" horiz-adv-x="239" 
d="M167 507v-507h-94v507h94zM20 669c38 0 50 -6 50 -47c0 -45 -12 -52 -50 -52c-39 0 -51 7 -51 52c0 41 12 47 51 47zM221 669c38 0 50 -6 50 -47c0 -45 -12 -52 -50 -52c-39 0 -51 7 -51 52c0 41 12 47 51 47z" />
    <glyph glyph-name="ntilde" unicode="&#xf1;" horiz-adv-x="568" 
d="M167 420v-420h-94v479c58 25 151 42 222 42c145 0 203 -53 203 -237v-284h-94v272c0 133 -27 162 -128 162c-41 0 -74 -4 -109 -14zM407 695l52 -41c-21 -56 -55 -92 -112 -92c-56 0 -91 60 -139 60c-21 0 -39 -15 -56 -56l-46 45c29 51 59 81 106 81
c63 0 91 -59 138 -59c25 0 40 15 57 62z" />
    <glyph glyph-name="oacute" unicode="&#xf3;" 
d="M293 -14c-160 0 -236 62 -236 270c0 207 77 265 236 265c160 0 236 -58 236 -265c0 -208 -75 -270 -236 -270zM293 441c-103 0 -136 -28 -136 -187c0 -152 33 -188 136 -188s136 36 136 188c0 159 -33 187 -136 187zM297 568h-90l121 129h107z" />
    <glyph glyph-name="ograve" unicode="&#xf2;" 
d="M293 -14c-160 0 -236 62 -236 270c0 207 77 265 236 265c160 0 236 -58 236 -265c0 -208 -75 -270 -236 -270zM293 441c-103 0 -136 -28 -136 -187c0 -152 33 -188 136 -188s136 36 136 188c0 159 -33 187 -136 187zM390 568h-89l-139 129h108z" />
    <glyph glyph-name="ocircumflex" unicode="&#xf4;" 
d="M293 -14c-160 0 -236 62 -236 270c0 207 77 265 236 265c160 0 236 -58 236 -265c0 -208 -75 -270 -236 -270zM293 441c-103 0 -136 -28 -136 -187c0 -152 33 -188 136 -188s136 36 136 188c0 159 -33 187 -136 187zM364 568c-25 27 -50 53 -76 81
c-24 -28 -49 -54 -74 -81h-95c41 43 81 86 122 129h97l126 -129h-100z" />
    <glyph glyph-name="odieresis" unicode="&#xf6;" 
d="M293 -14c-160 0 -236 62 -236 270c0 207 77 265 236 265c160 0 236 -58 236 -265c0 -208 -75 -270 -236 -270zM293 441c-103 0 -136 -28 -136 -187c0 -152 33 -188 136 -188s136 36 136 188c0 159 -33 187 -136 187zM192 669c38 0 50 -6 50 -47c0 -45 -12 -52 -50 -52
c-39 0 -51 7 -51 52c0 41 12 47 51 47zM393 669c38 0 50 -6 50 -47c0 -45 -12 -52 -50 -52c-39 0 -51 7 -51 52c0 41 12 47 51 47z" />
    <glyph glyph-name="otilde" unicode="&#xf5;" 
d="M293 -14c-160 0 -236 62 -236 270c0 207 77 265 236 265c160 0 236 -58 236 -265c0 -208 -75 -270 -236 -270zM293 441c-103 0 -136 -28 -136 -187c0 -152 33 -188 136 -188s136 36 136 188c0 159 -33 187 -136 187zM416 695l52 -41c-21 -56 -55 -92 -112 -92
c-56 0 -91 60 -139 60c-21 0 -39 -15 -56 -56l-46 45c29 51 59 81 106 81c63 0 91 -59 138 -59c25 0 40 15 57 62z" />
    <glyph glyph-name="uacute" unicode="&#xfa;" horiz-adv-x="568" 
d="M402 88v419h94v-479c-59 -25 -152 -42 -222 -42c-145 0 -203 54 -203 237v284h94v-272c0 -133 27 -162 127 -162c41 0 75 4 110 15zM293 568h-90l121 129h107z" />
    <glyph glyph-name="ugrave" unicode="&#xf9;" horiz-adv-x="568" 
d="M402 88v419h94v-479c-59 -25 -152 -42 -222 -42c-145 0 -203 54 -203 237v284h94v-272c0 -133 27 -162 127 -162c41 0 75 4 110 15zM378 568h-89l-139 129h108z" />
    <glyph glyph-name="ucircumflex" unicode="&#xfb;" horiz-adv-x="568" 
d="M402 88v419h94v-479c-59 -25 -152 -42 -222 -42c-145 0 -203 54 -203 237v284h94v-272c0 -133 27 -162 127 -162c41 0 75 4 110 15zM366 568c-25 27 -50 53 -76 81c-24 -28 -49 -54 -74 -81h-95c41 43 81 86 122 129h97l126 -129h-100z" />
    <glyph glyph-name="udieresis" unicode="&#xfc;" horiz-adv-x="568" 
d="M402 88v419h94v-479c-59 -25 -152 -42 -222 -42c-145 0 -203 54 -203 237v284h94v-272c0 -133 27 -162 127 -162c41 0 75 4 110 15zM191 669c38 0 50 -6 50 -47c0 -45 -12 -52 -50 -52c-39 0 -51 7 -51 52c0 41 12 47 51 47zM392 669c38 0 50 -6 50 -47
c0 -45 -12 -52 -50 -52c-39 0 -51 7 -51 52c0 41 12 47 51 47z" />
    <glyph glyph-name="cent" unicode="&#xa2;" horiz-adv-x="462" 
d="M251 754h80v-103c38 -2 88 -12 119 -23l-25 -79c-27 12 -62 18 -94 20v-369c32 2 67 10 94 22l25 -78c-32 -14 -81 -23 -119 -26v-121h-80v122c-123 15 -194 84 -194 268c0 183 72 249 194 262v105zM152 385c0 -118 32 -163 99 -176v352c-67 -12 -99 -52 -99 -176z" />
    <glyph glyph-name="sterling" unicode="&#xa3;" horiz-adv-x="604" 
d="M41 307v82h64v95c0 152 84 229 267 229c68 0 148 -12 202 -29l-24 -89c-36 15 -114 26 -178 26c-117 0 -165 -41 -165 -133v-99h194v-82h-194v-220h349v-87h-451v307h-64z" />
    <glyph glyph-name="section" unicode="&#xa7;" horiz-adv-x="623" 
d="M543 685l-23 -86c-35 15 -112 25 -174 25c-115 0 -177 -29 -177 -110c0 -56 32 -85 162 -95c161 -14 245 -66 245 -185c0 -43 -17 -85 -43 -119c26 -27 38 -63 38 -110c0 -144 -108 -208 -286 -208c-67 0 -144 11 -197 28l23 87c35 -15 112 -26 174 -26
c115 0 177 30 177 111c0 56 -32 85 -162 95c-161 14 -245 65 -245 185c0 42 16 86 41 120c-25 27 -37 62 -37 109c0 144 109 208 287 208c66 0 144 -12 197 -29zM176 351c-11 -17 -17 -40 -17 -70c0 -61 39 -89 177 -99c49 -4 89 -11 119 -24c9 18 17 41 17 72
c0 60 -39 89 -177 99c-50 3 -89 10 -119 22z" />
    <glyph glyph-name="paragraph" unicode="&#xb6;" horiz-adv-x="661" 
d="M566 0h-94v243h-91v-243h-95v243h-60c-140 0 -192 107 -192 221c0 128 44 233 195 233h337v-697z" />
    <glyph glyph-name="registered" unicode="&#xae;" horiz-adv-x="568" 
d="M404 518c0 -60 -25 -81 -67 -81c23 -11 46 -40 65 -94h-77c-10 33 -38 82 -55 82h-24v-82h-68v262h156c49 0 70 -39 70 -87zM334 516c0 19 -6 33 -25 33h-63v-69h63c19 0 25 15 25 36zM513 473c0 -185 -73 -241 -230 -241c-156 0 -228 56 -228 241c0 188 74 240 228 240
c156 0 230 -52 230 -240zM443 473c0 152 -42 178 -160 178c-114 0 -157 -26 -157 -178c0 -143 43 -178 157 -178c118 0 160 35 160 178z" />
    <glyph glyph-name="copyright" unicode="&#xa9;" horiz-adv-x="855" 
d="M427 714c242 0 360 -77 360 -361c0 -287 -117 -367 -360 -367c-242 0 -359 80 -359 367c0 284 117 361 359 361zM426 62c198 0 271 52 271 290c0 244 -73 287 -271 287c-195 0 -267 -43 -267 -287c0 -238 72 -290 267 -290zM556 225l21 -74c-35 -13 -91 -23 -134 -23
c-143 0 -212 48 -212 226s69 223 212 223c43 0 101 -9 134 -20l-21 -76c-28 12 -73 17 -109 17c-90 0 -121 -20 -121 -146c0 -119 31 -147 121 -147c37 0 81 9 109 20z" />
    <glyph glyph-name="trademark" unicode="&#x2122;" horiz-adv-x="776" 
d="M194 344h-73v291h-110v62h292v-62h-109v-291zM442 697l92 -268l89 268h96v-353h-68v277l-90 -270h-65l-87 270v-277h-67v353h100z" />
    <glyph glyph-name="acute" unicode="&#xb4;" horiz-adv-x="488" 
d="M187 568h-90l121 129h107z" />
    <glyph glyph-name="dieresis" unicode="&#xa8;" horiz-adv-x="435" 
d="M115 669c38 0 50 -6 50 -47c0 -45 -12 -52 -50 -52c-39 0 -51 7 -51 52c0 41 12 47 51 47zM316 669c38 0 50 -6 50 -47c0 -45 -12 -52 -50 -52c-39 0 -51 7 -51 52c0 41 12 47 51 47z" />
    <glyph glyph-name="notequal" unicode="&#x2260;" horiz-adv-x="602" 
d="M398 628h100l-60 -108h104v-89h-152l-82 -148h234v-89h-281l-61 -107h-98l60 107h-103v89h150l81 148h-231v89h279z" />
    <glyph glyph-name="AE" unicode="&#xc6;" horiz-adv-x="965" 
d="M362 697h574v-87h-390v-198h235v-85h-235v-240h390v-87h-491v194h-327c-45 -66 -88 -131 -127 -194h-122c147 220 327 476 493 697zM445 613h-31c-79 -107 -160 -219 -238 -332h269v332z" />
    <glyph glyph-name="Oslash" unicode="&#xd8;" horiz-adv-x="764" 
d="M628 697h106c-27 -31 -54 -62 -80 -93c35 -56 52 -137 52 -251c0 -288 -105 -367 -324 -367c-92 0 -163 14 -215 51c-10 -12 -21 -25 -32 -37h-104l81 93c-37 57 -54 141 -54 260c0 284 105 361 324 361c92 0 164 -15 216 -53c11 12 20 24 30 36zM382 624
c-160 0 -213 -38 -214 -255c0 -28 0 -55 2 -81c3 -43 9 -78 19 -105c115 134 230 269 345 404c-33 29 -82 37 -152 37zM382 77c161 0 214 46 216 257c0 28 -1 55 -2 80c-3 42 -9 75 -19 101c-115 -133 -229 -267 -343 -401c32 -28 80 -37 148 -37z" />
    <glyph glyph-name="yen" unicode="&#xa5;" horiz-adv-x="622" 
d="M73 295v77h152c-80 111 -165 224 -247 325h132c68 -85 141 -185 209 -286c73 96 144 196 202 286h121c-73 -106 -153 -218 -236 -325h146v-77h-187v-86h187v-77h-187v-132h-102v132h-190v77h190v86h-190z" />
    <glyph glyph-name="summation" unicode="&#x2211;" horiz-adv-x="616" 
d="M372 344c-65 -93 -131 -182 -193 -258h403v-86h-576c77 101 166 226 248 344c-82 119 -166 248 -233 353h562v-87h-392c53 -80 116 -172 181 -266z" />
    <glyph glyph-name="ae" unicode="&#xe6;" horiz-adv-x="874" 
d="M777 93l18 -79c-52 -16 -125 -28 -172 -28c-70 0 -121 12 -158 42c-43 -29 -139 -42 -202 -42c-153 0 -210 38 -210 170c0 144 85 167 200 167c48 0 87 -5 135 -15c0 106 -23 129 -138 129c-52 0 -109 -7 -150 -23l-20 82c45 12 114 25 185 25c96 0 150 -17 177 -74
c31 55 84 74 171 74c152 0 219 -56 214 -287h-345c2 -136 49 -165 151 -165c37 0 103 10 144 24zM411 92c-22 52 -24 95 -24 146c-33 8 -73 11 -117 11c-86 0 -115 -8 -115 -88c0 -77 16 -98 114 -98c43 0 108 11 142 29zM617 442c-88 0 -125 -24 -134 -131h250
c-4 108 -34 131 -116 131z" />
    <glyph glyph-name="oslash" unicode="&#xf8;" 
d="M461 507h96l-63 -73c24 -41 35 -98 35 -178c0 -208 -76 -270 -237 -270c-63 0 -113 11 -150 34l-18 -20h-94l62 73c-24 41 -35 101 -35 183c0 207 77 265 235 265c64 0 114 -9 151 -34zM292 441c-100 0 -134 -27 -135 -175c0 -45 1 -79 6 -107l227 260
c-21 16 -56 22 -98 22zM292 66c108 0 137 46 137 186c0 38 -1 69 -5 95l-227 -258c20 -17 54 -23 95 -23z" />
    <glyph glyph-name="logicalnot" unicode="&#xac;" horiz-adv-x="507" 
d="M470 0h-102v327h-337v88h439v-415z" />
    <glyph glyph-name="ellipsis" unicode="&#x2026;" horiz-adv-x="1176" 
d="M236 123c50 0 66 -8 66 -60c0 -56 -16 -65 -66 -65c-48 0 -65 9 -65 65c0 52 17 60 65 60zM587 123c50 0 66 -8 66 -60c0 -56 -16 -65 -66 -65c-48 0 -65 9 -65 65c0 52 17 60 65 60zM938 123c51 0 66 -8 66 -60c0 -56 -15 -65 -66 -65c-47 0 -64 9 -64 65
c0 52 17 60 64 60z" />
    <glyph glyph-name="Otilde" unicode="&#xd5;" horiz-adv-x="764" 
d="M382 714c219 0 324 -77 324 -361c0 -287 -104 -367 -324 -367c-219 0 -324 80 -324 367c0 284 105 361 324 361zM382 77c166 0 216 48 216 274c0 234 -50 273 -216 273c-165 0 -214 -39 -214 -273c0 -226 49 -274 214 -274zM508 873l51 -41c-20 -55 -60 -92 -115 -92
s-97 61 -144 61c-20 0 -38 -15 -55 -55l-45 44c28 50 57 79 104 79c61 0 99 -57 146 -57c24 0 42 14 58 61z" />
    <glyph glyph-name="OE" unicode="&#x152;" horiz-adv-x="1104" 
d="M526 697h549v-87h-429c34 -43 53 -108 58 -198h216v-85h-215c-2 -115 -22 -192 -64 -240h434v-87h-561c-38 -10 -82 -14 -132 -14c-219 0 -324 80 -324 367c0 284 105 361 324 361c56 0 103 -5 144 -17zM382 77c166 0 216 48 216 274c0 234 -50 273 -216 273
c-165 0 -214 -39 -214 -273c0 -226 49 -274 214 -274z" />
    <glyph glyph-name="oe" unicode="&#x153;" horiz-adv-x="919" 
d="M823 93l17 -79c-51 -16 -125 -28 -172 -28c-91 0 -152 20 -188 81c-34 -60 -94 -81 -187 -81c-160 0 -236 62 -236 270c0 207 77 265 236 265c91 0 151 -20 185 -76c35 52 92 76 181 76c152 0 218 -56 214 -287h-345c1 -136 48 -165 151 -165c36 0 102 10 144 24z
M293 441c-103 0 -136 -28 -136 -187c0 -152 33 -188 136 -188s136 36 136 188c0 159 -33 187 -136 187zM662 442c-86 0 -125 -24 -133 -131h250c-5 108 -35 131 -117 131z" />
    <glyph glyph-name="endash" unicode="&#x2013;" horiz-adv-x="561" 
d="M51 234v89h459v-89h-459z" />
    <glyph glyph-name="emdash" unicode="&#x2014;" horiz-adv-x="851" 
d="M51 234v89h749v-89h-749z" />
    <glyph glyph-name="ydieresis" unicode="&#xff;" horiz-adv-x="510" 
d="M195 -24c-50 180 -118 386 -183 531h101c50 -117 102 -276 141 -417c55 137 107 281 143 417h98c-51 -172 -118 -347 -190 -517c-25 -60 -58 -131 -85 -182h-107c26 48 57 113 82 168zM157 669c38 0 50 -6 50 -47c0 -45 -12 -52 -50 -52c-39 0 -51 7 -51 52
c0 41 12 47 51 47zM358 669c38 0 50 -6 50 -47c0 -45 -12 -52 -50 -52c-39 0 -51 7 -51 52c0 41 12 47 51 47z" />
    <glyph glyph-name="Ydieresis" unicode="&#x178;" horiz-adv-x="622" 
d="M110 697c68 -85 141 -185 209 -286c73 96 144 196 202 286h121c-83 -122 -179 -255 -277 -379v-318h-102v318c-89 128 -191 265 -285 379h132zM218 855c38 0 50 -6 50 -47c0 -45 -12 -52 -50 -52c-39 0 -51 7 -51 52c0 41 12 47 51 47zM419 855c38 0 50 -6 50 -47
c0 -45 -12 -52 -50 -52c-39 0 -51 7 -51 52c0 41 12 47 51 47z" />
    <glyph glyph-name="fraction" unicode="&#x2044;" horiz-adv-x="560" 
d="M442 697h94l-416 -697h-94z" />
    <glyph glyph-name="fraction" unicode="&#x2215;" horiz-adv-x="560" 
d="M442 697h94l-416 -697h-94z" />
    <glyph glyph-name="periodcentered" unicode="&#xb7;" horiz-adv-x="281" 
d="M139 366c55 0 72 -8 72 -64c0 -60 -17 -71 -72 -71c-52 0 -69 11 -69 71c0 56 17 64 69 64z" />
    <glyph glyph-name="periodcentered" unicode="&#x2219;" horiz-adv-x="281" 
d="M139 366c55 0 72 -8 72 -64c0 -60 -17 -71 -72 -71c-52 0 -69 11 -69 71c0 56 17 64 69 64z" />
    <glyph glyph-name="Ecircumflex" unicode="&#xca;" horiz-adv-x="615" 
d="M95 697h491v-87h-390v-198h277v-86h-277v-239h390v-87h-491v697zM346 831l-75 -84h-94c41 43 81 86 122 129h97l126 -129h-98z" />
    <glyph glyph-name="Edieresis" unicode="&#xcb;" horiz-adv-x="615" 
d="M95 697h491v-87h-390v-198h277v-86h-277v-239h390v-87h-491v697zM248 855c38 0 50 -6 50 -47c0 -45 -12 -52 -50 -52c-39 0 -51 7 -51 52c0 41 12 47 51 47zM449 855c38 0 50 -6 50 -47c0 -45 -12 -52 -50 -52c-39 0 -51 7 -51 52c0 41 12 47 51 47z" />
    <glyph glyph-name="Egrave" unicode="&#xc8;" horiz-adv-x="615" 
d="M95 697h491v-87h-390v-198h277v-86h-277v-239h390v-87h-491v697zM464 747h-97l-159 129h115z" />
    <glyph glyph-name="Iacute" unicode="&#xcd;" horiz-adv-x="290" 
d="M95 697h101v-697h-101v697zM159 747h-88l132 129h114z" />
    <glyph glyph-name="Icircumflex" unicode="&#xce;" horiz-adv-x="290" 
d="M95 697h101v-697h-101v697zM143 831l-75 -84h-94c41 43 81 86 122 129h97l126 -129h-98z" />
    <glyph glyph-name="Idieresis" unicode="&#xcf;" horiz-adv-x="290" 
d="M95 697h101v-697h-101v697zM47 855c38 0 50 -6 50 -47c0 -45 -12 -52 -50 -52c-39 0 -51 7 -51 52c0 41 12 47 51 47zM248 855c38 0 50 -6 50 -47c0 -45 -12 -52 -50 -52c-39 0 -51 7 -51 52c0 41 12 47 51 47z" />
    <glyph glyph-name="Igrave" unicode="&#xcc;" horiz-adv-x="290" 
d="M95 697h101v-697h-101v697zM224 747h-97l-159 129h115z" />
    <glyph glyph-name="Oacute" unicode="&#xd3;" horiz-adv-x="764" 
d="M382 714c219 0 324 -77 324 -361c0 -287 -104 -367 -324 -367c-219 0 -324 80 -324 367c0 284 105 361 324 361zM382 77c166 0 216 48 216 274c0 234 -50 273 -216 273c-165 0 -214 -39 -214 -273c0 -226 49 -274 214 -274zM390 747h-88l132 129h114z" />
    <glyph glyph-name="Ocircumflex" unicode="&#xd4;" horiz-adv-x="764" 
d="M382 714c219 0 324 -77 324 -361c0 -287 -104 -367 -324 -367c-219 0 -324 80 -324 367c0 284 105 361 324 361zM382 77c166 0 216 48 216 274c0 234 -50 273 -216 273c-165 0 -214 -39 -214 -273c0 -226 49 -274 214 -274zM377 831l-75 -84h-94c41 43 81 86 122 129h97
l126 -129h-98z" />
    <glyph glyph-name="Ograve" unicode="&#xd2;" horiz-adv-x="764" 
d="M382 714c219 0 324 -77 324 -361c0 -287 -104 -367 -324 -367c-219 0 -324 80 -324 367c0 284 105 361 324 361zM382 77c166 0 216 48 216 274c0 234 -50 273 -216 273c-165 0 -214 -39 -214 -273c0 -226 49 -274 214 -274zM474 747h-97l-159 129h115z" />
    <glyph glyph-name="Uacute" unicode="&#xda;" horiz-adv-x="740" 
d="M555 697h102v-471c0 -197 -105 -240 -287 -240c-181 0 -287 43 -287 240v471h103v-461c0 -127 55 -158 184 -158c126 0 185 29 185 158v461zM360 747h-88l132 129h114z" />
    <glyph glyph-name="Ucircumflex" unicode="&#xdb;" horiz-adv-x="740" 
d="M555 697h102v-471c0 -197 -105 -240 -287 -240c-181 0 -287 43 -287 240v471h103v-461c0 -127 55 -158 184 -158c126 0 185 29 185 158v461zM365 831l-75 -84h-94c41 43 81 86 122 129h97l126 -129h-98z" />
    <glyph glyph-name="Ugrave" unicode="&#xd9;" horiz-adv-x="740" 
d="M555 697h102v-471c0 -197 -105 -240 -287 -240c-181 0 -287 43 -287 240v471h103v-461c0 -127 55 -158 184 -158c126 0 185 29 185 158v461zM480 747h-97l-159 129h115z" />
    <glyph glyph-name="dotlessi" unicode="&#x131;" horiz-adv-x="239" 
d="M167 507v-507h-94v507h94z" />
    <glyph glyph-name="circumflex" unicode="&#x2c6;" horiz-adv-x="670" 
d="M418 568c-25 27 -50 53 -76 81c-24 -28 -49 -54 -74 -81h-95c41 43 81 86 122 129h97l126 -129h-100z" />
    <glyph glyph-name="tilde" unicode="&#x2dc;" horiz-adv-x="722" 
d="M444 695l52 -41c-21 -56 -55 -92 -112 -92c-56 0 -91 60 -139 60c-21 0 -39 -15 -56 -56l-46 45c29 51 59 81 106 81c63 0 91 -59 138 -59c25 0 40 15 57 62z" />
    <glyph glyph-name="macron" unicode="&#xaf;" horiz-adv-x="527" 
d="M129 581v74h265v-74h-265z" />
    <glyph glyph-name="macron" unicode="&#x2c9;" horiz-adv-x="527" 
d="M129 581v74h265v-74h-265z" />
    <glyph glyph-name="breve" unicode="&#x2d8;" horiz-adv-x="531" 
d="M96 697h70c0 -52 24 -63 73 -63c47 0 73 11 73 63h66c0 -91 -48 -132 -141 -132c-91 0 -141 41 -141 132z" />
    <glyph glyph-name="dotaccent" unicode="&#x2d9;" horiz-adv-x="435" 
d="M148 669c38 0 50 -6 50 -47c0 -45 -12 -52 -50 -52s-51 7 -51 52c0 41 13 47 51 47z" />
    <glyph glyph-name="ring" unicode="&#x2da;" horiz-adv-x="721" 
d="M360 739c75 0 114 -28 114 -96c0 -67 -39 -96 -114 -96s-114 29 -114 96c0 68 31 96 114 96zM360 689c-42 0 -54 -16 -54 -47c0 -30 12 -48 54 -48c43 0 55 18 55 48c0 31 -12 47 -55 47z" />
    <glyph glyph-name="hungarumlaut" unicode="&#x2dd;" horiz-adv-x="590" 
d="M239 568h-70l88 129h92zM391 568h-70l87 129h93z" />
    <glyph glyph-name="ogonek" unicode="&#x2db;" horiz-adv-x="648" 
d="M440 12h37c-74 -45 -90 -70 -90 -110c0 -29 13 -43 65 -43c33 0 67 13 87 29l32 -56c-32 -24 -86 -35 -128 -35c-101 0 -130 30 -130 89c0 53 41 102 127 126z" />
    <glyph glyph-name="caron" unicode="&#x2c7;" horiz-adv-x="660" 
d="M173 697h99l76 -81l74 81h96l-122 -129h-97z" />
    <glyph glyph-name="Amacron" unicode="&#x100;" horiz-adv-x="675" 
d="M567 0c-23 58 -50 124 -75 194h-323c-22 -66 -43 -131 -63 -194h-105c73 220 167 476 258 697h165c75 -230 176 -508 257 -697h-114zM351 613h-28c-43 -107 -85 -219 -125 -332h264c-40 110 -78 226 -111 332zM204 762v77h265v-77h-265z" />
    <glyph glyph-name="Aogonek" unicode="&#x104;" horiz-adv-x="675" 
d="M567 0c-23 58 -50 124 -75 194h-323c-22 -66 -43 -131 -63 -194h-105c73 220 167 476 258 697h165c75 -230 176 -508 257 -697h-114zM351 613h-28c-43 -107 -85 -219 -125 -332h264c-40 110 -78 226 -111 332zM625 12h37c-74 -45 -90 -70 -90 -110c0 -29 13 -43 65 -43
c33 0 67 13 87 29l32 -56c-32 -24 -86 -35 -128 -35c-101 0 -130 30 -130 89c0 53 41 102 127 126z" />
    <glyph glyph-name="Cacute" unicode="&#x106;" horiz-adv-x="597" 
d="M58 355c0 285 104 359 323 359c63 0 144 -11 197 -26l-25 -91c-40 15 -109 24 -160 24c-164 0 -225 -32 -225 -267c0 -234 61 -274 225 -274c51 0 120 9 160 23l25 -91c-54 -16 -134 -26 -197 -26c-219 0 -323 85 -323 369zM340 747h-88l132 129h114z" />
    <glyph glyph-name="Ccaron" unicode="&#x10c;" horiz-adv-x="597" 
d="M58 355c0 285 104 359 323 359c63 0 144 -11 197 -26l-25 -91c-40 15 -109 24 -160 24c-164 0 -225 -32 -225 -267c0 -234 61 -274 225 -274c51 0 120 9 160 23l25 -91c-54 -16 -134 -26 -197 -26c-219 0 -323 85 -323 369zM285 876l78 -84l76 84h94l-122 -129h-97
l-126 129h97z" />
    <glyph glyph-name="Ccircumflex" unicode="&#x108;" horiz-adv-x="597" 
d="M58 355c0 285 104 359 323 359c63 0 144 -11 197 -26l-25 -91c-40 15 -109 24 -160 24c-164 0 -225 -32 -225 -267c0 -234 61 -274 225 -274c51 0 120 9 160 23l25 -91c-54 -16 -134 -26 -197 -26c-219 0 -323 85 -323 369zM372 831l-75 -84h-94c41 43 81 86 122 129h97
l126 -129h-98z" />
    <glyph glyph-name="Cdotaccent" unicode="&#x10a;" horiz-adv-x="597" 
d="M58 355c0 285 104 359 323 359c63 0 144 -11 197 -26l-25 -91c-40 15 -109 24 -160 24c-164 0 -225 -32 -225 -267c0 -234 61 -274 225 -274c51 0 120 9 160 23l25 -91c-54 -16 -134 -26 -197 -26c-219 0 -323 85 -323 369zM371 857c38 0 50 -6 50 -47
c0 -45 -12 -53 -50 -53c-39 0 -51 8 -51 53c0 41 12 47 51 47z" />
    <glyph glyph-name="Dcaron" unicode="&#x10e;" horiz-adv-x="720" 
d="M95 697h240c219 0 326 -76 326 -346s-106 -351 -326 -351h-240v697zM553 350c0 224 -58 260 -224 260h-133v-523h133c166 0 224 50 224 263zM257 876l78 -84l76 84h94l-122 -129h-97l-126 129h97z" />
    <glyph glyph-name="Ebreve" unicode="&#x114;" horiz-adv-x="615" 
d="M95 697h491v-87h-390v-198h277v-86h-277v-239h390v-87h-491v697zM205 871h70c0 -52 24 -63 73 -63c47 0 73 11 73 63h66c0 -91 -48 -132 -141 -132c-91 0 -141 41 -141 132z" />
    <glyph glyph-name="Ecaron" unicode="&#x11a;" horiz-adv-x="615" 
d="M95 697h491v-87h-390v-198h277v-86h-277v-239h390v-87h-491v697zM274 876l78 -84l76 84h94l-122 -129h-97l-126 129h97z" />
    <glyph glyph-name="Edotaccent" unicode="&#x116;" horiz-adv-x="615" 
d="M95 697h491v-87h-390v-198h277v-86h-277v-239h390v-87h-491v697zM363 857c38 0 50 -6 50 -47c0 -45 -12 -53 -50 -53c-39 0 -51 8 -51 53c0 41 12 47 51 47z" />
    <glyph glyph-name="Emacron" unicode="&#x112;" horiz-adv-x="615" 
d="M95 697h491v-87h-390v-198h277v-86h-277v-239h390v-87h-491v697zM208 762v77h265v-77h-265z" />
    <glyph glyph-name="Eogonek" unicode="&#x118;" horiz-adv-x="615" 
d="M95 697h491v-87h-390v-198h277v-86h-277v-239h390v-87h-491v697zM530 12h37c-74 -45 -90 -70 -90 -110c0 -29 13 -43 65 -43c33 0 67 13 87 29l32 -56c-32 -24 -86 -35 -128 -35c-101 0 -130 30 -130 89c0 53 41 102 127 126z" />
    <glyph glyph-name="Gbreve" unicode="&#x11e;" horiz-adv-x="689" 
d="M508 91v215h-167v85h270v-379c-55 -17 -159 -26 -230 -26c-219 0 -323 85 -323 369c0 285 111 359 332 359c63 0 149 -11 203 -26l-25 -90c-40 15 -121 24 -172 24c-167 0 -228 -33 -228 -268c0 -234 61 -276 225 -276c43 0 89 7 115 13zM234 871h70c0 -52 24 -63 73 -63
c47 0 73 11 73 63h66c0 -91 -48 -132 -141 -132c-91 0 -141 41 -141 132z" />
    <glyph glyph-name="Gcedilla" horiz-adv-x="689" 
d="M508 91v215h-167v85h270v-379c-55 -17 -159 -26 -230 -26c-219 0 -323 85 -323 369c0 285 111 359 332 359c63 0 149 -11 203 -26l-25 -90c-40 15 -121 24 -172 24c-167 0 -228 -33 -228 -268c0 -234 61 -276 225 -276c43 0 89 7 115 13zM355 0h42v-44
c84 0 114 -17 114 -77c0 -63 -36 -82 -131 -82c-48 0 -77 5 -102 18l20 48c19 -9 48 -14 79 -14c37 0 50 5 50 30c0 27 -25 33 -108 28z" />
    <glyph glyph-name="Gcircumflex" unicode="&#x11c;" horiz-adv-x="689" 
d="M508 91v215h-167v85h270v-379c-55 -17 -159 -26 -230 -26c-219 0 -323 85 -323 369c0 285 111 359 332 359c63 0 149 -11 203 -26l-25 -90c-40 15 -121 24 -172 24c-167 0 -228 -33 -228 -268c0 -234 61 -276 225 -276c43 0 89 7 115 13zM374 831l-75 -84h-94
c41 43 81 86 122 129h97l126 -129h-98z" />
    <glyph glyph-name="Gcommaaccent" unicode="&#x122;" horiz-adv-x="689" 
d="M508 91v215h-167v85h270v-379c-55 -17 -159 -26 -230 -26c-219 0 -323 85 -323 369c0 285 111 359 332 359c63 0 149 -11 203 -26l-25 -90c-40 15 -121 24 -172 24c-167 0 -228 -33 -228 -268c0 -234 61 -276 225 -276c43 0 89 7 115 13zM457 -51l-104 -167h-76l71 167
h109z" />
    <glyph glyph-name="Gdotaccent" unicode="&#x120;" horiz-adv-x="689" 
d="M508 91v215h-167v85h270v-379c-55 -17 -159 -26 -230 -26c-219 0 -323 85 -323 369c0 285 111 359 332 359c63 0 149 -11 203 -26l-25 -90c-40 15 -121 24 -172 24c-167 0 -228 -33 -228 -268c0 -234 61 -276 225 -276c43 0 89 7 115 13zM382 857c38 0 50 -6 50 -47
c0 -45 -12 -53 -50 -53c-39 0 -51 8 -51 53c0 41 12 47 51 47z" />
    <glyph glyph-name="Hbar" unicode="&#x126;" horiz-adv-x="725" 
d="M31 530v81h64v86h101v-86h334v86h101v-86h65v-81h-65v-530h-101v325h-334v-325h-101v530h-64zM196 418h334v112h-334v-112z" />
    <glyph glyph-name="Hcircumflex" unicode="&#x124;" horiz-adv-x="725" 
d="M196 325v-325h-101v697h101v-279h334v279h101v-697h-101v325h-334zM355 831l-75 -84h-94c41 43 81 86 122 129h97l126 -129h-98z" />
    <glyph glyph-name="IJ" unicode="&#x132;" horiz-adv-x="740" 
d="M95 697h101v-697h-101v697zM646 697l1 -505c0 -169 -100 -206 -201 -206c-51 0 -107 13 -147 29l25 92c31 -14 78 -24 115 -24c52 0 104 20 104 118v496h103z" />
    <glyph glyph-name="Idot" horiz-adv-x="290" 
d="M95 697h101v-697h-101v697zM148 857c38 0 50 -6 50 -47c0 -45 -12 -53 -50 -53c-39 0 -51 8 -51 53c0 41 12 47 51 47z" />
    <glyph glyph-name="Imacron" unicode="&#x12a;" horiz-adv-x="290" 
d="M95 697h101v-697h-101v697zM14 762v77h265v-77h-265z" />
    <glyph glyph-name="Iogonek" unicode="&#x12e;" horiz-adv-x="290" 
d="M95 697h101v-697h-101v697zM142 12h37c-74 -45 -90 -70 -90 -110c0 -29 13 -43 65 -43c33 0 67 13 87 29l32 -56c-32 -24 -86 -35 -128 -35c-101 0 -130 30 -130 89c0 53 41 102 127 126z" />
    <glyph glyph-name="Itilde" unicode="&#x128;" horiz-adv-x="290" 
d="M95 697h101v-697h-101v697zM275 873l51 -41c-20 -55 -60 -92 -115 -92s-97 61 -144 61c-20 0 -38 -15 -55 -55l-45 44c28 50 57 79 104 79c61 0 99 -57 146 -57c24 0 42 14 58 61z" />
    <glyph glyph-name="Jcircumflex" unicode="&#x134;" horiz-adv-x="451" 
d="M357 697v-505c0 -169 -99 -206 -200 -206c-51 0 -107 13 -147 29l25 92c30 -14 78 -24 115 -24c52 0 104 20 104 118v496h103zM300 831l-75 -84h-94c41 43 81 86 122 129h97l126 -129h-98z" />
    <glyph glyph-name="Kcommaaccent" unicode="&#x136;" horiz-adv-x="639" 
d="M196 697v-697h-101v697h101zM649 0h-129c-154 231 -278 352 -323 368c48 31 167 149 301 329h128c-142 -180 -252 -291 -291 -320c37 -23 161 -146 314 -377zM397 -51l-104 -167h-76l71 167h109z" />
    <glyph glyph-name="Lacute" unicode="&#x139;" horiz-adv-x="548" 
d="M95 697h101v-608h345v-89h-446v697zM184 747h-88l132 129h114z" />
    <glyph glyph-name="Lcaron" unicode="&#x13d;" horiz-adv-x="548" 
d="M95 697h101v-608h345v-89h-446v697zM296 722h92l-56 -192h-57z" />
    <glyph glyph-name="Lcommaaccent" unicode="&#x13b;" horiz-adv-x="548" 
d="M95 697h101v-608h345v-89h-446v697zM382 -51l-104 -167h-76l71 167h109z" />
    <glyph glyph-name="Nacute" unicode="&#x143;" horiz-adv-x="752" 
d="M657 697v-697h-124c-102 189 -217 384 -338 575v-575h-100v697h135c113 -172 224 -362 325 -546v546h102zM388 747h-88l132 129h114z" />
    <glyph glyph-name="Ncaron" unicode="&#x147;" horiz-adv-x="752" 
d="M657 697v-697h-124c-102 189 -217 384 -338 575v-575h-100v697h135c113 -172 224 -362 325 -546v546h102zM309 876l78 -84l76 84h94l-122 -129h-97l-126 129h97z" />
    <glyph glyph-name="Ncommaaccent" unicode="&#x145;" horiz-adv-x="752" 
d="M657 697v-697h-124c-102 189 -217 384 -338 575v-575h-100v697h135c113 -172 224 -362 325 -546v546h102zM438 -51l-104 -167h-76l71 167h109z" />
    <glyph glyph-name="Obreve" unicode="&#x14e;" horiz-adv-x="764" 
d="M382 714c219 0 324 -77 324 -361c0 -287 -104 -367 -324 -367c-219 0 -324 80 -324 367c0 284 105 361 324 361zM382 77c166 0 216 48 216 274c0 234 -50 273 -216 273c-165 0 -214 -39 -214 -273c0 -226 49 -274 214 -274zM240 871h70c0 -52 24 -63 73 -63
c47 0 73 11 73 63h66c0 -91 -48 -132 -141 -132c-91 0 -141 41 -141 132z" />
    <glyph glyph-name="Ohungarumlaut" unicode="&#x150;" horiz-adv-x="764" 
d="M382 714c219 0 324 -77 324 -361c0 -287 -104 -367 -324 -367c-219 0 -324 80 -324 367c0 284 105 361 324 361zM382 77c166 0 216 48 216 274c0 234 -50 273 -216 273c-165 0 -214 -39 -214 -273c0 -226 49 -274 214 -274zM324 747h-70l88 129h92zM476 747h-70l87 129
h93z" />
    <glyph glyph-name="Omacron" unicode="&#x14c;" horiz-adv-x="764" 
d="M382 714c219 0 324 -77 324 -361c0 -287 -104 -367 -324 -367c-219 0 -324 80 -324 367c0 284 105 361 324 361zM382 77c166 0 216 48 216 274c0 234 -50 273 -216 273c-165 0 -214 -39 -214 -273c0 -226 49 -274 214 -274zM249 762v77h265v-77h-265z" />
    <glyph glyph-name="Racute" unicode="&#x154;" horiz-adv-x="691" 
d="M196 611v-241h216c66 0 102 43 102 117c0 81 -35 124 -98 124h-220zM435 307c49 -17 125 -117 239 -307h-127c-110 193 -188 284 -237 284h-114v-284h-101v697h337c151 0 195 -93 195 -203c0 -98 -46 -185 -192 -187zM326 747h-88l132 129h114z" />
    <glyph glyph-name="Rcaron" unicode="&#x158;" horiz-adv-x="691" 
d="M196 611v-241h216c66 0 102 43 102 117c0 81 -35 124 -98 124h-220zM435 307c49 -17 125 -117 239 -307h-127c-110 193 -188 284 -237 284h-114v-284h-101v697h337c151 0 195 -93 195 -203c0 -98 -46 -185 -192 -187zM267 876l78 -84l76 84h94l-122 -129h-97l-126 129h97
z" />
    <glyph glyph-name="Rcommaaccent" unicode="&#x156;" horiz-adv-x="691" 
d="M196 611v-241h216c66 0 102 43 102 117c0 81 -35 124 -98 124h-220zM435 307c49 -17 125 -117 239 -307h-127c-110 193 -188 284 -237 284h-114v-284h-101v697h337c151 0 195 -93 195 -203c0 -98 -46 -185 -192 -187zM416 -51l-104 -167h-76l71 167h109z" />
    <glyph glyph-name="Sacute" unicode="&#x15a;" horiz-adv-x="623" 
d="M547 685l-24 -89c-36 14 -114 25 -178 25c-117 0 -180 -26 -180 -114c0 -61 33 -93 165 -104c164 -15 237 -75 237 -205c0 -156 -106 -212 -291 -212c-70 0 -153 12 -208 30l25 88c43 -14 119 -25 181 -25c117 0 185 25 185 114c0 61 -32 105 -168 117
c-161 13 -235 60 -235 188c0 157 106 216 289 216c68 0 148 -12 202 -29zM312 747h-88l132 129h114z" />
    <glyph glyph-name="Scedilla" unicode="&#x15e;" horiz-adv-x="623" 
d="M547 685l-24 -89c-36 14 -114 25 -178 25c-117 0 -180 -26 -180 -114c0 -61 33 -93 165 -104c164 -15 237 -75 237 -205c0 -156 -106 -212 -291 -212c-70 0 -153 12 -208 30l25 88c43 -14 119 -25 181 -25c117 0 185 25 185 114c0 61 -32 105 -168 117
c-161 13 -235 60 -235 188c0 157 106 216 289 216c68 0 148 -12 202 -29zM284 0h42v-44c84 0 114 -17 114 -77c0 -63 -36 -82 -131 -82c-48 0 -77 5 -102 18l20 48c19 -9 48 -14 79 -14c37 0 50 5 50 30c0 27 -25 33 -108 28z" />
    <glyph glyph-name="Scircumflex" unicode="&#x15c;" horiz-adv-x="623" 
d="M547 685l-24 -89c-36 14 -114 25 -178 25c-117 0 -180 -26 -180 -114c0 -61 33 -93 165 -104c164 -15 237 -75 237 -205c0 -156 -106 -212 -291 -212c-70 0 -153 12 -208 30l25 88c43 -14 119 -25 181 -25c117 0 185 25 185 114c0 61 -32 105 -168 117
c-161 13 -235 60 -235 188c0 157 106 216 289 216c68 0 148 -12 202 -29zM326 831l-75 -84h-94c41 43 81 86 122 129h97l126 -129h-98z" />
    <glyph glyph-name="Scommaaccent" unicode="&#x218;" horiz-adv-x="623" 
d="M547 685l-24 -89c-36 14 -114 25 -178 25c-117 0 -180 -26 -180 -114c0 -61 33 -93 165 -104c164 -15 237 -75 237 -205c0 -156 -106 -212 -291 -212c-70 0 -153 12 -208 30l25 88c43 -14 119 -25 181 -25c117 0 185 25 185 114c0 61 -32 105 -168 117
c-161 13 -235 60 -235 188c0 157 106 216 289 216c68 0 148 -12 202 -29zM384 -51l-104 -167h-76l71 167h109z" />
    <glyph glyph-name="Tbar" unicode="&#x166;" horiz-adv-x="588" 
d="M158 243v77h85v287h-239v90h580v-90h-238v-287h77v-77h-77v-243h-103v243h-85z" />
    <glyph glyph-name="Tcaron" unicode="&#x164;" horiz-adv-x="588" 
d="M346 0h-103v610h-239v87h580v-87h-238v-610zM222 876l78 -84l76 84h94l-122 -129h-97l-126 129h97z" />
    <glyph glyph-name="Tcommaaccent" unicode="&#x162;" horiz-adv-x="588" 
d="M346 0h-103v610h-239v87h580v-87h-238v-610zM373 -51l-104 -167h-76l71 167h109z" />
    <glyph glyph-name="Tcommaaccent" unicode="&#x21a;" horiz-adv-x="588" 
d="M346 0h-103v610h-239v87h580v-87h-238v-610zM373 -51l-104 -167h-76l71 167h109z" />
    <glyph glyph-name="Ubreve" unicode="&#x16c;" horiz-adv-x="740" 
d="M555 697h102v-471c0 -197 -105 -240 -287 -240c-181 0 -287 43 -287 240v471h103v-461c0 -127 55 -158 184 -158c126 0 185 29 185 158v461zM229 871h70c0 -52 24 -63 73 -63c47 0 73 11 73 63h66c0 -91 -48 -132 -141 -132c-91 0 -141 41 -141 132z" />
    <glyph glyph-name="Uhungarumlaut" unicode="&#x170;" horiz-adv-x="740" 
d="M555 697h102v-471c0 -197 -105 -240 -287 -240c-181 0 -287 43 -287 240v471h103v-461c0 -127 55 -158 184 -158c126 0 185 29 185 158v461zM316 747h-70l88 129h92zM468 747h-70l87 129h93z" />
    <glyph glyph-name="Umacron" unicode="&#x16a;" horiz-adv-x="740" 
d="M555 697h102v-471c0 -197 -105 -240 -287 -240c-181 0 -287 43 -287 240v471h103v-461c0 -127 55 -158 184 -158c126 0 185 29 185 158v461zM234 762v77h265v-77h-265z" />
    <glyph glyph-name="Uogonek" unicode="&#x172;" horiz-adv-x="740" 
d="M555 697h102v-471c0 -197 -105 -240 -287 -240c-181 0 -287 43 -287 240v471h103v-461c0 -127 55 -158 184 -158c126 0 185 29 185 158v461zM434 12h37c-74 -45 -90 -70 -90 -110c0 -29 13 -43 65 -43c33 0 67 13 87 29l32 -56c-32 -24 -86 -35 -128 -35
c-101 0 -130 30 -130 89c0 53 41 102 127 126z" />
    <glyph glyph-name="Uring" unicode="&#x16e;" horiz-adv-x="740" 
d="M555 697h102v-471c0 -197 -105 -240 -287 -240c-181 0 -287 43 -287 240v471h103v-461c0 -127 55 -158 184 -158c126 0 185 29 185 158v461zM368 882c75 0 114 -29 114 -96c0 -68 -39 -96 -114 -96s-114 28 -114 96c0 67 31 96 114 96zM368 831c-42 0 -54 -16 -54 -47
c0 -30 12 -48 54 -48c43 0 55 18 55 48c0 31 -12 47 -55 47z" />
    <glyph glyph-name="Utilde" unicode="&#x168;" horiz-adv-x="740" 
d="M555 697h102v-471c0 -197 -105 -240 -287 -240c-181 0 -287 43 -287 240v471h103v-461c0 -127 55 -158 184 -158c126 0 185 29 185 158v461zM500 873l51 -41c-20 -55 -60 -92 -115 -92s-97 61 -144 61c-20 0 -38 -15 -55 -55l-45 44c28 50 57 79 104 79
c61 0 99 -57 146 -57c24 0 42 14 58 61z" />
    <glyph glyph-name="Wcircumflex" unicode="&#x174;" horiz-adv-x="940" 
d="M478 536c-31 -156 -88 -354 -143 -536h-129c-59 228 -136 507 -204 697h112c57 -170 114 -369 163 -578c48 160 119 412 152 578h98c44 -164 111 -412 142 -578c68 207 117 383 162 578h104c-55 -221 -129 -477 -204 -697h-130c-35 184 -84 381 -123 536zM473 831
l-75 -84h-94c41 43 81 86 122 129h97l126 -129h-98z" />
    <glyph glyph-name="Ycircumflex" unicode="&#x176;" horiz-adv-x="622" 
d="M110 697c68 -85 141 -185 209 -286c73 96 144 196 202 286h121c-83 -122 -179 -255 -277 -379v-318h-102v318c-89 128 -191 265 -285 379h132zM313 831l-75 -84h-94c41 43 81 86 122 129h97l126 -129h-98z" />
    <glyph glyph-name="Zacute" unicode="&#x179;" horiz-adv-x="615" 
d="M19 0v30c137 178 302 406 420 580h-396v87h551v-28c-122 -187 -291 -424 -420 -582h407v-87h-562zM310 747h-88l132 129h114z" />
    <glyph glyph-name="Zdotaccent" unicode="&#x17b;" horiz-adv-x="615" 
d="M19 0v30c137 178 302 406 420 580h-396v87h551v-28c-122 -187 -291 -424 -420 -582h407v-87h-562zM313 857c38 0 50 -6 50 -47c0 -45 -12 -53 -50 -53c-39 0 -51 8 -51 53c0 41 12 47 51 47z" />
    <glyph glyph-name="abreve" unicode="&#x103;" horiz-adv-x="551" 
d="M480 324v-298c-60 -25 -149 -40 -217 -40c-153 0 -210 38 -210 170c0 144 84 167 200 167c48 0 87 -5 135 -15c0 106 -27 130 -138 130c-52 0 -109 -8 -150 -24l-20 82c45 12 114 25 185 25c149 0 215 -44 215 -197zM388 83v155c-32 8 -75 11 -118 11
c-86 0 -115 -9 -115 -88c0 -85 23 -98 114 -98c42 0 85 8 119 20zM131 697h70c0 -52 24 -63 73 -63c47 0 73 11 73 63h66c0 -91 -48 -132 -141 -132c-91 0 -141 41 -141 132z" />
    <glyph glyph-name="Acute" unicode="&#xf6c9;" horiz-adv-x="378" 
d="M184 747h-88l132 129h114z" />
    <glyph glyph-name="amacron" unicode="&#x101;" horiz-adv-x="551" 
d="M480 324v-298c-60 -25 -149 -40 -217 -40c-153 0 -210 38 -210 170c0 144 84 167 200 167c48 0 87 -5 135 -15c0 106 -27 130 -138 130c-52 0 -109 -8 -150 -24l-20 82c45 12 114 25 185 25c149 0 215 -44 215 -197zM388 83v155c-32 8 -75 11 -118 11
c-86 0 -115 -9 -115 -88c0 -85 23 -98 114 -98c42 0 85 8 119 20zM140 581v74h265v-74h-265z" />
    <glyph glyph-name="aogonek" unicode="&#x105;" horiz-adv-x="551" 
d="M480 324v-298c-60 -25 -149 -40 -217 -40c-153 0 -210 38 -210 170c0 144 84 167 200 167c48 0 87 -5 135 -15c0 106 -27 130 -138 130c-52 0 -109 -8 -150 -24l-20 82c45 12 114 25 185 25c149 0 215 -44 215 -197zM388 83v155c-32 8 -75 11 -118 11
c-86 0 -115 -9 -115 -88c0 -85 23 -98 114 -98c42 0 85 8 119 20zM403 12h37c-74 -45 -90 -70 -90 -110c0 -29 13 -43 65 -43c33 0 67 13 87 29l32 -56c-32 -24 -86 -35 -128 -35c-101 0 -130 30 -130 89c0 53 41 102 127 126z" />
    <glyph glyph-name="Breve" horiz-adv-x="330" 
d="M119 871h70c0 -52 24 -63 73 -63c47 0 73 11 73 63h66c0 -91 -48 -132 -141 -132c-91 0 -141 41 -141 132z" />
    <glyph glyph-name="cacute" unicode="&#x107;" horiz-adv-x="468" 
d="M430 96l25 -83c-39 -17 -104 -27 -150 -27c-156 0 -248 62 -248 270c0 207 93 265 248 265c46 0 112 -10 150 -24l-25 -84c-34 15 -79 23 -121 23c-103 0 -152 -25 -152 -182c0 -149 49 -183 152 -183c44 0 87 11 121 25zM288 568h-90l121 129h107z" />
    <glyph glyph-name="Caron" unicode="&#xf6ca;" horiz-adv-x="660" 
d="M274 876l78 -84l76 84h94l-122 -129h-97l-126 129h97z" />
    <glyph glyph-name="ccaron" unicode="&#x10d;" horiz-adv-x="468" 
d="M430 96l25 -83c-39 -17 -104 -27 -150 -27c-156 0 -248 62 -248 270c0 207 93 265 248 265c46 0 112 -10 150 -24l-25 -84c-34 15 -79 23 -121 23c-103 0 -152 -25 -152 -182c0 -149 49 -183 152 -183c44 0 87 11 121 25zM120 697h99l76 -81l74 81h96l-122 -129h-97z" />
    <glyph glyph-name="ccircumflex" unicode="&#x109;" horiz-adv-x="468" 
d="M430 96l25 -83c-39 -17 -104 -27 -150 -27c-156 0 -248 62 -248 270c0 207 93 265 248 265c46 0 112 -10 150 -24l-25 -84c-34 15 -79 23 -121 23c-103 0 -152 -25 -152 -182c0 -149 49 -183 152 -183c44 0 87 11 121 25zM364 568c-25 27 -50 53 -76 81
c-24 -28 -49 -54 -74 -81h-95c41 43 81 86 122 129h97l126 -129h-100z" />
    <glyph glyph-name="cdotaccent" unicode="&#x10b;" horiz-adv-x="468" 
d="M430 96l25 -83c-39 -17 -104 -27 -150 -27c-156 0 -248 62 -248 270c0 207 93 265 248 265c46 0 112 -10 150 -24l-25 -84c-34 15 -79 23 -121 23c-103 0 -152 -25 -152 -182c0 -149 49 -183 152 -183c44 0 87 11 121 25zM297 669c38 0 50 -6 50 -47
c0 -45 -12 -52 -50 -52s-51 7 -51 52c0 41 13 47 51 47z" />
    <glyph glyph-name="cedilla" unicode="&#xb8;" horiz-adv-x="648" 
d="M329 0h42v-44c84 0 114 -17 114 -77c0 -63 -36 -82 -131 -82c-48 0 -77 5 -102 18l20 48c19 -9 48 -14 79 -14c37 0 50 5 50 30c0 27 -25 33 -108 28z" />
    <glyph glyph-name="Circumflex" horiz-adv-x="670" 
d="M346 831l-75 -84h-94c41 43 81 86 122 129h97l126 -129h-98z" />
    <glyph glyph-name="commaaccent" unicode="&#xf6c3;" horiz-adv-x="274" 
d="M241 -51l-104 -167h-76l71 167h109z" />
    <glyph glyph-name="dcaron" unicode="&#x10f;" horiz-adv-x="580" 
d="M413 88v290c0 38 -55 60 -120 60c-102 0 -136 -38 -136 -183c0 -156 34 -185 137 -185c41 0 86 6 119 18zM507 722v-697c-55 -24 -146 -39 -213 -39c-162 0 -237 59 -237 267c0 206 78 268 225 268c65 0 104 -17 131 -34v235h94zM561 722h92l-56 -192h-57z" />
    <glyph glyph-name="Dieresis" unicode="&#xf6cb;" horiz-adv-x="383" 
d="M147 855c38 0 50 -6 50 -47c0 -45 -12 -52 -50 -52c-39 0 -51 7 -51 52c0 41 12 47 51 47zM348 855c38 0 50 -6 50 -47c0 -45 -12 -52 -50 -52c-39 0 -51 7 -51 52c0 41 12 47 51 47z" />
    <glyph glyph-name="Dotaccent" horiz-adv-x="319" 
d="M151 857c38 0 50 -6 50 -47c0 -45 -12 -53 -50 -53c-39 0 -51 8 -51 53c0 41 12 47 51 47z" />
    <glyph glyph-name="ebreve" unicode="&#x115;" horiz-adv-x="549" 
d="M453 93l18 -79c-52 -16 -125 -28 -173 -28c-150 0 -241 62 -241 270c0 201 83 265 232 265c152 0 219 -56 214 -287h-345c1 -136 48 -165 151 -165c36 0 103 10 144 24zM293 442c-92 0 -126 -30 -134 -131h250c-5 108 -34 131 -116 131zM146 697h70c0 -52 24 -63 73 -63
c47 0 73 11 73 63h66c0 -91 -48 -132 -141 -132c-91 0 -141 41 -141 132z" />
    <glyph glyph-name="ecaron" unicode="&#x11b;" horiz-adv-x="549" 
d="M453 93l18 -79c-52 -16 -125 -28 -173 -28c-150 0 -241 62 -241 270c0 201 83 265 232 265c152 0 219 -56 214 -287h-345c1 -136 48 -165 151 -165c36 0 103 10 144 24zM293 442c-92 0 -126 -30 -134 -131h250c-5 108 -34 131 -116 131zM116 697h99l76 -81l74 81h96
l-122 -129h-97z" />
    <glyph glyph-name="edotaccent" unicode="&#x117;" horiz-adv-x="549" 
d="M453 93l18 -79c-52 -16 -125 -28 -173 -28c-150 0 -241 62 -241 270c0 201 83 265 232 265c152 0 219 -56 214 -287h-345c1 -136 48 -165 151 -165c36 0 103 10 144 24zM293 442c-92 0 -126 -30 -134 -131h250c-5 108 -34 131 -116 131zM288 669c38 0 50 -6 50 -47
c0 -45 -12 -52 -50 -52s-51 7 -51 52c0 41 13 47 51 47z" />
    <glyph glyph-name="emacron" unicode="&#x113;" horiz-adv-x="549" 
d="M453 93l18 -79c-52 -16 -125 -28 -173 -28c-150 0 -241 62 -241 270c0 201 83 265 232 265c152 0 219 -56 214 -287h-345c1 -136 48 -165 151 -165c36 0 103 10 144 24zM293 442c-92 0 -126 -30 -134 -131h250c-5 108 -34 131 -116 131zM159 581v74h265v-74h-265z" />
    <glyph glyph-name="eogonek" unicode="&#x119;" horiz-adv-x="549" 
d="M453 93l18 -79c-52 -16 -125 -28 -173 -28c-150 0 -241 62 -241 270c0 201 83 265 232 265c152 0 219 -56 214 -287h-345c1 -136 48 -165 151 -165c36 0 103 10 144 24zM293 442c-92 0 -126 -30 -134 -131h250c-5 108 -34 131 -116 131zM408 12h37
c-74 -45 -90 -70 -90 -110c0 -29 13 -43 65 -43c33 0 67 13 87 29l32 -56c-32 -24 -86 -35 -128 -35c-101 0 -130 30 -130 89c0 53 41 102 127 126z" />
    <glyph glyph-name="franc" unicode="&#x20a3;" horiz-adv-x="564" 
d="M50 138v72h45v487h482v-87h-381v-233h235v-85h-235v-82h94v-72h-94v-138h-101v138h-45z" />
    <glyph glyph-name="gacute" horiz-adv-x="580" 
d="M413 131v290c-34 12 -79 18 -119 18c-103 0 -137 -27 -137 -185c0 -146 33 -183 136 -183c65 0 120 22 120 60zM413 25c-27 -19 -70 -38 -134 -38c-149 0 -222 60 -222 267s75 267 237 267c67 0 158 -15 213 -38v-445c0 -193 -102 -241 -261 -241c-50 0 -130 13 -171 29
l22 81c41 -16 106 -27 148 -27c107 0 168 30 168 145zM295 568h-90l121 129h107z" />
    <glyph glyph-name="gbreve" unicode="&#x11f;" horiz-adv-x="580" 
d="M413 131v290c-34 12 -79 18 -119 18c-103 0 -137 -27 -137 -185c0 -146 33 -183 136 -183c65 0 120 22 120 60zM413 25c-27 -19 -70 -38 -134 -38c-149 0 -222 60 -222 267s75 267 237 267c67 0 158 -15 213 -38v-445c0 -193 -102 -241 -261 -241c-50 0 -130 13 -171 29
l22 81c41 -16 106 -27 148 -27c107 0 168 30 168 145zM157 697h70c0 -52 24 -63 73 -63c47 0 73 11 73 63h66c0 -91 -48 -132 -141 -132c-91 0 -141 41 -141 132z" />
    <glyph glyph-name="gcircumflex" unicode="&#x11d;" horiz-adv-x="580" 
d="M413 131v290c-34 12 -79 18 -119 18c-103 0 -137 -27 -137 -185c0 -146 33 -183 136 -183c65 0 120 22 120 60zM413 25c-27 -19 -70 -38 -134 -38c-149 0 -222 60 -222 267s75 267 237 267c67 0 158 -15 213 -38v-445c0 -193 -102 -241 -261 -241c-50 0 -130 13 -171 29
l22 81c41 -16 106 -27 148 -27c107 0 168 30 168 145zM373 568c-25 27 -50 53 -76 81c-24 -28 -49 -54 -74 -81h-95c41 43 81 86 122 129h97l126 -129h-100z" />
    <glyph glyph-name="gcommaaccent" unicode="&#x123;" horiz-adv-x="580" 
d="M413 131v290c-34 12 -79 18 -119 18c-103 0 -137 -27 -137 -185c0 -146 33 -183 136 -183c65 0 120 22 120 60zM413 25c-27 -19 -70 -38 -134 -38c-149 0 -222 60 -222 267s75 267 237 267c67 0 158 -15 213 -38v-445c0 -193 -102 -241 -261 -241c-50 0 -130 13 -171 29
l22 81c41 -16 106 -27 148 -27c107 0 168 30 168 145zM408 747l-104 -167h-76l71 167h109z" />
    <glyph glyph-name="gdotaccent" unicode="&#x121;" horiz-adv-x="580" 
d="M413 131v290c-34 12 -79 18 -119 18c-103 0 -137 -27 -137 -185c0 -146 33 -183 136 -183c65 0 120 22 120 60zM413 25c-27 -19 -70 -38 -134 -38c-149 0 -222 60 -222 267s75 267 237 267c67 0 158 -15 213 -38v-445c0 -193 -102 -241 -261 -241c-50 0 -130 13 -171 29
l22 81c41 -16 106 -27 148 -27c107 0 168 30 168 145zM293 669c38 0 50 -6 50 -47c0 -45 -12 -52 -50 -52s-51 7 -51 52c0 41 13 47 51 47z" />
    <glyph glyph-name="Grave" unicode="&#xf6ce;" horiz-adv-x="378" 
d="M409 747h-97l-159 129h115z" />
    <glyph glyph-name="hbar" unicode="&#x127;" horiz-adv-x="568" 
d="M15 588v69h58v65h94v-65h112v-69h-112v-105c29 19 85 38 144 38c128 0 187 -45 187 -232v-289h-94v277c0 132 -34 158 -118 158c-61 0 -119 -21 -119 -58v-377h-94v588h-58z" />
    <glyph glyph-name="hcircumflex" unicode="&#x125;" horiz-adv-x="568" 
d="M310 521c128 0 188 -45 188 -232v-289h-95v277c0 100 -16 157 -117 157c-62 0 -119 -20 -119 -58v-376h-95v722h95v-239c29 19 85 38 143 38zM185 831l-75 -84h-94c41 43 81 86 122 129h97l126 -129h-98z" />
    <glyph glyph-name="Hungarumlaut" unicode="&#xf6cf;" horiz-adv-x="625" 
d="M239 747h-70l88 129h92zM391 747h-70l87 129h93z" />
    <glyph glyph-name="ij" unicode="&#x133;" horiz-adv-x="478" 
d="M167 507v-507h-94v507h94zM121 709c42 0 56 -6 56 -50c0 -48 -14 -56 -56 -56c-43 0 -57 8 -57 56c0 44 14 50 57 50zM358 709c42 0 56 -6 56 -50c0 -48 -14 -56 -56 -56c-44 0 -57 8 -57 56c0 44 13 50 57 50zM404 507v-526c0 -150 -71 -184 -187 -184v81
c61 0 92 17 92 101v528h95z" />
    <glyph glyph-name="imacron" unicode="&#x12b;" horiz-adv-x="239" 
d="M167 507v-507h-94v507h94zM-12 581v74h265v-74h-265z" />
    <glyph glyph-name="iogonek" unicode="&#x12f;" horiz-adv-x="239" 
d="M167 507v-507h-94v507h94zM121 709c42 0 56 -6 56 -50c0 -48 -14 -56 -56 -56c-43 0 -57 8 -57 56c0 44 14 50 57 50zM123 12h37c-74 -45 -90 -70 -90 -110c0 -29 13 -43 65 -43c33 0 67 13 87 29l32 -56c-32 -24 -86 -35 -128 -35c-101 0 -130 30 -130 89
c0 53 41 102 127 126z" />
    <glyph glyph-name="itilde" unicode="&#x129;" horiz-adv-x="239" 
d="M167 507v-507h-94v507h94zM245 695l52 -41c-21 -56 -55 -92 -112 -92c-56 0 -91 60 -139 60c-21 0 -39 -15 -56 -56l-46 45c29 51 59 81 106 81c63 0 91 -59 138 -59c25 0 40 15 57 62z" />
    <glyph glyph-name="jcircumflex" unicode="&#x135;" horiz-adv-x="239" 
d="M295 568h-100l-76 81l-74 -81h-95l122 129h97zM-20 -203v82c61 0 92 17 92 101v527h95v-526c0 -149 -71 -184 -187 -184z" />
    <glyph glyph-name="kcommaaccent" unicode="&#x137;" horiz-adv-x="515" 
d="M167 722v-722h-94v722h94zM516 0h-115c-124 165 -203 256 -234 268c31 23 108 106 217 239h115c-107 -131 -183 -209 -212 -230c28 -16 108 -108 229 -277zM338 -51l-104 -167h-76l71 167h109z" />
    <glyph glyph-name="lacute" unicode="&#x13a;" horiz-adv-x="245" 
d="M167 722v-586c0 -49 11 -77 44 -114l-80 -44c-39 40 -58 80 -58 154v590h94zM145 747h-88l132 129h114z" />
    <glyph glyph-name="lcaron" unicode="&#x13e;" horiz-adv-x="245" 
d="M167 722v-586c0 -49 11 -77 44 -114l-80 -44c-39 40 -58 80 -58 154v590h94zM225 722h92l-56 -192h-57z" />
    <glyph glyph-name="lcommaaccent" unicode="&#x13c;" horiz-adv-x="245" 
d="M167 722v-586c0 -49 11 -77 44 -114l-80 -44c-39 40 -58 80 -58 154v590h94zM218 -51l-104 -167h-76l71 167h109z" />
    <glyph glyph-name="ldotaccent" horiz-adv-x="245" 
d="M167 722v-586c0 -49 11 -77 44 -114l-80 -44c-39 40 -58 80 -58 154v590h94zM262 432c38 0 50 -6 50 -47c0 -45 -12 -52 -50 -52s-51 7 -51 52c0 41 13 47 51 47z" />
    <glyph glyph-name="Macron" unicode="&#xf6d0;" horiz-adv-x="333" 
d="M129 762v77h265v-77h-265z" />
    <glyph glyph-name="nacute" unicode="&#x144;" horiz-adv-x="568" 
d="M167 420v-420h-94v479c58 25 151 42 222 42c145 0 203 -53 203 -237v-284h-94v272c0 133 -27 162 -128 162c-41 0 -74 -4 -109 -14zM268 568h-90l121 129h107z" />
    <glyph glyph-name="ncaron" unicode="&#x148;" horiz-adv-x="568" 
d="M167 420v-420h-94v479c58 25 151 42 222 42c145 0 203 -53 203 -237v-284h-94v272c0 133 -27 162 -128 162c-41 0 -74 -4 -109 -14zM109 697h99l76 -81l74 81h96l-122 -129h-97z" />
    <glyph glyph-name="ncommaaccent" unicode="&#x146;" horiz-adv-x="568" 
d="M167 420v-420h-94v479c58 25 151 42 222 42c145 0 203 -53 203 -237v-284h-94v272c0 133 -27 162 -128 162c-41 0 -74 -4 -109 -14zM345 -51l-104 -167h-76l71 167h109z" />
    <glyph glyph-name="obreve" unicode="&#x14f;" 
d="M293 -14c-160 0 -236 62 -236 270c0 207 77 265 236 265c160 0 236 -58 236 -265c0 -208 -75 -270 -236 -270zM293 441c-103 0 -136 -28 -136 -187c0 -152 33 -188 136 -188s136 36 136 188c0 159 -33 187 -136 187zM151 697h70c0 -52 24 -63 73 -63c47 0 73 11 73 63h66
c0 -91 -48 -132 -141 -132c-91 0 -141 41 -141 132z" />
    <glyph glyph-name="ohungarumlaut" unicode="&#x151;" 
d="M293 -14c-160 0 -236 62 -236 270c0 207 77 265 236 265c160 0 236 -58 236 -265c0 -208 -75 -270 -236 -270zM293 441c-103 0 -136 -28 -136 -187c0 -152 33 -188 136 -188s136 36 136 188c0 159 -33 187 -136 187zM230 568h-70l88 129h92zM382 568h-70l87 129h93z" />
    <glyph glyph-name="omacron" unicode="&#x14d;" 
d="M293 -14c-160 0 -236 62 -236 270c0 207 77 265 236 265c160 0 236 -58 236 -265c0 -208 -75 -270 -236 -270zM293 441c-103 0 -136 -28 -136 -187c0 -152 33 -188 136 -188s136 36 136 188c0 159 -33 187 -136 187zM159 581v74h265v-74h-265z" />
    <glyph glyph-name="racute" unicode="&#x155;" horiz-adv-x="361" 
d="M73 0v507h94v-37c19 26 64 51 136 51c17 0 35 -1 52 -3v-92c-17 3 -38 5 -59 5c-68 0 -129 -20 -129 -62v-369h-94zM232 568h-90l121 129h107z" />
    <glyph glyph-name="rcaron" unicode="&#x159;" horiz-adv-x="361" 
d="M73 0v507h94v-37c19 26 64 51 136 51c17 0 35 -1 52 -3v-92c-17 3 -38 5 -59 5c-68 0 -129 -20 -129 -62v-369h-94zM48 697h99l76 -81l74 81h96l-122 -129h-97z" />
    <glyph glyph-name="rcommaaccent" unicode="&#x157;" horiz-adv-x="361" 
d="M73 0v507h94v-37c19 26 64 51 136 51c17 0 35 -1 52 -3v-92c-17 3 -38 5 -59 5c-68 0 -129 -20 -129 -62v-369h-94zM196 -51l-104 -167h-76l71 167h109z" />
    <glyph glyph-name="Ring" horiz-adv-x="721" 
d="M360 882c75 0 114 -29 114 -96c0 -68 -39 -96 -114 -96s-114 28 -114 96c0 67 31 96 114 96zM360 831c-42 0 -54 -16 -54 -47c0 -30 12 -48 54 -48c43 0 55 18 55 48c0 31 -12 47 -55 47z" />
    <glyph glyph-name="sacute" unicode="&#x15b;" horiz-adv-x="497" 
d="M430 495l-24 -80c-41 15 -97 26 -147 26c-73 0 -110 -9 -110 -75c0 -42 28 -59 115 -67c127 -11 182 -51 182 -148c0 -127 -74 -165 -206 -165c-52 0 -133 10 -182 27l23 80c36 -15 105 -27 157 -27c74 0 112 11 112 78c0 45 -24 66 -117 74c-117 10 -181 41 -181 140
c0 126 79 163 209 163c51 0 115 -10 169 -26zM248 568h-90l121 129h107z" />
    <glyph glyph-name="scedilla" unicode="&#x15f;" horiz-adv-x="497" 
d="M430 495l-24 -80c-41 15 -97 26 -147 26c-73 0 -110 -9 -110 -75c0 -42 28 -59 115 -67c127 -11 182 -51 182 -148c0 -127 -74 -165 -206 -165c-52 0 -133 10 -182 27l23 80c36 -15 105 -27 157 -27c74 0 112 11 112 78c0 45 -24 66 -117 74c-117 10 -181 41 -181 140
c0 126 79 163 209 163c51 0 115 -10 169 -26zM215 0h42v-44c84 0 114 -17 114 -77c0 -63 -36 -82 -131 -82c-48 0 -77 5 -102 18l20 48c19 -9 48 -14 79 -14c37 0 50 5 50 30c0 27 -25 33 -108 28z" />
    <glyph glyph-name="scircumflex" unicode="&#x15d;" horiz-adv-x="497" 
d="M430 495l-24 -80c-41 15 -97 26 -147 26c-73 0 -110 -9 -110 -75c0 -42 28 -59 115 -67c127 -11 182 -51 182 -148c0 -127 -74 -165 -206 -165c-52 0 -133 10 -182 27l23 80c36 -15 105 -27 157 -27c74 0 112 11 112 78c0 45 -24 66 -117 74c-117 10 -181 41 -181 140
c0 126 79 163 209 163c51 0 115 -10 169 -26zM331 568c-25 27 -50 53 -76 81c-24 -28 -49 -54 -74 -81h-95c41 43 81 86 122 129h97l126 -129h-100z" />
    <glyph glyph-name="scommaaccent" unicode="&#x219;" horiz-adv-x="497" 
d="M430 495l-24 -80c-41 15 -97 26 -147 26c-73 0 -110 -9 -110 -75c0 -42 28 -59 115 -67c127 -11 182 -51 182 -148c0 -127 -74 -165 -206 -165c-52 0 -133 10 -182 27l23 80c36 -15 105 -27 157 -27c74 0 112 11 112 78c0 45 -24 66 -117 74c-117 10 -181 41 -181 140
c0 126 79 163 209 163c51 0 115 -10 169 -26zM318 -51l-104 -167h-76l71 167h109z" />
    <glyph glyph-name="tbar" unicode="&#x167;" horiz-adv-x="404" 
d="M36 223v72h62v129h-87v83h87v96l95 39v-135h178v-83h-178v-129h108v-72h-108v-47c0 -74 21 -105 86 -105c35 0 65 5 91 14l18 -78c-32 -12 -82 -21 -124 -21c-115 0 -166 34 -166 184v53h-62z" />
    <glyph glyph-name="tcaron" unicode="&#x165;" horiz-adv-x="404" 
d="M371 423h-178v-247c0 -74 20 -105 86 -105c34 0 65 5 91 14l18 -78c-32 -12 -83 -21 -125 -21c-114 0 -165 34 -165 184v253h-87v84h87v96l95 39v-135h178v-84zM289 768h92l-56 -192h-57z" />
    <glyph glyph-name="tcommaaccent" unicode="&#x163;" horiz-adv-x="404" 
d="M371 423h-178v-247c0 -74 20 -105 86 -105c34 0 65 5 91 14l18 -78c-32 -12 -83 -21 -125 -21c-114 0 -165 34 -165 184v253h-87v84h87v96l95 39v-135h178v-84zM280 -51l-104 -167h-76l71 167h109z" />
    <glyph glyph-name="tcommaaccent" unicode="&#x21b;" horiz-adv-x="404" 
d="M371 423h-178v-247c0 -74 20 -105 86 -105c34 0 65 5 91 14l18 -78c-32 -12 -83 -21 -125 -21c-114 0 -165 34 -165 184v253h-87v84h87v96l95 39v-135h178v-84zM280 -51l-104 -167h-76l71 167h109z" />
    <glyph glyph-name="Tilde" horiz-adv-x="715" 
d="M528 873l51 -41c-20 -55 -60 -92 -115 -92s-97 61 -144 61c-20 0 -38 -15 -55 -55l-45 44c28 50 57 79 104 79c61 0 99 -57 146 -57c24 0 42 14 58 61z" />
    <glyph glyph-name="ubreve" unicode="&#x16d;" horiz-adv-x="568" 
d="M402 88v419h94v-479c-59 -25 -152 -42 -222 -42c-145 0 -203 54 -203 237v284h94v-272c0 -133 27 -162 127 -162c41 0 75 4 110 15zM142 697h70c0 -52 24 -63 73 -63c47 0 73 11 73 63h66c0 -91 -48 -132 -141 -132c-91 0 -141 41 -141 132z" />
    <glyph glyph-name="uhungarumlaut" unicode="&#x171;" horiz-adv-x="568" 
d="M402 88v419h94v-479c-59 -25 -152 -42 -222 -42c-145 0 -203 54 -203 237v284h94v-272c0 -133 27 -162 127 -162c41 0 75 4 110 15zM222 568h-70l88 129h92zM374 568h-70l87 129h93z" />
    <glyph glyph-name="umacron" unicode="&#x16b;" horiz-adv-x="568" 
d="M402 88v419h94v-479c-59 -25 -152 -42 -222 -42c-145 0 -203 54 -203 237v284h94v-272c0 -133 27 -162 127 -162c41 0 75 4 110 15zM149 581v74h265v-74h-265z" />
    <glyph glyph-name="uogonek" unicode="&#x173;" horiz-adv-x="568" 
d="M402 88v419h94v-479c-59 -25 -152 -42 -222 -42c-145 0 -203 54 -203 237v284h94v-272c0 -133 27 -162 127 -162c41 0 75 4 110 15zM406 12h37c-74 -45 -90 -70 -90 -110c0 -29 13 -43 65 -43c33 0 67 13 87 29l32 -56c-32 -24 -86 -35 -128 -35c-101 0 -130 30 -130 89
c0 53 41 102 127 126z" />
    <glyph glyph-name="uring" unicode="&#x16f;" horiz-adv-x="568" 
d="M402 88v419h94v-479c-59 -25 -152 -42 -222 -42c-145 0 -203 54 -203 237v284h94v-272c0 -133 27 -162 127 -162c41 0 75 4 110 15zM289 739c75 0 114 -28 114 -96c0 -67 -39 -96 -114 -96s-114 29 -114 96c0 68 31 96 114 96zM289 689c-42 0 -54 -16 -54 -47
c0 -30 12 -48 54 -48c43 0 55 18 55 48c0 31 -12 47 -55 47z" />
    <glyph glyph-name="utilde" unicode="&#x169;" horiz-adv-x="568" 
d="M402 88v419h94v-479c-59 -25 -152 -42 -222 -42c-145 0 -203 54 -203 237v284h94v-272c0 -133 27 -162 127 -162c41 0 75 4 110 15zM411 695l52 -41c-21 -56 -55 -92 -112 -92c-56 0 -91 60 -139 60c-21 0 -39 -15 -56 -56l-46 45c29 51 59 81 106 81
c63 0 91 -59 138 -59c25 0 40 15 57 62z" />
    <glyph glyph-name="wcircumflex" unicode="&#x175;" horiz-adv-x="821" 
d="M413 386c-29 -122 -76 -278 -114 -386h-123c-47 173 -104 355 -163 507h103c45 -117 92 -272 127 -412c39 112 99 317 120 412h102c37 -109 84 -291 112 -412c50 137 97 275 129 412h100c-46 -167 -106 -346 -173 -507h-123c-25 121 -69 299 -97 386zM486 568
c-25 27 -50 53 -76 81c-24 -28 -49 -54 -74 -81h-95c41 43 81 86 122 129h97l126 -129h-100z" />
    <glyph glyph-name="ycircumflex" unicode="&#x177;" horiz-adv-x="510" 
d="M195 -24c-50 180 -118 386 -183 531h101c50 -117 102 -276 141 -417c55 137 107 281 143 417h98c-51 -172 -118 -347 -190 -517c-25 -60 -58 -131 -85 -182h-107c26 48 57 113 82 168zM329 568c-25 27 -50 53 -76 81c-24 -28 -49 -54 -74 -81h-95c41 43 81 86 122 129h97
l126 -129h-100z" />
    <glyph glyph-name="zacute" unicode="&#x17a;" horiz-adv-x="496" 
d="M44 507h420v-25c-81 -126 -216 -315 -286 -398h282v-84h-433v26c108 134 233 306 290 397h-273v84zM277 568h-90l121 129h107z" />
    <glyph glyph-name="zdotaccent" unicode="&#x17c;" horiz-adv-x="496" 
d="M44 507h420v-25c-81 -126 -216 -315 -286 -398h282v-84h-433v26c108 134 233 306 290 397h-273v84zM253 669c38 0 50 -6 50 -47c0 -45 -12 -52 -50 -52s-51 7 -51 52c0 41 13 47 51 47z" />
    <glyph glyph-name="r" unicode="r" horiz-adv-x="361" 
d="M73 0v507h94v-37c19 26 64 51 136 51c17 0 35 -1 52 -3v-92c-17 3 -38 5 -59 5c-68 0 -129 -20 -129 -62v-369h-94z" />
    <glyph glyph-name="m" unicode="m" horiz-adv-x="870" 
d="M167 420v-420h-94v479c58 25 144 42 215 42c60 0 103 -10 133 -34c56 20 126 34 183 34c145 0 196 -53 196 -237v-284h-94v272c0 133 -27 162 -121 162c-29 0 -78 -4 -119 -17c11 -33 18 -77 18 -133v-284h-95v272c0 133 -25 162 -119 162c-34 0 -73 -5 -103 -14z" />
    <glyph glyph-name="o" unicode="o" 
d="M293 -14c-160 0 -236 62 -236 270c0 207 77 265 236 265c160 0 236 -58 236 -265c0 -208 -75 -270 -236 -270zM293 441c-103 0 -136 -28 -136 -187c0 -152 33 -188 136 -188s136 36 136 188c0 159 -33 187 -136 187z" />
    <glyph glyph-name="t" unicode="t" horiz-adv-x="404" 
d="M371 423h-178v-247c0 -74 20 -105 86 -105c34 0 65 5 91 14l18 -78c-32 -12 -83 -21 -125 -21c-114 0 -165 34 -165 184v253h-87v84h87v96l95 39v-135h178v-84z" />
    <glyph glyph-name="w" unicode="w" horiz-adv-x="821" 
d="M413 386c-29 -122 -76 -278 -114 -386h-123c-47 173 -104 355 -163 507h103c45 -117 92 -272 127 -412c39 112 99 317 120 412h102c37 -109 84 -291 112 -412c50 137 97 275 129 412h100c-46 -167 -106 -346 -173 -507h-123c-25 121 -69 299 -97 386z" />
    <glyph glyph-name="y" unicode="y" horiz-adv-x="510" 
d="M195 -24c-50 180 -118 386 -183 531h101c50 -117 102 -276 141 -417c55 137 107 281 143 417h98c-51 -172 -118 -347 -190 -517c-25 -60 -58 -131 -85 -182h-107c26 48 57 113 82 168z" />
    <glyph glyph-name="Ldot" unicode="&#x13f;" horiz-adv-x="548" 
d="M95 697h101v-608h345v-89h-446v697zM334 442c38 0 50 -6 50 -47c0 -45 -12 -53 -50 -53s-51 8 -51 53c0 41 13 47 51 47z" />
    <glyph glyph-name="ldot" unicode="&#x140;" horiz-adv-x="245" 
d="M167 722v-586c0 -49 11 -77 44 -114l-80 -44c-39 40 -58 80 -58 154v590h94zM252 447c38 0 50 -6 50 -47c0 -45 -12 -52 -50 -52s-51 7 -51 52c0 41 13 47 51 47z" />
    <glyph glyph-name="ibreve" unicode="&#x12d;" horiz-adv-x="239" 
d="M167 507v-507h-94v507h94zM-20 697h70c0 -52 24 -63 73 -63c47 0 73 11 73 63h66c0 -91 -48 -132 -141 -132c-91 0 -141 41 -141 132z" />
    <glyph glyph-name="Idotaccent" unicode="&#x130;" horiz-adv-x="290" 
d="M95 697h101v-697h-101v697zM147 857c38 0 50 -6 50 -47c0 -45 -12 -53 -50 -53c-39 0 -51 8 -51 53c0 41 12 47 51 47z" />
    <glyph glyph-name="Ibreve" unicode="&#x12c;" horiz-adv-x="290" 
d="M95 697h101v-697h-101v697zM7 871h70c0 -52 24 -63 73 -63c47 0 73 11 73 63h66c0 -91 -48 -132 -141 -132c-91 0 -141 41 -141 132z" />
    <glyph glyph-name="Dmacron" horiz-adv-x="720" 
d="M95 697h240c219 0 326 -76 326 -346s-106 -351 -326 -351h-240v697zM553 350c0 224 -58 260 -224 260h-133v-523h133c166 0 224 50 224 263zM208 762v77h265v-77h-265z" />
    <glyph glyph-name="Atilde" unicode="&#xc3;" horiz-adv-x="675" 
d="M567 0c-23 58 -50 124 -75 194h-323c-22 -66 -43 -131 -63 -194h-105c73 220 167 476 258 697h165c75 -230 176 -508 257 -697h-114zM351 613h-28c-43 -107 -85 -219 -125 -332h264c-40 110 -78 226 -111 332zM466 873l51 -41c-20 -55 -60 -92 -115 -92s-97 61 -144 61
c-20 0 -38 -15 -55 -55l-45 44c28 50 57 79 104 79c61 0 99 -57 146 -57c24 0 42 14 58 61z" />
    <glyph glyph-name="Aring" unicode="&#xc5;" horiz-adv-x="675" 
d="M567 0c-23 58 -50 124 -75 194h-323c-22 -66 -43 -131 -63 -194h-105c73 220 167 476 258 697h165c75 -230 176 -508 257 -697h-114zM351 613h-28c-43 -107 -85 -219 -125 -332h264c-40 110 -78 226 -111 332zM339 882c75 0 114 -29 114 -96c0 -68 -39 -96 -114 -96
s-114 28 -114 96c0 67 31 96 114 96zM339 831c-42 0 -54 -16 -54 -47c0 -30 12 -48 54 -48c43 0 55 18 55 48c0 31 -12 47 -55 47z" />
    <glyph glyph-name="Agrave" unicode="&#xc0;" horiz-adv-x="675" 
d="M567 0c-23 58 -50 124 -75 194h-323c-22 -66 -43 -131 -63 -194h-105c73 220 167 476 258 697h165c75 -230 176 -508 257 -697h-114zM351 613h-28c-43 -107 -85 -219 -125 -332h264c-40 110 -78 226 -111 332zM422 747h-97l-159 129h115z" />
    <glyph glyph-name="Adieresis" unicode="&#xc4;" horiz-adv-x="675" 
d="M567 0c-23 58 -50 124 -75 194h-323c-22 -66 -43 -131 -63 -194h-105c73 220 167 476 258 697h165c75 -230 176 -508 257 -697h-114zM351 613h-28c-43 -107 -85 -219 -125 -332h264c-40 110 -78 226 -111 332zM235 855c38 0 50 -6 50 -47c0 -45 -12 -52 -50 -52
c-39 0 -51 7 -51 52c0 41 12 47 51 47zM436 855c38 0 50 -6 50 -47c0 -45 -12 -52 -50 -52c-39 0 -51 7 -51 52c0 41 12 47 51 47z" />
    <glyph glyph-name="Acircumflex" unicode="&#xc2;" horiz-adv-x="675" 
d="M567 0c-23 58 -50 124 -75 194h-323c-22 -66 -43 -131 -63 -194h-105c73 220 167 476 258 697h165c75 -230 176 -508 257 -697h-114zM351 613h-28c-43 -107 -85 -219 -125 -332h264c-40 110 -78 226 -111 332zM336 831l-75 -84h-94c41 43 81 86 122 129h97l126 -129h-98z
" />
    <glyph glyph-name="Abreve" unicode="&#x102;" horiz-adv-x="675" 
d="M567 0c-23 58 -50 124 -75 194h-323c-22 -66 -43 -131 -63 -194h-105c73 220 167 476 258 697h165c75 -230 176 -508 257 -697h-114zM351 613h-28c-43 -107 -85 -219 -125 -332h264c-40 110 -78 226 -111 332zM194 871h70c0 -52 24 -63 73 -63c47 0 73 11 73 63h66
c0 -91 -48 -132 -141 -132c-91 0 -141 41 -141 132z" />
    <glyph glyph-name="Aacute" unicode="&#xc1;" horiz-adv-x="675" 
d="M567 0c-23 58 -50 124 -75 194h-323c-22 -66 -43 -131 -63 -194h-105c73 220 167 476 258 697h165c75 -230 176 -508 257 -697h-114zM351 613h-28c-43 -107 -85 -219 -125 -332h264c-40 110 -78 226 -111 332zM347 747h-88l132 129h114z" />
    <glyph glyph-name="germandbls" unicode="&#xdf;" horiz-adv-x="635" 
d="M316 714c163 0 246 -55 246 -174c0 -87 -21 -157 -145 -168c132 -6 162 -82 162 -182c0 -153 -84 -204 -276 -204c-16 0 -43 1 -60 3l10 84c14 -1 37 -3 53 -3c132 0 166 36 166 127c0 98 -39 132 -153 132h-30v81h29c107 0 140 36 140 115c0 75 -38 103 -143 103
c-97 0 -147 -37 -147 -105v-523h-95v532c0 128 101 182 243 182z" />
    <glyph glyph-name="Dcroat" unicode="&#x110;" horiz-adv-x="720" 
d="M41 323v73h54v301h240c219 0 326 -76 326 -346s-106 -351 -326 -351h-240v323h-54zM553 350c0 224 -58 258 -224 258h-133v-212h161v-73h-161v-236h133c166 0 224 50 224 263z" />
    <glyph glyph-name="caron.alt" unicode="&#xe01e;" horiz-adv-x="334" 
d="M243 722h92l-56 -192h-57z" />
    <glyph glyph-name="dcroat" unicode="&#x111;" horiz-adv-x="580" 
d="M314 583v71h99v68h94v-68h47v-71h-47v-558c-55 -24 -146 -39 -213 -39c-162 0 -237 59 -237 267c0 206 78 268 225 268c65 0 104 -17 131 -34v96h-99zM413 88v290c0 38 -55 60 -120 60c-102 0 -136 -38 -136 -183c0 -156 34 -185 137 -185c41 0 86 6 119 18z" />
    <glyph glyph-name="currency" unicode="&#xa4;" horiz-adv-x="661" 
d="M336 84c-50 0 -90 6 -123 23l-85 -107l-76 61l86 108c-25 42 -37 101 -37 185c0 80 11 137 35 178l-83 109l85 56l76 -101c32 17 72 23 122 23c48 0 88 -6 119 -20l68 98l85 -55l-74 -105c26 -41 39 -100 39 -183c0 -85 -13 -144 -39 -186l79 -107l-83 -61l-76 104
c-31 -14 -71 -20 -118 -20zM336 535c-103 0 -138 -24 -138 -183c0 -153 35 -184 138 -184c104 0 139 31 139 184c0 159 -35 183 -139 183z" />
    <glyph glyph-name="h" unicode="h" horiz-adv-x="568" 
d="M310 521c128 0 188 -45 188 -232v-289h-95v277c0 100 -16 157 -117 157c-62 0 -119 -20 -119 -58v-376h-95v722h95v-239c29 19 85 38 143 38z" />
    <glyph glyph-name="p" unicode="p" horiz-adv-x="580" 
d="M167 419v-289c0 -39 54 -61 119 -61c103 0 137 38 137 184c0 156 -34 184 -137 184c-42 0 -87 -6 -119 -18zM73 -192v675c55 23 146 38 213 38c162 0 236 -59 236 -266s-78 -269 -225 -269c-64 0 -104 18 -130 36v-214h-94z" />
    <glyph glyph-name="u" unicode="u" horiz-adv-x="568" 
d="M402 88v419h94v-479c-59 -25 -152 -42 -222 -42c-145 0 -203 54 -203 237v284h94v-272c0 -133 27 -162 127 -162c41 0 75 4 110 15z" />
    <glyph glyph-name="q" unicode="q" horiz-adv-x="580" 
d="M413 131v290c-34 12 -79 18 -119 18c-103 0 -137 -27 -137 -185c0 -146 33 -183 136 -183c65 0 120 22 120 60zM507 483v-675h-94v216c-27 -18 -71 -38 -136 -38c-149 0 -220 61 -220 268s75 267 237 267c67 0 158 -15 213 -38z" />
    <glyph glyph-name="b" unicode="b" horiz-adv-x="580" 
d="M167 377v-290c34 -13 79 -19 119 -19c103 0 137 28 137 186c0 145 -33 182 -136 182c-65 0 -120 -21 -120 -59zM73 25v697h94v-238c27 19 71 37 135 37c149 0 220 -61 220 -267c0 -208 -74 -268 -236 -268c-67 0 -158 15 -213 39z" />
    <glyph glyph-name="d" unicode="d" horiz-adv-x="580" 
d="M413 88v290c0 38 -55 60 -120 60c-102 0 -136 -38 -136 -183c0 -156 34 -185 137 -185c41 0 86 6 119 18zM507 722v-697c-55 -24 -146 -39 -213 -39c-162 0 -237 59 -237 267c0 206 78 268 225 268c65 0 104 -17 131 -34v235h94z" />
    <glyph glyph-name="n" unicode="n" horiz-adv-x="568" 
d="M167 420v-420h-94v479c58 25 151 42 222 42c145 0 203 -53 203 -237v-284h-94v272c0 133 -27 162 -128 162c-41 0 -74 -4 -109 -14z" />
    <glyph glyph-name="g" unicode="g" horiz-adv-x="580" 
d="M413 131v290c-34 12 -79 18 -119 18c-103 0 -137 -27 -137 -185c0 -146 33 -183 136 -183c65 0 120 22 120 60zM413 25c-27 -19 -70 -38 -134 -38c-149 0 -222 60 -222 267s75 267 237 267c67 0 158 -15 213 -38v-445c0 -193 -102 -241 -261 -241c-50 0 -130 13 -171 29
l22 81c41 -16 106 -27 148 -27c107 0 168 30 168 145z" />
    <glyph glyph-name="c" unicode="c" horiz-adv-x="468" 
d="M430 96l25 -83c-39 -17 -104 -27 -150 -27c-156 0 -248 62 -248 270c0 207 93 265 248 265c46 0 112 -10 150 -24l-25 -84c-34 15 -79 23 -121 23c-103 0 -152 -25 -152 -182c0 -149 49 -183 152 -183c44 0 87 11 121 25z" />
    <glyph glyph-name="e" unicode="e" horiz-adv-x="549" 
d="M453 93l18 -79c-52 -16 -125 -28 -173 -28c-150 0 -241 62 -241 270c0 201 83 265 232 265c152 0 219 -56 214 -287h-345c1 -136 48 -165 151 -165c36 0 103 10 144 24zM293 442c-92 0 -126 -30 -134 -131h250c-5 108 -34 131 -116 131z" />
    <glyph glyph-name="C" unicode="C" horiz-adv-x="597" 
d="M58 355c0 285 104 359 323 359c63 0 144 -11 197 -26l-25 -91c-40 15 -109 24 -160 24c-164 0 -225 -32 -225 -267c0 -234 61 -274 225 -274c51 0 120 9 160 23l25 -91c-54 -16 -134 -26 -197 -26c-219 0 -323 85 -323 369z" />
    <glyph glyph-name="one" unicode="1" horiz-adv-x="624" 
d="M391 0h-101v588l-156 -71l-30 82l287 125v-724z" />
    <glyph glyph-name="zero" unicode="0" horiz-adv-x="624" 
d="M312 714c170 0 254 -74 254 -356c0 -286 -83 -372 -254 -372c-170 0 -255 86 -255 372c0 282 85 356 255 356zM311 77c116 0 153 54 153 281c0 234 -37 269 -153 269c-112 0 -151 -35 -151 -269c0 -227 39 -281 151 -281z" />
    <glyph glyph-name="two" unicode="2" horiz-adv-x="624" 
d="M109 595l-23 89c60 17 136 30 208 30c171 0 253 -49 253 -200c0 -139 -47 -206 -356 -427h353v-87h-489v81c363 283 385 315 385 426c0 90 -44 115 -153 115c-59 0 -141 -11 -178 -27z" />
    <glyph glyph-name="three" unicode="3" horiz-adv-x="624" 
d="M200 327v85h88c103 0 145 31 145 111c0 73 -33 101 -165 101c-60 0 -138 -9 -184 -23l-22 87c59 12 139 26 219 26c194 0 259 -55 259 -174c0 -87 -25 -157 -149 -168c132 -6 163 -82 163 -182c0 -153 -85 -204 -277 -204c-72 0 -160 13 -221 27l21 85
c51 -15 127 -22 187 -22c145 0 180 33 180 124c0 95 -42 127 -155 127h-89z" />
    <glyph glyph-name="five" unicode="5" horiz-adv-x="624" 
d="M104 697h413v-87h-316v-190c30 3 63 5 98 5c192 0 255 -62 255 -215c0 -172 -79 -224 -272 -224c-69 0 -152 13 -211 27l22 85c49 -15 115 -22 176 -22c142 0 175 32 175 126c0 103 -29 136 -163 136c-61 0 -130 -6 -177 -16v375z" />
    <glyph glyph-name="lslash" unicode="&#x142;" horiz-adv-x="266" 
d="M178 722v-245c24 27 49 54 73 81v-100c-24 -27 -49 -53 -73 -80v-242c0 -4 0 -8 1 -12c1 -44 11 -68 42 -102c-26 -15 -52 -29 -79 -44c-37 37 -56 72 -58 141c0 20 -1 40 -1 60v96c-22 -25 -46 -50 -68 -75v99c22 25 46 50 68 75v348h95z" />
    <glyph glyph-name="Lslash" unicode="&#x141;" horiz-adv-x="548" 
d="M358 541v-100l-162 -145v-207h345v-89h-446v208l-71 -63v99l71 64v389h101v-301z" />
    <glyph glyph-name="dollar" unicode="$" horiz-adv-x="623" 
d="M274 825h74v-140c62 0 137 -8 186 -23l-25 -88c-31 14 -104 23 -161 24v-206c139 -19 205 -76 205 -189c0 -125 -73 -181 -205 -195v-145h-74v142c-63 0 -141 8 -191 24l25 87c38 -13 113 -23 166 -23v217c-136 15 -202 61 -202 174c0 124 73 183 202 197v144zM169 492
c0 -57 24 -81 105 -91v193c-67 -9 -105 -38 -105 -102zM454 199c0 57 -22 88 -106 101v-203c67 9 106 36 106 102z" />
    <glyph glyph-name="six" unicode="6" horiz-adv-x="624" 
d="M557 686l-26 -90c-39 15 -101 25 -160 25c-128 0 -199 -31 -204 -210c47 9 113 14 156 14c193 0 257 -62 257 -216c0 -171 -74 -223 -256 -223c-194 0 -265 82 -265 367s97 361 312 361c60 0 132 -12 186 -28zM324 76c122 0 148 34 148 125c0 100 -28 136 -146 137
c-50 0 -115 -3 -160 -14c2 -208 53 -248 158 -248z" />
    <glyph glyph-name="Euro" unicode="&#x20ac;" horiz-adv-x="597" 
d="M58 355c0 285 104 359 323 359c63 0 144 -11 197 -26l-25 -91c-40 15 -109 24 -160 24c-126 0 -192 -20 -214 -139h266v-73h-277v-55v-54h277v-72h-266c22 -123 86 -148 214 -148c51 0 120 9 160 23l25 -91c-54 -16 -134 -26 -197 -26c-219 0 -323 85 -323 369z" />
    <glyph glyph-name="question" unicode="?" horiz-adv-x="479" 
d="M224 123c51 0 67 -8 67 -60c0 -56 -16 -65 -67 -65c-48 0 -64 9 -64 65c0 52 16 60 64 60zM278 206h-105c112 110 159 199 159 312c0 67 -28 103 -132 103c-50 0 -106 -8 -140 -22l-24 90c41 14 121 25 169 25c175 0 240 -70 240 -196c0 -119 -55 -204 -167 -312z" />
    <glyph glyph-name="Yacute" unicode="&#xdd;" horiz-adv-x="622" 
d="M110 697c68 -85 141 -185 209 -286c73 96 144 196 202 286h121c-83 -122 -179 -255 -277 -379v-318h-102v318c-89 128 -191 265 -285 379h132zM326 747h-88l132 129h114z" />
    <glyph glyph-name="bullet" unicode="&#x2022;" 
d="M293 56c-160 0 -236 62 -236 270c0 207 77 265 236 265c160 0 236 -58 236 -265c0 -208 -75 -270 -236 -270z" />
    <glyph glyph-name="zerop" horiz-adv-x="627" 
d="M313 714c171 0 255 -74 255 -356c0 -286 -84 -372 -255 -372c-169 0 -254 86 -254 372c0 282 85 356 254 356zM313 77c115 0 153 54 153 281c0 234 -38 269 -153 269c-113 0 -152 -35 -152 -269c0 -227 39 -281 152 -281z" />
    <glyph glyph-name="onep" horiz-adv-x="368" 
d="M273 0h-101v588l-156 -71l-30 82l287 125v-724z" />
    <glyph glyph-name="twop" horiz-adv-x="598" 
d="M99 595l-23 89c60 17 137 30 208 30c171 0 254 -49 254 -200c0 -139 -48 -206 -357 -427h353v-87h-489v81c363 283 385 315 385 426c0 90 -44 115 -152 115c-60 0 -142 -11 -179 -27z" />
    <glyph glyph-name="threep" horiz-adv-x="594" 
d="M183 327v85h89c103 0 144 31 144 111c0 73 -32 101 -165 101c-59 0 -137 -9 -183 -23l-22 87c58 12 138 26 218 26c195 0 259 -55 259 -174c0 -87 -24 -157 -149 -168c132 -6 163 -82 163 -182c0 -153 -84 -204 -277 -204c-71 0 -159 13 -221 27l22 85
c50 -15 126 -22 187 -22c144 0 179 33 179 124c0 95 -41 127 -154 127h-90z" />
    <glyph glyph-name="fourp" horiz-adv-x="594" 
d="M371 191h-350v29c70 127 200 340 304 477h145v-421h96v-85h-96v-191h-99v191zM371 276v341c-80 -101 -179 -263 -221 -341h221z" />
    <glyph glyph-name="fivep" horiz-adv-x="608" 
d="M99 697h413v-87h-315v-190c30 3 63 5 98 5c192 0 255 -62 255 -215c0 -172 -79 -224 -273 -224c-68 0 -151 13 -210 27l22 85c49 -15 115 -22 176 -22c142 0 175 32 175 126c0 103 -29 136 -164 136c-60 0 -129 -6 -177 -16v375z" />
    <glyph glyph-name="sixp" horiz-adv-x="628" 
d="M557 686l-26 -90c-39 15 -101 25 -160 25c-128 0 -199 -31 -204 -210c47 9 113 14 156 14c193 0 257 -62 257 -216c0 -171 -74 -223 -256 -223c-194 0 -265 82 -265 367s97 361 312 361c60 0 132 -12 186 -28zM324 76c122 0 148 34 148 125c0 100 -28 136 -146 137
c-50 0 -115 -3 -160 -14c2 -208 53 -248 158 -248z" />
    <glyph glyph-name="sevenp" horiz-adv-x="511" 
d="M527 697v-33c-101 -163 -239 -465 -307 -664h-116c78 213 197 475 287 610h-378v87h514z" />
    <glyph glyph-name="eightp" horiz-adv-x="626" 
d="M313 70c114 0 149 35 149 127c0 96 -41 132 -149 132c-107 0 -147 -36 -147 -132c0 -92 33 -127 147 -127zM313 410c95 0 134 33 134 115c0 76 -34 104 -134 104s-134 -28 -134 -104c0 -82 40 -115 134 -115zM313 -14c-176 0 -255 52 -255 204c0 100 30 176 163 182
c-125 11 -146 81 -146 168c0 117 59 174 238 174s239 -57 239 -174c0 -87 -21 -157 -146 -168c132 -6 162 -82 162 -182c0 -152 -78 -204 -255 -204z" />
    <glyph glyph-name="ninep" horiz-adv-x="624" 
d="M176 0c100 89 193 183 243 283c-36 -5 -85 -8 -111 -8c-193 0 -257 52 -257 206c0 171 73 233 256 233c200 0 260 -50 260 -242c0 -204 -129 -353 -259 -472h-132zM315 362c45 0 94 3 134 10c8 27 12 56 12 87c0 150 -43 166 -154 166c-123 0 -148 -45 -148 -137
c0 -103 28 -126 156 -126z" />
    <glyph glyph-name="g.2" horiz-adv-x="580" 
d="M511 491v-131c0 -115 -82 -186 -223 -186c-42 0 -77 5 -104 15c-4 -11 -7 -28 -7 -39c0 -40 28 -57 140 -60c156 -4 217 -39 217 -132c0 -119 -92 -161 -261 -161c-79 0 -159 10 -208 27l22 85c38 -16 111 -29 184 -29c120 0 164 19 164 70c0 45 -21 55 -150 58
c-164 5 -197 42 -197 117c0 35 11 66 26 90c-38 27 -55 70 -55 132c0 117 70 174 236 174c68 0 161 -12 216 -30zM417 357v71c-34 8 -81 12 -124 12c-101 0 -135 -19 -135 -93c0 -73 35 -92 132 -92c85 0 127 34 127 102z" />
    <glyph glyph-name="ct" horiz-adv-x="857" 
d="M551 170v253c-90 0 -205 14 -245 14c-103 0 -149 -26 -149 -183c0 -149 46 -183 149 -183c42 0 84 8 118 23l24 -81c-39 -17 -99 -27 -146 -27c-153 0 -245 62 -245 270c0 207 93 265 245 265c48 0 159 -14 249 -14v96l95 39v-135h178v-84h-178v-247
c0 -74 21 -105 86 -105c35 0 65 5 91 14l18 -78c-32 -12 -82 -21 -125 -21c-114 0 -165 34 -165 184z" />
    <glyph glyph-name="quotesingle" unicode="'" horiz-adv-x="184" 
d="M45 697h94l-19 -235h-64z" />
    <glyph glyph-name="parenright" unicode=")" horiz-adv-x="279" 
d="M211 249c0 -317 -95 -457 -210 -512l-45 73c81 34 154 149 154 439c0 288 -73 405 -154 439l45 73c115 -55 210 -195 210 -512z" />
    <glyph glyph-name="bracketright" unicode="]" horiz-adv-x="303" 
d="M-20 755h235v-1015h-235v82h136v850h-136v83z" />
    <glyph glyph-name="backslash" unicode="\" horiz-adv-x="447" 
d="M-39 697h106l355 -697h-104z" />
    <glyph glyph-name="braceright" unicode="}" horiz-adv-x="299" 
d="M275 287v-77c-59 0 -109 -41 -109 -201c0 -169 -73 -244 -156 -272l-45 73c65 20 107 65 107 219c0 163 55 210 88 220c-33 10 -88 57 -88 220c0 155 -41 199 -107 220l45 72c83 -28 156 -103 156 -273c0 -160 50 -201 109 -201z" />
    <glyph glyph-name="partialdiff" unicode="&#x2202;" horiz-adv-x="624" 
d="M311 421c30 0 72 -3 111 -7c-49 99 -142 194 -242 283h132c129 -120 259 -268 259 -472c0 -192 -60 -242 -260 -242c-183 0 -256 62 -256 233c0 154 64 205 256 205zM464 238c0 30 -4 59 -12 87c-40 7 -89 10 -134 10c-127 0 -156 -24 -156 -126c0 -92 26 -137 149 -137
c111 0 153 15 153 166z" />
    <glyph glyph-name="dagger" unicode="&#x2020;" horiz-adv-x="433" 
d="M30 498v77h145v148h82v-148h146v-77h-146v-240h-82v240h-145z" />
    <glyph glyph-name="daggerdbl" unicode="&#x2021;" horiz-adv-x="433" 
d="M30 498v77h145v148h82v-148h146v-77h-146v-113h146v-77h-146v-148h-82v148h-145v77h145v113h-145z" />
    <glyph glyph-name="quotesinglbase" unicode="&#x201a;" horiz-adv-x="230" 
d="M209 100l-109 -259h-80l78 259h111z" />
    <glyph glyph-name="quotedblbase" unicode="&#x201e;" horiz-adv-x="413" 
d="M390 98l-109 -260h-80l78 260h111zM212 98l-109 -260h-80l78 260h111z" />
    <glyph glyph-name="quotedblright" unicode="&#x201d;" horiz-adv-x="413" 
d="M390 762l-109 -259h-80l78 259h111zM212 762l-109 -259h-80l78 259h111z" />
    <glyph glyph-name="quotedblleft" unicode="&#x201c;" horiz-adv-x="413" 
d="M24 505l109 259h80l-78 -259h-111zM202 505l109 259h80l-78 -259h-111z" />
    <glyph glyph-name="quoteleft" unicode="&#x2018;" horiz-adv-x="236" 
d="M24 505l109 259h80l-78 -259h-111z" />
    <glyph glyph-name="quoteright" unicode="&#x2019;" horiz-adv-x="235" 
d="M212 762l-109 -260h-80l78 260h111z" />
    <glyph glyph-name="guilsinglleft" unicode="&#x2039;" horiz-adv-x="384" 
d="M355 521l-197 -213l197 -218l-54 -59l-271 274l269 274z" />
    <glyph glyph-name="greater" unicode="&#x3e;" horiz-adv-x="602" 
d="M98 113l294 245l-294 246l51 67l367 -288v-48l-365 -287z" />
    <glyph glyph-name="minus" unicode="&#x2212;" horiz-adv-x="602" 
d="M59 315v89h483v-89h-483z" />
    <glyph glyph-name="plus" unicode="+" horiz-adv-x="602" 
d="M59 315v89h196v197h90v-197h197v-89h-197v-196h-90v196h-196z" />
    <glyph glyph-name="guilsinglright" unicode="&#x203a;" horiz-adv-x="384" 
d="M31 90l197 213l-197 218l54 59l270 -275l-269 -273z" />
    <glyph glyph-name="guillemotleft" unicode="&#xab;" horiz-adv-x="632" 
d="M355 521l-197 -213l197 -218l-54 -59l-271 274l269 274zM601 521l-197 -213l197 -218l-53 -59l-271 274l269 274z" />
    <glyph glyph-name="guillemotright" unicode="&#xbb;" horiz-adv-x="632" 
d="M278 90l196 213l-196 218l53 59l271 -275l-269 -273zM31 90l197 213l-197 218l54 59l270 -275l-269 -273z" />
    <glyph glyph-name="brokenbar" unicode="&#xa6;" horiz-adv-x="341" 
d="M120 755h101v-367h-101v367zM120 111h101v-367h-101v367z" />
    <glyph glyph-name="multiply" unicode="&#xd7;" horiz-adv-x="602" 
d="M162 158l-64 64l138 139l-138 139l63 62l138 -138l139 140l65 -64l-140 -140l139 -138l-63 -64l-139 139z" />
    <glyph glyph-name="Eth" unicode="&#xd0;" horiz-adv-x="720" 
d="M41 323v73h54v301h240c219 0 326 -76 326 -346s-106 -351 -326 -351h-240v323h-54zM553 350c0 224 -58 258 -224 258h-133v-212h161v-73h-161v-236h133c166 0 224 50 224 263z" />
    <glyph glyph-name="plusminus" unicode="&#xb1;" horiz-adv-x="602" 
d="M59 389v89h196v197h90v-197h197v-89h-197v-197h-90v197h-196zM59 29v89h483v-89h-483z" />
    <glyph glyph-name="lessequal" unicode="&#x2264;" horiz-adv-x="602" 
d="M59 29v89h483v-89h-483zM500 633l-283 -209l283 -212l-47 -64l-360 254v41l358 253z" />
    <glyph glyph-name="greaterequal" unicode="&#x2265;" horiz-adv-x="602" 
d="M543 118v-89h-483v89h483zM385 424l-283 209l49 63l358 -253v-41l-359 -254l-48 64z" />
    <glyph glyph-name="divide" unicode="&#xf7;" horiz-adv-x="602" 
d="M59 315v89h483v-89h-483zM301 215c51 0 66 -7 66 -59c0 -56 -15 -66 -66 -66c-48 0 -64 10 -64 66c0 52 16 59 64 59zM301 627c51 0 66 -7 66 -60c0 -56 -15 -65 -66 -65c-48 0 -64 9 -64 65c0 53 16 60 64 60z" />
    <glyph glyph-name="mu" unicode="&#xb5;" horiz-adv-x="568" 
d="M162 -192h-94l3 396v303h94v-272c0 -101 15 -163 127 -163c41 0 74 5 109 16v419h95v-480c-59 -24 -152 -41 -222 -41c-49 0 -86 6 -114 22z" />
    <glyph glyph-name="mu" unicode="&#x3bc;" horiz-adv-x="568" 
d="M162 -192h-94l3 396v303h94v-272c0 -101 15 -163 127 -163c41 0 74 5 109 16v419h95v-480c-59 -24 -152 -41 -222 -41c-49 0 -86 6 -114 22z" />
    <glyph glyph-name="arrowleft" unicode="&#x2190;" horiz-adv-x="739" 
d="M378 54l-361 319l361 316l65 -68l-237 -205h516v-88h-516l237 -204z" />
    <glyph glyph-name="arrowup" unicode="&#x2191;" horiz-adv-x="741" 
d="M53 362l318 361l316 -360l-68 -65l-205 237v-516h-88v516l-204 -237z" />
    <glyph glyph-name="arrowright" unicode="&#x2192;" horiz-adv-x="739" 
d="M362 689l360 -316l-361 -319l-64 70l236 203h-516v88h516l-236 205z" />
    <glyph glyph-name="arrowdown" unicode="&#x2193;" horiz-adv-x="741" 
d="M687 380l-318 -361l-316 360l68 65l205 -237v516h88v-516l203 237z" />
    <glyph glyph-name="arrowupleft" horiz-adv-x="709" 
d="M133 142l-30 480l478 -31l-2 -94l-312 22l365 -365l-62 -62l-365 365l23 -311z" />
    <glyph glyph-name="arrowupright" horiz-adv-x="708" 
d="M144 591l478 31l-30 -480l-95 3l23 311l-365 -365l-62 63l365 365l-312 -22z" />
    <glyph glyph-name="arrowdownleft" horiz-adv-x="709" 
d="M103 91l30 480l95 -3l-23 -311l365 365l62 -63l-365 -365l312 22l2 -94z" />
    <glyph glyph-name="arrowdownright" horiz-adv-x="708" 
d="M622 90l-478 32l2 94l312 -22l-365 365l62 62l365 -365l-23 311l95 4z" />
    <glyph glyph-name="eth" unicode="&#xf0;" horiz-adv-x="624" 
d="M262 485l-41 57l72 46c-35 38 -74 74 -113 109h132c20 -18 41 -38 62 -59l68 45l40 -57l-61 -40c86 -99 150 -216 150 -361c0 -192 -60 -242 -260 -242c-183 0 -256 62 -256 233c0 154 64 206 257 206c26 0 74 -3 110 -8c-20 42 -49 82 -83 121zM319 335
c-128 0 -157 -23 -157 -126c0 -92 26 -137 149 -137c111 0 153 16 153 166c0 30 -3 59 -11 87c-41 7 -90 10 -134 10z" />
    <glyph glyph-name="grave" unicode="`" horiz-adv-x="488" 
d="M325 568h-89l-139 129h108z" />
    <glyph glyph-name="onequarter" unicode="&#xbc;" horiz-adv-x="820" 
d="M526 697h96l-412 -697h-97zM630 105h-228v31c59 99 134 206 198 289h112v-247h59v-73h-59v-105h-82v105zM630 178v182c-50 -62 -93 -124 -127 -182h127zM234 286h-84v327l-94 -43l-21 73l199 83v-440z" />
    <glyph glyph-name="onesuperior" unicode="&#xb9;" horiz-adv-x="356" 
d="M242 286h-85v327l-93 -43l-22 73l200 83v-440z" />
    <glyph glyph-name="threequarters" unicode="&#xbe;" horiz-adv-x="820" 
d="M586 697h97l-412 -697h-97zM637 105h-227v31c58 99 133 206 197 289h113v-247h58v-73h-58v-105h-83v105zM637 178v182c-50 -62 -93 -124 -127 -182h127zM121 467v68h39c66 0 86 12 86 58c0 41 -19 51 -87 51c-51 0 -81 -6 -109 -15l-14 67c36 10 83 18 132 18
c118 0 166 -33 166 -106c0 -59 -16 -97 -91 -104c80 -4 103 -45 103 -110c0 -93 -61 -124 -178 -124c-44 0 -98 8 -135 18l13 68c31 -10 73 -16 114 -16c73 0 95 13 95 65c0 51 -22 62 -95 62h-39z" />
    <glyph glyph-name="threesuperior" unicode="&#xb3;" horiz-adv-x="399" 
d="M128 467v68h39c67 0 86 12 86 58c0 41 -18 51 -87 51c-50 0 -81 -6 -109 -15l-13 67c35 10 83 18 131 18c119 0 167 -33 167 -106c0 -59 -16 -97 -92 -104c81 -4 103 -45 103 -110c0 -93 -60 -124 -178 -124c-44 0 -97 8 -135 18l13 68c31 -10 74 -16 115 -16
c72 0 94 13 94 65c0 51 -22 62 -94 62h-40z" />
    <glyph glyph-name="twosuperior" unicode="&#xb2;" horiz-adv-x="405" 
d="M66 620l-14 76c35 10 84 18 128 18c123 0 176 -36 176 -127c0 -63 -27 -112 -101 -140c-72 -26 -114 -42 -121 -95h223v-72h-322c12 138 61 182 153 217c58 21 82 47 82 86c0 40 -27 53 -94 53c-36 0 -89 -7 -110 -16z" />
    <glyph glyph-name="infinity" unicode="&#x221e;" horiz-adv-x="773" 
d="M347 350c0 84 -34 118 -121 118c-80 0 -108 -30 -108 -118s28 -117 108 -117c87 0 121 34 121 117zM386 269c-11 -109 -84 -127 -175 -127c-123 0 -182 51 -182 208s59 210 182 210c91 0 164 -19 175 -128c11 110 84 128 176 128c122 0 182 -52 182 -209
s-60 -209 -182 -209c-92 0 -165 18 -176 127zM426 351c0 -84 34 -118 120 -118c80 0 109 30 109 118s-29 118 -109 118c-86 0 -120 -35 -120 -118z" />
    <glyph glyph-name="product" unicode="&#x220f;" horiz-adv-x="725" 
d="M196 607v-607h-101v697h536v-697h-101v607h-334z" />
    <glyph glyph-name="pi" unicode="&#x3c0;" horiz-adv-x="617" 
d="M27 418v89h562v-89h-84v-418h-94v418h-208v-283c0 -97 -36 -143 -86 -164l-54 71c26 11 46 36 46 92v284h-82z" />
    <glyph glyph-name="integral" unicode="&#x222b;" horiz-adv-x="347" 
d="M380 702l-22 -77c-25 8 -68 13 -97 13c-48 0 -91 -10 -91 -94v-565c0 -150 -91 -182 -181 -182c-44 0 -94 9 -133 23l23 79c28 -13 70 -22 104 -22c55 0 92 28 92 102v568c0 141 83 174 175 174c44 0 94 -7 130 -19z" />
    <glyph glyph-name="ordfeminine" unicode="&#xaa;" horiz-adv-x="421" 
d="M361 577v-211c-42 -18 -106 -28 -154 -28c-107 0 -147 24 -147 119c0 101 60 117 140 117c34 0 62 -3 94 -10c0 75 -21 91 -96 91c-36 0 -76 -5 -105 -17l-14 58c32 8 80 18 130 18c104 0 152 -29 152 -137zM294 406v109c-22 6 -51 7 -82 7c-50 0 -80 -6 -80 -61
c0 -51 17 -69 80 -69c29 0 59 6 82 14z" />
    <glyph glyph-name="ordmasculine" unicode="&#xba;" horiz-adv-x="451" 
d="M225 333c-112 0 -167 45 -167 192c0 146 56 189 167 189c112 0 168 -43 168 -189c0 -147 -55 -192 -168 -192zM225 648c-70 0 -89 -18 -89 -125c0 -100 19 -125 89 -125c69 0 89 25 89 125c0 107 -20 125 -89 125z" />
    <glyph glyph-name="Omega" unicode="&#x3a9;" horiz-adv-x="787" 
d="M22 0v89h172c-73 48 -109 160 -109 304c0 247 105 321 308 321c204 0 310 -74 310 -321c0 -144 -37 -255 -110 -304h172v-89h-303v86c108 33 134 150 134 305c0 186 -51 233 -203 233c-150 0 -202 -47 -202 -233c0 -155 27 -272 133 -305v-86h-302z" />
    <glyph glyph-name="Omega" unicode="&#x2126;" horiz-adv-x="787" 
d="M22 0v89h172c-73 48 -109 160 -109 304c0 247 105 321 308 321c204 0 310 -74 310 -321c0 -144 -37 -255 -110 -304h172v-89h-303v86c108 33 134 150 134 305c0 186 -51 233 -203 233c-150 0 -202 -47 -202 -233c0 -155 27 -272 133 -305v-86h-302z" />
    <glyph glyph-name="exclamdown" unicode="&#xa1;" horiz-adv-x="332" 
d="M229 -178h-124l27 487h70zM167 396c-50 0 -67 8 -67 60c0 56 17 65 67 65c48 0 65 -9 65 -65c0 -52 -17 -60 -65 -60z" />
    <glyph glyph-name="radical" unicode="&#x221a;" horiz-adv-x="560" 
d="M0 507h147c49 -120 101 -273 140 -414c55 137 168 467 205 604h98c-50 -167 -177 -530 -247 -697h-122c-40 139 -88 290 -139 416h-82v91z" />
    <glyph glyph-name="approxequal" unicode="&#x2248;" horiz-adv-x="602" 
d="M487 318l63 -49c-24 -64 -74 -108 -141 -108c-70 0 -174 88 -232 88c-24 0 -47 -16 -66 -63l-57 53c34 58 69 93 127 93c76 0 178 -85 234 -85c30 0 52 17 72 71zM487 518l63 -49c-24 -64 -74 -108 -141 -108c-70 0 -174 87 -232 87c-24 0 -47 -15 -66 -62l-57 53
c34 58 69 92 127 92c76 0 178 -84 234 -84c30 0 52 17 72 71z" />
    <glyph glyph-name="asciitilde" unicode="~" horiz-adv-x="602" 
d="M487 435l63 -49c-24 -64 -74 -108 -141 -108c-70 0 -174 87 -232 87c-24 0 -47 -15 -66 -62l-57 53c34 58 69 93 127 93c76 0 178 -85 234 -85c30 0 52 17 72 71z" />
    <glyph glyph-name="Delta" unicode="&#x394;" horiz-adv-x="644" 
d="M643 0h-649c71 220 165 476 259 697h132c71 -228 172 -508 258 -697zM313 602c-71 -168 -131 -340 -187 -515h368c-64 159 -130 346 -181 515z" />
    <glyph glyph-name="Delta" unicode="&#x2206;" horiz-adv-x="644" 
d="M643 0h-649c71 220 165 476 259 697h132c71 -228 172 -508 258 -697zM313 602c-71 -168 -131 -340 -187 -515h368c-64 159 -130 346 -181 515z" />
    <glyph glyph-name="lozenge" unicode="&#x25ca;" horiz-adv-x="552" 
d="M528 272c-62 -150 -112 -277 -163 -428h-165c-65 150 -117 272 -176 428c59 156 111 279 176 428h165c51 -150 101 -278 163 -428zM419 273c-40 106 -94 249 -127 352h-28c-43 -104 -100 -244 -140 -352c40 -109 97 -250 140 -353h28c33 102 87 247 127 353z" />
    <glyph glyph-name="dmacron" horiz-adv-x="580" 
d="M314 583v71h99v68h94v-68h47v-71h-47v-558c-55 -24 -146 -39 -213 -39c-162 0 -237 59 -237 267c0 206 78 268 225 268c65 0 104 -17 131 -34v96h-99zM413 88v290c0 38 -55 60 -120 60c-102 0 -136 -38 -136 -183c0 -156 34 -185 137 -185c41 0 86 6 119 18z" />
    <glyph glyph-name="Ldotaccent" horiz-adv-x="548" 
d="M95 697h101v-608h345v-89h-446v697zM334 442c38 0 50 -6 50 -47c0 -45 -12 -53 -50 -53s-51 8 -51 53c0 41 13 47 51 47z" />
    <glyph glyph-name="Scaron" unicode="&#x160;" horiz-adv-x="623" 
d="M547 685l-24 -89c-36 14 -114 25 -178 25c-117 0 -180 -26 -180 -114c0 -61 33 -93 165 -104c164 -15 237 -75 237 -205c0 -156 -106 -212 -291 -212c-70 0 -153 12 -208 30l25 88c43 -14 119 -25 181 -25c117 0 185 25 185 114c0 61 -32 105 -168 117
c-161 13 -235 60 -235 188c0 157 106 216 289 216c68 0 148 -12 202 -29zM247 876l78 -84l76 84h94l-122 -129h-97l-126 129h97z" />
    <glyph glyph-name="scaron" unicode="&#x161;" horiz-adv-x="497" 
d="M430 495l-24 -80c-41 15 -97 26 -147 26c-73 0 -110 -9 -110 -75c0 -42 28 -59 115 -67c127 -11 182 -51 182 -148c0 -127 -74 -165 -206 -165c-52 0 -133 10 -182 27l23 80c36 -15 105 -27 157 -27c74 0 112 11 112 78c0 45 -24 66 -117 74c-117 10 -181 41 -181 140
c0 126 79 163 209 163c51 0 115 -10 169 -26zM80 697h99l76 -81l74 81h96l-122 -129h-97z" />
    <glyph glyph-name="st" horiz-adv-x="890" 
d="M585 170v253c-128 1 -276 18 -326 18c-73 0 -110 -9 -110 -75c0 -42 28 -59 115 -67c127 -11 182 -51 182 -148c0 -127 -74 -165 -206 -165c-52 0 -133 10 -182 27l23 80c36 -15 105 -27 157 -27c74 0 112 11 112 78c0 45 -24 66 -117 74c-117 10 -181 41 -181 140
c0 126 79 163 209 163c51 0 214 -14 324 -14v96l94 39v-135h178v-84h-178v-247c0 -74 21 -105 87 -105c34 0 64 5 90 14l19 -78c-33 -12 -83 -21 -125 -21c-114 0 -165 34 -165 184z" />
    <glyph glyph-name="nbspace" unicode="&#xa0;" horiz-adv-x="276" 
 />
    <glyph glyph-name="orn1" horiz-adv-x="579" 
d="M294 -68c-58 115 -243 24 -243 298c0 144 51 208 133 208c33 0 69 -10 110 -30c41 20 79 30 112 30c82 0 133 -64 133 -207c0 -271 -201 -182 -245 -299zM294 327c-29 19 -56 31 -78 31c-39 0 -65 -37 -65 -129c0 -177 98 -112 143 -191c40 79 145 13 145 191
c0 92 -18 127 -58 127c-22 0 -51 -10 -87 -29zM293 423c6 16 8 31 8 47c0 53 -30 100 -85 100h-216v77h579v-77h-243c13 -13 20 -32 20 -52c0 -34 -19 -73 -63 -95z" />
    <glyph glyph-name="orn2" horiz-adv-x="579" 
d="M285 -68c-44 117 -244 28 -244 299c0 143 50 207 132 207c33 0 71 -10 112 -30c41 20 78 30 111 30c81 0 132 -64 132 -208c0 -274 -185 -183 -243 -298zM286 423c-44 22 -63 61 -63 95c0 20 7 39 20 52h-243v77h579v-77h-216c-55 0 -85 -47 -85 -100c0 -16 2 -31 8 -47z
" />
    <glyph glyph-name="orn3" horiz-adv-x="579" 
d="M294 648c44 -117 245 -28 245 -299c0 -143 -51 -207 -133 -207c-33 0 -71 10 -112 30c-41 -20 -77 -31 -110 -31c-82 0 -133 65 -133 209c0 273 185 182 243 298zM294 253c36 -19 65 -30 87 -30c40 0 58 36 58 127c0 179 -105 112 -145 192c-45 -80 -143 -14 -143 -191
c0 -92 26 -129 65 -129c22 0 49 11 78 31zM293 156c44 -21 63 -60 63 -94c0 -20 -7 -39 -20 -52h243v-78h-579v78h216c55 0 85 47 85 100c0 16 -2 31 -8 46z" />
    <glyph glyph-name="orn4" horiz-adv-x="579" 
d="M285 648c58 -116 243 -25 243 -298c0 -144 -51 -209 -132 -209c-33 0 -70 11 -111 31c-41 -20 -79 -30 -112 -30c-82 0 -132 64 -132 207c0 271 200 182 244 299zM286 156c-6 -15 -8 -30 -8 -46c0 -53 30 -100 85 -100h216v-78h-579v78h243c-13 13 -20 32 -20 52
c0 34 19 73 63 94z" />
    <glyph glyph-name="orn5" horiz-adv-x="804" 
d="M17 285c116 58 25 243 299 243c143 0 208 -51 208 -132c0 -33 -10 -70 -30 -111c19 -41 30 -78 30 -111c0 -82 -64 -133 -207 -133c-271 0 -182 200 -300 244zM412 285c20 30 32 56 32 78c0 40 -38 65 -129 65c-177 0 -112 -97 -191 -143c79 -40 12 -144 191 -144
c91 0 127 18 127 58c0 22 -11 51 -30 86zM509 286c15 -5 31 -8 47 -8c53 0 100 31 100 86v216h77v-580h-77v243c-13 -12 -33 -20 -52 -20c-34 0 -73 19 -95 63z" />
    <glyph glyph-name="orn6" horiz-adv-x="804" 
d="M17 295c118 43 29 244 300 244c143 0 207 -51 207 -133c0 -33 -11 -71 -30 -111c20 -42 30 -78 30 -111c0 -82 -65 -132 -208 -132c-274 0 -183 184 -299 243zM509 294c22 43 61 62 95 62c19 0 39 -7 52 -19v243h77v-580h-77v216c0 55 -47 85 -100 85
c-16 0 -32 -2 -47 -7z" />
    <glyph glyph-name="orn7" horiz-adv-x="804" 
d="M787 286c-117 -44 -29 -244 -299 -244c-144 0 -208 50 -208 132c0 33 11 71 30 112c-19 41 -30 78 -30 111c0 81 65 132 209 132c273 0 182 -185 298 -243zM392 286c-19 -36 -30 -64 -30 -87c0 -39 36 -57 127 -57c179 0 112 104 192 144c-80 45 -14 143 -191 143
c-92 0 -129 -25 -129 -65c0 -22 11 -49 31 -78zM295 287c-22 -44 -60 -63 -94 -63c-20 0 -40 7 -52 20v-243h-78v579h78v-216c0 -55 47 -85 100 -85c16 0 31 2 46 8z" />
    <glyph glyph-name="orn8" horiz-adv-x="804" 
d="M787 295c-116 -58 -25 -243 -298 -243c-144 0 -209 51 -209 133c0 33 11 69 30 110c-19 41 -30 79 -30 112c0 82 64 133 208 133c270 0 182 -201 299 -245zM295 294c-15 6 -30 8 -46 8c-53 0 -100 -30 -100 -85v-216h-78v579h78v-243c12 13 32 20 52 20
c34 0 72 -19 94 -63z" />
    <glyph glyph-name="publish" horiz-adv-x="855" 
d="M787 353c0 -288 -117 -367 -360 -367s-359 79 -359 367c0 284 117 361 359 361s360 -77 360 -361zM531 419c0 47 -13 74 -53 74h-119v-144h116c44 0 56 27 56 70zM624 420c0 -86 -39 -147 -125 -147h-140v-137h-87v433h225c93 0 127 -64 127 -149zM426 639
c-195 0 -267 -43 -267 -287c0 -238 72 -290 267 -290c198 0 270 52 270 290c0 244 -72 287 -270 287z" />
    <glyph glyph-name="estimated" unicode="&#x212e;" horiz-adv-x="700" 
d="M657 320h-489c3 -198 63 -241 219 -241c51 0 132 10 171 24l26 -91c-54 -15 -135 -26 -198 -26c-219 0 -328 86 -328 367c0 284 113 361 304 361c195 0 295 -93 295 -377v-17zM362 624c-123 0 -185 -33 -193 -215h380c-5 178 -65 215 -187 215z" />
    <glyph glyph-name="zerob" horiz-adv-x="764" 
d="M382 618c-126 0 -188 -54 -188 -262c0 -211 62 -275 188 -275s187 64 187 275c0 208 -62 262 -187 262zM381 147c-84 0 -113 41 -113 209c0 173 29 199 113 199c86 0 114 -26 114 -199c0 -168 -28 -209 -114 -209zM382 714c219 0 324 -77 324 -361
c0 -287 -104 -367 -324 -367c-219 0 -324 80 -324 367c0 284 105 361 324 361z" />
    <glyph glyph-name="oneb" horiz-adv-x="764" 
d="M359 95h74v534l-211 -93l22 -58l115 52v-435zM382 714c219 0 324 -77 324 -361c0 -287 -104 -367 -324 -367c-219 0 -324 80 -324 367c0 284 105 361 324 361z" />
    <glyph glyph-name="twob" horiz-adv-x="764" 
d="M382 714c219 0 324 -77 324 -361c0 -287 -104 -367 -324 -367c-219 0 -324 80 -324 367c0 284 105 361 324 361zM215 598l16 -64c27 11 88 19 132 19c80 0 113 -18 113 -85c0 -83 -16 -106 -285 -316v-59h360v64h-262c230 164 265 213 265 316c0 111 -60 147 -187 147
c-52 0 -109 -9 -152 -22z" />
    <glyph glyph-name="threeb" horiz-adv-x="764" 
d="M307 396v-63h66c84 0 115 -24 115 -94c0 -68 -25 -92 -133 -92c-45 0 -101 5 -139 16l-15 -61c46 -11 110 -21 163 -21c142 0 204 38 204 151c0 74 -23 130 -120 135c92 7 107 59 107 124c0 87 -48 127 -191 127c-59 0 -116 -10 -159 -19l16 -63c34 11 90 17 134 17
c98 0 123 -20 123 -75c0 -60 -29 -82 -106 -82h-65zM382 714c219 0 324 -77 324 -361c0 -287 -104 -367 -324 -367c-219 0 -324 80 -324 367c0 284 105 361 324 361z" />
    <glyph glyph-name="fourb" horiz-adv-x="764" 
d="M165 233h259v-142h72v142h71v61h-71v312h-106c-77 -102 -173 -259 -225 -353v-20zM424 548v-254h-165c32 58 105 178 165 254zM382 714c219 0 324 -77 324 -361c0 -287 -104 -367 -324 -367c-219 0 -324 80 -324 367c0 284 105 361 324 361z" />
    <glyph glyph-name="fiveb" horiz-adv-x="764" 
d="M532 603h-304v-275c35 8 86 12 131 12c99 0 121 -25 121 -102c0 -69 -24 -93 -130 -93c-45 0 -94 5 -130 16l-16 -61c44 -12 104 -21 155 -21c142 0 201 39 201 165c0 113 -46 159 -188 159c-26 0 -51 -1 -73 -4v139h233v65zM382 714c219 0 324 -77 324 -361
c0 -287 -104 -367 -324 -367c-219 0 -324 80 -324 367c0 284 105 361 324 361z" />
    <glyph glyph-name="sixb" horiz-adv-x="764" 
d="M537 532l18 66c-40 12 -92 20 -137 20c-158 0 -230 -55 -230 -266c0 -210 52 -271 195 -271c134 0 189 39 189 165c0 113 -47 159 -189 159c-33 0 -82 -3 -117 -11c6 137 52 157 153 157c42 0 88 -7 118 -19zM494 240c0 -68 -20 -93 -111 -93c-78 0 -115 30 -117 185
c31 6 72 10 112 10c94 0 116 -26 116 -102zM382 714c219 0 324 -77 324 -361c0 -287 -104 -367 -324 -367c-219 0 -324 80 -324 367c0 284 105 361 324 361z" />
    <glyph glyph-name="sevenb" horiz-adv-x="764" 
d="M284 91h77c60 165 146 364 225 515h-383v-66h276c-64 -124 -145 -306 -195 -449zM382 714c219 0 324 -77 324 -361c0 -287 -104 -367 -324 -367c-219 0 -324 80 -324 367c0 284 105 361 324 361z" />
    <glyph glyph-name="eightb" horiz-adv-x="764" 
d="M382 143c-85 0 -110 25 -110 94c0 71 30 98 110 98s110 -27 110 -98c0 -69 -26 -94 -110 -94zM382 394c-71 0 -100 24 -100 86c0 56 25 76 100 76c74 0 99 -20 99 -76c0 -62 -28 -86 -99 -86zM382 81c129 0 187 39 187 151c0 74 -21 130 -119 135c92 7 108 59 108 124
c0 86 -45 127 -176 127c-132 0 -176 -41 -176 -127c0 -65 15 -117 108 -124c-98 -5 -120 -61 -120 -135c0 -112 58 -151 188 -151zM382 714c219 0 324 -77 324 -361c0 -287 -104 -367 -324 -367c-219 0 -324 80 -324 367c0 284 105 361 324 361z" />
    <glyph glyph-name="nineb" horiz-adv-x="764" 
d="M381 297c23 0 54 2 84 5c-37 -74 -106 -143 -181 -209h97c96 88 192 198 192 349c0 142 -45 178 -192 178c-134 0 -188 -46 -188 -172c0 -114 46 -151 188 -151zM496 432c0 -22 -3 -44 -10 -65c-30 -5 -66 -8 -100 -8c-94 0 -115 18 -115 95c0 68 18 102 110 102
c82 0 115 -12 115 -124zM382 -14c-220 0 -324 79 -324 367c0 284 105 361 324 361s324 -77 324 -361c0 -288 -105 -367 -324 -367z" />
    <glyph glyph-name="apple" horiz-adv-x="920" 
d="M282 -14c-147 0 -225 62 -225 269c0 334 288 198 403 408c114 -210 402 -74 402 -408c0 -207 -78 -269 -225 -269c-65 0 -104 18 -130 35v-213h-95v213c-26 -17 -65 -35 -130 -35zM507 505v-375c0 -39 54 -61 119 -61c103 0 137 38 137 183c0 208 -142 160 -256 253z
M412 130v375c-114 -93 -255 -45 -255 -253c0 -145 33 -183 136 -183c65 0 119 22 119 61z" />
    <glyph glyph-name="perthousand" unicode="&#x2030;" horiz-adv-x="1282" 
d="M612 697h94l-411 -697h-94zM210 714c115 0 169 -45 169 -219c0 -175 -54 -226 -169 -226c-114 0 -168 51 -168 226c0 174 54 219 168 219zM210 339c63 0 83 32 83 155c0 126 -20 149 -83 149c-60 0 -83 -23 -83 -149c0 -123 23 -155 83 -155zM700 431
c115 0 168 -45 168 -219c0 -175 -53 -226 -168 -226c-114 0 -168 51 -168 226c0 174 54 219 168 219zM700 56c62 0 83 33 83 155c0 126 -21 150 -83 150c-60 0 -83 -24 -83 -150c0 -122 23 -155 83 -155zM1071 431c115 0 168 -45 168 -219c0 -175 -53 -226 -168 -226
c-114 0 -168 51 -168 226c0 174 54 219 168 219zM1071 56c62 0 83 33 83 155c0 126 -21 150 -83 150c-60 0 -83 -24 -83 -150c0 -122 23 -155 83 -155z" />
    <glyph glyph-name="sp" horiz-adv-x="1074" 
d="M567 -192v591c-99 25 -218 42 -308 42c-73 0 -110 -9 -110 -75c0 -42 28 -59 115 -67c127 -11 182 -51 182 -148c0 -127 -74 -165 -206 -165c-52 0 -133 10 -182 27l23 80c36 -15 105 -27 157 -27c74 0 112 11 112 78c0 45 -24 66 -117 74c-117 10 -181 41 -181 140
c0 126 79 163 209 163c97 0 217 -16 306 -38c55 23 146 38 213 38c162 0 236 -59 236 -266s-78 -269 -225 -269c-64 0 -104 18 -130 36v-214h-94zM661 419v-289c0 -39 54 -61 119 -61c103 0 137 38 137 184c0 156 -34 184 -137 184c-42 0 -87 -6 -119 -18z" />
    <glyph glyph-name="at.2" horiz-adv-x="938" 
d="M672 435v-299c-58 -25 -148 -40 -214 -40c-150 0 -206 35 -206 169c0 146 83 166 191 166c49 0 92 -6 138 -15c0 106 -22 132 -145 132c-218 0 -280 -43 -280 -283c0 -233 70 -286 313 -286c249 0 319 59 319 286c0 70 -7 132 -22 171h90c14 -45 21 -105 21 -171
c0 -293 -121 -369 -408 -369c-283 0 -408 79 -408 369c0 289 124 365 380 365c167 0 231 -41 231 -195zM581 193v155c-37 7 -66 10 -113 10c-75 0 -118 -9 -118 -88c0 -72 26 -97 113 -97c43 0 84 7 118 20z" />
    <glyph glyph-name="at" unicode="@" horiz-adv-x="935" 
d="M425 548c-206 0 -272 -43 -272 -283c0 -233 71 -286 314 -286c244 0 318 67 318 317c0 100 -8 161 -22 201h93c14 -46 21 -105 21 -204c0 -307 -127 -397 -410 -397s-408 79 -408 369c0 289 126 365 359 365c177 0 254 -36 254 -273c0 -224 -55 -261 -213 -261
c-150 0 -205 35 -205 169c0 144 58 166 189 166c48 0 107 -5 138 -11c-2 101 -41 128 -156 128zM468 358c-90 0 -117 -10 -117 -89c0 -77 26 -96 115 -96c87 0 115 25 115 127v50c-31 5 -80 8 -113 8z" />
    <glyph glyph-name="degree" unicode="&#xb0;" horiz-adv-x="421" 
d="M210 714c115 0 169 -45 169 -219c0 -175 -54 -226 -169 -226c-114 0 -168 51 -168 226c0 174 54 219 168 219zM210 339c63 0 83 32 83 155c0 126 -20 149 -83 149c-60 0 -83 -23 -83 -149c0 -123 23 -155 83 -155z" />
    <glyph glyph-name="slash" unicode="/" horiz-adv-x="447" 
d="M384 697h105l-357 -697h-103z" />
    <glyph glyph-name="ampersand" unicode="&#x26;" horiz-adv-x="777" 
d="M739 398c0 -86 -35 -172 -92 -243c33 -44 66 -96 104 -155h-115c-18 31 -38 62 -57 89c-83 -71 -146 -103 -267 -103c-176 0 -256 45 -256 197c0 100 51 177 184 183c-125 11 -136 80 -136 167c0 116 59 181 230 181c168 0 231 -56 231 -173c0 -87 -29 -158 -154 -168
c47 -5 97 -38 178 -145c31 49 50 108 50 170h100zM312 70c100 0 148 23 216 90c-76 107 -138 169 -208 169c-106 0 -155 -36 -155 -132c0 -93 33 -127 147 -127zM327 410c87 0 135 32 135 114c0 76 -35 104 -128 104s-127 -27 -127 -103c0 -82 33 -115 120 -115z" />
    <glyph glyph-name="ampersand.2" horiz-adv-x="744" 
d="M600 327v-297c-64 -27 -178 -44 -257 -44c-166 0 -268 51 -268 204c0 100 32 176 164 182c-123 11 -143 78 -143 166c0 119 74 176 237 176c49 0 110 -11 154 -25l-29 -87c-36 15 -75 22 -117 22c-104 0 -138 -28 -138 -101c0 -79 37 -111 131 -111h169v95l97 38v-133
h135v-85h-135zM503 94v233h-172c-104 0 -146 -32 -146 -127c0 -91 44 -124 166 -124c49 0 114 6 152 18z" />
    <glyph glyph-name="afii10017" unicode="&#x410;" horiz-adv-x="675" 
d="M567 0c-23 58 -50 124 -75 194h-323c-22 -66 -43 -131 -63 -194h-105c73 220 167 476 258 697h165c75 -230 176 -508 257 -697h-114zM351 613h-28c-43 -107 -85 -219 -125 -332h264c-40 110 -78 226 -111 332z" />
    <glyph glyph-name="afii10019" unicode="&#x412;" horiz-adv-x="700" 
d="M196 86h247c61 0 83 45 83 117c0 75 -27 125 -87 125h-243v-242zM196 611v-200h239c58 0 76 45 76 102c0 63 -17 98 -76 98h-239zM477 372c132 -6 158 -78 158 -178c0 -133 -65 -194 -177 -194h-363v697h355c139 0 168 -71 168 -166c0 -87 -17 -148 -141 -159z" />
    <glyph glyph-name="afii10022" unicode="&#x415;" horiz-adv-x="615" 
d="M95 697h491v-87h-390v-198h277v-86h-277v-239h390v-87h-491v697z" />
    <glyph glyph-name="afii10028" unicode="&#x41a;" horiz-adv-x="640" 
d="M640 0h-121c-113 277 -185 326 -323 337v-337h-101v697h101v-337c62 52 186 182 302 337h128c-142 -180 -243 -285 -282 -314c90 -26 161 -64 296 -383z" />
    <glyph glyph-name="afii10030" unicode="&#x41c;" horiz-adv-x="892" 
d="M450 212c62 161 137 331 212 485h136v-697h-100v568c-74 -161 -151 -341 -216 -498h-78c-64 159 -139 341 -211 498v-568h-98v697h144c74 -155 149 -325 211 -485z" />
    <glyph glyph-name="afii10031" unicode="&#x41d;" horiz-adv-x="725" 
d="M196 325v-325h-101v697h101v-279h334v279h101v-697h-101v325h-334z" />
    <glyph glyph-name="afii10032" unicode="&#x41e;" horiz-adv-x="764" 
d="M382 714c219 0 324 -77 324 -361c0 -287 -104 -367 -324 -367c-219 0 -324 80 -324 367c0 284 105 361 324 361zM382 77c166 0 216 48 216 274c0 234 -50 273 -216 273c-165 0 -214 -39 -214 -273c0 -226 49 -274 214 -274z" />
    <glyph glyph-name="afii10034" unicode="&#x420;" horiz-adv-x="661" 
d="M196 330h216c69 0 103 51 103 135c0 94 -34 146 -99 146h-220v-281zM196 0h-102v697h337c151 0 196 -105 196 -233c0 -114 -53 -221 -192 -221h-239v-243z" />
    <glyph glyph-name="afii10035" unicode="&#x421;" horiz-adv-x="597" 
d="M58 355c0 285 104 359 323 359c63 0 144 -11 197 -26l-25 -91c-40 15 -109 24 -160 24c-164 0 -225 -32 -225 -267c0 -234 61 -274 225 -274c51 0 120 9 160 23l25 -91c-54 -16 -134 -26 -197 -26c-219 0 -323 85 -323 369z" />
    <glyph glyph-name="afii10036" unicode="&#x422;" horiz-adv-x="588" 
d="M346 0h-103v610h-239v87h580v-87h-238v-610z" />
    <glyph glyph-name="afii10039" unicode="&#x425;" horiz-adv-x="661" 
d="M139 697c60 -77 127 -164 198 -257c65 87 128 175 185 257h123c-76 -109 -160 -225 -246 -341c91 -123 182 -249 257 -356h-126c-61 86 -126 177 -194 270c-71 -94 -141 -185 -208 -270h-123c80 101 176 228 269 353c-90 120 -183 242 -264 344h129z" />
    <glyph glyph-name="afii10049" unicode="&#x42f;" horiz-adv-x="691" 
d="M494 370v241h-219c-63 0 -99 -43 -99 -124c0 -74 36 -117 103 -117h215zM255 310c-146 2 -192 86 -192 184c0 110 45 203 196 203h337v-697h-102v284h-121c-86 0 -144 -35 -224 -284h-119c97 254 142 295 225 310z" />
    <glyph glyph-name="afii10026" unicode="&#x418;" horiz-adv-x="752" 
d="M657 697v-697h-100v548c-101 -184 -214 -377 -327 -548h-135v697h100v-573c122 190 237 384 339 573h123z" />
    <glyph glyph-name="afii10080" unicode="&#x43e;" 
d="M293 -14c-160 0 -236 62 -236 270c0 207 77 265 236 265c160 0 236 -58 236 -265c0 -208 -75 -270 -236 -270zM293 440c-103 0 -136 -27 -136 -186c0 -152 33 -187 136 -187s136 35 136 187c0 159 -33 186 -136 186z" />
    <glyph glyph-name="afii10082" unicode="&#x440;" horiz-adv-x="580" 
d="M167 419v-289c0 -39 54 -61 119 -61c103 0 137 38 137 184c0 156 -34 184 -137 184c-42 0 -87 -6 -119 -18zM73 -192v675c55 23 146 38 213 38c162 0 236 -59 236 -266s-78 -269 -225 -269c-64 0 -104 18 -130 36v-214h-94z" />
    <glyph glyph-name="afii10083" unicode="&#x441;" horiz-adv-x="468" 
d="M430 96l25 -83c-39 -17 -104 -27 -150 -27c-156 0 -248 62 -248 270c0 207 93 265 248 265c46 0 112 -10 150 -24l-25 -84c-34 15 -79 23 -121 23c-103 0 -152 -25 -152 -182c0 -149 49 -183 152 -183c44 0 87 11 121 25z" />
    <glyph glyph-name="afii10085" unicode="&#x443;" horiz-adv-x="510" 
d="M195 -24c-50 180 -118 386 -183 531h101c50 -117 102 -276 141 -417c55 137 107 281 143 417h98c-51 -172 -118 -347 -190 -517c-25 -60 -58 -131 -85 -182h-107c26 48 57 113 82 168z" />
    <glyph glyph-name="afii10087" unicode="&#x445;" horiz-adv-x="521" 
d="M502 0h-110c-34 55 -77 118 -122 182c-49 -65 -97 -126 -143 -182h-109c63 72 134 164 201 253c-67 92 -139 183 -200 254h119c41 -51 88 -113 134 -177c48 64 88 126 121 177h108c-51 -76 -112 -164 -176 -250c63 -86 125 -177 177 -257z" />
    <glyph glyph-name="afii10054" unicode="&#x405;" horiz-adv-x="623" 
d="M547 685l-24 -89c-36 14 -114 25 -178 25c-117 0 -180 -26 -180 -114c0 -61 33 -93 165 -104c164 -15 237 -75 237 -205c0 -156 -106 -212 -291 -212c-70 0 -153 12 -208 30l25 88c43 -14 119 -25 181 -25c117 0 185 25 185 114c0 61 -32 105 -168 117
c-161 13 -235 60 -235 188c0 157 106 216 289 216c68 0 148 -12 202 -29z" />
    <glyph glyph-name="afii10018" unicode="&#x411;" horiz-adv-x="700" 
d="M196 86h247c61 0 83 45 83 117c0 75 -27 125 -87 125h-243v-242zM568 697v-87h-372v-199h254c139 0 185 -80 185 -209c0 -141 -65 -202 -177 -202h-363v697h473z" />
    <glyph glyph-name="afii10020" unicode="&#x413;" horiz-adv-x="539" 
d="M196 0h-101v697h451v-87h-350v-610z" />
    <glyph glyph-name="afii10024" unicode="&#x416;" horiz-adv-x="903" 
d="M115 0h-115c122 319 185 357 267 383c-35 29 -126 134 -254 314h121c102 -151 209 -277 266 -332v332h102v-332c57 54 164 181 267 332h121c-128 -180 -219 -285 -254 -314c82 -26 145 -64 267 -383h-115c-100 274 -164 328 -286 338v-338h-102v338
c-122 -11 -186 -64 -285 -338z" />
    <glyph glyph-name="afii10025" unicode="&#x417;" horiz-adv-x="639" 
d="M200 327v85h106c109 0 143 31 143 111c0 73 -32 101 -175 101c-60 0 -145 -9 -190 -23l-22 87c58 12 145 26 225 26c199 0 269 -55 269 -174c0 -87 -21 -157 -145 -168c132 -6 163 -82 163 -182c0 -153 -95 -204 -287 -204c-72 0 -170 13 -231 27l21 87
c51 -16 137 -24 197 -24c145 0 190 33 190 124c0 95 -44 127 -157 127h-107z" />
    <glyph glyph-name="afii10033" unicode="&#x41f;" horiz-adv-x="725" 
d="M196 610v-610h-101v697h536v-697h-101v610h-334z" />
    <glyph glyph-name="afii10029" unicode="&#x41b;" horiz-adv-x="721" 
d="M526 610h-255c-13 -186 -59 -418 -126 -610h-109c68 207 130 443 141 697h450v-697h-101v610z" />
    <glyph glyph-name="afii10021" unicode="&#x414;" horiz-adv-x="783" 
d="M656 697v-608h127l-21 -243h-88v154h-562v-154h-89l-21 243h106c67 170 102 370 112 608h436zM556 89v521h-242c-12 -174 -37 -359 -92 -521h334z" />
    <glyph glyph-name="afii10055" unicode="&#x406;" horiz-adv-x="290" 
d="M95 697h101v-697h-101v697z" />
    <glyph glyph-name="afii10105" unicode="&#x458;" horiz-adv-x="239" 
d="M121 709c42 0 56 -6 56 -50c0 -48 -14 -56 -56 -56c-43 0 -57 8 -57 56c0 44 14 50 57 50zM167 507v-526c0 -150 -70 -184 -187 -184v81c61 0 93 17 93 101v528h94z" />
    <glyph glyph-name="afii10027" unicode="&#x419;" horiz-adv-x="752" 
d="M657 697v-697h-100v548c-101 -184 -214 -377 -327 -548h-135v697h100v-573c122 190 237 384 339 573h123zM237 871h70c0 -52 24 -63 73 -63c47 0 73 11 73 63h66c0 -91 -48 -132 -141 -132c-91 0 -141 41 -141 132z" />
    <glyph glyph-name="afii10037" unicode="&#x423;" horiz-adv-x="585" 
d="M300 283c69 138 143 296 183 414h112c-91 -232 -232 -514 -347 -697h-125c36 48 81 116 113 173c-43 130 -162 386 -246 524h119c63 -112 141 -275 191 -414z" />
    <glyph glyph-name="afii10038" unicode="&#x424;" horiz-adv-x="770" 
d="M325 697h102v-94c231 -9 294 -87 294 -253s-64 -245 -294 -254v-96h-102v96c-227 9 -287 89 -287 254s60 244 287 253v94zM619 349c0 118 -25 165 -192 169v-338c167 6 192 54 192 169zM139 349c0 -114 25 -162 186 -169v338c-161 -6 -186 -52 -186 -169z" />
    <glyph glyph-name="afii10040" unicode="&#x426;" horiz-adv-x="757" 
d="M196 697v-608h334v608h101v-608h126l-20 -243h-89v154h-553v697h101z" />
    <glyph glyph-name="afii10043" unicode="&#x429;" horiz-adv-x="971" 
d="M196 697v-608h223v608h102v-608h223v608h101v-608h126l-21 -243h-88v154h-767v697h101z" />
    <glyph glyph-name="afii10042" unicode="&#x428;" horiz-adv-x="940" 
d="M845 697v-697h-750v697h101v-608h223v608h102v-608h223v608h101z" />
    <glyph glyph-name="afii10046" unicode="&#x42c;" horiz-adv-x="674" 
d="M196 85h243c63 0 86 48 86 126c0 80 -28 130 -90 130h-239v-256zM94 697h102v-271h253c143 0 186 -92 186 -216c0 -135 -59 -210 -177 -210h-364v697z" />
    <glyph glyph-name="afii10045" unicode="&#x42b;" horiz-adv-x="902" 
d="M196 85h243c63 0 86 48 86 126c0 80 -28 130 -90 130h-239v-256zM94 697h102v-271h253c143 0 186 -92 186 -216c0 -135 -59 -210 -177 -210h-364v697zM705 697h102v-697h-102v697z" />
    <glyph glyph-name="afii10044" unicode="&#x42a;" horiz-adv-x="700" 
d="M16 697h206v-271h253c143 0 186 -92 186 -216c0 -128 -55 -210 -177 -210h-364v610h-104v87zM222 85h243c63 0 86 48 86 126c0 80 -28 130 -90 130h-239v-256z" />
    <glyph glyph-name="afii10048" unicode="&#x42e;" horiz-adv-x="944" 
d="M628 714c170 0 258 -74 258 -356c0 -286 -87 -372 -258 -372c-163 0 -253 79 -259 339h-173v-325h-101v697h101v-279h174c12 232 101 296 258 296zM627 77c115 0 154 54 154 281c0 234 -39 269 -154 269c-113 0 -154 -35 -154 -269c0 -227 41 -281 154 -281z" />
    <glyph glyph-name="afii10047" unicode="&#x42d;" horiz-adv-x="613" 
d="M443 327h-322v85h321c-11 182 -77 209 -225 209c-51 0 -123 -9 -162 -24l-26 90c54 16 137 27 200 27c218 0 325 -74 325 -359c0 -284 -107 -369 -325 -369c-63 0 -146 11 -200 26l26 91c39 -14 111 -24 162 -24c156 0 221 39 226 248z" />
    <glyph glyph-name="afii10041" unicode="&#x427;" horiz-adv-x="634" 
d="M438 360v337h101v-697h-101v234c-28 -19 -97 -37 -171 -37c-154 0 -255 39 -255 240v260h102v-249c0 -131 49 -156 167 -156c87 0 157 24 157 68z" />
    <glyph glyph-name="afii10103" unicode="&#x456;" horiz-adv-x="239" 
d="M167 507v-507h-94v507h94zM121 709c42 0 56 -6 56 -50c0 -48 -14 -56 -56 -56c-43 0 -57 8 -57 56c0 44 14 50 57 50z" />
    <glyph glyph-name="afii10053" unicode="&#x404;" horiz-adv-x="613" 
d="M491 327h-322c5 -209 70 -248 226 -248c51 0 123 10 162 24l26 -91c-54 -15 -137 -26 -200 -26c-218 0 -325 85 -325 369c0 285 107 359 325 359c63 0 146 -11 200 -27l-26 -90c-39 15 -111 24 -162 24c-148 0 -214 -27 -225 -209h321v-85z" />
    <glyph glyph-name="afii10052" unicode="&#x403;" horiz-adv-x="548" 
d="M196 0h-101v697h451v-87h-350v-610zM322 747h-88l132 129h114z" />
    <glyph glyph-name="afii10051" unicode="&#x402;" horiz-adv-x="740" 
d="M584 610h-238v-147c29 19 85 38 143 38c132 0 194 -47 194 -289c0 -263 -96 -353 -170 -388l-61 68c64 30 130 76 130 318c0 178 -29 205 -117 205c-60 0 -116 -20 -119 -56v-359h-103v610h-239v87h580v-87z" />
    <glyph glyph-name="afii10099" unicode="&#x452;" horiz-adv-x="562" 
d="M167 588v-110c29 19 85 38 144 38c131 0 193 -50 193 -292c0 -264 -96 -365 -170 -400l-60 68c63 30 130 88 130 330c0 178 -30 204 -118 204c-60 0 -116 -19 -119 -55v-371h-94v588h-58v69h58v65h94v-65h112v-69h-112z" />
    <glyph glyph-name="afii10057" unicode="&#x408;" horiz-adv-x="451" 
d="M357 697v-505c0 -169 -99 -206 -200 -206c-51 0 -107 13 -147 29l25 92c30 -14 78 -24 115 -24c52 0 104 20 104 118v496h103z" />
    <glyph glyph-name="afii10101" unicode="&#x454;" horiz-adv-x="483" 
d="M430 92l24 -79c-39 -17 -103 -27 -149 -27c-153 0 -248 62 -248 270c0 207 95 265 247 265c46 0 113 -10 150 -24l-24 -80c-34 14 -80 21 -122 21c-88 0 -137 -21 -148 -127h217v-78h-219c4 -132 53 -164 150 -164c44 0 88 9 122 23z" />
    <glyph glyph-name="afii10056" unicode="&#x407;" horiz-adv-x="290" 
d="M95 697h101v-697h-101v697zM45 855c38 0 50 -6 50 -47c0 -45 -12 -52 -50 -52c-39 0 -51 7 -51 52c0 41 12 47 51 47zM246 855c38 0 50 -6 50 -47c0 -45 -12 -52 -50 -52c-39 0 -51 7 -51 52c0 41 12 47 51 47z" />
    <glyph glyph-name="afii10104" unicode="&#x457;" horiz-adv-x="239" 
d="M167 507v-507h-94v507h94zM20 669c38 0 50 -6 50 -47c0 -45 -12 -52 -50 -52c-39 0 -51 7 -51 52c0 41 12 47 51 47zM221 669c38 0 50 -6 50 -47c0 -45 -12 -52 -50 -52c-39 0 -51 7 -51 52c0 41 12 47 51 47z" />
    <glyph glyph-name="afii10058" unicode="&#x409;" horiz-adv-x="1045" 
d="M496 607h-225c-13 -186 -59 -415 -126 -607h-109c68 207 130 443 141 697h420v-272h224c142 0 186 -91 186 -215c0 -135 -59 -210 -178 -210h-333v607zM807 342h-210v-256h213c64 0 87 48 87 125c0 80 -29 131 -90 131z" />
    <glyph glyph-name="afii10059" unicode="&#x40a;" horiz-adv-x="1049" 
d="M196 339v-339h-101v697h101v-274h304v274h101v-274h224c142 0 186 -90 186 -214c0 -135 -59 -209 -178 -209h-333v339h-304zM811 339h-210v-253h213c64 0 87 46 87 124c0 80 -29 129 -90 129z" />
    <glyph glyph-name="afii10071" unicode="&#x451;" horiz-adv-x="549" 
d="M453 93l18 -79c-52 -16 -125 -28 -173 -28c-150 0 -241 62 -241 270c0 201 83 265 232 265c152 0 219 -56 214 -287h-345c1 -136 48 -165 151 -165c36 0 103 10 144 24zM293 442c-92 0 -126 -30 -134 -131h250c-5 108 -34 131 -116 131zM189 669c38 0 50 -6 50 -47
c0 -45 -12 -52 -50 -52c-39 0 -51 7 -51 52c0 41 12 47 51 47zM390 669c38 0 50 -6 50 -47c0 -45 -12 -52 -50 -52c-39 0 -51 7 -51 52c0 41 12 47 51 47z" />
    <glyph glyph-name="afii10023" unicode="&#x401;" horiz-adv-x="615" 
d="M95 697h491v-87h-390v-198h277v-86h-277v-239h390v-87h-491v697zM234 855c38 0 50 -6 50 -47c0 -45 -12 -52 -50 -52c-39 0 -51 7 -51 52c0 41 12 47 51 47zM435 855c38 0 50 -6 50 -47c0 -45 -12 -52 -50 -52c-39 0 -51 7 -51 52c0 41 12 47 51 47z" />
    <glyph glyph-name="afii10076" unicode="&#x43a;" horiz-adv-x="515" 
d="M513 0h-112c-99 190 -168 229 -234 242v-242h-94v507h94v-244c42 40 124 133 217 244h115c-107 -131 -179 -210 -209 -231c54 -21 102 -48 223 -276z" />
    <glyph glyph-name="afii10066" unicode="&#x431;" horiz-adv-x="569" 
d="M157 243c0 -129 40 -175 120 -175c101 0 135 25 135 176c0 138 -33 172 -123 172c-108 0 -132 -40 -132 -173zM155 435c28 40 75 65 148 65c136 0 209 -57 209 -257c0 -199 -75 -257 -237 -257c-141 0 -217 66 -217 301c0 329 69 384 240 399c67 6 130 15 185 39v-86
c-46 -21 -107 -31 -182 -38c-115 -10 -132 -57 -146 -166z" />
    <glyph glyph-name="afii10067" unicode="&#x432;" horiz-adv-x="565" 
d="M167 78h176c49 0 66 21 66 72c0 53 -21 82 -69 82h-173v-154zM167 429v-124h169c48 0 62 25 62 65c0 44 -14 59 -62 59h-169zM389 272c96 -4 121 -59 121 -131c0 -97 -53 -141 -144 -141h-293v507h286c113 0 138 -52 138 -121c0 -64 -16 -107 -108 -114z" />
    <glyph glyph-name="afii10072" unicode="&#x436;" horiz-adv-x="738" 
d="M110 0h-109c111 228 160 253 209 274c-27 21 -97 102 -196 233h111c83 -109 157 -199 197 -241v241h94v-241c39 42 114 132 196 241h111c-98 -131 -169 -212 -196 -233c49 -21 99 -46 210 -274h-109c-90 185 -154 228 -212 241v-241h-94v241c-59 -13 -123 -56 -212 -241z
" />
    <glyph glyph-name="afii10073" unicode="&#x437;" horiz-adv-x="508" 
d="M144 234v75h76c86 0 120 14 120 65c0 46 -28 65 -129 65c-59 0 -109 -8 -149 -21l-21 83c46 12 111 20 171 20c166 0 226 -38 226 -127c0 -66 -22 -116 -122 -124c106 -5 136 -61 136 -134c0 -115 -76 -150 -240 -150c-65 0 -128 7 -176 20l22 85c41 -15 96 -22 153 -22
c111 0 141 21 141 84c0 60 -38 81 -132 81h-76z" />
    <glyph glyph-name="afii10086" unicode="&#x444;" horiz-adv-x="843" 
d="M374 507v196h95v-196c37 9 65 14 100 14c147 0 217 -59 217 -266s-73 -269 -205 -269c-50 0 -88 18 -112 36v-214h-95v214c-24 -18 -62 -36 -112 -36c-131 0 -205 62 -205 269s70 266 217 266c35 0 63 -5 100 -14zM273 69c58 0 101 22 101 61v290c-32 12 -59 17 -100 17
c-86 0 -120 -28 -120 -184c0 -146 35 -184 119 -184zM570 69c84 0 119 38 119 184c0 156 -34 184 -120 184c-41 0 -68 -5 -100 -17v-293c2 -37 45 -58 101 -58z" />
    <glyph glyph-name="afii10094" unicode="&#x44c;" horiz-adv-x="562" 
d="M339 76c49 0 70 22 70 83c0 58 -23 78 -71 78h-171v-161h172zM167 314h187c107 0 156 -51 156 -154c0 -114 -49 -160 -156 -160h-282v507h95v-193z" />
    <glyph glyph-name="afii10095" unicode="&#x44d;" horiz-adv-x="483" 
d="M28 13l25 79c33 -14 78 -23 121 -23c97 0 146 32 151 164h-219v78h217c-11 106 -61 127 -149 127c-42 0 -88 -7 -121 -21l-25 80c38 14 104 24 150 24c152 0 247 -58 247 -265c0 -208 -94 -270 -247 -270c-46 0 -111 10 -150 27z" />
    <glyph glyph-name="afii10068" unicode="&#x433;" horiz-adv-x="412" 
d="M167 423v-423h-94v507h337v-84h-243z" />
    <glyph glyph-name="afii10100" unicode="&#x453;" horiz-adv-x="412" 
d="M167 424v-424h-94v507h337v-83h-243zM260 568h-90l121 129h107z" />
    <glyph glyph-name="afii10062" unicode="&#x40e;" horiz-adv-x="542" 
d="M235 172c-2 6 -4 12 -7 20c-46 131 -158 372 -238 505h119c62 -112 141 -275 191 -414c68 137 142 296 183 414h112c-91 -232 -232 -514 -347 -697c-42 0 -84 0 -126 -1c36 47 81 117 113 173zM166 871h69c0 -52 24 -64 73 -64c13 0 24 1 33 4c27 6 40 22 40 60h66
c0 -91 -48 -132 -141 -132c-91 0 -140 41 -140 132z" />
    <glyph glyph-name="afii10110" unicode="&#x45e;" horiz-adv-x="510" 
d="M195 -24c-50 180 -118 386 -183 531h101c50 -117 102 -276 141 -417c55 137 107 281 143 417h98c-51 -172 -118 -347 -190 -517c-25 -60 -58 -131 -85 -182h-107c26 48 57 113 82 168zM115 700h70c0 -52 24 -63 73 -63c47 0 73 11 73 63h66c0 -91 -48 -132 -141 -132
c-91 0 -141 41 -141 132z" />
    <glyph glyph-name="afii10061" unicode="&#x40c;" horiz-adv-x="640" 
d="M640 0h-121c-113 277 -185 326 -323 337v-337h-101v697h101v-337c62 52 186 182 302 337h128c-142 -180 -243 -285 -282 -314c90 -26 161 -64 296 -383zM361 747h-88l132 129h114z" />
    <glyph glyph-name="afii10109" unicode="&#x45c;" horiz-adv-x="515" 
d="M513 0h-112c-99 190 -168 229 -234 242v-242h-94v507h94v-244c42 40 124 133 217 244h115c-107 -131 -179 -210 -209 -231c54 -21 102 -48 223 -276zM298 568h-89l120 129h108z" />
    <glyph glyph-name="afii10108" unicode="&#x45b;" horiz-adv-x="568" 
d="M15 588v69h58v65h94v-65h112v-69h-112v-105c29 19 85 38 144 38c128 0 187 -45 187 -232v-289h-94v277c0 132 -34 158 -118 158c-61 0 -119 -21 -119 -58v-377h-94v588h-58z" />
    <glyph glyph-name="afii10084" unicode="&#x442;" horiz-adv-x="483" 
d="M289 423v-423h-95v423h-187v84h468v-84h-186z" />
    <glyph glyph-name="afii10093" unicode="&#x44b;" horiz-adv-x="739" 
d="M339 76c49 0 70 22 70 83c0 58 -23 78 -71 78h-171v-161h172zM167 314h187c107 0 156 -51 156 -154c0 -114 -49 -160 -156 -160h-282v507h95v-193zM666 507v-507h-95v507h95z" />
    <glyph glyph-name="afii10092" unicode="&#x44a;" horiz-adv-x="603" 
d="M208 314h187c107 0 156 -51 156 -154c0 -114 -49 -160 -156 -160h-281v423h-112v84h206v-193zM208 76h172c49 0 70 22 70 83c0 59 -23 79 -71 79h-171v-162z" />
    <glyph glyph-name="afii10079" unicode="&#x43d;" horiz-adv-x="571" 
d="M403 231h-236v-231h-95v507h95v-195h236v195h95v-507h-95v231z" />
    <glyph glyph-name="afii10081" unicode="&#x43f;" horiz-adv-x="571" 
d="M167 423v-423h-94v507h425v-507h-94v423h-237z" />
    <glyph glyph-name="afii10074" unicode="&#x438;" horiz-adv-x="574" 
d="M407 0v354c-70 -123 -158 -248 -240 -354h-95v507h95v-368c82 106 166 240 240 368h94v-507h-94z" />
    <glyph glyph-name="afii10075" unicode="&#x439;" horiz-adv-x="574" 
d="M407 0v354c-70 -123 -158 -248 -240 -354h-95v507h95v-368c82 106 166 240 240 368h94v-507h-94zM147 697h70c0 -52 24 -64 73 -64c41 0 75 11 73 64h66c0 -91 -48 -132 -141 -132c-91 0 -141 41 -141 132z" />
    <glyph glyph-name="afii10077" unicode="&#x43b;" horiz-adv-x="548" 
d="M381 423h-159c-12 -137 -46 -300 -85 -423h-101c48 143 87 319 96 507h344v-507h-95v423z" />
    <glyph glyph-name="afii10069" unicode="&#x434;" horiz-adv-x="615" 
d="M169 507h343v-423h95l-22 -219h-75v135h-407v-135h-74l-23 219h87c38 127 68 271 76 423zM418 423h-161c-9 -103 -35 -229 -65 -339h226v339z" />
    <glyph glyph-name="afii10088" unicode="&#x446;" horiz-adv-x="608" 
d="M498 84h103l-23 -219h-74v135h-431v507h94v-423h237v423h94v-423z" />
    <glyph glyph-name="afii10078" unicode="&#x43c;" horiz-adv-x="719" 
d="M364 168c45 118 91 228 143 339h139v-507h-93v409c-55 -117 -115 -262 -156 -376h-78c-43 116 -101 262 -152 376v-409h-94v507h144c53 -112 101 -223 147 -339z" />
    <glyph glyph-name="afii10060" unicode="&#x40b;" horiz-adv-x="747" 
d="M677 269v-269h-95v257c0 132 -33 158 -117 158c-60 0 -116 -20 -119 -56v-359h-103v610h-239v87h580v-87h-238v-147c29 19 85 38 143 38c128 0 188 -45 188 -232z" />
    <glyph glyph-name="afii10145" unicode="&#x40f;" horiz-adv-x="725" 
d="M633 0h-211l-21 -186h-70l-21 186h-214v697h102v-608h334v608h101v-697z" />
    <glyph glyph-name="afii10193" unicode="&#x45f;" horiz-adv-x="571" 
d="M167 507v-423h237v423h94v-507h-153l-21 -171h-71l-21 171h-159v507h94z" />
    <glyph glyph-name="afii61352" unicode="&#x2116;" horiz-adv-x="1135" 
d="M657 697v-697h-124c-102 189 -217 384 -338 575v-575h-100v697h135c113 -172 224 -362 325 -546v546h102zM759 155v79h298v-79h-298zM906 714c122 0 174 -42 174 -196c0 -155 -51 -201 -174 -201c-122 0 -172 46 -172 201c0 154 51 196 172 196zM906 388
c71 0 89 23 89 129c0 109 -18 126 -89 126c-70 0 -88 -17 -88 -126c0 -106 18 -129 88 -129z" />
    <glyph glyph-name="afii10106" unicode="&#x459;" horiz-adv-x="870" 
d="M381 423h-159c-12 -137 -46 -300 -85 -423h-101c48 143 87 319 96 507h344v-193h187c106 0 156 -51 156 -154c0 -114 -50 -160 -156 -160h-282v423zM476 76h172c49 0 70 22 70 83c0 59 -23 79 -71 79h-171v-162z" />
    <glyph glyph-name="afii10107" unicode="&#x45a;" horiz-adv-x="893" 
d="M498 314h187c107 0 156 -51 156 -154c0 -114 -49 -160 -156 -160h-281v238h-237v-238h-94v507h94v-193h237v193h94v-193zM498 76h172c49 0 70 23 70 83c0 59 -23 79 -71 79h-171v-162z" />
    <glyph glyph-name="afii10096" unicode="&#x44e;" horiz-adv-x="828" 
d="M542 -14c-146 0 -221 57 -227 245h-148v-231h-94v507h94v-194h149c13 161 90 208 226 208c152 0 229 -58 229 -265c0 -208 -76 -270 -229 -270zM542 441c-96 0 -130 -28 -130 -187c0 -152 34 -188 130 -188s130 36 130 188c0 159 -34 187 -130 187z" />
    <glyph glyph-name="afii10097" unicode="&#x44f;" horiz-adv-x="572" 
d="M404 274v153h-164c-50 0 -74 -18 -74 -75c0 -53 24 -78 77 -78h161zM210 224c-109 2 -146 63 -146 135c0 80 37 148 160 148h275v-507h-95v197h-85c-73 0 -111 -28 -181 -197h-107c81 182 118 215 179 224z" />
    <glyph glyph-name="afii10089" unicode="&#x447;" horiz-adv-x="541" 
d="M43 392v115h94v-103c0 -131 34 -157 118 -157c61 0 119 20 119 58v202h94v-507h-94v198c-29 -19 -86 -38 -144 -38c-128 0 -187 45 -187 232z" />
    <glyph glyph-name="afii10091" unicode="&#x449;" horiz-adv-x="860" 
d="M755 -134v134h-683v507h95v-423h197v423h94v-423h197v423h94v-423h103l-23 -218h-74z" />
    <glyph glyph-name="afii10090" unicode="&#x448;" horiz-adv-x="822" 
d="M750 507v-507h-677v507h94v-423h197v423h94v-423h197v423h95z" />
    <glyph glyph-name="afii10065" unicode="&#x430;" horiz-adv-x="551" 
d="M480 324v-298c-60 -25 -149 -40 -217 -40c-153 0 -210 38 -210 170c0 144 84 167 200 167c48 0 87 -5 135 -15c0 106 -27 129 -138 129c-52 0 -109 -7 -150 -23l-20 82c45 12 114 25 185 25c149 0 215 -44 215 -197zM388 83v155c-32 8 -75 11 -118 11
c-86 0 -115 -9 -115 -88c0 -85 23 -98 114 -98c42 0 85 8 119 20z" />
    <glyph glyph-name="afii10070" unicode="&#x435;" horiz-adv-x="549" 
d="M453 93l18 -79c-52 -16 -125 -28 -173 -28c-150 0 -241 62 -241 270c0 201 83 265 232 265c152 0 219 -56 214 -287h-345c1 -136 48 -165 151 -165c36 0 103 10 144 24zM293 442c-92 0 -126 -30 -134 -131h250c-5 108 -34 131 -116 131z" />
    <glyph glyph-name="afii10050" unicode="&#x490;" horiz-adv-x="539" 
d="M95 0v697h353l27 171h71v-258h-350v-610h-101z" />
    <glyph glyph-name="afii10098" unicode="&#x491;" horiz-adv-x="412" 
d="M410 423h-243v-423h-95v507h248l24 154h66v-238z" />
    <glyph glyph-name="Asmall" unicode="&#xf761;" horiz-adv-x="548" 
d="M431 0c-17 40 -35 87 -53 137h-223c-16 -47 -30 -94 -42 -137h-99c47 160 119 346 185 507h155c49 -167 115 -369 179 -507h-102zM284 427h-23c-28 -70 -56 -144 -82 -218h174c-26 75 -49 149 -69 218z" />
    <glyph glyph-name="AEsmall" unicode="&#xf7e6;" horiz-adv-x="784" 
d="M680 306v-76h-227v-150h289v-80h-384v138h-231c-32 -48 -63 -95 -90 -138h-107c102 160 238 346 361 507h451v-81h-289v-120h227zM336 431c-52 -70 -108 -146 -160 -221h182v221h-22z" />
    <glyph glyph-name="Abrevesmall" horiz-adv-x="548" 
d="M431 0c-17 40 -35 87 -53 137h-223c-16 -47 -30 -94 -42 -137h-99c47 160 119 346 185 507h155c49 -167 115 -369 179 -507h-102zM284 427h-23c-28 -70 -56 -144 -82 -218h174c-26 75 -49 149 -69 218zM134 697h70c0 -52 24 -63 73 -63c47 0 73 11 73 63h66
c0 -91 -48 -132 -141 -132c-91 0 -141 41 -141 132z" />
    <glyph glyph-name="Amacronsmall" horiz-adv-x="548" 
d="M431 0c-17 40 -35 87 -53 137h-223c-16 -47 -30 -94 -42 -137h-99c47 160 119 346 185 507h155c49 -167 115 -369 179 -507h-102zM284 427h-23c-28 -70 -56 -144 -82 -218h174c-26 75 -49 149 -69 218zM140 581v74h265v-74h-265z" />
    <glyph glyph-name="Aogoneksmall" horiz-adv-x="548" 
d="M431 0c-17 40 -35 87 -53 137h-223c-16 -47 -30 -94 -42 -137h-99c47 160 119 346 185 507h155c49 -167 115 -369 179 -507h-102zM284 427h-23c-28 -70 -56 -144 -82 -218h174c-26 75 -49 149 -69 218zM474 12h37c-74 -45 -90 -70 -90 -110c0 -29 13 -43 65 -43
c33 0 67 13 87 29l32 -56c-32 -24 -86 -35 -128 -35c-101 0 -130 30 -130 89c0 53 41 102 127 126z" />
    <glyph glyph-name="Aacutesmall" unicode="&#xf7e1;" horiz-adv-x="548" 
d="M431 0c-17 40 -35 87 -53 137h-223c-16 -47 -30 -94 -42 -137h-99c47 160 119 346 185 507h155c49 -167 115 -369 179 -507h-102zM284 427h-23c-28 -70 -56 -144 -82 -218h174c-26 75 -49 149 -69 218zM283 568h-90l121 129h107z" />
    <glyph glyph-name="Agravesmall" unicode="&#xf7e0;" horiz-adv-x="548" 
d="M431 0c-17 40 -35 87 -53 137h-223c-16 -47 -30 -94 -42 -137h-99c47 160 119 346 185 507h155c49 -167 115 -369 179 -507h-102zM284 427h-23c-28 -70 -56 -144 -82 -218h174c-26 75 -49 149 -69 218zM367 568h-89l-139 129h108z" />
    <glyph glyph-name="Acircumflexsmall" unicode="&#xf7e2;" horiz-adv-x="548" 
d="M431 0c-17 40 -35 87 -53 137h-223c-16 -47 -30 -94 -42 -137h-99c47 160 119 346 185 507h155c49 -167 115 -369 179 -507h-102zM284 427h-23c-28 -70 -56 -144 -82 -218h174c-26 75 -49 149 -69 218zM349 568c-25 27 -50 53 -76 81c-24 -28 -49 -54 -74 -81h-95
c41 43 81 86 122 129h97l126 -129h-100z" />
    <glyph glyph-name="Adieresissmall" unicode="&#xf7e4;" horiz-adv-x="548" 
d="M431 0c-17 40 -35 87 -53 137h-223c-16 -47 -30 -94 -42 -137h-99c47 160 119 346 185 507h155c49 -167 115 -369 179 -507h-102zM284 427h-23c-28 -70 -56 -144 -82 -218h174c-26 75 -49 149 -69 218zM173 669c38 0 50 -6 50 -47c0 -45 -12 -52 -50 -52
c-39 0 -51 7 -51 52c0 41 12 47 51 47zM374 669c38 0 50 -6 50 -47c0 -45 -12 -52 -50 -52c-39 0 -51 7 -51 52c0 41 12 47 51 47z" />
    <glyph glyph-name="Atildesmall" unicode="&#xf7e3;" horiz-adv-x="548" 
d="M431 0c-17 40 -35 87 -53 137h-223c-16 -47 -30 -94 -42 -137h-99c47 160 119 346 185 507h155c49 -167 115 -369 179 -507h-102zM284 427h-23c-28 -70 -56 -144 -82 -218h174c-26 75 -49 149 -69 218zM399 695l52 -41c-21 -56 -55 -92 -112 -92c-56 0 -91 60 -139 60
c-21 0 -39 -15 -56 -56l-46 45c29 51 59 81 106 81c63 0 91 -59 138 -59c25 0 40 15 57 62z" />
    <glyph glyph-name="Aringsmall" unicode="&#xf7e5;" horiz-adv-x="548" 
d="M431 0c-17 40 -35 87 -53 137h-223c-16 -47 -30 -94 -42 -137h-99c47 160 119 346 185 507h155c49 -167 115 -369 179 -507h-102zM284 427h-23c-28 -70 -56 -144 -82 -218h174c-26 75 -49 149 -69 218zM272 739c75 0 114 -28 114 -96c0 -67 -39 -96 -114 -96
s-114 29 -114 96c0 68 31 96 114 96zM272 689c-42 0 -54 -16 -54 -47c0 -30 12 -48 54 -48c43 0 55 18 55 48c0 31 -12 47 -55 47z" />
    <glyph glyph-name="bracketleftsmall" horiz-adv-x="351" 
d="M88 647h235v-83h-136v-626h136v-82h-235v791z" />
    <glyph glyph-name="braceleftsmall" horiz-adv-x="338" 
d="M32 211v-1v77c56 0 102 25 102 151c0 136 67 198 149 217c13 -24 25 -47 38 -71c-62 -16 -98 -44 -98 -167c0 -128 -55 -161 -89 -168c34 -7 89 -41 89 -169c0 -122 35 -150 98 -166c-13 -24 -25 -47 -38 -70c-82 19 -149 81 -149 216c0 126 -46 151 -102 151z" />
    <glyph glyph-name="Dcaronsmall" horiz-adv-x="570" 
d="M73 507h194c159 0 246 -54 246 -251c0 -198 -86 -256 -246 -256h-194v507zM265 429h-98v-351h98c103 0 148 31 148 176c0 150 -45 175 -148 175zM97 697h99l76 -81l74 81h96l-122 -129h-97z" />
    <glyph glyph-name="Dcroatsmall" horiz-adv-x="570" 
d="M20 230v75h53v202h194c159 0 246 -54 246 -251c0 -198 -86 -256 -246 -256h-194v230h-53zM265 429h-98v-124h109v-75h-109v-152h98c103 0 148 31 148 176c0 150 -45 175 -148 175z" />
    <glyph glyph-name="Dmacronsmall" horiz-adv-x="570" 
d="M73 507h194c159 0 246 -54 246 -251c0 -198 -86 -256 -246 -256h-194v507zM265 429h-98v-351h98c103 0 148 31 148 176c0 150 -45 175 -148 175zM131 581v74h265v-74h-265z" />
    <glyph glyph-name="Egravesmall" unicode="&#xf7e8;" horiz-adv-x="498" 
d="M456 507v-80h-289v-120h227v-77h-227v-150h289v-80h-383v507h383zM361 568h-89l-139 129h108z" />
    <glyph glyph-name="Emacronsmall" horiz-adv-x="498" 
d="M456 507v-80h-289v-120h227v-77h-227v-150h289v-80h-383v507h383zM135 581v74h265v-74h-265z" />
    <glyph glyph-name="Eurosmall" horiz-adv-x="474" 
d="M425 89l25 -76c-39 -17 -102 -27 -148 -27c-153 0 -245 62 -245 270c0 207 93 265 245 265c46 0 110 -10 148 -24l-25 -77c-33 15 -76 22 -118 22c-73 0 -118 -16 -138 -82h208v-63h-219c-1 -13 -1 -29 -1 -43s0 -26 1 -37h219v-63h-208c18 -69 64 -88 138 -88
c43 0 85 8 118 23z" />
    <glyph glyph-name="Eogoneksmall" horiz-adv-x="498" 
d="M456 507v-80h-289v-120h227v-77h-227v-150h289v-80h-383v507h383zM384 12h37c-74 -45 -90 -70 -90 -110c0 -29 13 -43 65 -43c33 0 67 13 87 29l32 -56c-32 -24 -86 -35 -128 -35c-101 0 -130 30 -130 89c0 53 41 102 127 126z" />
    <glyph glyph-name="Ecaronsmall" horiz-adv-x="498" 
d="M456 507v-80h-289v-120h227v-77h-227v-150h289v-80h-383v507h383zM112 697h99l76 -81l74 81h96l-122 -129h-97z" />
    <glyph glyph-name="Eacutesmall" unicode="&#xf7e9;" horiz-adv-x="498" 
d="M456 507v-80h-289v-120h227v-77h-227v-150h289v-80h-383v507h383zM277 568h-90l121 129h107z" />
    <glyph glyph-name="Ecircumflexsmall" unicode="&#xf7ea;" horiz-adv-x="498" 
d="M456 507v-80h-289v-120h227v-77h-227v-150h289v-80h-383v507h383zM351 568c-25 27 -50 53 -76 81c-24 -28 -49 -54 -74 -81h-95c41 43 81 86 122 129h97l126 -129h-100z" />
    <glyph glyph-name="Edieresissmall" unicode="&#xf7eb;" horiz-adv-x="498" 
d="M456 507v-80h-289v-120h227v-77h-227v-150h289v-80h-383v507h383zM178 669c38 0 50 -6 50 -47c0 -45 -12 -52 -50 -52c-39 0 -51 7 -51 52c0 41 12 47 51 47zM379 669c38 0 50 -6 50 -47c0 -45 -12 -52 -50 -52c-39 0 -51 7 -51 52c0 41 12 47 51 47z" />
    <glyph glyph-name="Edotaccentsmall" horiz-adv-x="498" 
d="M456 507v-80h-289v-120h227v-77h-227v-150h289v-80h-383v507h383zM279 669c38 0 50 -6 50 -47c0 -45 -12 -52 -50 -52s-51 7 -51 52c0 41 13 47 51 47z" />
    <glyph glyph-name="Ebrevesmall" horiz-adv-x="498" 
d="M456 507v-80h-289v-120h227v-77h-227v-150h289v-80h-383v507h383zM134 697h70c0 -52 24 -63 73 -63c47 0 73 11 73 63h66c0 -91 -48 -132 -141 -132c-91 0 -141 41 -141 132z" />
    <glyph glyph-name="exclamsmall" unicode="&#xf721;" horiz-adv-x="329" 
d="M106 507h116l-23 -317h-71zM164 122c50 0 66 -8 66 -60c0 -56 -16 -66 -66 -66c-48 0 -65 10 -65 66c0 52 17 60 65 60z" />
    <glyph glyph-name="Fsmall" unicode="&#xf766;" horiz-adv-x="465" 
d="M72 0v507h384v-81h-289v-144h227v-77h-227v-205h-95z" />
    <glyph glyph-name="Gsmall" unicode="&#xf767;" horiz-adv-x="561" 
d="M495 287v-266c-46 -18 -125 -35 -185 -35c-157 0 -253 62 -253 270c0 207 103 265 258 265c46 0 120 -10 162 -24l-27 -82c-37 15 -86 23 -133 23c-104 0 -160 -27 -160 -184c0 -149 54 -185 157 -185c31 0 67 5 92 14v128h-125v76h214z" />
    <glyph glyph-name="Gacutesmall" horiz-adv-x="561" 
d="M495 287v-266c-46 -18 -125 -35 -185 -35c-157 0 -253 62 -253 270c0 207 103 265 258 265c46 0 120 -10 162 -24l-27 -82c-37 15 -86 23 -133 23c-104 0 -160 -27 -160 -184c0 -149 54 -185 157 -185c31 0 67 5 92 14v128h-125v76h214zM299 568h-90l121 129h107z" />
    <glyph glyph-name="Gbrevesmall" horiz-adv-x="561" 
d="M495 287v-266c-46 -18 -125 -35 -185 -35c-157 0 -253 62 -253 270c0 207 103 265 258 265c46 0 120 -10 162 -24l-27 -82c-37 15 -86 23 -133 23c-104 0 -160 -27 -160 -184c0 -149 54 -185 157 -185c31 0 67 5 92 14v128h-125v76h214zM166 697h70c0 -52 24 -63 73 -63
c47 0 73 11 73 63h66c0 -91 -48 -132 -141 -132c-91 0 -141 41 -141 132z" />
    <glyph glyph-name="Gcircumflexsmall" horiz-adv-x="561" 
d="M495 287v-266c-46 -18 -125 -35 -185 -35c-157 0 -253 62 -253 270c0 207 103 265 258 265c46 0 120 -10 162 -24l-27 -82c-37 15 -86 23 -133 23c-104 0 -160 -27 -160 -184c0 -149 54 -185 157 -185c31 0 67 5 92 14v128h-125v76h214zM381 568c-25 27 -50 53 -76 81
c-24 -28 -49 -54 -74 -81h-95c41 43 81 86 122 129h97l126 -129h-100z" />
    <glyph glyph-name="Gcommaaccentsmall" horiz-adv-x="561" 
d="M495 287v-266c-46 -18 -125 -35 -185 -35c-157 0 -253 62 -253 270c0 207 103 265 258 265c46 0 120 -10 162 -24l-27 -82c-37 15 -86 23 -133 23c-104 0 -160 -27 -160 -184c0 -149 54 -185 157 -185c31 0 67 5 92 14v128h-125v76h214zM368 -51l-104 -167h-76l71 167
h109z" />
    <glyph glyph-name="Gdotaccentsmall" horiz-adv-x="561" 
d="M495 287v-266c-46 -18 -125 -35 -185 -35c-157 0 -253 62 -253 270c0 207 103 265 258 265c46 0 120 -10 162 -24l-27 -82c-37 15 -86 23 -133 23c-104 0 -160 -27 -160 -184c0 -149 54 -185 157 -185c31 0 67 5 92 14v128h-125v76h214zM304 669c38 0 50 -6 50 -47
c0 -45 -12 -52 -50 -52s-51 7 -51 52c0 41 13 47 51 47z" />
    <glyph glyph-name="Germandblssmall" horiz-adv-x="993" 
d="M926 495l-24 -80c-41 15 -97 26 -147 26c-73 0 -110 -9 -110 -75c0 -42 28 -59 115 -67c127 -11 182 -51 182 -148c0 -127 -74 -165 -206 -165c-52 0 -133 10 -182 27l23 80c36 -15 105 -27 157 -27c74 0 112 11 112 78c0 45 -24 66 -117 74c-117 10 -181 41 -181 140
c0 126 79 163 209 163c51 0 115 -10 169 -26zM430 495l-24 -80c-41 15 -97 26 -147 26c-73 0 -110 -9 -110 -75c0 -42 28 -59 115 -67c127 -11 182 -51 182 -148c0 -127 -74 -165 -206 -165c-52 0 -133 10 -182 27l23 80c36 -15 105 -27 157 -27c74 0 112 11 112 78
c0 45 -24 66 -117 74c-117 10 -181 41 -181 140c0 126 79 163 209 163c51 0 115 -10 169 -26z" />
    <glyph glyph-name="Hbarsmall" horiz-adv-x="571" 
d="M11 385v68h62v54h94v-54h237v54h94v-54h62v-68h-62v-385h-94v231h-237v-231h-94v385h-62zM167 313h237v72h-237v-72z" />
    <glyph glyph-name="Hcircumflexsmall" horiz-adv-x="571" 
d="M403 231h-236v-231h-95v507h95v-195h236v195h95v-507h-95v231zM361 568c-25 27 -50 53 -76 81c-24 -28 -49 -54 -74 -81h-95c41 43 81 86 122 129h97l126 -129h-100z" />
    <glyph glyph-name="IJsmall" horiz-adv-x="625" 
d="M167 507v-507h-94v507h94zM553 507v-338c0 -151 -91 -183 -181 -183c-46 0 -96 8 -133 23l22 83c28 -12 70 -21 104 -21c47 0 93 16 93 102v334h95z" />
    <glyph glyph-name="Imacronsmall" horiz-adv-x="239" 
d="M167 507v-507h-94v507h94zM-12 581v74h265v-74h-265z" />
    <glyph glyph-name="Iogoneksmall" horiz-adv-x="239" 
d="M167 507v-507h-94v507h94zM117 12h37c-74 -45 -90 -70 -90 -110c0 -29 13 -43 65 -43c33 0 67 13 87 29l32 -56c-32 -24 -86 -35 -128 -35c-101 0 -130 30 -130 89c0 53 41 102 127 126z" />
    <glyph glyph-name="Itildesmall" horiz-adv-x="239" 
d="M167 507v-507h-94v507h94zM248 695l52 -41c-21 -56 -55 -92 -112 -92c-56 0 -91 60 -139 60c-21 0 -39 -15 -56 -56l-46 45c29 51 59 81 106 81c63 0 91 -59 138 -59c25 0 40 15 57 62z" />
    <glyph glyph-name="Jcircumflexsmall" horiz-adv-x="386" 
d="M314 507v-338c0 -151 -91 -183 -181 -183c-46 0 -96 8 -133 23l22 83c28 -12 70 -21 104 -21c47 0 93 16 93 102v334h95zM337 568c-25 27 -50 53 -76 81c-24 -28 -49 -54 -74 -81h-95c41 43 81 86 122 129h97l126 -129h-100z" />
    <glyph glyph-name="Kcommaaccentsmall" horiz-adv-x="515" 
d="M167 507v-507h-94v507h94zM516 0h-115c-124 165 -203 256 -234 268c31 23 108 106 217 239h115c-107 -131 -183 -209 -212 -230c28 -16 108 -108 229 -277zM349 -51l-104 -167h-76l71 167h109z" />
    <glyph glyph-name="Lslashsmall" unicode="&#xf6f9;" horiz-adv-x="416" 
d="M167 220v-135h248v-85h-342v139l-46 -41v88l46 41v280h94v-198l99 90v-90z" />
    <glyph glyph-name="Lacutesmall" horiz-adv-x="416" 
d="M167 507v-422h248v-85h-342v507h94zM178 568h-90l121 129h107z" />
    <glyph glyph-name="Lcaronsmall" horiz-adv-x="416" 
d="M167 507v-422h248v-85h-342v507h94zM252 544h92l-56 -192h-57z" />
    <glyph glyph-name="Lcommaaccentsmall" horiz-adv-x="416" 
d="M167 507v-422h248v-85h-342v507h94zM301 -51l-104 -167h-76l71 167h109z" />
    <glyph glyph-name="Ldotsmall" horiz-adv-x="416" 
d="M167 507v-422h248v-85h-342v507h94zM285 362c38 0 50 -6 50 -47c0 -45 -12 -52 -50 -52s-51 7 -51 52c0 41 13 47 51 47z" />
    <glyph glyph-name="Nacutesmall" horiz-adv-x="574" 
d="M407 153v354h94v-507h-94c-74 127 -158 261 -240 366v-366h-95v507h94c82 -107 171 -231 241 -354zM301 568h-90l121 129h107z" />
    <glyph glyph-name="Ncaronsmall" horiz-adv-x="574" 
d="M407 153v354h94v-507h-94c-74 127 -158 261 -240 366v-366h-95v507h94c82 -107 171 -231 241 -354zM119 697h99l76 -81l74 81h96l-122 -129h-97z" />
    <glyph glyph-name="Ncommaaccentsmall" horiz-adv-x="574" 
d="M407 153v354h94v-507h-94c-74 127 -158 261 -240 366v-366h-95v507h94c82 -107 171 -231 241 -354zM351 -51l-104 -167h-76l71 167h109z" />
    <glyph glyph-name="Ntildesmall" unicode="&#xf7f1;" horiz-adv-x="574" 
d="M407 153v354h94v-507h-94c-74 127 -158 261 -240 366v-366h-95v507h94c82 -107 171 -231 241 -354zM418 695l52 -41c-21 -56 -55 -92 -112 -92c-56 0 -91 60 -139 60c-21 0 -39 -15 -56 -56l-46 45c29 51 59 81 106 81c63 0 91 -59 138 -59c25 0 40 15 57 62z" />
    <glyph glyph-name="Obrevesmall" 
d="M293 -14c-160 0 -236 62 -236 270c0 207 77 265 236 265c160 0 236 -58 236 -265c0 -208 -75 -270 -236 -270zM293 440c-103 0 -136 -27 -136 -186c0 -152 33 -187 136 -187s136 35 136 187c0 159 -33 186 -136 186zM152 697h70c0 -52 24 -63 72 -63s74 11 74 63h66
c0 -91 -49 -132 -142 -132c-90 0 -140 41 -140 132z" />
    <glyph glyph-name="OEsmall" unicode="&#xf6fa;" horiz-adv-x="836" 
d="M794 507v-80h-299c18 -30 29 -68 33 -120h205v-77h-204c-2 -68 -13 -116 -36 -150h301v-80h-394c-30 -9 -66 -14 -107 -14c-160 0 -236 62 -236 270c0 207 77 265 236 265c42 0 79 -4 110 -14h391zM293 441c-103 0 -136 -28 -136 -187c0 -152 33 -188 136 -188
s136 36 136 188c0 159 -33 187 -136 187z" />
    <glyph glyph-name="Ohungarumlautsmall" 
d="M293 -14c-160 0 -236 62 -236 270c0 207 77 265 236 265c160 0 236 -58 236 -265c0 -208 -75 -270 -236 -270zM293 440c-103 0 -136 -27 -136 -186c0 -152 33 -187 136 -187s136 35 136 187c0 159 -33 186 -136 186zM243 568h-70l88 129h92zM395 568h-70l87 129h93z" />
    <glyph glyph-name="Omacronsmall" 
d="M293 -14c-160 0 -236 62 -236 270c0 207 77 265 236 265c160 0 236 -58 236 -265c0 -208 -75 -270 -236 -270zM293 440c-103 0 -136 -27 -136 -186c0 -152 33 -187 136 -187s136 35 136 187c0 159 -33 186 -136 186zM161 581v74h265v-74h-265z" />
    <glyph glyph-name="parenleftsmall" horiz-adv-x="321" 
d="M68 250c0 249 91 363 202 406l44 -73c-78 -26 -147 -105 -147 -333c0 -227 69 -306 147 -333l-44 -72c-111 43 -202 156 -202 405z" />
    <glyph glyph-name="questionsmall" unicode="&#xf73f;" horiz-adv-x="474" 
d="M219 123c51 0 67 -8 67 -60c0 -56 -16 -65 -67 -65c-48 0 -64 9 -64 65c0 52 16 60 64 60zM263 187h-102c96 69 138 124 138 194c0 46 -26 61 -100 61c-40 0 -93 -6 -126 -17l-18 81c37 9 105 17 149 17c146 0 202 -41 202 -132c0 -84 -42 -135 -143 -204z" />
    <glyph glyph-name="Racutesmall" horiz-adv-x="556" 
d="M347 507c122 0 157 -68 157 -148c0 -72 -34 -133 -143 -135c49 -12 80 -40 188 -224h-112c-92 169 -133 197 -188 197h-82v-197h-95v507h275zM167 274h160c52 0 78 26 78 78c0 55 -24 75 -75 75h-163v-153zM265 568h-90l121 129h107z" />
    <glyph glyph-name="Rcaronsmall" horiz-adv-x="556" 
d="M347 507c122 0 157 -68 157 -148c0 -72 -34 -133 -143 -135c49 -12 80 -40 188 -224h-112c-92 169 -133 197 -188 197h-82v-197h-95v507h275zM167 274h160c52 0 78 26 78 78c0 55 -24 75 -75 75h-163v-153zM110 697h99l76 -81l74 81h96l-122 -129h-97z" />
    <glyph glyph-name="Rcommaaccentsmall" horiz-adv-x="556" 
d="M347 507c122 0 157 -68 157 -148c0 -72 -34 -133 -143 -135c49 -12 80 -40 188 -224h-112c-92 169 -133 197 -188 197h-82v-197h-95v507h275zM167 274h160c52 0 78 26 78 78c0 55 -24 75 -75 75h-163v-153zM348 -51l-104 -167h-76l71 167h109z" />
    <glyph glyph-name="sterlingsmall" horiz-adv-x="513" 
d="M40 211v74h53v65c0 112 70 171 223 171c55 0 120 -8 166 -22l-22 -79c-31 11 -95 19 -144 19c-96 0 -128 -32 -128 -98v-56h152v-74h-152v-129h279v-82h-374v211h-53z" />
    <glyph glyph-name="summationsmall" horiz-adv-x="496" 
d="M462 423h-273c25 -41 71 -107 116 -168c-53 -74 -93 -131 -127 -171h282v-84h-433v26c60 74 114 151 169 229c-52 74 -114 164 -154 227v25h420v-84z" />
    <glyph glyph-name="Tbarsmall" horiz-adv-x="483" 
d="M110 198v74h84v151h-187v84h468v-84h-187v-151h87v-74h-87v-198h-94v198h-84z" />
    <glyph glyph-name="Tcommaaccentsmall" horiz-adv-x="483" 
d="M289 423v-423h-95v423h-187v84h468v-84h-186zM305 -51l-104 -167h-76l71 167h109z" />
    <glyph glyph-name="Tcaronsmall" horiz-adv-x="483" 
d="M289 423v-423h-95v423h-187v84h468v-84h-186zM70 697h99l76 -81l74 81h96l-122 -129h-97z" />
    <glyph glyph-name="Ucircumflexsmall" unicode="&#xf7fb;" horiz-adv-x="564" 
d="M282 73c94 0 116 33 116 114v320h95v-313c0 -157 -56 -208 -211 -208c-154 0 -211 51 -211 208v313h94v-320c0 -81 23 -114 117 -114zM352 568c-25 27 -50 53 -76 81c-24 -28 -49 -54 -74 -81h-95c41 43 81 86 122 129h97l126 -129h-100z" />
    <glyph glyph-name="Utildesmall" horiz-adv-x="564" 
d="M282 73c94 0 116 33 116 114v320h95v-313c0 -157 -56 -208 -211 -208c-154 0 -211 51 -211 208v313h94v-320c0 -81 23 -114 117 -114zM407 695l52 -41c-21 -56 -55 -92 -112 -92c-56 0 -91 60 -139 60c-21 0 -39 -15 -56 -56l-46 45c29 51 59 81 106 81
c63 0 91 -59 138 -59c25 0 40 15 57 62z" />
    <glyph glyph-name="Uringsmall" horiz-adv-x="564" 
d="M282 73c94 0 116 33 116 114v320h95v-313c0 -157 -56 -208 -211 -208c-154 0 -211 51 -211 208v313h94v-320c0 -81 23 -114 117 -114zM283 739c75 0 114 -28 114 -96c0 -67 -39 -96 -114 -96s-114 29 -114 96c0 68 31 96 114 96zM283 689c-42 0 -54 -16 -54 -47
c0 -30 12 -48 54 -48c43 0 55 18 55 48c0 31 -12 47 -55 47z" />
    <glyph glyph-name="Uogoneksmall" horiz-adv-x="564" 
d="M282 73c94 0 116 33 116 114v320h95v-313c0 -157 -56 -208 -211 -208c-154 0 -211 51 -211 208v313h94v-320c0 -81 23 -114 117 -114zM353 12h37c-74 -45 -90 -70 -90 -110c0 -29 13 -43 65 -43c33 0 67 13 87 29l32 -56c-32 -24 -86 -35 -128 -35
c-101 0 -130 30 -130 89c0 53 41 102 127 126z" />
    <glyph glyph-name="Umacronsmall" horiz-adv-x="564" 
d="M282 73c94 0 116 33 116 114v320h95v-313c0 -157 -56 -208 -211 -208c-154 0 -211 51 -211 208v313h94v-320c0 -81 23 -114 117 -114zM153 581v74h265v-74h-265z" />
    <glyph glyph-name="Uacutesmall" unicode="&#xf7fa;" horiz-adv-x="564" 
d="M282 73c94 0 116 33 116 114v320h95v-313c0 -157 -56 -208 -211 -208c-154 0 -211 51 -211 208v313h94v-320c0 -81 23 -114 117 -114zM277 568h-90l121 129h107z" />
    <glyph glyph-name="Ubrevesmall" horiz-adv-x="564" 
d="M282 73c94 0 116 33 116 114v320h95v-313c0 -157 -56 -208 -211 -208c-154 0 -211 51 -211 208v313h94v-320c0 -81 23 -114 117 -114zM144 697h70c0 -52 24 -63 73 -63c47 0 73 11 73 63h66c0 -91 -48 -132 -141 -132c-91 0 -141 41 -141 132z" />
    <glyph glyph-name="Udieresissmall" unicode="&#xf7fc;" horiz-adv-x="564" 
d="M282 73c94 0 116 33 116 114v320h95v-313c0 -157 -56 -208 -211 -208c-154 0 -211 51 -211 208v313h94v-320c0 -81 23 -114 117 -114zM183 669c38 0 50 -6 50 -47c0 -45 -12 -52 -50 -52c-39 0 -51 7 -51 52c0 41 12 47 51 47zM384 669c38 0 50 -6 50 -47
c0 -45 -12 -52 -50 -52c-39 0 -51 7 -51 52c0 41 12 47 51 47z" />
    <glyph glyph-name="Ugravesmall" unicode="&#xf7f9;" horiz-adv-x="564" 
d="M282 73c94 0 116 33 116 114v320h95v-313c0 -157 -56 -208 -211 -208c-154 0 -211 51 -211 208v313h94v-320c0 -81 23 -114 117 -114zM381 568h-89l-139 129h108z" />
    <glyph glyph-name="Uhungarumlautsmall" horiz-adv-x="564" 
d="M282 73c94 0 116 33 116 114v320h95v-313c0 -157 -56 -208 -211 -208c-154 0 -211 51 -211 208v313h94v-320c0 -81 23 -114 117 -114zM229 568h-70l88 129h92zM381 568h-70l87 129h93z" />
    <glyph glyph-name="Ysmall" unicode="&#xf779;" horiz-adv-x="480" 
d="M245 311c47 56 102 134 143 196h108c-63 -92 -138 -191 -207 -274v-233h-94v233c-63 89 -141 193 -211 274h113c50 -59 101 -129 148 -196z" />
    <glyph glyph-name="yensmall" horiz-adv-x="480" 
d="M54 222v55h111c-56 78 -120 160 -180 230h111c51 -59 101 -129 149 -196c47 56 103 134 144 196h106c-54 -77 -114 -157 -173 -230h102v-55h-135v-65h135v-54h-135v-103h-94v103h-141v54h141v65h-141z" />
    <glyph glyph-name="Yacutesmall" unicode="&#xf7fd;" horiz-adv-x="480" 
d="M245 311c47 56 102 134 143 196h108c-63 -92 -138 -191 -207 -274v-233h-94v233c-63 89 -141 193 -211 274h113c50 -59 101 -129 148 -196zM257 568h-90l121 129h107z" />
    <glyph glyph-name="Ycircumflexsmall" horiz-adv-x="480" 
d="M245 311c47 56 102 134 143 196h108c-63 -92 -138 -191 -207 -274v-233h-94v233c-63 89 -141 193 -211 274h113c50 -59 101 -129 148 -196zM321 568c-25 27 -50 53 -76 81c-24 -28 -49 -54 -74 -81h-95c41 43 81 86 122 129h97l126 -129h-100z" />
    <glyph glyph-name="Ydieresissmall" unicode="&#xf7ff;" horiz-adv-x="480" 
d="M245 311c47 56 102 134 143 196h108c-63 -92 -138 -191 -207 -274v-233h-94v233c-63 89 -141 193 -211 274h113c50 -59 101 -129 148 -196zM145 669c38 0 50 -6 50 -47c0 -45 -12 -52 -50 -52c-39 0 -51 7 -51 52c0 41 12 47 51 47zM346 669c38 0 50 -6 50 -47
c0 -45 -12 -52 -50 -52c-39 0 -51 7 -51 52c0 41 12 47 51 47z" />
    <glyph glyph-name="zerosmall" horiz-adv-x="553" 
d="M276 -14c-140 0 -216 62 -216 270c0 207 77 265 216 265c140 0 217 -58 217 -265c0 -208 -76 -270 -217 -270zM276 441c-83 0 -116 -28 -116 -187c0 -152 33 -188 116 -188c84 0 117 36 117 188c0 159 -33 187 -117 187z" />
    <glyph glyph-name="onesmall" horiz-adv-x="553" 
d="M372 0h-95v393l-156 -76l-30 79l281 125v-521z" />
    <glyph glyph-name="twosmall" horiz-adv-x="553" 
d="M97 409l-24 91c48 12 124 21 181 21c162 0 221 -49 221 -160c0 -96 -49 -161 -268 -281h273v-80h-415v73c279 177 302 204 302 277c0 59 -30 83 -124 83c-44 0 -117 -11 -146 -24z" />
    <glyph glyph-name="foursmall" horiz-adv-x="553" 
d="M332 129h-295v32c57 90 164 238 251 346h138v-299h95v-79h-95v-129h-94v129zM332 208v229c-61 -76 -136 -178 -170 -229h170z" />
    <glyph glyph-name="fivesmall" horiz-adv-x="553" 
d="M94 507h374v-82h-279v-118c24 2 56 4 86 4c153 0 213 -47 213 -160c0 -127 -79 -165 -241 -165c-56 0 -136 5 -185 20l21 80c40 -12 112 -19 160 -19c107 0 148 22 148 81c0 66 -37 90 -137 90c-48 0 -120 -5 -160 -12v281z" />
    <glyph glyph-name="sixsmall" horiz-adv-x="553" 
d="M515 148c0 -125 -70 -162 -222 -162c-159 0 -231 52 -231 269c0 204 95 266 269 266c58 0 114 -9 166 -23l-23 -81c-38 12 -91 22 -142 22c-121 0 -170 -23 -175 -140c45 7 106 12 145 12c155 0 213 -43 213 -163zM417 150c0 71 -27 90 -128 90c-47 0 -96 -4 -132 -11
c2 -143 49 -166 134 -166c102 0 126 24 126 87z" />
    <glyph glyph-name="sevensmall" horiz-adv-x="553" 
d="M56 507h463v-22c-99 -137 -201 -333 -265 -485h-109c70 154 166 321 237 423h-326v84z" />
    <glyph glyph-name="eightsmall" horiz-adv-x="553" 
d="M276 65c108 0 137 21 137 85c0 62 -43 83 -137 83c-93 0 -136 -21 -136 -83c0 -64 29 -85 136 -85zM276 -14c-164 0 -234 35 -234 150c0 73 31 129 136 134c-99 8 -122 58 -122 124c0 89 54 127 220 127s220 -38 220 -127c0 -66 -23 -116 -122 -124
c105 -5 136 -61 136 -134c0 -115 -70 -150 -234 -150zM276 310c86 0 126 15 126 68c0 49 -29 66 -126 66c-96 0 -125 -17 -125 -66c0 -53 39 -68 125 -68z" />
    <glyph glyph-name="ninesmall" horiz-adv-x="553" 
d="M255 189c-154 0 -209 43 -209 162c0 124 69 171 227 171c172 0 234 -55 234 -199c0 -142 -115 -235 -230 -323h-133c101 72 208 162 229 199c-42 -5 -82 -10 -118 -10zM407 325c0 90 -36 120 -132 120c-108 0 -130 -31 -130 -95c0 -70 20 -84 126 -84c42 0 88 5 123 10
c8 17 12 30 13 49z" />
    <glyph glyph-name="Thornsmall" unicode="&#xf7fe;" horiz-adv-x="554" 
d="M167 101v-101h-95v507h95v-92h183c112 0 158 -52 158 -161c0 -98 -44 -153 -167 -153h-174zM338 337h-171v-162h171c46 0 69 21 69 79c0 60 -21 83 -69 83z" />
    <glyph glyph-name="Bsmall" unicode="&#xf762;" horiz-adv-x="565" 
d="M167 78h176c49 0 66 21 66 72c0 53 -21 82 -69 82h-173v-154zM167 429v-124h169c48 0 62 25 62 65c0 44 -14 59 -62 59h-169zM389 272c96 -4 121 -59 121 -131c0 -97 -53 -141 -144 -141h-293v507h286c113 0 138 -52 138 -121c0 -64 -16 -107 -108 -114z" />
    <glyph glyph-name="Csmall" unicode="&#xf763;" horiz-adv-x="468" 
d="M430 96l25 -83c-39 -17 -104 -27 -150 -27c-156 0 -248 62 -248 270c0 207 93 265 248 265c46 0 112 -10 150 -24l-25 -84c-34 15 -79 23 -121 23c-103 0 -152 -25 -152 -182c0 -149 49 -183 152 -183c44 0 87 11 121 25z" />
    <glyph glyph-name="Ismall" unicode="&#xf769;" horiz-adv-x="239" 
d="M167 507v-507h-94v507h94z" />
    <glyph glyph-name="Osmall" unicode="&#xf76f;" 
d="M293 -14c-160 0 -236 62 -236 270c0 207 77 265 236 265c160 0 236 -58 236 -265c0 -208 -75 -270 -236 -270zM293 440c-103 0 -136 -27 -136 -186c0 -152 33 -187 136 -187s136 35 136 187c0 159 -33 186 -136 186z" />
    <glyph glyph-name="Hsmall" unicode="&#xf768;" horiz-adv-x="571" 
d="M403 231h-236v-231h-95v507h95v-195h236v195h95v-507h-95v231z" />
    <glyph glyph-name="threesmall" horiz-adv-x="553" 
d="M175 234v75h76c87 0 123 14 123 65c0 46 -28 65 -129 65c-58 0 -112 -8 -151 -21l-22 83c46 12 114 20 174 20c167 0 227 -38 227 -127c0 -66 -26 -116 -126 -124c106 -5 137 -61 137 -134c0 -115 -76 -150 -241 -150c-65 0 -128 7 -176 20l22 85c41 -15 96 -22 153 -22
c112 0 141 21 141 84c0 60 -38 81 -132 81h-76z" />
    <glyph glyph-name="Tsmall" unicode="&#xf774;" horiz-adv-x="483" 
d="M289 423v-423h-95v423h-187v84h468v-84h-186z" />
    <glyph glyph-name="afii10102" unicode="&#x455;" horiz-adv-x="497" 
d="M430 495l-24 -80c-41 15 -97 26 -147 26c-73 0 -110 -9 -110 -75c0 -42 28 -59 115 -67c127 -11 182 -51 182 -148c0 -127 -74 -165 -206 -165c-52 0 -133 10 -182 27l23 80c36 -15 105 -27 157 -27c74 0 112 11 112 78c0 45 -24 66 -117 74c-117 10 -181 41 -181 140
c0 126 79 163 209 163c51 0 115 -10 169 -26z" />
    <glyph glyph-name="Ssmall" unicode="&#xf773;" horiz-adv-x="497" 
d="M430 495l-24 -80c-41 15 -97 26 -147 26c-73 0 -110 -9 -110 -75c0 -42 28 -59 115 -67c127 -11 182 -51 182 -148c0 -127 -74 -165 -206 -165c-52 0 -133 10 -182 27l23 80c36 -15 105 -27 157 -27c74 0 112 11 112 78c0 45 -24 66 -117 74c-117 10 -181 41 -181 140
c0 126 79 163 209 163c51 0 115 -10 169 -26z" />
    <glyph glyph-name="Ksmall" unicode="&#xf76b;" horiz-adv-x="515" 
d="M167 507v-507h-94v507h94zM516 0h-115c-124 165 -203 256 -234 268c31 23 108 106 217 239h115c-107 -131 -183 -209 -212 -230c28 -16 108 -108 229 -277z" />
    <glyph glyph-name="Rsmall" unicode="&#xf772;" horiz-adv-x="556" 
d="M347 507c122 0 157 -68 157 -148c0 -72 -34 -133 -143 -135c49 -12 80 -40 188 -224h-112c-92 169 -133 197 -188 197h-82v-197h-95v507h275zM167 274h160c52 0 78 26 78 78c0 55 -24 75 -75 75h-163v-153z" />
    <glyph glyph-name="Nsmall" unicode="&#xf76e;" horiz-adv-x="574" 
d="M407 153v354h94v-507h-94c-74 127 -158 261 -240 366v-366h-95v507h94c82 -107 171 -231 241 -354z" />
    <glyph glyph-name="Xsmall" unicode="&#xf778;" horiz-adv-x="521" 
d="M502 0h-110c-34 55 -77 118 -122 182c-49 -65 -97 -126 -143 -182h-109c63 72 134 164 201 253c-67 92 -139 183 -200 254h119c41 -51 88 -113 134 -177c48 64 88 126 121 177h108c-51 -76 -112 -164 -176 -250c63 -86 125 -177 177 -257z" />
    <glyph glyph-name="Vsmall" unicode="&#xf776;" horiz-adv-x="516" 
d="M258 93c55 137 106 277 143 414h99c-50 -167 -116 -340 -186 -507h-122c-50 173 -110 360 -175 507h101c49 -120 101 -273 140 -414z" />
    <glyph glyph-name="Wsmall" unicode="&#xf777;" horiz-adv-x="821" 
d="M413 386c-29 -122 -76 -278 -114 -386h-123c-47 173 -104 355 -163 507h103c45 -117 92 -272 127 -412c39 112 99 317 120 412h102c37 -109 84 -291 112 -412c50 137 97 275 129 412h100c-46 -167 -106 -346 -173 -507h-123c-25 121 -69 299 -97 386z" />
    <glyph glyph-name="Jsmall" unicode="&#xf76a;" horiz-adv-x="386" 
d="M314 507v-338c0 -151 -91 -183 -181 -183c-46 0 -96 8 -133 23l22 83c28 -12 70 -21 104 -21c47 0 93 16 93 102v334h95z" />
    <glyph glyph-name="Lsmall" unicode="&#xf76c;" horiz-adv-x="416" 
d="M167 507v-422h248v-85h-342v507h94z" />
    <glyph glyph-name="Psmall" unicode="&#xf770;" horiz-adv-x="554" 
d="M338 429h-171v-162h171c46 0 69 21 69 79c0 60 -21 83 -69 83zM355 193h-188v-193h-95v507h278c112 0 158 -52 158 -161c0 -98 -44 -153 -153 -153z" />
    <glyph glyph-name="Msmall" unicode="&#xf76d;" horiz-adv-x="719" 
d="M364 168c45 118 91 228 143 339h139v-507h-93v409c-55 -117 -115 -262 -156 -376h-78c-43 116 -101 262 -152 376v-409h-94v507h144c53 -112 101 -223 147 -339z" />
    <glyph glyph-name="Usmall" unicode="&#xf775;" horiz-adv-x="564" 
d="M282 73c94 0 116 33 116 114v320h95v-313c0 -157 -56 -208 -211 -208c-154 0 -211 51 -211 208v313h94v-320c0 -81 23 -114 117 -114z" />
    <glyph glyph-name="Esmall" unicode="&#xf765;" horiz-adv-x="498" 
d="M456 507v-80h-289v-120h227v-77h-227v-150h289v-80h-383v507h383z" />
    <glyph glyph-name="Dsmall" unicode="&#xf764;" horiz-adv-x="570" 
d="M73 507h194c159 0 246 -54 246 -251c0 -198 -86 -256 -246 -256h-194v507zM265 429h-98v-351h98c103 0 148 31 148 176c0 150 -45 175 -148 175z" />
    <glyph glyph-name="Zsmall" unicode="&#xf77a;" horiz-adv-x="496" 
d="M44 507h420v-25c-81 -126 -216 -315 -286 -398h282v-84h-433v26c108 134 233 306 290 397h-273v84z" />
    <glyph glyph-name="Qsmall" unicode="&#xf771;" 
d="M288 -14c-153 0 -231 62 -231 270c0 207 77 265 236 265c160 0 236 -58 236 -265c0 -156 -38 -226 -129 -252c45 -9 106 -68 193 -186h-113c-75 110 -146 168 -192 168zM293 441c-103 0 -136 -28 -136 -187c0 -152 33 -188 136 -188s136 36 136 188
c0 159 -33 187 -136 187z" />
    <glyph glyph-name="Zcaronsmall" unicode="&#xf6ff;" horiz-adv-x="496" 
d="M44 507h420v-25c-81 -126 -216 -315 -286 -398h282v-84h-433v26c108 134 233 306 290 397h-273v84zM79 697h99l76 -81l74 81h96l-122 -129h-97z" />
    <glyph glyph-name="Scaronsmall" unicode="&#xf6fd;" horiz-adv-x="497" 
d="M430 495l-24 -80c-41 15 -97 26 -147 26c-73 0 -110 -9 -110 -75c0 -42 28 -59 115 -67c127 -11 182 -51 182 -148c0 -127 -74 -165 -206 -165c-52 0 -133 10 -182 27l23 80c36 -15 105 -27 157 -27c74 0 112 11 112 78c0 45 -24 66 -117 74c-117 10 -181 41 -181 140
c0 126 79 163 209 163c51 0 115 -10 169 -26zM80 697h99l76 -81l74 81h96l-122 -129h-97z" />
    <glyph glyph-name="atsmall" horiz-adv-x="729" 
d="M333 457c-146 0 -193 -30 -193 -201c0 -165 51 -202 224 -202c172 0 226 47 226 225c0 71 -7 117 -19 152h83c12 -35 17 -96 17 -154c0 -228 -97 -293 -307 -293c-211 0 -307 56 -307 273c0 215 97 269 271 269c133 0 190 -25 190 -202c0 -166 -41 -194 -161 -194
c-114 0 -155 22 -155 125c0 104 44 126 144 126c32 0 71 -2 95 -6c-4 63 -32 82 -108 82zM364 319c-61 0 -79 -8 -79 -60s18 -64 78 -64c58 0 78 17 78 87v32c-23 2 -57 5 -77 5z" />
    <glyph glyph-name="backslashsmall" horiz-adv-x="427" 
d="M-6 507h107l330 -507h-106z" />
    <glyph glyph-name="slashsmall" horiz-adv-x="427" 
d="M323 507h108l-332 -507h-106z" />
    <glyph glyph-name="barsmall" horiz-adv-x="341" 
d="M120 640h101v-775h-101v775z" />
    <glyph glyph-name="bracketrightsmall" horiz-adv-x="351" 
d="M28 647h235v-791h-235v82h136v626h-136v83z" />
    <glyph glyph-name="bracerightsmall" horiz-adv-x="338" 
d="M306 286v1v-76c-56 0 -102 -26 -102 -152c0 -135 -67 -197 -149 -216l-38 70c62 16 98 44 98 167c0 129 55 161 89 169c-34 7 -89 40 -89 169c0 122 -35 150 -98 167l38 69c82 -19 149 -81 149 -216c0 -126 46 -152 102 -152z" />
    <glyph glyph-name="Cdotaccentsmall" horiz-adv-x="468" 
d="M430 96l25 -83c-39 -17 -104 -27 -150 -27c-156 0 -248 62 -248 270c0 207 93 265 248 265c46 0 112 -10 150 -24l-25 -84c-34 15 -79 23 -121 23c-103 0 -152 -25 -152 -182c0 -149 49 -183 152 -183c44 0 87 11 121 25zM297 669c38 0 50 -6 50 -47
c0 -45 -12 -52 -50 -52s-51 7 -51 52c0 41 13 47 51 47z" />
    <glyph glyph-name="Cacutesmall" horiz-adv-x="468" 
d="M430 96l25 -83c-39 -17 -104 -27 -150 -27c-156 0 -248 62 -248 270c0 207 93 265 248 265c46 0 112 -10 150 -24l-25 -84c-34 15 -79 23 -121 23c-103 0 -152 -25 -152 -182c0 -149 49 -183 152 -183c44 0 87 11 121 25zM292 568h-90l121 129h107z" />
    <glyph glyph-name="Ccaronsmall" horiz-adv-x="468" 
d="M430 96l25 -83c-39 -17 -104 -27 -150 -27c-156 0 -248 62 -248 270c0 207 93 265 248 265c46 0 112 -10 150 -24l-25 -84c-34 15 -79 23 -121 23c-103 0 -152 -25 -152 -182c0 -149 49 -183 152 -183c44 0 87 11 121 25zM120 697h99l76 -81l74 81h96l-122 -129h-97z" />
    <glyph glyph-name="centsmall" horiz-adv-x="445" 
d="M204 521h61v-75c30 -2 71 -10 94 -18l-21 -63c-24 11 -49 14 -73 16v-247c22 2 50 8 73 17l21 -62c-26 -11 -64 -18 -94 -20v-83h-61v85c-94 11 -150 59 -150 188c0 127 57 175 150 185v77zM135 258c0 -77 24 -111 69 -118v236c-45 -7 -69 -39 -69 -118z" />
    <glyph glyph-name="daggersmall" horiz-adv-x="433" 
d="M30 430v77h145v148h82v-148h146v-77h-146v-241h-82v241h-145z" />
    <glyph glyph-name="degreesmall" horiz-adv-x="346" 
d="M173 521c101 0 145 -33 145 -162c0 -132 -44 -169 -145 -169s-145 37 -145 169c0 129 44 162 145 162zM173 248c57 0 69 26 69 109c0 87 -12 107 -69 107c-54 0 -69 -20 -69 -107c0 -83 15 -109 69 -109z" />
    <glyph glyph-name="dollarsmall" horiz-adv-x="538" 
d="M236 617h64v-105c46 0 106 -8 149 -20l-22 -76c-27 10 -84 17 -127 19v-141c112 -15 165 -57 165 -148c0 -96 -66 -142 -165 -153v-109h-64v109c-48 0 -113 6 -157 19l25 78c33 -10 91 -18 132 -19v150c-108 11 -163 48 -163 139c0 97 64 141 163 151v106zM162 364
c0 -37 19 -55 74 -63v133c-46 -5 -74 -26 -74 -70zM377 144c0 37 -17 59 -77 69v-141c46 5 77 27 77 72z" />
    <glyph glyph-name="numbersignsmall" horiz-adv-x="578" 
d="M41 320l5 71h106l8 116h84l-7 -116h112l7 116h85l-8 -116h114l-5 -71h-113l-8 -121h116l-5 -69h-115l-9 -130h-84l8 130h-112l-8 -130h-85l9 130h-105l5 69h104l8 121h-107zM232 320l-8 -121h112l8 121h-112z" />
    <glyph glyph-name="parenrightsmall" horiz-adv-x="321" 
d="M253 250c0 -250 -92 -363 -203 -406l-44 72c78 27 148 105 148 334c0 227 -70 306 -148 333l44 72c111 -43 203 -156 203 -405z" />
    <glyph glyph-name="percentsmall" horiz-adv-x="773" 
d="M522 507h90l-364 -507h-89zM173 521c101 0 145 -33 145 -162c0 -132 -44 -169 -145 -169s-145 37 -145 169c0 129 44 162 145 162zM173 248c57 0 69 26 69 109c0 87 -12 107 -69 107c-54 0 -69 -20 -69 -107c0 -83 15 -109 69 -109zM600 318c101 0 145 -34 145 -163
c0 -131 -44 -169 -145 -169s-145 38 -145 169c0 129 44 163 145 163zM600 44c57 0 69 27 69 109c0 87 -12 107 -69 107c-54 0 -69 -20 -69 -107c0 -82 15 -109 69 -109z" />
    <glyph glyph-name="sectionsmall" horiz-adv-x="468" 
d="M399 502l-21 -64c-27 9 -81 17 -123 17c-45 0 -116 -4 -116 -52c0 -30 21 -43 106 -49c113 -8 174 -37 174 -112c0 -24 -11 -50 -29 -70c18 -16 25 -39 25 -65c0 -87 -77 -121 -203 -121c-47 0 -105 8 -144 18l21 65c27 -10 81 -18 123 -18c45 0 116 5 116 53
c0 29 -21 43 -106 49c-113 8 -174 37 -174 112c0 25 10 50 27 71c-16 16 -23 37 -23 64c0 87 77 121 203 121c45 0 102 -7 144 -19zM140 305c-5 -10 -9 -21 -9 -37c0 -30 32 -45 107 -51c34 -2 66 -7 90 -14c4 9 8 23 8 34c0 31 -30 46 -108 53c-35 3 -65 7 -88 15z" />
    <glyph glyph-name="Sacutesmall" horiz-adv-x="497" 
d="M430 495l-24 -80c-41 15 -97 26 -147 26c-73 0 -110 -9 -110 -75c0 -42 28 -59 115 -67c127 -11 182 -51 182 -148c0 -127 -74 -165 -206 -165c-52 0 -133 10 -182 27l23 80c36 -15 105 -27 157 -27c74 0 112 11 112 78c0 45 -24 66 -117 74c-117 10 -181 41 -181 140
c0 126 79 163 209 163c51 0 115 -10 169 -26zM248 568h-90l121 129h107z" />
    <glyph glyph-name="Scedillasmall" horiz-adv-x="497" 
d="M430 495l-24 -80c-41 15 -97 26 -147 26c-73 0 -110 -9 -110 -75c0 -42 28 -59 115 -67c127 -11 182 -51 182 -148c0 -127 -74 -165 -206 -165c-52 0 -133 10 -182 27l23 80c36 -15 105 -27 157 -27c74 0 112 11 112 78c0 45 -24 66 -117 74c-117 10 -181 41 -181 140
c0 126 79 163 209 163c51 0 115 -10 169 -26zM215 0h42v-44c84 0 114 -17 114 -77c0 -63 -36 -82 -131 -82c-48 0 -77 5 -102 18l20 48c19 -9 48 -14 79 -14c37 0 50 5 50 30c0 27 -25 33 -108 28z" />
    <glyph glyph-name="Scircumflexsmall" horiz-adv-x="497" 
d="M430 495l-24 -80c-41 15 -97 26 -147 26c-73 0 -110 -9 -110 -75c0 -42 28 -59 115 -67c127 -11 182 -51 182 -148c0 -127 -74 -165 -206 -165c-52 0 -133 10 -182 27l23 80c36 -15 105 -27 157 -27c74 0 112 11 112 78c0 45 -24 66 -117 74c-117 10 -181 41 -181 140
c0 126 79 163 209 163c51 0 115 -10 169 -26zM331 568c-25 27 -50 53 -76 81c-24 -28 -49 -54 -74 -81h-95c41 43 81 86 122 129h97l126 -129h-100z" />
    <glyph glyph-name="Scommaaccentsmall" horiz-adv-x="497" 
d="M430 495l-24 -80c-41 15 -97 26 -147 26c-73 0 -110 -9 -110 -75c0 -42 28 -59 115 -67c127 -11 182 -51 182 -148c0 -127 -74 -165 -206 -165c-52 0 -133 10 -182 27l23 80c36 -15 105 -27 157 -27c74 0 112 11 112 78c0 45 -24 66 -117 74c-117 10 -181 41 -181 140
c0 126 79 163 209 163c51 0 115 -10 169 -26zM318 -51l-104 -167h-76l71 167h109z" />
    <glyph glyph-name="Wcircumflexsmall" horiz-adv-x="821" 
d="M413 386c-29 -122 -76 -278 -114 -386h-123c-47 173 -104 355 -163 507h103c45 -117 92 -272 127 -412c39 112 99 317 120 412h102c37 -109 84 -291 112 -412c50 137 97 275 129 412h100c-46 -167 -106 -346 -173 -507h-123c-25 121 -69 299 -97 386zM486 568
c-25 27 -50 53 -76 81c-24 -28 -49 -54 -74 -81h-95c41 43 81 86 122 129h97l126 -129h-100z" />
    <glyph glyph-name="Zacutesmall" horiz-adv-x="496" 
d="M44 507h420v-25c-81 -126 -216 -315 -286 -398h282v-84h-433v26c108 134 233 306 290 397h-273v84zM277 568h-90l121 129h107z" />
    <glyph glyph-name="Zdotaccentsmall" horiz-adv-x="496" 
d="M44 507h420v-25c-81 -126 -216 -315 -286 -398h282v-84h-433v26c108 134 233 306 290 397h-273v84zM253 669c38 0 50 -6 50 -47c0 -45 -12 -52 -50 -52s-51 7 -51 52c0 41 13 47 51 47z" />
    <glyph glyph-name="Ccedillasmall" unicode="&#xf7e7;" horiz-adv-x="468" 
d="M430 96l25 -83c-39 -17 -104 -27 -150 -27c-156 0 -248 62 -248 270c0 207 93 265 248 265c46 0 112 -10 150 -24l-25 -84c-34 15 -79 23 -121 23c-103 0 -152 -25 -152 -182c0 -149 49 -183 152 -183c44 0 87 11 121 25zM263 0h42v-44c84 0 114 -17 114 -77
c0 -63 -36 -82 -131 -82c-48 0 -77 5 -102 18l20 48c19 -9 48 -14 79 -14c37 0 50 5 50 30c0 27 -25 33 -108 28z" />
    <glyph glyph-name="Igravesmall" unicode="&#xf7ec;" horiz-adv-x="239" 
d="M167 507v-507h-94v507h94zM187 568h-89l-139 129h108z" />
    <glyph glyph-name="Iacutesmall" unicode="&#xf7ed;" horiz-adv-x="239" 
d="M167 507v-507h-94v507h94zM137 568h-90l121 129h107z" />
    <glyph glyph-name="Icircumflexsmall" unicode="&#xf7ee;" horiz-adv-x="239" 
d="M167 507v-507h-94v507h94zM193 568c-25 27 -50 53 -76 81c-24 -28 -49 -54 -74 -81h-95c41 43 81 86 122 129h97l126 -129h-100z" />
    <glyph glyph-name="Idieresissmall" unicode="&#xf7ef;" horiz-adv-x="239" 
d="M167 507v-507h-94v507h94zM20 669c38 0 50 -6 50 -47c0 -45 -12 -52 -50 -52c-39 0 -51 7 -51 52c0 41 12 47 51 47zM221 669c38 0 50 -6 50 -47c0 -45 -12 -52 -50 -52c-39 0 -51 7 -51 52c0 41 12 47 51 47z" />
    <glyph glyph-name="Ethsmall" unicode="&#xf7f0;" horiz-adv-x="570" 
d="M20 230v75h53v202h194c159 0 246 -54 246 -251c0 -198 -86 -256 -246 -256h-194v230h-53zM265 429h-98v-124h109v-75h-109v-152h98c103 0 148 31 148 176c0 150 -45 175 -148 175z" />
    <glyph glyph-name="Ogravesmall" unicode="&#xf7f2;" 
d="M293 -14c-160 0 -236 62 -236 270c0 207 77 265 236 265c160 0 236 -58 236 -265c0 -208 -75 -270 -236 -270zM293 441c-103 0 -136 -28 -136 -187c0 -152 33 -188 136 -188s136 36 136 188c0 159 -33 187 -136 187zM390 568h-89l-139 129h108z" />
    <glyph glyph-name="Oacutesmall" unicode="&#xf7f3;" 
d="M293 -14c-160 0 -236 62 -236 270c0 207 77 265 236 265c160 0 236 -58 236 -265c0 -208 -75 -270 -236 -270zM293 441c-103 0 -136 -28 -136 -187c0 -152 33 -188 136 -188s136 36 136 188c0 159 -33 187 -136 187zM297 568h-90l121 129h107z" />
    <glyph glyph-name="Ocircumflexsmall" unicode="&#xf7f4;" 
d="M293 -14c-160 0 -236 62 -236 270c0 207 77 265 236 265c160 0 236 -58 236 -265c0 -208 -75 -270 -236 -270zM293 441c-103 0 -136 -28 -136 -187c0 -152 33 -188 136 -188s136 36 136 188c0 159 -33 187 -136 187zM364 568c-25 27 -50 53 -76 81
c-24 -28 -49 -54 -74 -81h-95c41 43 81 86 122 129h97l126 -129h-100z" />
    <glyph glyph-name="Otildesmall" unicode="&#xf7f5;" 
d="M293 -14c-160 0 -236 62 -236 270c0 207 77 265 236 265c160 0 236 -58 236 -265c0 -208 -75 -270 -236 -270zM293 441c-103 0 -136 -28 -136 -187c0 -152 33 -188 136 -188s136 36 136 188c0 159 -33 187 -136 187zM416 695l52 -41c-21 -56 -55 -92 -112 -92
c-56 0 -91 60 -139 60c-21 0 -39 -15 -56 -56l-46 45c29 51 59 81 106 81c63 0 91 -59 138 -59c25 0 40 15 57 62z" />
    <glyph glyph-name="Odieresissmall" unicode="&#xf7f6;" 
d="M293 -14c-160 0 -236 62 -236 270c0 207 77 265 236 265c160 0 236 -58 236 -265c0 -208 -75 -270 -236 -270zM293 441c-103 0 -136 -28 -136 -187c0 -152 33 -188 136 -188s136 36 136 188c0 159 -33 187 -136 187zM192 669c38 0 50 -6 50 -47c0 -45 -12 -52 -50 -52
c-39 0 -51 7 -51 52c0 41 12 47 51 47zM393 669c38 0 50 -6 50 -47c0 -45 -12 -52 -50 -52c-39 0 -51 7 -51 52c0 41 12 47 51 47z" />
    <glyph glyph-name="questiondownsmall" unicode="&#xf7bf;" horiz-adv-x="474" 
d="M241 396c-51 0 -67 8 -67 60c0 56 16 65 67 65c48 0 64 -9 64 -65c0 -52 -16 -60 -64 -60zM197 332h102c-96 -69 -138 -124 -138 -194c0 -46 26 -61 100 -61c40 0 93 6 126 17l18 -81c-37 -9 -105 -17 -149 -17c-146 0 -202 41 -202 132c0 84 42 135 143 204z" />
    <glyph glyph-name="exclamdownsmall" unicode="&#xf7a1;" horiz-adv-x="329" 
d="M223 0h-116l23 318h70zM164 385c-50 0 -66 8 -66 60c0 56 16 66 66 66c48 0 65 -10 65 -66c0 -52 -17 -60 -65 -60z" />
    <glyph glyph-name="threeoldstyle" unicode="&#xf733;" horiz-adv-x="624" 
d="M199 137v85h88c104 0 145 28 145 109c0 73 -32 101 -165 101c-60 0 -138 -9 -183 -24l-22 87c58 13 138 26 218 26c194 0 259 -54 259 -173c0 -88 -25 -155 -149 -166c132 -6 163 -80 163 -180c0 -153 -84 -204 -277 -204c-72 0 -159 13 -221 27l21 85
c51 -15 127 -22 187 -22c145 0 180 33 180 124c0 95 -42 125 -154 125h-90z" />
    <glyph glyph-name="fouroldstyle" unicode="&#xf734;" horiz-adv-x="624" 
d="M382 0h-350v27c70 126 199 344 303 480h145v-426h96v-81h-96v-192h-98v192zM382 81v349c-81 -102 -179 -272 -221 -349h221z" />
    <glyph glyph-name="fiveoldstyle" unicode="&#xf735;" horiz-adv-x="624" 
d="M103 507h413v-87h-316v-188c30 4 64 5 98 5c193 0 255 -62 255 -215c0 -172 -79 -225 -272 -225c-69 0 -151 13 -211 27l22 85c49 -15 116 -22 176 -22c143 0 175 33 175 127c0 103 -28 137 -163 137c-61 0 -129 -6 -177 -16v372z" />
    <glyph glyph-name="sixoldstyle" unicode="&#xf736;" horiz-adv-x="624" 
d="M557 686l-26 -90c-39 15 -101 25 -160 25c-128 0 -199 -31 -204 -210c47 9 113 14 156 14c193 0 257 -62 257 -216c0 -171 -74 -223 -256 -223c-194 0 -265 82 -265 367s97 361 312 361c60 0 132 -12 186 -28zM324 76c122 0 148 34 148 125c0 100 -28 136 -146 137
c-50 0 -115 -3 -160 -14c2 -208 53 -248 158 -248z" />
    <glyph glyph-name="sevenoldstyle" unicode="&#xf737;" horiz-adv-x="624" 
d="M585 507v-33c-101 -163 -241 -467 -310 -666h-115c77 213 200 477 290 612h-378v87h513z" />
    <glyph glyph-name="eightoldstyle" unicode="&#xf738;" horiz-adv-x="624" 
d="M312 70c114 0 148 35 148 127c0 96 -41 132 -148 132s-148 -36 -148 -132c0 -92 34 -127 148 -127zM312 410c95 0 134 33 134 115c0 76 -34 104 -134 104s-134 -28 -134 -104c0 -82 40 -115 134 -115zM312 -14c-176 0 -255 52 -255 204c0 100 30 176 163 182
c-125 11 -146 81 -146 168c0 117 59 174 238 174s239 -57 239 -174c0 -87 -21 -157 -146 -168c132 -6 162 -82 162 -182c0 -152 -78 -204 -255 -204z" />
    <glyph glyph-name="nineoldstyle" unicode="&#xf739;" horiz-adv-x="624" 
d="M180 -192c100 89 193 183 242 282c-36 -4 -84 -7 -110 -7c-193 0 -257 51 -257 205c0 171 73 233 256 233c200 0 260 -50 260 -242c0 -204 -129 -352 -259 -471h-132zM319 169c44 0 93 3 134 10c8 28 11 57 11 87c0 151 -42 166 -153 166c-123 0 -149 -45 -149 -137
c0 -102 29 -126 157 -126z" />
    <glyph glyph-name="zerooldstyle" unicode="&#xf730;" horiz-adv-x="624" 
d="M315 -14c-147 0 -230 62 -230 270c0 207 84 265 230 265c148 0 225 -58 225 -265c0 -208 -76 -270 -225 -270zM315 441c-97 0 -130 -28 -130 -187c0 -152 33 -188 130 -188c100 0 125 36 125 188c0 159 -26 187 -125 187z" />
    <glyph glyph-name="oneoldstyle" unicode="&#xf731;" horiz-adv-x="624" 
d="M425 0h-94v393l-156 -76l-31 79l281 125v-521z" />
    <glyph glyph-name="twooldstyle" unicode="&#xf732;" horiz-adv-x="624" 
d="M126 409l-22 91c48 12 134 21 192 21c177 0 231 -49 231 -160c0 -96 -72 -183 -291 -281h298v-80h-439v73c278 154 326 203 326 275c0 59 -27 85 -136 85c-45 0 -130 -11 -159 -24z" />
    <glyph glyph-name="zeroop" horiz-adv-x="569" 
d="M288 -14c-148 0 -231 62 -231 270c0 207 85 265 231 265c147 0 224 -58 224 -265c0 -208 -76 -270 -224 -270zM288 441c-98 0 -131 -28 -131 -187c0 -152 33 -188 131 -188c99 0 124 36 124 188c0 159 -26 187 -124 187z" />
    <glyph glyph-name="oneop" horiz-adv-x="353" 
d="M280 0h-94v393l-156 -76l-31 79l281 125v-521z" />
    <glyph glyph-name="twoop" horiz-adv-x="548" 
d="M86 409l-23 91c49 12 135 21 192 21c177 0 231 -49 231 -160c0 -96 -71 -183 -290 -281h297v-80h-439v73c279 154 326 203 326 275c0 59 -27 85 -136 85c-44 0 -129 -11 -158 -24z" />
    <glyph glyph-name="threeop" horiz-adv-x="576" 
d="M165 137v85h89c103 0 144 28 144 109c0 73 -32 101 -165 101c-59 0 -137 -9 -183 -24l-22 87c58 13 138 26 218 26c195 0 259 -54 259 -173c0 -88 -24 -155 -149 -166c132 -6 163 -80 163 -180c0 -153 -84 -204 -277 -204c-71 0 -159 13 -221 27l22 85
c50 -15 126 -22 187 -22c144 0 179 33 179 124c0 95 -41 125 -154 125h-90z" />
    <glyph glyph-name="fourop" horiz-adv-x="571" 
d="M365 0h-349v27c69 126 198 344 302 480h145v-426h96v-81h-96v-192h-98v192zM365 81v349c-80 -102 -178 -272 -221 -349h221z" />
    <glyph glyph-name="fiveop" horiz-adv-x="593" 
d="M86 507h413v-87h-316v-188c30 4 63 5 98 5c192 0 255 -62 255 -215c0 -172 -79 -225 -272 -225c-69 0 -152 13 -211 27l22 85c49 -15 115 -22 176 -22c142 0 175 33 175 127c0 103 -29 137 -163 137c-61 0 -130 -6 -177 -16v372z" />
    <glyph glyph-name="sixop" horiz-adv-x="635" 
d="M555 686c-8 -30 -17 -60 -25 -90c-40 15 -102 25 -160 25c-30 0 -54 -1 -76 -7c-84 -15 -122 -61 -129 -203c48 9 113 14 156 14c193 0 257 -62 257 -216c0 -171 -73 -223 -256 -223c-194 0 -265 82 -265 367s98 361 312 361c61 0 133 -12 186 -28zM322 76
c122 0 149 34 149 125c0 100 -29 136 -147 137c-18 0 -38 0 -58 -1c-37 -2 -72 -7 -102 -13c3 -208 53 -248 158 -248z" />
    <glyph glyph-name="sevenop" horiz-adv-x="502" 
d="M505 507v-33c-101 -163 -242 -467 -310 -666h-116c78 213 200 477 290 612h-378v87h514z" />
    <glyph glyph-name="eightop" horiz-adv-x="624" 
d="M312 70c114 0 149 35 149 127c0 96 -41 132 -149 132c-107 0 -147 -36 -147 -132c0 -92 33 -127 147 -127zM312 410c95 0 134 33 134 115c0 76 -34 104 -134 104s-134 -28 -134 -104c0 -82 40 -115 134 -115zM312 -14c-176 0 -255 52 -255 204c0 100 30 176 163 182
c-125 11 -146 81 -146 168c0 117 59 174 238 174s239 -57 239 -174c0 -87 -21 -157 -146 -168c132 -6 162 -82 162 -182c0 -152 -78 -204 -255 -204z" />
    <glyph glyph-name="nineop" horiz-adv-x="630" 
d="M182 -192c100 89 193 183 242 282c-36 -4 -84 -7 -110 -7c-193 0 -257 51 -257 205c0 171 73 233 256 233c200 0 260 -50 260 -242c0 -204 -129 -352 -259 -471h-132zM321 169c44 0 93 3 134 10c8 28 11 57 11 87c0 151 -42 166 -153 166c-123 0 -149 -45 -149 -137
c0 -102 29 -126 157 -126z" />
    <glyph glyph-name="two.alt" horiz-adv-x="598" 
d="M96 595l-23 89c60 17 138 30 210 30c171 0 253 -48 253 -199c0 -105 -48 -165 -164 -219c-112 -52 -179 -93 -196 -209h356v-87h-485c20 230 139 300 261 360c76 38 120 71 120 149c0 91 -43 113 -152 113c-59 0 -143 -11 -180 -27z" />
    <glyph glyph-name="Ccircumflexsmall" horiz-adv-x="468" 
d="M430 96l25 -83c-39 -17 -104 -27 -150 -27c-156 0 -248 62 -248 270c0 207 93 265 248 265c46 0 112 -10 150 -24l-25 -84c-34 15 -79 23 -121 23c-103 0 -152 -25 -152 -182c0 -149 49 -183 152 -183c44 0 87 11 121 25zM364 568c-25 27 -50 53 -76 81
c-24 -28 -49 -54 -74 -81h-95c41 43 81 86 122 129h97l126 -129h-100z" />
    <glyph glyph-name="ccaront" horiz-adv-x="857" 
d="M551 170v253c-90 0 -205 14 -245 14c-103 0 -149 -26 -149 -183c0 -149 46 -183 149 -183c42 0 84 8 118 23l24 -81c-39 -17 -99 -27 -146 -27c-153 0 -245 62 -245 270c0 207 93 265 245 265c48 0 159 -14 249 -14v96l95 39v-135h178v-84h-178v-247
c0 -74 21 -105 86 -105c35 0 65 5 91 14l18 -78c-32 -12 -82 -21 -125 -21c-114 0 -165 34 -165 184zM128 697h99l76 -81l74 81h96l-122 -129h-97z" />
    <glyph glyph-name="scaront" horiz-adv-x="890" 
d="M585 170v253c-128 1 -276 18 -326 18c-73 0 -110 -9 -110 -75c0 -42 28 -59 115 -67c127 -11 182 -51 182 -148c0 -127 -74 -165 -206 -165c-52 0 -133 10 -182 27l23 80c36 -15 105 -27 157 -27c74 0 112 11 112 78c0 45 -24 66 -117 74c-117 10 -181 41 -181 140
c0 126 79 163 209 163c51 0 214 -14 324 -14v96l94 39v-135h178v-84h-178v-247c0 -74 21 -105 87 -105c34 0 64 5 90 14l19 -78c-33 -12 -83 -21 -125 -21c-114 0 -165 34 -165 184zM84 697h99l76 -81l74 81h96l-122 -129h-97z" />
    <glyph glyph-name="ampersandsmall.2" horiz-adv-x="665" 
d="M648 235h-130v-219c-87 -23 -151 -30 -216 -30c-164 0 -240 35 -240 150c0 73 30 131 135 136c-99 7 -125 50 -125 115c0 89 61 134 227 134c61 0 128 -8 175 -20l-22 -83c-40 13 -93 21 -152 21c-100 0 -129 -17 -129 -64c0 -51 37 -65 123 -65h354v-75zM162 155
c0 -63 30 -86 141 -86c45 0 88 4 126 14v152h-140c-91 0 -127 -23 -127 -80z" />
    <glyph glyph-name="ampersandsmall" unicode="&#xf726;" horiz-adv-x="674" 
d="M662 0h-105c-19 29 -36 55 -53 78c-70 -55 -158 -92 -254 -92c-147 0 -217 35 -217 150c0 73 39 131 144 136c-99 8 -111 56 -111 122c0 89 50 127 217 127c166 0 214 -38 214 -127c0 -66 -28 -116 -128 -124c41 -5 88 -28 142 -82c30 36 49 75 59 111h101
c-16 -57 -52 -116 -101 -168c30 -36 60 -79 92 -131zM253 64c82 0 154 31 203 74c-58 67 -113 95 -178 95c-87 0 -145 -17 -145 -85c0 -65 31 -84 120 -84zM278 310c84 0 125 14 125 68c0 48 -23 66 -119 66c-97 0 -122 -18 -122 -66c0 -54 31 -68 116 -68z" />
    <glyph glyph-name="questiondown" unicode="&#xbf;" horiz-adv-x="479" 
d="M256 396c-51 0 -67 8 -67 60c0 56 16 65 67 65c48 0 64 -9 64 -65c0 -52 -16 -60 -64 -60zM202 313h105c-112 -110 -159 -199 -159 -312c0 -67 28 -103 132 -103c50 0 106 8 140 22l24 -90c-41 -14 -121 -25 -169 -25c-175 0 -240 70 -240 196c0 119 55 204 167 312z" />
    <glyph glyph-name="florin" unicode="&#x192;" horiz-adv-x="366" 
d="M255 544l-7 -37h175l-17 -83h-175l-96 -460c-30 -142 -127 -166 -224 -166c-40 0 -84 9 -116 22l38 79c25 -14 67 -22 98 -22c57 0 97 23 115 102l90 445h-89l17 83h89l8 40c29 146 125 174 221 174c41 0 84 -8 115 -19l-38 -77c-22 8 -64 13 -94 13
c-57 0 -97 -25 -110 -94z" />
    <glyph glyph-name="Oslashsmall" unicode="&#xf7f8;" 
d="M461 507h96l-63 -73c24 -41 35 -98 35 -178c0 -208 -76 -270 -237 -270c-63 0 -113 11 -150 34l-18 -20h-94l62 73c-24 41 -35 101 -35 183c0 207 77 265 235 265c64 0 114 -9 151 -34zM292 441c-100 0 -134 -27 -135 -175c0 -45 1 -79 6 -107l227 260
c-21 16 -56 22 -98 22zM292 66c108 0 137 46 137 186c0 38 -1 69 -5 95l-227 -258c20 -17 54 -23 95 -23z" />
    <glyph glyph-name="man" horiz-adv-x="524" 
d="M345 419v-611h-76v372h-13v-372h-76v611c-30 -1 -36 -11 -36 -48v-191h-94v194c0 112 40 135 212 135s212 -24 212 -135v-194h-94v191c0 37 -5 47 -35 48zM262 721c78 0 103 -12 103 -89c0 -86 -25 -101 -103 -101c-81 0 -106 15 -106 101c0 77 25 89 106 89z" />
    <glyph glyph-name="woman" horiz-adv-x="524" 
d="M324 419v-239c47 -109 115 -260 180 -372h-484c51 111 135 292 180 372v239c-50 -1 -56 -11 -56 -48v-191h-74v194c0 112 40 135 192 135s192 -24 192 -135v-194h-74v191c0 37 -6 47 -56 48zM262 721c78 0 103 -12 103 -89c0 -86 -25 -101 -103 -101
c-81 0 -106 15 -106 101c0 77 25 89 106 89z" />
    <glyph glyph-name="escaperight" horiz-adv-x="1267" 
d="M446 509c15 -68 98 -176 210 -176l-14 -80c-97 0 -185 52 -222 136l-49 -229c133 -3 216 -81 166 -292h-84c39 160 12 221 -152 221c-49 -171 -130 -237 -279 -237l18 77c82 0 146 37 178 190l65 308c-45 0 -103 -42 -127 -174h-82c37 151 89 256 225 256h147zM1245 293
l-273 -256l-54 57l163 159h-388l13 80h375l-163 159l54 57zM530 531h-74c-81 0 -106 15 -106 101c0 77 25 89 106 89c78 0 112 -14 96 -89z" />
    <glyph glyph-name="noentry" horiz-adv-x="853" 
d="M838 0h-124l-215 215v-407h-66v372h-13v-372h-66v407l-215 -215h-124l199 202v172c0 47 7 78 28 99l-223 224h133l187 -191c25 2 53 3 87 3c33 0 62 -1 86 -4l189 192h133l-224 -225c21 -20 28 -51 28 -98v-171zM426 721c78 0 103 -12 103 -89c0 -86 -25 -101 -103 -101
c-81 0 -106 15 -106 101c0 77 25 89 106 89zM308 371v-73l46 47v16l-42 41c-4 -7 -4 -17 -4 -31zM544 371c0 14 -1 24 -4 31l-41 -41v-16l45 -46v72z" />
    <glyph glyph-name="escapeleft" horiz-adv-x="1267" 
d="M821 509h147c136 0 188 -105 225 -256h-82c-24 132 -82 174 -127 174l65 -308c32 -153 96 -190 178 -190l18 -77c-149 0 -230 66 -279 237c-164 0 -191 -61 -152 -221h-84c-50 211 33 289 166 292l-49 229c-37 -84 -125 -136 -222 -136l-14 80c112 0 195 108 210 176z
M295 37l-273 256l273 256l54 -57l-163 -159h375l13 -80h-388l163 -159zM811 531h-74l-22 101c-16 75 18 89 96 89c81 0 106 -12 106 -89c0 -86 -25 -101 -106 -101z" />
    <glyph glyph-name="manneg" horiz-adv-x="684" 
d="M426 -192v611c30 -1 35 -11 35 -48v-191h94v194c0 111 -40 135 -212 135s-212 -23 -212 -135v-194h94v191c0 37 6 47 36 48v-611h76v372h13v-372h76zM343 721c-81 0 -106 -12 -106 -89c0 -86 25 -101 106 -101c78 0 103 15 103 101c0 77 -25 89 -103 89zM551 -232h-418
c-78 0 -103 15 -103 101v803c0 77 25 89 103 89h418c78 0 103 -12 103 -89v-803c0 -86 -25 -101 -103 -101z" />
    <glyph glyph-name="womanneg" horiz-adv-x="684" 
d="M405 180v239c50 -1 56 -11 56 -48v-191h74v194c0 111 -40 135 -192 135s-192 -23 -192 -135v-194h74v191c0 37 6 47 56 48v-239c-45 -80 -129 -261 -180 -372h484c-65 112 -133 263 -180 372zM343 721c-81 0 -106 -12 -106 -89c0 -86 25 -101 106 -101
c78 0 103 15 103 101c0 77 -25 89 -103 89zM551 -232h-418c-78 0 -103 15 -103 101v803c0 77 25 89 103 89h418c78 0 103 -12 103 -89v-803c0 -86 -25 -101 -103 -101z" />
    <glyph glyph-name="escaperightneg" horiz-adv-x="1373" 
d="M1240 -232h-1107c-78 0 -103 15 -103 101v803c0 77 25 89 103 89h1107c78 0 103 -12 103 -89v-803c0 -86 -25 -101 -103 -101zM505 509h-147c-136 0 -188 -105 -225 -256h82c24 132 82 174 127 174l-65 -308c-32 -153 -96 -190 -178 -190l-18 -77c149 0 230 66 279 237
c164 0 191 -61 152 -221h84c50 211 -33 289 -166 292l49 229c37 -84 125 -136 222 -136l14 80c-112 0 -195 108 -210 176zM1031 37l273 256l-273 256l-54 -57l163 -159h-375l-13 -80h388l-163 -159zM515 531h74l22 101c16 75 -18 89 -96 89c-81 0 -106 -12 -106 -89
c0 -86 25 -101 106 -101z" />
    <glyph glyph-name="escapeleftneg" horiz-adv-x="1373" 
d="M1240 -232h-1107c-78 0 -103 15 -103 101v803c0 77 25 89 103 89h1107c78 0 103 -12 103 -89v-803c0 -86 -25 -101 -103 -101zM868 509c-15 -68 -98 -176 -210 -176l14 -80c97 0 185 52 222 136l49 -229c-133 -3 -216 -81 -166 -292h84c-39 160 -12 221 152 221
c49 -171 130 -237 279 -237l-18 77c-82 0 -146 37 -178 190l-65 308c45 0 103 -42 127 -174h82c-37 151 -89 256 -225 256h-147zM69 293l273 -256l54 57l-163 159h388l-13 80h-375l163 159l-54 57zM784 531h74c81 0 106 15 106 101c0 77 -25 89 -106 89
c-78 0 -112 -14 -96 -89z" />
    <glyph glyph-name="noentryneg" horiz-adv-x="960" 
d="M827 -232h-694c-78 0 -103 15 -103 101v803c0 77 25 89 103 89h694c78 0 103 -12 103 -89v-803c0 -86 -25 -101 -103 -101zM767 0h124l-200 203v171c0 47 -7 78 -28 98l224 225h-133l-189 -192c-24 3 -53 4 -86 4c-34 0 -62 -1 -87 -3l-187 191h-133l223 -224
c-21 -21 -28 -52 -28 -99v-172l-199 -202h124l215 215v-407h66v372h13v-372h66v407zM479 721c-81 0 -106 -12 -106 -89c0 -86 25 -101 106 -101c78 0 103 15 103 101c0 77 -25 89 -103 89zM361 298v73c0 14 0 24 4 31l42 -41v-16zM597 371v-72l-45 46v16l41 41
c3 -7 4 -17 4 -31z" />
    <glyph glyph-name="trash" horiz-adv-x="1068" 
d="M171 334h46l20 -127h294l21 127h46l-85 -526h-257zM803 509l76 -329v-372h-66v372h-13l-60 -372h-66l60 372l-58 249h-363l-14 80h504zM684 531h-74l-22 101c-16 75 18 89 96 89c81 0 106 -12 106 -89c0 -86 -25 -101 -106 -101zM343 412c31 -34 96 -46 160 -46l-83 -122
c-63 5 -123 73 -123 102c0 27 45 64 46 66zM245 162l19 -122h98v122h-117zM407 162v-122h97l20 122h-117zM272 -5l23 -142h67v142h-90zM407 -5v-142h67l23 142h-90z" />
    <glyph glyph-name="material" horiz-adv-x="1068" 
d="M904 258l130 -226c12 -21 18 -47 18 -73c0 -85 -67 -151 -151 -151h-239v-122l-183 162l183 161v-122h239c39 0 72 32 72 72c0 12 -2 23 -8 33l-130 227zM425 -192h-260c-116 0 -184 130 -128 227l119 207l-105 61l232 78l48 -239l-106 61l-120 -207
c-25 -44 4 -108 59 -108h261v-80zM277 452l130 225c59 102 205 92 260 -3l120 -206l105 60l-48 -240l-231 78l106 62l-119 207c-24 42 -95 51 -123 3l-131 -226z" />
    <glyph glyph-name="recycling" horiz-adv-x="1068" 
d="M30 256c0 278 226 504 504 504s504 -226 504 -504s-226 -504 -504 -504s-504 226 -504 504zM534 739c-266 0 -485 -216 -485 -483c0 -266 218 -484 484 -484c-524 0 -710 776 1 808v159c127 -82 213 -163 302 -282c-92 -118 -193 -213 -302 -282v161
c-109 -69 -210 -164 -302 -282c89 -119 175 -200 302 -282v159c711 32 522 808 0 808z" />
    <glyph glyph-name="flammable" horiz-adv-x="1068" 
d="M881 -192h-694c-78 0 -103 13 -103 92v733c0 70 25 81 103 81h694c78 0 103 -11 103 -81v-733c0 -79 -25 -92 -103 -92zM195 -161h678c71 0 79 5 79 77v700c0 64 -8 68 -79 68h-678c-71 0 -80 -4 -80 -68v-700c0 -72 9 -77 80 -77zM225 -79v39h158
c-99 44 -48 271 -170 253c98 44 146 -18 189 -83c-35 96 -26 328 -108 341c118 18 151 -94 178 -195c-9 107 56 321 -28 354c191 -15 117 -246 158 -354c42 93 95 199 53 240c157 -79 17 -282 18 -385c0 -4 -1 -8 -2 -12c58 48 125 88 96 133c120 -82 -22 -170 -40 -263
c-1 -12 -8 -22 -18 -29h143v-39h-627zM472 41c22 -18 2 -64 -34 -81h185c-15 9 -25 24 -26 44c-2 33 17 62 43 88c-28 -10 -66 -1 -79 43c-5 17 1 42 12 72c-25 -14 -60 -13 -86 22c-1 1 -2 3 -3 4c9 -31 19 -58 33 -77c25 -34 -30 -106 -90 -64c14 -20 29 -39 45 -51z" />
    <glyph glyph-name="poison" horiz-adv-x="1068" 
d="M881 -192h-694c-78 0 -103 13 -103 92v733c0 70 25 81 103 81h694c78 0 103 -11 103 -81v-733c0 -79 -25 -92 -103 -92zM195 -161h678c71 0 79 5 79 77v700c0 64 -8 68 -79 68h-678c-71 0 -80 -4 -80 -68v-700c0 -72 9 -77 80 -77zM280 -104l-118 117l253 254l-253 255
l115 113l253 -252l255 257l119 -118l-256 -256l254 -253l-116 -117l-254 255z" />
    <glyph glyph-name="Pct" horiz-adv-x="1068" 
d="M532 266c0 -139 140 -208 311 -208c25 0 70 2 93 5v-92c-90 -62 -238 -92 -378 -92c-272 0 -497 174 -497 386c0 214 225 388 497 388c140 0 289 -29 378 -92v-91c-23 3 -68 5 -93 5c-171 0 -311 -70 -311 -209zM242 1v361c0 85 17 108 96 108c57 0 83 -27 83 -106
c0 -77 -26 -106 -101 -106c-30 0 -48 6 -63 18v-66c18 -10 34 -17 70 -17c110 0 176 52 176 172c0 117 -64 171 -172 171c-91 0 -169 -40 -169 -159v-315zM936 347v-240h-100v240h-96v73h292v-73h-96z" />
    <glyph glyph-name="warning" horiz-adv-x="1068" 
d="M53 4l398 689c23 38 53 57 85 57c31 0 63 -19 85 -57l394 -689c13 -21 18 -42 18 -61c0 -49 -38 -85 -103 -85h-791c-65 0 -104 36 -104 85c0 19 6 40 18 61zM589 583h-112l25 -438h63zM534 66c-43 0 -59 -7 -59 -54c0 -50 16 -58 59 -58c45 0 59 8 59 58
c0 47 -14 54 -59 54z" />
    </font>
</defs>
</svg>
