<?xml version="1.0" standalone="no"?>
<!DOCTYPE svg PUBLIC "-//W3C//DTD SVG 1.1//EN" "http://www.w3.org/Graphics/SVG/1.1/DTD/svg11.dtd" >
<svg xmlns="http://www.w3.org/2000/svg" xmlns:xlink="http://www.w3.org/1999/xlink" version="1.1">
<metadata>
Created by FontForge 20160407 at Fri Oct 14 08:11:06 2016
 By Jimmy Warting
Copyright (c) 2005 by Frantisek Storm, www.stormtype.com. All rights reserved.
</metadata>
<defs>
<font id="EtelkaBol" horiz-adv-x="628" >
  <font-face 
    font-family="EtelkaBol"
    font-weight="700"
    font-stretch="normal"
    units-per-em="1000"
    panose-1="2 11 8 3 4 0 0 2 0 4"
    ascent="750"
    descent="-250"
    x-height="511"
    cap-height="697"
    bbox="-279 -314 1449 993"
    underline-thickness="50"
    underline-position="-150"
    stemh="132"
    stemv="154"
    unicode-range="U+0020-FB17"
  />
<missing-glyph horiz-adv-x="545" 
 />
    <glyph glyph-name="fi" unicode="fi" horiz-adv-x="614" 
d="M548 511v-511h-154v379h-157v-379h-153v379h-83v132h83v25c0 152 99 191 257 191c72 0 145 -13 198 -30l-34 -118c-30 9 -85 18 -140 18c-80 0 -128 -13 -128 -71v-15h311z" />
    <glyph glyph-name="fl" unicode="fl" horiz-adv-x="620" 
d="M548 697v-548c0 -45 8 -89 34 -125l-139 -48c-32 39 -49 94 -49 168v445c-24 5 -51 8 -74 8c-55 0 -83 -15 -83 -71v-15h113v-132h-113v-379h-153v379h-83v132h83v25c0 153 94 191 239 191c78 0 148 -10 225 -30z" />
    <glyph glyph-name="ff" unicode="ff" horiz-adv-x="698" 
d="M548 528v-17h158v-132h-158v-379h-154v379h-157v-379h-153v379h-83v132h83v25c0 153 95 190 204 190c58 0 125 -8 176 -28c34 22 78 29 125 29c50 0 112 -11 154 -25l-33 -119c-24 8 -60 14 -90 14c-49 0 -72 -18 -72 -69zM237 526v-15h157v27c0 19 1 35 5 49
c-26 6 -54 10 -79 10c-57 0 -83 -16 -83 -71z" />
    <glyph glyph-name="ffi" unicode="ffi" horiz-adv-x="924" 
d="M858 511v-511h-153v379h-157v-379h-154v379h-157v-379h-153v379h-83v132h83v25c0 153 94 191 204 191c61 0 125 -10 183 -35c45 26 106 35 181 35c72 0 144 -13 197 -30l-33 -118c-31 9 -86 18 -140 18c-80 0 -128 -13 -128 -71v-15h310zM237 526v-15h157v25
c0 19 2 36 6 50c-26 7 -56 11 -80 11c-57 0 -83 -16 -83 -71z" />
    <glyph glyph-name="Th" unicode="Th" horiz-adv-x="1108" 
d="M1047 298v-298h-154v288c0 86 -36 102 -87 102c-40 0 -76 -11 -76 -32v-358h-154v556h-180v-556h-162v556h-233v141h729v-203c36 17 90 32 136 32c110 0 181 -35 181 -228z" />
    <glyph glyph-name="ffl" unicode="ffl" horiz-adv-x="930" 
d="M858 697v-548c0 -45 8 -89 35 -125l-139 -48c-32 39 -49 94 -49 168v445c-25 5 -52 8 -75 8c-54 0 -82 -16 -82 -71v-15h113v-132h-113v-379h-154v379h-157v-379h-153v379h-83v132h83v25c0 153 94 191 204 191c58 0 126 -13 180 -33c41 24 98 33 166 33
c78 0 147 -10 224 -30zM394 536c0 20 2 36 6 50c-26 7 -55 11 -80 11c-62 0 -83 -20 -83 -76v-10h157v25z" />
    <glyph glyph-name="ffk" unicode="ffk" horiz-adv-x="1227" 
d="M858 697v-697h-153v589c-25 5 -52 8 -75 8c-54 0 -82 -16 -82 -71v-15h113v-132h-113v-379h-154v379h-157v-379h-153v379h-83v132h83v25c0 154 94 190 205 190c59 0 126 -12 179 -32c41 24 98 33 166 33c77 0 148 -9 224 -30zM394 536c0 20 2 36 6 50
c-26 7 -55 11 -80 11c-62 0 -83 -20 -83 -76v-10h157v25zM1227 0h-178c-106 169 -167 258 -191 270c25 23 86 104 177 241h178c-87 -132 -152 -211 -176 -232c23 -16 94 -109 190 -279z" />
    <glyph glyph-name="fk" unicode="fk" horiz-adv-x="916" 
d="M548 0h-154v589c-24 5 -51 8 -74 8c-53 0 -83 -16 -83 -71v-15h113v-132h-113v-379h-153v379h-83v132h83v25c0 153 94 191 239 191c77 0 147 -9 225 -30v-697zM917 0h-178c-106 169 -168 258 -191 270c25 23 86 104 177 241h177c-87 -132 -151 -211 -176 -232
c24 -16 95 -109 191 -279z" />
    <glyph glyph-name="fj" unicode="fj" horiz-adv-x="614" 
d="M394 -6v385h-157v-379h-153v379h-83v132h83v25c0 152 99 191 257 191c72 0 145 -13 198 -30l-34 -118c-30 9 -85 18 -140 18c-80 0 -128 -13 -128 -71v-15h311v-515c0 -139 -68 -206 -232 -199v125c52 0 78 20 78 72z" />
    <glyph glyph-name=".notdef" horiz-adv-x="545" 
 />
    <glyph glyph-name="space" unicode=" " horiz-adv-x="257" 
 />
    <glyph glyph-name="thorn" unicode="&#xfe;" horiz-adv-x="596" 
d="M66 -192v895h154v-183c25 4 53 6 78 6c174 0 251 -61 251 -270c0 -207 -90 -270 -217 -270c-50 0 -84 11 -112 23v-201h-154zM220 386v-235c0 -23 34 -39 79 -39c73 0 96 32 96 140c0 124 -24 146 -97 146c-27 0 -60 -5 -78 -12z" />
    <glyph glyph-name="Zcaron" unicode="&#x17d;" 
d="M15 0v34c103 147 266 398 343 522h-323v141h579v-32c-78 -135 -260 -414 -344 -524h342v-141h-597zM265 876l67 -72l65 72h130l-122 -129h-147l-126 129h133z" />
    <glyph glyph-name="zcaron" unicode="&#x17e;" horiz-adv-x="498" 
d="M27 512h458v-25c-64 -107 -174 -269 -238 -355h226v-132h-463v25c84 112 199 282 240 355h-223v132zM190 697c22 -24 44 -48 66 -71c21 23 42 47 64 71h130c-41 -43 -81 -86 -122 -129h-147l-126 129h135z" />
    <glyph glyph-name="onehalf" unicode="&#xbd;" horiz-adv-x="901" 
d="M554 314l-20 110c34 12 97 21 152 21c123 0 190 -36 190 -139c0 -57 -19 -112 -79 -134c-80 -27 -121 -35 -126 -65h206v-107h-356c8 129 45 182 135 223c48 22 92 34 92 70c0 29 -17 38 -72 38c-40 0 -95 -9 -122 -17zM551 697h148l-449 -697h-148zM261 270h-124v284
l-96 -39l-33 105l253 103v-453z" />
    <glyph glyph-name="exclam" unicode="!" horiz-adv-x="333" 
d="M74 697h184l-37 -462h-110zM167 164c70 0 93 -12 93 -82c0 -76 -23 -89 -93 -89c-68 0 -91 13 -91 89c0 70 23 82 91 82z" />
    <glyph glyph-name="quotedbl" unicode="&#x22;" horiz-adv-x="402" 
d="M45 697h129l-19 -245h-99zM231 697h126l-19 -245h-98z" />
    <glyph glyph-name="numbersign" unicode="#" horiz-adv-x="738" 
d="M39 425l8 122h123l10 151h141l-10 -151h125l10 151h141l-10 -151h131l-7 -122h-132l-10 -142h133l-8 -121h-132l-11 -162h-141l11 162h-125l-11 -162h-141l11 162h-123l9 121h121l10 142h-123zM303 425l-9 -142h124l10 142h-125z" />
    <glyph glyph-name="percent" unicode="%" horiz-adv-x="1008" 
d="M654 697h140l-446 -697h-139zM223 714c143 0 197 -47 197 -226c0 -182 -54 -236 -197 -236c-142 0 -196 54 -196 236c0 179 54 226 196 226zM223 359c51 0 63 17 63 128c0 108 -12 121 -63 121c-50 0 -63 -13 -63 -121c0 -111 13 -128 63 -128zM784 448
c143 0 197 -47 197 -227c0 -181 -54 -235 -197 -235s-196 54 -196 235c0 180 53 227 196 227zM784 93c51 0 62 17 62 128c0 107 -11 121 -62 121c-50 0 -63 -14 -63 -121c0 -111 13 -128 63 -128z" />
    <glyph glyph-name="parenleft" unicode="(" horiz-adv-x="327" 
d="M68 249c0 317 99 467 230 522l70 -113c-81 -44 -138 -135 -138 -409s57 -365 138 -409l-70 -113c-131 55 -230 205 -230 522z" />
    <glyph glyph-name="asterisk" unicode="*" horiz-adv-x="532" 
d="M30 459v124h127l-64 111l109 62l64 -111l63 111l109 -62l-65 -111h128v-124h-128l64 -111l-109 -61l-62 109l-64 -109l-109 62l64 110h-127z" />
    <glyph glyph-name="comma" unicode="," horiz-adv-x="299" 
d="M258 105l-118 -264h-137l79 264h176z" />
    <glyph glyph-name="hyphen" unicode="-" horiz-adv-x="317" 
d="M27 211v147h263v-147h-263z" />
    <glyph glyph-name="hyphen" unicode="&#xad;" horiz-adv-x="317" 
d="M27 211v147h263v-147h-263z" />
    <glyph glyph-name="period" unicode="." horiz-adv-x="299" 
d="M149 164c70 0 92 -12 92 -82c0 -76 -22 -89 -92 -89c-68 0 -91 13 -91 89c0 70 23 82 91 82z" />
    <glyph glyph-name="four" unicode="4" horiz-adv-x="626" 
d="M353 166h-345v55c75 135 205 352 293 476h206v-396h90v-135h-90v-166h-154v166zM353 301v247c-54 -73 -121 -187 -153 -247h153z" />
    <glyph glyph-name="seven" unicode="7" 
d="M611 697v-46c-82 -131 -234 -459 -297 -651h-183c69 188 183 448 265 556h-340v141h555z" />
    <glyph glyph-name="eight" unicode="8" 
d="M315 117c78 0 100 21 100 87c0 68 -23 96 -100 96c-79 0 -102 -28 -102 -96c0 -66 23 -87 102 -87zM315 425c64 0 92 20 92 80c0 61 -26 75 -92 75c-68 0 -94 -14 -94 -75c0 -60 28 -80 94 -80zM315 -14h-1c-204 0 -269 55 -269 201c0 109 30 174 163 180
c-125 10 -150 69 -150 166c0 126 47 181 256 181s256 -55 256 -181c0 -97 -25 -156 -150 -166c133 -6 163 -71 163 -180c0 -146 -64 -201 -268 -201z" />
    <glyph glyph-name="nine" unicode="9" 
d="M162 0c86 88 166 182 207 264c-12 -1 -53 -2 -62 -2c-199 0 -259 56 -259 214c0 182 67 238 268 238c219 0 271 -56 271 -240c0 -194 -96 -340 -228 -474h-197zM328 398c26 0 55 1 82 4c4 18 5 37 5 57c0 93 -19 108 -99 108c-83 0 -101 -22 -101 -86
c0 -69 17 -83 113 -83z" />
    <glyph glyph-name="colon" unicode=":" horiz-adv-x="299" 
d="M149 164c70 0 92 -12 92 -82c0 -76 -22 -89 -92 -89c-68 0 -91 13 -91 89c0 70 23 82 91 82zM149 520c70 0 92 -11 92 -81c0 -76 -22 -89 -92 -89c-68 0 -91 13 -91 89c0 70 23 81 91 81z" />
    <glyph glyph-name="semicolon" unicode=";" horiz-adv-x="299" 
d="M258 105l-118 -264h-137l79 264h176zM149 520c70 0 92 -11 92 -81c0 -76 -22 -89 -92 -89c-68 0 -91 13 -91 89c0 70 23 81 91 81z" />
    <glyph glyph-name="less" unicode="&#x3c;" horiz-adv-x="563" 
d="M514 570l-242 -205l242 -209l-79 -112l-364 282v74l363 281z" />
    <glyph glyph-name="equal" unicode="=" horiz-adv-x="563" 
d="M36 141v147h490v-147h-490zM36 440v147h490v-147h-490z" />
    <glyph glyph-name="A" unicode="A" horiz-adv-x="689" 
d="M543 0c-17 41 -38 95 -59 154h-287c-18 -58 -33 -111 -45 -154h-172c58 195 167 501 247 697h249c66 -218 170 -515 245 -697h-178zM355 557h-26c-27 -73 -59 -167 -91 -264h200c-32 95 -62 190 -83 264z" />
    <glyph glyph-name="B" unicode="B" horiz-adv-x="723" 
d="M243 137h195c34 0 51 23 51 77c0 57 -19 83 -55 83h-191v-160zM243 560v-132h190c31 0 45 18 45 66s-14 66 -45 66h-190zM502 367c133 -6 162 -70 162 -179c0 -140 -71 -188 -184 -188h-398v697h395c139 0 174 -58 174 -167c0 -97 -24 -153 -149 -163z" />
    <glyph glyph-name="D" unicode="D" horiz-adv-x="753" 
d="M82 697h291c223 0 331 -73 331 -345c0 -271 -108 -352 -331 -352h-291v697zM532 350c0 186 -37 206 -178 206h-111v-414h111c141 0 178 28 178 208z" />
    <glyph glyph-name="E" unicode="E" horiz-adv-x="626" 
d="M82 697h520v-141h-359v-125h257v-138h-257v-152h359v-141h-520v697z" />
    <glyph glyph-name="F" unicode="F" horiz-adv-x="590" 
d="M82 697h508v-141h-347v-162h257v-138h-257v-256h-161v697z" />
    <glyph glyph-name="G" unicode="G" horiz-adv-x="712" 
d="M479 140v146h-138v138h303v-405c-58 -18 -175 -33 -265 -33c-224 0 -330 85 -330 369c0 285 126 359 358 359c65 0 165 -10 218 -25l-29 -142c-35 12 -130 20 -173 20c-150 0 -202 -21 -202 -214c0 -192 52 -218 192 -218c22 0 48 3 66 5z" />
    <glyph glyph-name="H" unicode="H" horiz-adv-x="748" 
d="M243 294v-294h-161v697h161v-254h262v254h161v-697h-161v294h-262z" />
    <glyph glyph-name="I" unicode="I" horiz-adv-x="325" 
d="M82 697h161v-697h-161v697z" />
    <glyph glyph-name="J" unicode="J" horiz-adv-x="472" 
d="M394 697v-505c0 -162 -112 -206 -222 -206c-63 0 -122 10 -169 26l27 144c34 -12 76 -20 123 -20c48 0 78 22 78 82v479h163z" />
    <glyph glyph-name="K" unicode="K" horiz-adv-x="684" 
d="M243 697v-697h-161v697h161zM700 0h-194c-126 231 -225 352 -262 368c38 31 135 149 245 329h192c-116 -180 -205 -291 -236 -320c30 -23 130 -146 255 -377z" />
    <glyph glyph-name="L" unicode="L" horiz-adv-x="553" 
d="M82 697h161v-555h314v-142h-475v697z" />
    <glyph glyph-name="M" unicode="M" horiz-adv-x="939" 
d="M477 289c50 132 119 293 174 408h206v-697h-156v471c-53 -117 -126 -295 -172 -413h-128c-44 116 -113 301 -163 413v-471h-156v697h216c58 -116 127 -277 179 -408z" />
    <glyph glyph-name="N" unicode="N" horiz-adv-x="796" 
d="M714 697v-697h-200c-86 159 -179 319 -274 476v-476h-158v697h210c90 -147 179 -303 262 -459v459h160z" />
    <glyph glyph-name="O" unicode="O" horiz-adv-x="775" 
d="M388 714c223 0 339 -75 339 -358c0 -287 -116 -370 -339 -370c-224 0 -339 83 -339 370c0 283 115 358 339 358zM388 133c141 0 167 28 167 221c0 190 -26 212 -167 212s-167 -22 -167 -212c0 -193 26 -221 167 -221z" />
    <glyph glyph-name="P" unicode="P" horiz-adv-x="684" 
d="M243 350h172c42 0 70 29 70 102c0 76 -24 107 -68 107h-174v-209zM243 0h-161v697h389c143 0 191 -102 191 -245c0 -126 -60 -235 -190 -235h-229v-217z" />
    <glyph glyph-name="Q" unicode="Q" horiz-adv-x="782" 
d="M391 714c223 0 339 -75 339 -358c0 -208 -63 -303 -180 -330c42 -13 107 -79 205 -218h-186c-73 118 -135 173 -179 178c-223 0 -338 84 -338 370c0 283 116 358 339 358zM391 133c141 0 167 28 167 221c0 190 -26 212 -167 212s-167 -22 -167 -212
c0 -193 26 -221 167 -221z" />
    <glyph glyph-name="R" unicode="R" horiz-adv-x="722" 
d="M243 560v-179h179c35 0 61 25 61 87c0 63 -23 92 -59 92h-181zM488 299c47 -17 99 -80 229 -299h-201c-108 190 -158 249 -201 249h-72v-249h-161v697h389c143 0 191 -89 191 -204c0 -100 -42 -187 -174 -194z" />
    <glyph glyph-name="S" unicode="S" horiz-adv-x="622" 
d="M571 681l-33 -138c-42 12 -114 23 -191 23c-104 0 -134 -20 -134 -68c0 -44 20 -60 141 -73c159 -18 230 -79 230 -212c0 -172 -92 -227 -309 -227c-84 0 -170 13 -226 33l33 138c45 -12 115 -23 191 -23c104 0 137 15 137 68c0 44 -19 65 -150 79
c-149 16 -219 65 -219 194c0 173 100 239 307 239c84 0 168 -13 223 -33z" />
    <glyph glyph-name="T" unicode="T" horiz-adv-x="629" 
d="M396 0h-162v556h-233v141h627v-141h-232v-556z" />
    <glyph glyph-name="U" unicode="U" horiz-adv-x="745" 
d="M509 697h162v-502c0 -168 -117 -209 -299 -209c-183 0 -299 41 -299 209v502h163v-421c0 -93 2 -140 136 -140s137 48 137 140v421z" />
    <glyph glyph-name="V" unicode="V" horiz-adv-x="653" 
d="M-32 697h178c57 -135 141 -373 184 -524c57 146 129 378 171 524h172c-57 -196 -169 -502 -251 -697h-206c-65 215 -168 514 -248 697z" />
    <glyph glyph-name="W" unicode="W" horiz-adv-x="1011" 
d="M509 421c-30 -136 -75 -296 -113 -421h-205c-52 215 -133 514 -197 697h175c46 -135 102 -334 137 -488c36 119 102 347 130 488h146c40 -135 103 -364 130 -488c48 150 97 339 128 488h169c-46 -196 -135 -502 -199 -697h-206c-26 137 -64 296 -95 421z" />
    <glyph glyph-name="X" unicode="X" horiz-adv-x="688" 
d="M200 697c41 -54 93 -124 151 -202c52 73 101 147 134 202h201c-64 -98 -149 -221 -234 -342c95 -135 190 -271 246 -355h-203c-39 59 -89 133 -145 212c-58 -78 -112 -150 -161 -212h-201c56 70 160 211 261 352c-98 134 -198 268 -260 345h211z" />
    <glyph glyph-name="Y" unicode="Y" horiz-adv-x="653" 
d="M159 697c48 -63 113 -152 179 -247c67 94 128 182 166 247h199c-77 -118 -183 -272 -287 -413v-284h-161v283c-110 154 -235 324 -310 414h214z" />
    <glyph glyph-name="Z" unicode="Z" 
d="M15 0v34c103 147 266 398 343 522h-323v141h579v-32c-78 -135 -260 -414 -344 -524h342v-141h-597z" />
    <glyph glyph-name="bracketleft" unicode="[" horiz-adv-x="378" 
d="M92 755h305v-133h-146v-750h146v-132h-305v1015z" />
    <glyph glyph-name="asciicircum" unicode="^" horiz-adv-x="561" 
d="M380 296l-101 231l-100 -231h-164l192 401h144l195 -401h-166z" />
    <glyph glyph-name="underscore" unicode="_" horiz-adv-x="507" 
d="M27 -184v147h453v-147h-453z" />
    <glyph glyph-name="a" unicode="a" horiz-adv-x="569" 
d="M508 327v-301c-69 -25 -168 -40 -243 -40c-169 0 -219 36 -219 170c0 144 78 167 200 167c38 0 77 -5 116 -13c0 71 -16 91 -116 91c-59 0 -116 -11 -159 -24l-24 122c59 15 144 27 220 27c153 0 225 -47 225 -199zM204 161c0 -52 13 -61 73 -61c29 0 61 5 85 14v97
c-23 6 -52 7 -83 7c-55 0 -75 -6 -75 -57z" />
    <glyph glyph-name="f" unicode="f" horiz-adv-x="387" 
d="M237 528v-17h158v-132h-158v-379h-153v379h-83v132h83v27c0 153 91 188 198 188c50 0 111 -10 150 -24l-33 -119c-26 8 -65 13 -97 13c-45 0 -65 -19 -65 -68z" />
    <glyph glyph-name="i" unicode="i" horiz-adv-x="284" 
d="M220 512v-512h-154v512h154zM143 734c65 0 87 -10 87 -73c0 -69 -22 -81 -87 -81c-66 0 -87 12 -87 81c0 63 21 73 87 73z" />
    <glyph glyph-name="j" unicode="j" horiz-adv-x="284" 
d="M143 734c65 0 87 -10 87 -73c0 -69 -22 -81 -87 -81c-66 0 -87 12 -87 81c0 63 21 73 87 73zM220 512v-514c0 -152 -70 -201 -232 -201v124c52 0 78 21 78 73v518h154z" />
    <glyph glyph-name="k" unicode="k" horiz-adv-x="588" 
d="M220 722v-722h-154v722h154zM589 0h-178c-106 169 -168 259 -191 271c25 23 86 104 177 241h177c-87 -133 -151 -211 -176 -232c24 -16 95 -110 191 -280z" />
    <glyph glyph-name="l" unicode="l" horiz-adv-x="292" 
d="M220 722v-573c0 -49 10 -87 34 -124l-138 -50c-33 40 -50 96 -50 170v577h154z" />
    <glyph glyph-name="s" unicode="s" horiz-adv-x="484" 
d="M439 498l-30 -114c-40 11 -99 22 -151 22c-48 0 -72 -4 -72 -44c0 -27 14 -34 93 -44c119 -15 172 -51 172 -156c0 -139 -100 -176 -229 -176c-55 0 -135 11 -182 28l30 116c38 -11 95 -21 145 -21c60 0 88 5 88 45c0 28 -17 39 -102 47c-107 10 -164 41 -164 150
c0 139 99 175 227 175c55 0 127 -11 175 -28z" />
    <glyph glyph-name="v" unicode="v" horiz-adv-x="512" 
d="M256 156c41 117 80 238 109 355h153c-48 -163 -113 -348 -180 -511h-183c-51 180 -106 352 -166 511h155c41 -108 80 -233 112 -355z" />
    <glyph glyph-name="x" unicode="x" horiz-adv-x="520" 
d="M529 0h-169c-22 38 -55 87 -92 140c-42 -57 -79 -106 -107 -140h-167c45 53 121 154 195 255c-71 100 -145 198 -193 256h176c27 -33 63 -83 100 -135c38 53 68 102 89 135h167c-40 -62 -107 -158 -174 -252c66 -94 132 -191 175 -259z" />
    <glyph glyph-name="z" unicode="z" horiz-adv-x="498" 
d="M27 512h458v-25c-64 -107 -174 -269 -238 -355h226v-132h-463v25c84 112 199 282 240 355h-223v132z" />
    <glyph glyph-name="braceleft" unicode="{" horiz-adv-x="378" 
d="M395 659c-64 -24 -98 -61 -98 -206c0 -152 -55 -194 -88 -204c33 -10 88 -55 88 -208c0 -144 31 -179 98 -205l-73 -111c-83 28 -172 89 -172 259c0 160 -52 200 -111 200v128c59 0 111 41 111 201c0 170 89 232 172 260z" />
    <glyph glyph-name="bar" unicode="|" horiz-adv-x="401" 
d="M120 755h161v-1011h-161v1011z" />
    <glyph glyph-name="Ccedilla" unicode="&#xc7;" horiz-adv-x="588" 
d="M49 355c0 285 106 359 330 359c65 0 149 -10 202 -25l-31 -142c-34 12 -93 19 -137 19c-140 0 -192 -20 -192 -213c0 -192 52 -218 192 -218c44 0 103 8 137 19l31 -145c-54 -14 -137 -23 -202 -23c-224 0 -330 85 -330 369zM334 0h57v-39c70 0 105 -21 105 -79
c0 -65 -38 -85 -143 -85c-45 0 -70 4 -94 13l24 60c13 -6 39 -9 62 -9c26 0 34 6 34 23c0 21 -21 27 -81 22z" />
    <glyph glyph-name="Eacute" unicode="&#xc9;" horiz-adv-x="626" 
d="M82 697h520v-141h-359v-125h257v-138h-257v-152h359v-141h-520v697zM375 747h-130l127 129h159z" />
    <glyph glyph-name="Ntilde" unicode="&#xd1;" horiz-adv-x="796" 
d="M714 697v-697h-200c-86 159 -179 319 -274 476v-476h-158v697h210c90 -147 179 -303 262 -459v459h160zM517 885l72 -58c-18 -51 -62 -94 -125 -94s-95 47 -143 47c-19 0 -33 -11 -48 -45l-65 64c26 46 59 79 110 79c73 0 103 -45 149 -45c23 0 35 11 50 52z" />
    <glyph glyph-name="Odieresis" unicode="&#xd6;" horiz-adv-x="775" 
d="M388 714c223 0 339 -75 339 -358c0 -287 -116 -370 -339 -370c-224 0 -339 83 -339 370c0 283 115 358 339 358zM388 133c141 0 167 28 167 221c0 190 -26 212 -167 212s-167 -22 -167 -212c0 -193 26 -221 167 -221zM273 872c52 0 69 -8 69 -63c0 -61 -17 -71 -69 -71
s-68 10 -68 71c0 55 16 63 68 63zM499 872c51 0 68 -8 68 -63c0 -61 -17 -71 -68 -71c-53 0 -69 10 -69 71c0 55 16 63 69 63z" />
    <glyph glyph-name="Udieresis" unicode="&#xdc;" horiz-adv-x="745" 
d="M509 697h162v-502c0 -168 -117 -209 -299 -209c-183 0 -299 41 -299 209v502h163v-421c0 -93 2 -140 136 -140s137 48 137 140v421zM257 872c52 0 69 -8 69 -63c0 -61 -17 -71 -69 -71s-68 10 -68 71c0 55 16 63 68 63zM483 872c51 0 68 -8 68 -63c0 -61 -17 -71 -68 -71
c-53 0 -69 10 -69 71c0 55 16 63 69 63z" />
    <glyph glyph-name="aacute" unicode="&#xe1;" horiz-adv-x="569" 
d="M508 327v-301c-69 -25 -168 -40 -243 -40c-169 0 -219 36 -219 170c0 144 78 167 200 167c38 0 77 -5 116 -13c0 71 -16 91 -116 91c-59 0 -116 -11 -159 -24l-24 122c59 15 144 27 220 27c153 0 225 -47 225 -199zM204 161c0 -52 13 -61 73 -61c29 0 61 5 85 14v97
c-23 6 -52 7 -83 7c-55 0 -75 -6 -75 -57zM314 568h-130l123 129h157z" />
    <glyph glyph-name="agrave" unicode="&#xe0;" horiz-adv-x="569" 
d="M508 327v-301c-69 -25 -168 -40 -243 -40c-169 0 -219 36 -219 170c0 144 78 167 200 167c38 0 77 -5 116 -13c0 71 -16 91 -116 91c-59 0 -116 -11 -159 -24l-24 122c59 15 144 27 220 27c153 0 225 -47 225 -199zM204 161c0 -52 13 -61 73 -61c29 0 61 5 85 14v97
c-23 6 -52 7 -83 7c-55 0 -75 -6 -75 -57zM379 568h-129l-151 129h158z" />
    <glyph glyph-name="acircumflex" unicode="&#xe2;" horiz-adv-x="569" 
d="M508 327v-301c-69 -25 -168 -40 -243 -40c-169 0 -219 36 -219 170c0 144 78 167 200 167c38 0 77 -5 116 -13c0 71 -16 91 -116 91c-59 0 -116 -11 -159 -24l-24 122c59 15 144 27 220 27c153 0 225 -47 225 -199zM204 161c0 -52 13 -61 73 -61c29 0 61 5 85 14v97
c-23 6 -52 7 -83 7c-55 0 -75 -6 -75 -57zM349 568c-22 23 -44 47 -66 71c-22 -24 -43 -48 -64 -71h-131c41 43 81 86 122 129h147l126 -129h-134z" />
    <glyph glyph-name="adieresis" unicode="&#xe4;" horiz-adv-x="569" 
d="M508 327v-301c-69 -25 -168 -40 -243 -40c-169 0 -219 36 -219 170c0 144 78 167 200 167c38 0 77 -5 116 -13c0 71 -16 91 -116 91c-59 0 -116 -11 -159 -24l-24 122c59 15 144 27 220 27c153 0 225 -47 225 -199zM204 161c0 -52 13 -61 73 -61c29 0 61 5 85 14v97
c-23 6 -52 7 -83 7c-55 0 -75 -6 -75 -57zM164 694c52 0 69 -9 69 -64c0 -60 -17 -71 -69 -71c-51 0 -68 11 -68 71c0 55 17 64 68 64zM390 694c51 0 68 -9 68 -64c0 -60 -17 -71 -68 -71c-53 0 -69 11 -69 71c0 55 16 64 69 64z" />
    <glyph glyph-name="atilde" unicode="&#xe3;" horiz-adv-x="569" 
d="M508 327v-301c-69 -25 -168 -40 -243 -40c-169 0 -219 36 -219 170c0 144 78 167 200 167c38 0 77 -5 116 -13c0 71 -16 91 -116 91c-59 0 -116 -11 -159 -24l-24 122c59 15 144 27 220 27c153 0 225 -47 225 -199zM204 161c0 -52 13 -61 73 -61c29 0 61 5 85 14v97
c-23 6 -52 7 -83 7c-55 0 -75 -6 -75 -57zM393 708l72 -58c-19 -51 -60 -94 -124 -94c-63 0 -93 47 -141 47c-19 0 -33 -11 -48 -46l-66 65c26 46 59 80 111 80c74 0 100 -46 146 -46c23 0 35 11 50 52z" />
    <glyph glyph-name="aring" unicode="&#xe5;" horiz-adv-x="569" 
d="M508 327v-301c-69 -25 -168 -40 -243 -40c-169 0 -219 36 -219 170c0 144 78 167 200 167c38 0 77 -5 116 -13c0 71 -16 91 -116 91c-59 0 -116 -11 -159 -24l-24 122c59 15 144 27 220 27c153 0 225 -47 225 -199zM204 161c0 -52 13 -61 73 -61c29 0 61 5 85 14v97
c-23 6 -52 7 -83 7c-55 0 -75 -6 -75 -57zM283 742c84 0 123 -23 123 -100s-39 -100 -123 -100c-85 0 -125 23 -125 100s37 100 125 100zM283 680c-39 0 -47 -11 -47 -39s8 -38 47 -38c38 0 46 11 46 38c0 29 -8 39 -46 39z" />
    <glyph glyph-name="ccedilla" unicode="&#xe7;" horiz-adv-x="472" 
d="M430 141l32 -129c-41 -17 -110 -26 -161 -26c-153 0 -255 63 -255 273c0 208 103 267 255 267c53 0 121 -8 161 -22l-32 -130c-29 11 -74 21 -116 21c-75 0 -113 -13 -113 -139c0 -120 38 -138 113 -138c44 0 87 11 116 23zM254 0h57v-39c70 0 105 -21 105 -79
c0 -65 -38 -85 -143 -85c-45 0 -70 4 -94 13l24 60c13 -6 39 -9 62 -9c26 0 34 6 34 23c0 21 -21 27 -81 22z" />
    <glyph glyph-name="eacute" unicode="&#xe9;" horiz-adv-x="556" 
d="M459 131l23 -117c-51 -17 -127 -28 -185 -28c-144 0 -251 63 -251 273c0 206 94 267 241 267c170 0 244 -52 230 -315h-313c2 -82 39 -97 113 -97c37 0 104 7 142 17zM298 410c-64 0 -84 -21 -93 -86h178c-2 71 -25 86 -85 86zM326 568h-130l123 129h157z" />
    <glyph glyph-name="egrave" unicode="&#xe8;" horiz-adv-x="556" 
d="M459 131l23 -117c-51 -17 -127 -28 -185 -28c-144 0 -251 63 -251 273c0 206 94 267 241 267c170 0 244 -52 230 -315h-313c2 -82 39 -97 113 -97c37 0 104 7 142 17zM298 410c-64 0 -84 -21 -93 -86h178c-2 71 -25 86 -85 86zM396 568h-129l-151 129h158z" />
    <glyph glyph-name="ecircumflex" unicode="&#xea;" horiz-adv-x="556" 
d="M459 131l23 -117c-51 -17 -127 -28 -185 -28c-144 0 -251 63 -251 273c0 206 94 267 241 267c170 0 244 -52 230 -315h-313c2 -82 39 -97 113 -97c37 0 104 7 142 17zM298 410c-64 0 -84 -21 -93 -86h178c-2 71 -25 86 -85 86zM361 568c-22 23 -44 47 -66 71
c-22 -24 -43 -48 -64 -71h-131c41 43 81 86 122 129h147l126 -129h-134z" />
    <glyph glyph-name="edieresis" unicode="&#xeb;" horiz-adv-x="556" 
d="M459 131l23 -117c-51 -17 -127 -28 -185 -28c-144 0 -251 63 -251 273c0 206 94 267 241 267c170 0 244 -52 230 -315h-313c2 -82 39 -97 113 -97c37 0 104 7 142 17zM298 410c-64 0 -84 -21 -93 -86h178c-2 71 -25 86 -85 86zM182 694c52 0 69 -9 69 -64
c0 -60 -17 -71 -69 -71c-51 0 -68 11 -68 71c0 55 17 64 68 64zM408 694c51 0 68 -9 68 -64c0 -60 -17 -71 -68 -71c-53 0 -69 11 -69 71c0 55 16 64 69 64z" />
    <glyph glyph-name="iacute" unicode="&#xed;" horiz-adv-x="284" 
d="M220 512v-512h-154v512h154zM170 568h-130l123 129h157z" />
    <glyph glyph-name="igrave" unicode="&#xec;" horiz-adv-x="284" 
d="M220 512v-512h-154v512h154zM240 568h-129l-151 129h158z" />
    <glyph glyph-name="icircumflex" unicode="&#xee;" horiz-adv-x="284" 
d="M220 512v-512h-154v512h154zM207 568c-22 23 -44 47 -66 71c-22 -24 -43 -48 -64 -71h-131c41 43 81 86 122 129h147l126 -129h-134z" />
    <glyph glyph-name="idieresis" unicode="&#xef;" horiz-adv-x="284" 
d="M220 512v-512h-154v512h154zM31 694c52 0 69 -9 69 -64c0 -60 -17 -71 -69 -71c-51 0 -68 11 -68 71c0 55 17 64 68 64zM257 694c51 0 68 -9 68 -64c0 -60 -17 -71 -68 -71c-53 0 -69 11 -69 71c0 55 16 64 69 64z" />
    <glyph glyph-name="ntilde" unicode="&#xf1;" horiz-adv-x="597" 
d="M220 380v-380h-154v480c66 24 168 46 260 46c141 0 211 -59 211 -243v-283h-154v271c0 93 -15 118 -90 118c-25 0 -48 -3 -73 -9zM417 708l72 -58c-19 -51 -60 -94 -124 -94c-63 0 -93 47 -141 47c-19 0 -33 -11 -48 -46l-66 65c26 46 59 80 111 80c74 0 100 -46 146 -46
c23 0 35 11 50 52z" />
    <glyph glyph-name="oacute" unicode="&#xf3;" horiz-adv-x="590" 
d="M294 -14c-165 0 -248 63 -248 273c0 209 85 267 248 267c166 0 250 -58 250 -267c0 -210 -83 -273 -250 -273zM294 406c-72 0 -93 -16 -93 -150c0 -129 21 -150 93 -150c73 0 94 21 94 150c0 134 -21 150 -94 150zM318 568h-130l123 129h157z" />
    <glyph glyph-name="ograve" unicode="&#xf2;" horiz-adv-x="590" 
d="M294 -14c-165 0 -248 63 -248 273c0 209 85 267 248 267c166 0 250 -58 250 -267c0 -210 -83 -273 -250 -273zM294 406c-72 0 -93 -16 -93 -150c0 -129 21 -150 93 -150c73 0 94 21 94 150c0 134 -21 150 -94 150zM402 568h-129l-151 129h158z" />
    <glyph glyph-name="ocircumflex" unicode="&#xf4;" horiz-adv-x="590" 
d="M294 -14c-165 0 -248 63 -248 273c0 209 85 267 248 267c166 0 250 -58 250 -267c0 -210 -83 -273 -250 -273zM294 406c-72 0 -93 -16 -93 -150c0 -129 21 -150 93 -150c73 0 94 21 94 150c0 134 -21 150 -94 150zM356 568c-22 23 -44 47 -66 71c-22 -24 -43 -48 -64 -71
h-131c41 43 81 86 122 129h147l126 -129h-134z" />
    <glyph glyph-name="odieresis" unicode="&#xf6;" horiz-adv-x="590" 
d="M294 -14c-165 0 -248 63 -248 273c0 209 85 267 248 267c166 0 250 -58 250 -267c0 -210 -83 -273 -250 -273zM294 406c-72 0 -93 -16 -93 -150c0 -129 21 -150 93 -150c73 0 94 21 94 150c0 134 -21 150 -94 150zM181 694c52 0 69 -9 69 -64c0 -60 -17 -71 -69 -71
c-51 0 -68 11 -68 71c0 55 17 64 68 64zM407 694c51 0 68 -9 68 -64c0 -60 -17 -71 -68 -71c-53 0 -69 11 -69 71c0 55 16 64 69 64z" />
    <glyph glyph-name="otilde" unicode="&#xf5;" horiz-adv-x="590" 
d="M294 -14c-165 0 -248 63 -248 273c0 209 85 267 248 267c166 0 250 -58 250 -267c0 -210 -83 -273 -250 -273zM294 406c-72 0 -93 -16 -93 -150c0 -129 21 -150 93 -150c73 0 94 21 94 150c0 134 -21 150 -94 150zM411 708l72 -58c-19 -51 -60 -94 -124 -94
c-63 0 -93 47 -141 47c-19 0 -33 -11 -48 -46l-66 65c26 46 59 80 111 80c74 0 100 -46 146 -46c23 0 35 11 50 52z" />
    <glyph glyph-name="uacute" unicode="&#xfa;" horiz-adv-x="597" 
d="M379 132v380h152v-481c-65 -23 -168 -46 -259 -46c-142 0 -210 60 -210 243v284h152v-272c0 -92 16 -118 91 -118c25 0 47 4 74 10zM326 568h-130l123 129h157z" />
    <glyph glyph-name="ugrave" unicode="&#xf9;" horiz-adv-x="597" 
d="M379 132v380h152v-481c-65 -23 -168 -46 -259 -46c-142 0 -210 60 -210 243v284h152v-272c0 -92 16 -118 91 -118c25 0 47 4 74 10zM401 568h-129l-151 129h158z" />
    <glyph glyph-name="ucircumflex" unicode="&#xfb;" horiz-adv-x="597" 
d="M379 132v380h152v-481c-65 -23 -168 -46 -259 -46c-142 0 -210 60 -210 243v284h152v-272c0 -92 16 -118 91 -118c25 0 47 4 74 10zM365 568c-22 23 -44 47 -66 71c-22 -24 -43 -48 -64 -71h-131c41 43 81 86 122 129h147l126 -129h-134z" />
    <glyph glyph-name="udieresis" unicode="&#xfc;" horiz-adv-x="597" 
d="M379 132v380h152v-481c-65 -23 -168 -46 -259 -46c-142 0 -210 60 -210 243v284h152v-272c0 -92 16 -118 91 -118c25 0 47 4 74 10zM184 694c52 0 69 -9 69 -64c0 -60 -17 -71 -69 -71c-51 0 -68 11 -68 71c0 55 17 64 68 64zM410 694c51 0 68 -9 68 -64
c0 -60 -17 -71 -68 -71c-53 0 -69 11 -69 71c0 55 16 64 69 64z" />
    <glyph glyph-name="cent" unicode="&#xa2;" horiz-adv-x="455" 
d="M236 748h117v-106c32 -3 69 -10 95 -19l-31 -116c-17 7 -42 11 -64 12v-287c22 1 47 6 64 14l31 -115c-26 -11 -63 -18 -95 -22v-119h-117v119c-115 17 -191 88 -191 269c0 180 77 248 191 263v107zM187 375c0 -74 17 -109 49 -124v250c-32 -15 -49 -48 -49 -126z" />
    <glyph glyph-name="sterling" unicode="&#xa3;" horiz-adv-x="615" 
d="M30 280v127h56v64c0 162 84 243 291 243c84 0 168 -14 223 -33l-33 -138c-42 12 -114 23 -191 23c-104 0 -129 -25 -129 -83v-76h199v-127h-199v-139h328v-141h-489v280h-56z" />
    <glyph glyph-name="section" unicode="&#xa7;" horiz-adv-x="622" 
d="M560 682l-31 -129c-39 12 -106 22 -178 22c-98 0 -127 -20 -127 -64c0 -42 19 -56 133 -68c149 -17 233 -73 233 -196c0 -47 -20 -87 -49 -119c22 -27 33 -61 33 -106c0 -160 -108 -225 -301 -225c-78 0 -157 12 -208 31l31 130c39 -12 106 -23 178 -23
c98 0 127 21 127 65c0 42 -19 56 -133 68c-149 17 -233 72 -233 196c0 48 17 90 45 123c-20 26 -30 59 -30 102c0 160 109 225 302 225c77 0 157 -13 208 -32zM215 316c-13 -9 -19 -24 -19 -42c0 -43 21 -58 159 -71c21 -2 39 -5 54 -10c12 11 20 25 20 44
c0 42 -21 58 -159 71c-22 1 -40 4 -55 8z" />
    <glyph glyph-name="paragraph" unicode="&#xb6;" horiz-adv-x="684" 
d="M602 0h-139v217h-80v-217h-139v217h-32c-130 0 -190 109 -190 235c0 143 48 245 191 245h389v-697z" />
    <glyph glyph-name="registered" unicode="&#xae;" horiz-adv-x="573" 
d="M418 505c0 -61 -25 -78 -70 -78c24 -11 49 -31 58 -102h-94c-3 39 -21 70 -34 70h-14v-70h-89v269h170c51 0 73 -40 73 -89zM326 500c0 13 -4 23 -17 23h-45v-47h45c13 0 17 9 17 24zM534 459c0 -197 -78 -257 -247 -257c-170 0 -248 60 -248 257c0 200 80 254 248 254
s247 -54 247 -254zM441 459c0 148 -39 170 -154 170c-114 0 -153 -22 -153 -170c0 -139 39 -170 153 -170c115 0 154 31 154 170z" />
    <glyph glyph-name="copyright" unicode="&#xa9;" horiz-adv-x="819" 
d="M410 714c230 0 357 -75 357 -358c0 -287 -126 -370 -357 -370c-232 0 -358 83 -358 370c0 283 126 358 358 358zM409 94c173 0 229 35 229 262c0 221 -56 248 -229 248c-172 0 -228 -27 -228 -248c0 -227 56 -262 228 -262zM539 266l26 -102c-34 -13 -81 -21 -127 -21
c-141 0 -205 37 -205 210c0 172 64 207 205 207c49 0 94 -7 127 -19l-26 -103c-23 8 -61 13 -91 13c-62 0 -85 -11 -85 -100c0 -83 23 -99 85 -99c32 0 68 5 91 14z" />
    <glyph glyph-name="trademark" unicode="&#x2122;" horiz-adv-x="873" 
d="M227 333h-106v271h-117v93h340v-93h-117v-271zM514 697l91 -217l87 217h128v-364h-101v223l-85 -202h-73l-79 202v-223h-101v364h133z" />
    <glyph glyph-name="acute" unicode="&#xb4;" horiz-adv-x="475" 
d="M218 568h-130l123 129h157z" />
    <glyph glyph-name="dieresis" unicode="&#xa8;" horiz-adv-x="490" 
d="M124 694c52 0 69 -9 69 -64c0 -60 -17 -71 -69 -71c-51 0 -68 11 -68 71c0 55 17 64 68 64zM350 694c51 0 68 -9 68 -64c0 -60 -17 -71 -68 -71c-53 0 -69 11 -69 71c0 55 16 64 69 64z" />
    <glyph glyph-name="notequal" unicode="&#x2260;" horiz-adv-x="563" 
d="M361 667h148l-42 -80h59v-147h-133l-77 -152h210v-147h-283l-44 -83h-147l43 83h-59v147h132l77 152h-209v147h283z" />
    <glyph glyph-name="AE" unicode="&#xc6;" horiz-adv-x="972" 
d="M327 697h621v-141h-358v-125h209v-138h-209v-152h358v-141h-519v154h-295c-37 -58 -70 -111 -97 -154h-194c125 195 337 501 484 697zM429 557h-25c-52 -73 -116 -167 -180 -264h205v264z" />
    <glyph glyph-name="Oslash" unicode="&#xd8;" horiz-adv-x="775" 
d="M612 697h164c-32 -37 -64 -72 -96 -109c31 -54 46 -129 46 -232c0 -287 -115 -370 -338 -370c-82 0 -149 12 -200 39c-7 -8 -14 -17 -22 -25h-163c31 36 64 72 95 109c-33 57 -50 137 -50 247c0 283 116 358 340 358c83 0 152 -12 204 -41c7 8 13 16 20 24zM388 566
c-126 0 -161 -20 -166 -159c0 -15 -1 -31 -1 -48c0 -8 1 -17 1 -26c1 -30 3 -55 7 -76c85 98 170 195 255 294c-23 11 -54 15 -96 15zM388 133c127 0 162 24 166 171v71c-1 24 -3 44 -7 61c-84 -96 -168 -192 -251 -289c22 -11 52 -14 92 -14z" />
    <glyph glyph-name="yen" unicode="&#xa5;" horiz-adv-x="653" 
d="M90 260v109h103c-93 127 -186 252 -248 328h214c48 -63 113 -152 179 -247c67 94 128 182 166 247h199c-63 -96 -143 -213 -226 -328h94v-109h-155v-68h155v-109h-155v-83h-161v83h-165v109h165v68h-165z" />
    <glyph glyph-name="summation" unicode="&#x2211;" horiz-adv-x="629" 
d="M416 345c-53 -82 -103 -155 -141 -205h339v-140h-612c54 77 146 224 224 348c-81 127 -168 273 -209 349h589v-141h-322c28 -45 77 -124 132 -211z" />
    <glyph glyph-name="ae" unicode="&#xe6;" horiz-adv-x="863" 
d="M766 131l24 -117c-52 -17 -127 -28 -185 -28c-56 0 -102 9 -139 31c-57 -20 -138 -31 -201 -31c-169 0 -219 36 -219 170c0 144 78 167 200 167c38 0 77 -5 116 -13c0 71 -14 88 -116 88c-59 0 -116 -8 -159 -21l-24 122c59 15 144 27 220 27c77 0 128 -13 161 -46
c34 33 83 46 150 46c170 0 245 -52 230 -315h-313c2 -82 39 -97 113 -97c37 0 105 7 142 17zM376 118c-12 31 -16 61 -16 93c-23 6 -49 7 -79 7c-56 0 -75 -6 -75 -57c0 -50 10 -61 72 -61c30 0 79 9 98 18zM606 410c-63 0 -85 -19 -94 -86h178c-2 71 -24 86 -84 86z" />
    <glyph glyph-name="oslash" unicode="&#xf8;" horiz-adv-x="590" 
d="M453 511h136l-76 -85c21 -41 31 -94 31 -168c0 -210 -83 -272 -250 -272c-59 0 -107 9 -144 27l-12 -13h-136l75 85c-21 41 -32 97 -32 173c0 209 85 268 249 268c60 0 109 -8 147 -28zM294 406c-66 0 -94 -15 -94 -115c0 -24 1 -45 3 -65l147 169c-14 8 -32 11 -56 11z
M294 106c80 0 93 48 93 135c0 13 0 27 -1 41l-146 -167c13 -7 31 -9 54 -9z" />
    <glyph glyph-name="logicalnot" unicode="&#xac;" horiz-adv-x="531" 
d="M502 0h-160v294h-315v147h475v-441z" />
    <glyph glyph-name="ellipsis" unicode="&#x2026;" horiz-adv-x="1106" 
d="M201 164c70 0 93 -12 93 -82c0 -76 -23 -89 -93 -89c-68 0 -91 13 -91 89c0 70 23 82 91 82zM551 164c70 0 93 -12 93 -82c0 -76 -23 -89 -93 -89c-68 0 -91 13 -91 89c0 70 23 82 91 82zM903 164c70 0 92 -12 92 -82c0 -76 -22 -89 -92 -89c-68 0 -91 13 -91 89
c0 70 23 82 91 82z" />
    <glyph glyph-name="Otilde" unicode="&#xd5;" horiz-adv-x="775" 
d="M388 714c223 0 339 -75 339 -358c0 -287 -116 -370 -339 -370c-224 0 -339 83 -339 370c0 283 115 358 339 358zM388 133c141 0 167 28 167 221c0 190 -26 212 -167 212s-167 -22 -167 -212c0 -193 26 -221 167 -221zM506 885l72 -58c-18 -51 -62 -94 -125 -94
s-95 47 -143 47c-19 0 -33 -11 -48 -45l-65 64c26 46 59 79 110 79c73 0 103 -45 149 -45c23 0 35 11 50 52z" />
    <glyph glyph-name="OE" unicode="&#x152;" horiz-adv-x="1093" 
d="M537 697h532v-141h-377c17 -32 27 -73 31 -125h197v-138h-196c-4 -66 -16 -115 -36 -152h381v-141h-546c-40 -10 -85 -14 -135 -14c-224 0 -339 83 -339 370c0 283 115 358 339 358c57 0 106 -5 149 -17zM388 133c141 0 167 28 167 221c0 190 -26 212 -167 212
s-167 -22 -167 -212c0 -193 26 -221 167 -221z" />
    <glyph glyph-name="oe" unicode="&#x153;" horiz-adv-x="895" 
d="M798 131l23 -117c-51 -17 -127 -28 -184 -28c-73 0 -129 15 -168 57c-36 -41 -93 -57 -175 -57c-165 0 -248 63 -248 273c0 209 85 267 248 267c79 0 135 -14 172 -52c36 37 89 52 160 52c170 0 244 -52 230 -315h-313c2 -82 39 -97 113 -97c37 0 104 7 142 17zM294 406
c-72 0 -93 -16 -93 -150c0 -129 21 -150 93 -150c73 0 94 21 94 150c0 134 -21 150 -94 150zM637 410c-62 0 -84 -19 -93 -86h178c-2 71 -25 86 -85 86z" />
    <glyph glyph-name="endash" unicode="&#x2013;" horiz-adv-x="596" 
d="M47 211v147h502v-147h-502z" />
    <glyph glyph-name="emdash" unicode="&#x2014;" horiz-adv-x="879" 
d="M47 211v147h785v-147h-785z" />
    <glyph glyph-name="ydieresis" unicode="&#xff;" horiz-adv-x="512" 
d="M165 -25c-50 181 -116 377 -176 536h155c41 -107 80 -234 112 -356c41 117 81 239 109 356h153c-51 -177 -119 -366 -195 -542c-23 -54 -48 -112 -73 -161h-169c28 48 59 112 84 167zM148 694c52 0 69 -9 69 -64c0 -60 -17 -71 -69 -71c-51 0 -68 11 -68 71
c0 55 17 64 68 64zM374 694c51 0 68 -9 68 -64c0 -60 -17 -71 -68 -71c-53 0 -69 11 -69 71c0 55 16 64 69 64z" />
    <glyph glyph-name="Ydieresis" unicode="&#x178;" horiz-adv-x="653" 
d="M159 697c48 -63 113 -152 179 -247c67 94 128 182 166 247h199c-77 -118 -183 -272 -287 -413v-284h-161v283c-110 154 -235 324 -310 414h214zM224 872c52 0 69 -8 69 -63c0 -61 -17 -71 -69 -71s-68 10 -68 71c0 55 16 63 68 63zM450 872c51 0 68 -8 68 -63
c0 -61 -17 -71 -68 -71c-53 0 -69 10 -69 71c0 55 16 63 69 63z" />
    <glyph glyph-name="fraction" unicode="&#x2044;" horiz-adv-x="625" 
d="M477 697h140l-460 -697h-140z" />
    <glyph glyph-name="fraction" unicode="&#x2215;" horiz-adv-x="625" 
d="M477 697h140l-460 -697h-140z" />
    <glyph glyph-name="periodcentered" unicode="&#xb7;" horiz-adv-x="314" 
d="M156 391c76 0 100 -12 100 -87c0 -81 -24 -96 -100 -96c-74 0 -98 15 -98 96c0 75 24 87 98 87z" />
    <glyph glyph-name="periodcentered" unicode="&#x2219;" horiz-adv-x="314" 
d="M156 391c76 0 100 -12 100 -87c0 -81 -24 -96 -100 -96c-74 0 -98 15 -98 96c0 75 24 87 98 87z" />
    <glyph glyph-name="Ecircumflex" unicode="&#xca;" horiz-adv-x="626" 
d="M82 697h520v-141h-359v-125h257v-138h-257v-152h359v-141h-520v697zM414 747l-67 72l-64 -72h-130l122 129h147l126 -129h-134z" />
    <glyph glyph-name="Edieresis" unicode="&#xcb;" horiz-adv-x="626" 
d="M82 697h520v-141h-359v-125h257v-138h-257v-152h359v-141h-520v697zM234 872c52 0 69 -8 69 -63c0 -61 -17 -71 -69 -71s-68 10 -68 71c0 55 16 63 68 63zM460 872c51 0 68 -8 68 -63c0 -61 -17 -71 -68 -71c-53 0 -69 10 -69 71c0 55 16 63 69 63z" />
    <glyph glyph-name="Egrave" unicode="&#xc8;" horiz-adv-x="626" 
d="M82 697h520v-141h-359v-125h257v-138h-257v-152h359v-141h-520v697zM482 747h-132l-157 129h160z" />
    <glyph glyph-name="Iacute" unicode="&#xcd;" horiz-adv-x="325" 
d="M82 697h161v-697h-161v697zM199 747h-130l127 129h159z" />
    <glyph glyph-name="Icircumflex" unicode="&#xce;" horiz-adv-x="325" 
d="M82 697h161v-697h-161v697zM227 747l-67 72l-64 -72h-130l122 129h147l126 -129h-134z" />
    <glyph glyph-name="Idieresis" unicode="&#xcf;" horiz-adv-x="325" 
d="M82 697h161v-697h-161v697zM51 872c52 0 69 -8 69 -63c0 -61 -17 -71 -69 -71s-68 10 -68 71c0 55 16 63 68 63zM277 872c51 0 68 -8 68 -63c0 -61 -17 -71 -68 -71c-53 0 -69 10 -69 71c0 55 16 63 69 63z" />
    <glyph glyph-name="Igrave" unicode="&#xcc;" horiz-adv-x="325" 
d="M82 697h161v-697h-161v697zM260 747h-132l-157 129h160z" />
    <glyph glyph-name="Oacute" unicode="&#xd3;" horiz-adv-x="775" 
d="M388 714c223 0 339 -75 339 -358c0 -287 -116 -370 -339 -370c-224 0 -339 83 -339 370c0 283 115 358 339 358zM388 133c141 0 167 28 167 221c0 190 -26 212 -167 212s-167 -22 -167 -212c0 -193 26 -221 167 -221zM425 747h-130l127 129h159z" />
    <glyph glyph-name="Ocircumflex" unicode="&#xd4;" horiz-adv-x="775" 
d="M388 714c223 0 339 -75 339 -358c0 -287 -116 -370 -339 -370c-224 0 -339 83 -339 370c0 283 115 358 339 358zM388 133c141 0 167 28 167 221c0 190 -26 212 -167 212s-167 -22 -167 -212c0 -193 26 -221 167 -221zM450 747l-67 72l-64 -72h-130l122 129h147l126 -129
h-134z" />
    <glyph glyph-name="Ograve" unicode="&#xd2;" horiz-adv-x="775" 
d="M388 714c223 0 339 -75 339 -358c0 -287 -116 -370 -339 -370c-224 0 -339 83 -339 370c0 283 115 358 339 358zM388 133c141 0 167 28 167 221c0 190 -26 212 -167 212s-167 -22 -167 -212c0 -193 26 -221 167 -221zM494 747h-132l-157 129h160z" />
    <glyph glyph-name="Uacute" unicode="&#xda;" horiz-adv-x="745" 
d="M509 697h162v-502c0 -168 -117 -209 -299 -209c-183 0 -299 41 -299 209v502h163v-421c0 -93 2 -140 136 -140s137 48 137 140v421zM385 747h-130l127 129h159z" />
    <glyph glyph-name="Ucircumflex" unicode="&#xdb;" horiz-adv-x="745" 
d="M509 697h162v-502c0 -168 -117 -209 -299 -209c-183 0 -299 41 -299 209v502h163v-421c0 -93 2 -140 136 -140s137 48 137 140v421zM433 747l-67 72l-64 -72h-130l122 129h147l126 -129h-134z" />
    <glyph glyph-name="Ugrave" unicode="&#xd9;" horiz-adv-x="745" 
d="M509 697h162v-502c0 -168 -117 -209 -299 -209c-183 0 -299 41 -299 209v502h163v-421c0 -93 2 -140 136 -140s137 48 137 140v421zM491 747h-132l-157 129h160z" />
    <glyph glyph-name="dotlessi" unicode="&#x131;" horiz-adv-x="284" 
d="M220 512v-512h-154v512h154z" />
    <glyph glyph-name="circumflex" unicode="&#x2c6;" horiz-adv-x="651" 
d="M402 568c-22 23 -44 47 -66 71c-22 -24 -43 -48 -64 -71h-131c41 43 81 86 122 129h147l126 -129h-134z" />
    <glyph glyph-name="tilde" unicode="&#x2dc;" horiz-adv-x="709" 
d="M449 708l72 -58c-19 -51 -60 -94 -124 -94c-63 0 -93 47 -141 47c-19 0 -33 -11 -48 -46l-66 65c26 46 59 80 111 80c74 0 100 -46 146 -46c23 0 35 11 50 52z" />
    <glyph glyph-name="macron" unicode="&#xaf;" horiz-adv-x="514" 
d="M116 572v106h292v-106h-292z" />
    <glyph glyph-name="macron" unicode="&#x2c9;" horiz-adv-x="514" 
d="M116 572v106h292v-106h-292z" />
    <glyph glyph-name="breve" unicode="&#x2d8;" horiz-adv-x="518" 
d="M91 697h101c0 -43 20 -52 60 -52c39 0 60 9 60 52h94c0 -98 -57 -143 -158 -143c-98 0 -157 45 -157 143z" />
    <glyph glyph-name="dotaccent" unicode="&#x2d9;" horiz-adv-x="490" 
d="M225 694c52 0 68 -9 68 -64c0 -60 -16 -71 -68 -71s-69 11 -69 71c0 55 17 64 69 64z" />
    <glyph glyph-name="ring" unicode="&#x2da;" horiz-adv-x="708" 
d="M360 742c84 0 123 -23 123 -100s-39 -100 -123 -100c-85 0 -125 23 -125 100s37 100 125 100zM360 680c-39 0 -47 -11 -47 -39s8 -38 47 -38c38 0 46 11 46 38c0 29 -8 39 -46 39z" />
    <glyph glyph-name="hungarumlaut" unicode="&#x2dd;" horiz-adv-x="509" 
d="M258 568h-102l94 129h126zM436 568h-102l93 129h127z" />
    <glyph glyph-name="ogonek" unicode="&#x2db;" horiz-adv-x="635" 
d="M445 12h43c-66 -40 -80 -62 -80 -98c0 -26 11 -38 57 -38c30 0 60 11 78 26l39 -70c-34 -24 -90 -35 -134 -35c-105 0 -135 30 -135 89c0 53 42 102 132 126z" />
    <glyph glyph-name="caron" unicode="&#x2c7;" horiz-adv-x="647" 
d="M276 697c22 -24 44 -48 66 -71c21 23 42 47 64 71h130c-41 -43 -81 -86 -122 -129h-147l-126 129h135z" />
    <glyph glyph-name="Amacron" unicode="&#x100;" horiz-adv-x="689" 
d="M543 0c-17 41 -38 95 -59 154h-287c-18 -58 -33 -111 -45 -154h-172c58 195 167 501 247 697h249c66 -218 170 -515 245 -697h-178zM355 557h-26c-27 -73 -59 -167 -91 -264h200c-32 95 -62 190 -83 264zM199 745v107h292v-107h-292z" />
    <glyph glyph-name="Aogonek" unicode="&#x104;" horiz-adv-x="689" 
d="M543 0c-17 41 -38 95 -59 154h-287c-18 -58 -33 -111 -45 -154h-172c58 195 167 501 247 697h249c66 -218 170 -515 245 -697h-178zM355 557h-26c-27 -73 -59 -167 -91 -264h200c-32 95 -62 190 -83 264zM634 12h43c-66 -40 -80 -62 -80 -98c0 -26 11 -38 57 -38
c30 0 60 11 78 26l39 -70c-34 -24 -90 -35 -134 -35c-105 0 -135 30 -135 89c0 53 42 102 132 126z" />
    <glyph glyph-name="Cacute" unicode="&#x106;" horiz-adv-x="588" 
d="M49 355c0 285 106 359 330 359c65 0 149 -10 202 -25l-31 -142c-34 12 -93 19 -137 19c-140 0 -192 -20 -192 -213c0 -192 52 -218 192 -218c44 0 103 8 137 19l31 -145c-54 -14 -137 -23 -202 -23c-224 0 -330 85 -330 369zM367 747h-130l127 129h159z" />
    <glyph glyph-name="Ccaron" unicode="&#x10c;" horiz-adv-x="588" 
d="M49 355c0 285 106 359 330 359c65 0 149 -10 202 -25l-31 -142c-34 12 -93 19 -137 19c-140 0 -192 -20 -192 -213c0 -192 52 -218 192 -218c44 0 103 8 137 19l31 -145c-54 -14 -137 -23 -202 -23c-224 0 -330 85 -330 369zM299 876l67 -72l65 72h130l-122 -129h-147
l-126 129h133z" />
    <glyph glyph-name="Ccircumflex" unicode="&#x108;" horiz-adv-x="588" 
d="M49 355c0 285 106 359 330 359c65 0 149 -10 202 -25l-31 -142c-34 12 -93 19 -137 19c-140 0 -192 -20 -192 -213c0 -192 52 -218 192 -218c44 0 103 8 137 19l31 -145c-54 -14 -137 -23 -202 -23c-224 0 -330 85 -330 369zM438 747l-67 72l-64 -72h-130l122 129h147
l126 -129h-134z" />
    <glyph glyph-name="Cdotaccent" unicode="&#x10a;" horiz-adv-x="588" 
d="M49 355c0 285 106 359 330 359c65 0 149 -10 202 -25l-31 -142c-34 12 -93 19 -137 19c-140 0 -192 -20 -192 -213c0 -192 52 -218 192 -218c44 0 103 8 137 19l31 -145c-54 -14 -137 -23 -202 -23c-224 0 -330 85 -330 369zM380 877c52 0 69 -9 69 -64
c0 -60 -17 -71 -69 -71c-51 0 -68 11 -68 71c0 55 17 64 68 64z" />
    <glyph glyph-name="Dcaron" unicode="&#x10e;" horiz-adv-x="753" 
d="M82 697h291c223 0 331 -73 331 -345c0 -271 -108 -352 -331 -352h-291v697zM532 350c0 186 -37 206 -178 206h-111v-414h111c141 0 178 28 178 208zM286 876l67 -72l65 72h130l-122 -129h-147l-126 129h133z" />
    <glyph glyph-name="Ebreve" unicode="&#x114;" horiz-adv-x="626" 
d="M82 697h520v-141h-359v-125h257v-138h-257v-152h359v-141h-520v697zM198 871h101c0 -43 20 -52 60 -52c39 0 60 9 60 52h94c0 -98 -57 -143 -158 -143c-98 0 -157 45 -157 143z" />
    <glyph glyph-name="Ecaron" unicode="&#x11a;" horiz-adv-x="626" 
d="M82 697h520v-141h-359v-125h257v-138h-257v-152h359v-141h-520v697zM286 876l67 -72l65 72h130l-122 -129h-147l-126 129h133z" />
    <glyph glyph-name="Edotaccent" unicode="&#x116;" horiz-adv-x="626" 
d="M82 697h520v-141h-359v-125h257v-138h-257v-152h359v-141h-520v697zM362 877c52 0 69 -9 69 -64c0 -60 -17 -71 -69 -71c-51 0 -68 11 -68 71c0 55 17 64 68 64z" />
    <glyph glyph-name="Emacron" unicode="&#x112;" horiz-adv-x="626" 
d="M82 697h520v-141h-359v-125h257v-138h-257v-152h359v-141h-520v697zM196 745v107h292v-107h-292z" />
    <glyph glyph-name="Eogonek" unicode="&#x118;" horiz-adv-x="626" 
d="M82 697h520v-141h-359v-125h257v-138h-257v-152h359v-141h-520v697zM523 12h43c-66 -40 -80 -62 -80 -98c0 -26 11 -38 57 -38c30 0 60 11 78 26l39 -70c-34 -24 -90 -35 -134 -35c-105 0 -135 30 -135 89c0 53 42 102 132 126z" />
    <glyph glyph-name="Gbreve" unicode="&#x11e;" horiz-adv-x="712" 
d="M479 140v146h-138v138h303v-405c-58 -18 -175 -33 -265 -33c-224 0 -330 85 -330 369c0 285 126 359 358 359c65 0 165 -10 218 -25l-29 -142c-35 12 -130 20 -173 20c-150 0 -202 -21 -202 -214c0 -192 52 -218 192 -218c22 0 48 3 66 5zM227 871h101
c0 -43 20 -52 60 -52c39 0 60 9 60 52h94c0 -98 -57 -143 -158 -143c-98 0 -157 45 -157 143z" />
    <glyph glyph-name="Gcedilla" horiz-adv-x="712" 
d="M479 140v146h-138v138h303v-405c-58 -18 -175 -33 -265 -33c-224 0 -330 85 -330 369c0 285 126 359 358 359c65 0 165 -10 218 -25l-29 -142c-35 12 -130 20 -173 20c-150 0 -202 -21 -202 -214c0 -192 52 -218 192 -218c22 0 48 3 66 5zM361 0h57v-39
c70 0 105 -21 105 -79c0 -65 -38 -85 -143 -85c-45 0 -70 4 -94 13l24 60c13 -6 39 -9 62 -9c26 0 34 6 34 23c0 21 -21 27 -81 22z" />
    <glyph glyph-name="Gcircumflex" unicode="&#x11c;" horiz-adv-x="712" 
d="M479 140v146h-138v138h303v-405c-58 -18 -175 -33 -265 -33c-224 0 -330 85 -330 369c0 285 126 359 358 359c65 0 165 -10 218 -25l-29 -142c-35 12 -130 20 -173 20c-150 0 -202 -21 -202 -214c0 -192 52 -218 192 -218c22 0 48 3 66 5zM454 747l-67 72l-64 -72h-130
l122 129h147l126 -129h-134z" />
    <glyph glyph-name="Gcommaaccent" unicode="&#x122;" horiz-adv-x="712" 
d="M479 140v146h-138v138h303v-405c-58 -18 -175 -33 -265 -33c-224 0 -330 85 -330 369c0 285 126 359 358 359c65 0 165 -10 218 -25l-29 -142c-35 12 -130 20 -173 20c-150 0 -202 -21 -202 -214c0 -192 52 -218 192 -218c22 0 48 3 66 5zM488 -51l-111 -167h-120l72 167
h159z" />
    <glyph glyph-name="Gdotaccent" unicode="&#x120;" horiz-adv-x="712" 
d="M479 140v146h-138v138h303v-405c-58 -18 -175 -33 -265 -33c-224 0 -330 85 -330 369c0 285 126 359 358 359c65 0 165 -10 218 -25l-29 -142c-35 12 -130 20 -173 20c-150 0 -202 -21 -202 -214c0 -192 52 -218 192 -218c22 0 48 3 66 5zM401 877c52 0 69 -9 69 -64
c0 -60 -17 -71 -69 -71c-51 0 -68 11 -68 71c0 55 17 64 68 64z" />
    <glyph glyph-name="Hbar" unicode="&#x126;" horiz-adv-x="748" 
d="M27 511v129h55v57h161v-57h262v57h161v-57h55v-129h-55v-511h-161v294h-262v-294h-161v511h-55zM243 443h262v68h-262v-68z" />
    <glyph glyph-name="Hcircumflex" unicode="&#x124;" horiz-adv-x="748" 
d="M243 294v-294h-161v697h161v-254h262v254h161v-697h-161v294h-262zM435 747l-67 72l-64 -72h-130l122 129h147l126 -129h-134z" />
    <glyph glyph-name="IJ" unicode="&#x132;" horiz-adv-x="796" 
d="M82 697h161v-697h-161v697zM717 697l1 -505c0 -162 -112 -206 -222 -206c-64 0 -122 10 -169 26l27 144c34 -12 76 -20 122 -20c48 0 79 22 79 82v479h162z" />
    <glyph glyph-name="Idot" horiz-adv-x="325" 
d="M82 697h161v-697h-161v697zM162 877c52 0 69 -9 69 -64c0 -60 -17 -71 -69 -71c-51 0 -68 11 -68 71c0 55 17 64 68 64z" />
    <glyph glyph-name="Imacron" unicode="&#x12a;" horiz-adv-x="325" 
d="M82 697h161v-697h-161v697zM17 745v107h292v-107h-292z" />
    <glyph glyph-name="Iogonek" unicode="&#x12e;" horiz-adv-x="325" 
d="M82 697h161v-697h-161v697zM163 12h43c-66 -40 -80 -62 -80 -98c0 -26 11 -38 57 -38c30 0 60 11 78 26l39 -70c-34 -24 -90 -35 -134 -35c-105 0 -135 30 -135 89c0 53 42 102 132 126z" />
    <glyph glyph-name="Itilde" unicode="&#x128;" horiz-adv-x="325" 
d="M82 697h161v-697h-161v697zM282 885l72 -58c-18 -51 -62 -94 -125 -94s-95 47 -143 47c-19 0 -33 -11 -48 -45l-65 64c26 46 59 79 110 79c73 0 103 -45 149 -45c23 0 35 11 50 52z" />
    <glyph glyph-name="Jcircumflex" unicode="&#x134;" horiz-adv-x="472" 
d="M394 697v-505c0 -162 -112 -206 -222 -206c-63 0 -122 10 -169 26l27 144c34 -12 76 -20 123 -20c48 0 78 22 78 82v479h163zM374 747l-67 72l-64 -72h-130l122 129h147l126 -129h-134z" />
    <glyph glyph-name="Kcommaaccent" unicode="&#x136;" horiz-adv-x="684" 
d="M243 697v-697h-161v697h161zM700 0h-194c-126 231 -225 352 -262 368c38 31 135 149 245 329h192c-116 -180 -205 -291 -236 -320c30 -23 130 -146 255 -377zM438 -51l-111 -167h-120l72 167h159z" />
    <glyph glyph-name="Lacute" unicode="&#x139;" horiz-adv-x="553" 
d="M82 697h161v-555h314v-142h-475v697zM231 747h-130l127 129h159z" />
    <glyph glyph-name="Lcaron" unicode="&#x13d;" horiz-adv-x="553" 
d="M82 697h161v-555h314v-142h-475v697zM337 722h130l-58 -192h-91z" />
    <glyph glyph-name="Lcommaaccent" unicode="&#x13b;" horiz-adv-x="553" 
d="M82 697h161v-555h314v-142h-475v697zM408 -51l-111 -167h-120l72 167h159z" />
    <glyph glyph-name="Nacute" unicode="&#x143;" horiz-adv-x="796" 
d="M714 697v-697h-200c-86 159 -179 319 -274 476v-476h-158v697h210c90 -147 179 -303 262 -459v459h160zM425 747h-130l127 129h159z" />
    <glyph glyph-name="Ncaron" unicode="&#x147;" horiz-adv-x="796" 
d="M714 697v-697h-200c-86 159 -179 319 -274 476v-476h-158v697h210c90 -147 179 -303 262 -459v459h160zM347 876l67 -72l65 72h130l-122 -129h-147l-126 129h133z" />
    <glyph glyph-name="Ncommaaccent" unicode="&#x145;" horiz-adv-x="796" 
d="M714 697v-697h-200c-86 159 -179 319 -274 476v-476h-158v697h210c90 -147 179 -303 262 -459v459h160zM482 -51l-111 -167h-120l72 167h159z" />
    <glyph glyph-name="Obreve" unicode="&#x14e;" horiz-adv-x="775" 
d="M388 714c223 0 339 -75 339 -358c0 -287 -116 -370 -339 -370c-224 0 -339 83 -339 370c0 283 115 358 339 358zM388 133c141 0 167 28 167 221c0 190 -26 212 -167 212s-167 -22 -167 -212c0 -193 26 -221 167 -221zM231 871h101c0 -43 20 -52 60 -52c39 0 60 9 60 52
h94c0 -98 -57 -143 -158 -143c-98 0 -157 45 -157 143z" />
    <glyph glyph-name="Ohungarumlaut" unicode="&#x150;" horiz-adv-x="775" 
d="M388 714c223 0 339 -75 339 -358c0 -287 -116 -370 -339 -370c-224 0 -339 83 -339 370c0 283 115 358 339 358zM388 133c141 0 167 28 167 221c0 190 -26 212 -167 212s-167 -22 -167 -212c0 -193 26 -221 167 -221zM333 747h-102l94 129h126zM511 747h-102l93 129h127z
" />
    <glyph glyph-name="Omacron" unicode="&#x14c;" horiz-adv-x="775" 
d="M388 714c223 0 339 -75 339 -358c0 -287 -116 -370 -339 -370c-224 0 -339 83 -339 370c0 283 115 358 339 358zM388 133c141 0 167 28 167 221c0 190 -26 212 -167 212s-167 -22 -167 -212c0 -193 26 -221 167 -221zM242 745v107h292v-107h-292z" />
    <glyph glyph-name="Racute" unicode="&#x154;" horiz-adv-x="722" 
d="M243 560v-179h179c35 0 61 25 61 87c0 63 -23 92 -59 92h-181zM488 299c47 -17 99 -80 229 -299h-201c-108 190 -158 249 -201 249h-72v-249h-161v697h389c143 0 191 -89 191 -204c0 -100 -42 -187 -174 -194zM361 747h-130l127 129h159z" />
    <glyph glyph-name="Rcaron" unicode="&#x158;" horiz-adv-x="722" 
d="M243 560v-179h179c35 0 61 25 61 87c0 63 -23 92 -59 92h-181zM488 299c47 -17 99 -80 229 -299h-201c-108 190 -158 249 -201 249h-72v-249h-161v697h389c143 0 191 -89 191 -204c0 -100 -42 -187 -174 -194zM284 876l67 -72l65 72h130l-122 -129h-147l-126 129h133z
" />
    <glyph glyph-name="Rcommaaccent" unicode="&#x156;" horiz-adv-x="722" 
d="M243 560v-179h179c35 0 61 25 61 87c0 63 -23 92 -59 92h-181zM488 299c47 -17 99 -80 229 -299h-201c-108 190 -158 249 -201 249h-72v-249h-161v697h389c143 0 191 -89 191 -204c0 -100 -42 -187 -174 -194zM457 -51l-111 -167h-120l72 167h159z" />
    <glyph glyph-name="Sacute" unicode="&#x15a;" horiz-adv-x="622" 
d="M571 681l-33 -138c-42 12 -114 23 -191 23c-104 0 -134 -20 -134 -68c0 -44 20 -60 141 -73c159 -18 230 -79 230 -212c0 -172 -92 -227 -309 -227c-84 0 -170 13 -226 33l33 138c45 -12 115 -23 191 -23c104 0 137 15 137 68c0 44 -19 65 -150 79
c-149 16 -219 65 -219 194c0 173 100 239 307 239c84 0 168 -13 223 -33zM341 747h-130l127 129h159z" />
    <glyph glyph-name="Scedilla" unicode="&#x15e;" horiz-adv-x="622" 
d="M571 681l-33 -138c-42 12 -114 23 -191 23c-104 0 -134 -20 -134 -68c0 -44 20 -60 141 -73c159 -18 230 -79 230 -212c0 -172 -92 -227 -309 -227c-84 0 -170 13 -226 33l33 138c45 -12 115 -23 191 -23c104 0 137 15 137 68c0 44 -19 65 -150 79
c-149 16 -219 65 -219 194c0 173 100 239 307 239c84 0 168 -13 223 -33zM276 0h57v-39c70 0 105 -21 105 -79c0 -65 -38 -85 -143 -85c-45 0 -70 4 -94 13l24 60c13 -6 39 -9 62 -9c26 0 34 6 34 23c0 21 -21 27 -81 22z" />
    <glyph glyph-name="Scircumflex" unicode="&#x15c;" horiz-adv-x="622" 
d="M571 681l-33 -138c-42 12 -114 23 -191 23c-104 0 -134 -20 -134 -68c0 -44 20 -60 141 -73c159 -18 230 -79 230 -212c0 -172 -92 -227 -309 -227c-84 0 -170 13 -226 33l33 138c45 -12 115 -23 191 -23c104 0 137 15 137 68c0 44 -19 65 -150 79
c-149 16 -219 65 -219 194c0 173 100 239 307 239c84 0 168 -13 223 -33zM392 747l-67 72l-64 -72h-130l122 129h147l126 -129h-134z" />
    <glyph glyph-name="Scommaaccent" unicode="&#x218;" horiz-adv-x="622" 
d="M571 681l-33 -138c-42 12 -114 23 -191 23c-104 0 -134 -20 -134 -68c0 -44 20 -60 141 -73c159 -18 230 -79 230 -212c0 -172 -92 -227 -309 -227c-84 0 -170 13 -226 33l33 138c45 -12 115 -23 191 -23c104 0 137 15 137 68c0 44 -19 65 -150 79
c-149 16 -219 65 -219 194c0 173 100 239 307 239c84 0 168 -13 223 -33zM412 -51l-111 -167h-120l72 167h159z" />
    <glyph glyph-name="Tbar" unicode="&#x166;" horiz-adv-x="629" 
d="M165 227v107h69v221h-233v142h627v-142h-232v-221h62v-107h-62v-227h-162v227h-69z" />
    <glyph glyph-name="Tcaron" unicode="&#x164;" horiz-adv-x="629" 
d="M396 0h-162v556h-233v141h627v-141h-232v-556zM254 876l67 -72l65 72h130l-122 -129h-147l-126 129h133z" />
    <glyph glyph-name="Tcommaaccent" unicode="&#x162;" horiz-adv-x="629" 
d="M396 0h-162v556h-233v141h627v-141h-232v-556zM421 -51l-111 -167h-120l72 167h159z" />
    <glyph glyph-name="Tcommaaccent" unicode="&#x21a;" horiz-adv-x="629" 
d="M396 0h-162v556h-233v141h627v-141h-232v-556zM421 -51l-111 -167h-120l72 167h159z" />
    <glyph glyph-name="Ubreve" unicode="&#x16c;" horiz-adv-x="745" 
d="M509 697h162v-502c0 -168 -117 -209 -299 -209c-183 0 -299 41 -299 209v502h163v-421c0 -93 2 -140 136 -140s137 48 137 140v421zM213 871h101c0 -43 20 -52 60 -52c39 0 60 9 60 52h94c0 -98 -57 -143 -158 -143c-98 0 -157 45 -157 143z" />
    <glyph glyph-name="Uhungarumlaut" unicode="&#x170;" horiz-adv-x="745" 
d="M509 697h162v-502c0 -168 -117 -209 -299 -209c-183 0 -299 41 -299 209v502h163v-421c0 -93 2 -140 136 -140s137 48 137 140v421zM322 747h-102l94 129h126zM500 747h-102l93 129h127z" />
    <glyph glyph-name="Umacron" unicode="&#x16a;" horiz-adv-x="745" 
d="M509 697h162v-502c0 -168 -117 -209 -299 -209c-183 0 -299 41 -299 209v502h163v-421c0 -93 2 -140 136 -140s137 48 137 140v421zM223 745v107h292v-107h-292z" />
    <glyph glyph-name="Uogonek" unicode="&#x172;" horiz-adv-x="745" 
d="M509 697h162v-502c0 -168 -117 -209 -299 -209c-183 0 -299 41 -299 209v502h163v-421c0 -93 2 -140 136 -140s137 48 137 140v421zM415 12h43c-66 -40 -80 -62 -80 -98c0 -26 11 -38 57 -38c30 0 60 11 78 26l39 -70c-34 -24 -90 -35 -134 -35c-105 0 -135 30 -135 89
c0 53 42 102 132 126z" />
    <glyph glyph-name="Uring" unicode="&#x16e;" horiz-adv-x="745" 
d="M509 697h162v-502c0 -168 -117 -209 -299 -209c-183 0 -299 41 -299 209v502h163v-421c0 -93 2 -140 136 -140s137 48 137 140v421zM370 899c84 0 123 -23 123 -100s-39 -100 -123 -100c-85 0 -125 23 -125 100s37 100 125 100zM370 837c-39 0 -47 -11 -47 -39
s8 -39 47 -39c38 0 46 12 46 39c0 28 -8 39 -46 39z" />
    <glyph glyph-name="Utilde" unicode="&#x168;" horiz-adv-x="745" 
d="M509 697h162v-502c0 -168 -117 -209 -299 -209c-183 0 -299 41 -299 209v502h163v-421c0 -93 2 -140 136 -140s137 48 137 140v421zM492 885l72 -58c-18 -51 -62 -94 -125 -94s-95 47 -143 47c-19 0 -33 -11 -48 -45l-65 64c26 46 59 79 110 79c73 0 103 -45 149 -45
c23 0 35 11 50 52z" />
    <glyph glyph-name="Wcircumflex" unicode="&#x174;" horiz-adv-x="1011" 
d="M509 421c-30 -136 -75 -296 -113 -421h-205c-52 215 -133 514 -197 697h175c46 -135 102 -334 137 -488c36 119 102 347 130 488h146c40 -135 103 -364 130 -488c48 150 97 339 128 488h169c-46 -196 -135 -502 -199 -697h-206c-26 137 -64 296 -95 421zM572 747l-67 72
l-64 -72h-130l122 129h147l126 -129h-134z" />
    <glyph glyph-name="Ycircumflex" unicode="&#x176;" horiz-adv-x="653" 
d="M159 697c48 -63 113 -152 179 -247c67 94 128 182 166 247h199c-77 -118 -183 -272 -287 -413v-284h-161v283c-110 154 -235 324 -310 414h214zM401 747l-67 72l-64 -72h-130l122 129h147l126 -129h-134z" />
    <glyph glyph-name="Zacute" unicode="&#x179;" 
d="M15 0v34c103 147 266 398 343 522h-323v141h579v-32c-78 -135 -260 -414 -344 -524h342v-141h-597zM341 747h-130l127 129h159z" />
    <glyph glyph-name="Zdotaccent" unicode="&#x17b;" 
d="M15 0v34c103 147 266 398 343 522h-323v141h579v-32c-78 -135 -260 -414 -344 -524h342v-141h-597zM322 877c52 0 69 -9 69 -64c0 -60 -17 -71 -69 -71c-51 0 -68 11 -68 71c0 55 17 64 68 64z" />
    <glyph glyph-name="abreve" unicode="&#x103;" horiz-adv-x="569" 
d="M508 327v-301c-69 -25 -168 -40 -243 -40c-169 0 -219 36 -219 170c0 144 78 167 200 167c38 0 77 -5 116 -13c0 71 -16 91 -116 91c-59 0 -116 -11 -159 -24l-24 122c59 15 144 27 220 27c153 0 225 -47 225 -199zM204 161c0 -52 13 -61 73 -61c29 0 61 5 85 14v97
c-23 6 -52 7 -83 7c-55 0 -75 -6 -75 -57zM124 697h101c0 -43 20 -52 60 -52c39 0 60 9 60 52h94c0 -98 -57 -143 -158 -143c-98 0 -157 45 -157 143z" />
    <glyph glyph-name="Acute" unicode="&#xf6c9;" horiz-adv-x="439" 
d="M231 747h-130l127 129h159z" />
    <glyph glyph-name="amacron" unicode="&#x101;" horiz-adv-x="569" 
d="M508 327v-301c-69 -25 -168 -40 -243 -40c-169 0 -219 36 -219 170c0 144 78 167 200 167c38 0 77 -5 116 -13c0 71 -16 91 -116 91c-59 0 -116 -11 -159 -24l-24 122c59 15 144 27 220 27c153 0 225 -47 225 -199zM204 161c0 -52 13 -61 73 -61c29 0 61 5 85 14v97
c-23 6 -52 7 -83 7c-55 0 -75 -6 -75 -57zM135 572v106h292v-106h-292z" />
    <glyph glyph-name="aogonek" unicode="&#x105;" horiz-adv-x="569" 
d="M508 327v-301c-69 -25 -168 -40 -243 -40c-169 0 -219 36 -219 170c0 144 78 167 200 167c38 0 77 -5 116 -13c0 71 -16 91 -116 91c-59 0 -116 -11 -159 -24l-24 122c59 15 144 27 220 27c153 0 225 -47 225 -199zM204 161c0 -52 13 -61 73 -61c29 0 61 5 85 14v97
c-23 6 -52 7 -83 7c-55 0 -75 -6 -75 -57zM422 12h43c-66 -40 -80 -62 -80 -98c0 -26 11 -38 57 -38c30 0 60 11 78 26l39 -70c-34 -24 -90 -35 -134 -35c-105 0 -135 30 -135 89c0 53 42 102 132 126z" />
    <glyph glyph-name="Breve" horiz-adv-x="317" 
d="M114 871h101c0 -43 20 -52 60 -52c39 0 60 9 60 52h94c0 -98 -57 -143 -158 -143c-98 0 -157 45 -157 143z" />
    <glyph glyph-name="cacute" unicode="&#x107;" horiz-adv-x="472" 
d="M430 141l32 -129c-41 -17 -110 -26 -161 -26c-153 0 -255 63 -255 273c0 208 103 267 255 267c53 0 121 -8 161 -22l-32 -130c-29 11 -74 21 -116 21c-75 0 -113 -13 -113 -139c0 -120 38 -138 113 -138c44 0 87 11 116 23zM307 568h-130l123 129h157z" />
    <glyph glyph-name="Caron" unicode="&#xf6ca;" horiz-adv-x="647" 
d="M286 876l67 -72l65 72h130l-122 -129h-147l-126 129h133z" />
    <glyph glyph-name="ccaron" unicode="&#x10d;" horiz-adv-x="472" 
d="M430 141l32 -129c-41 -17 -110 -26 -161 -26c-153 0 -255 63 -255 273c0 208 103 267 255 267c53 0 121 -8 161 -22l-32 -130c-29 11 -74 21 -116 21c-75 0 -113 -13 -113 -139c0 -120 38 -138 113 -138c44 0 87 11 116 23zM227 697c22 -24 44 -48 66 -71
c21 23 42 47 64 71h130c-41 -43 -81 -86 -122 -129h-147l-126 129h135z" />
    <glyph glyph-name="ccircumflex" unicode="&#x109;" horiz-adv-x="472" 
d="M430 141l32 -129c-41 -17 -110 -26 -161 -26c-153 0 -255 63 -255 273c0 208 103 267 255 267c53 0 121 -8 161 -22l-32 -130c-29 11 -74 21 -116 21c-75 0 -113 -13 -113 -139c0 -120 38 -138 113 -138c44 0 87 11 116 23zM357 568c-22 23 -44 47 -66 71
c-22 -24 -43 -48 -64 -71h-131c41 43 81 86 122 129h147l126 -129h-134z" />
    <glyph glyph-name="cdotaccent" unicode="&#x10b;" horiz-adv-x="472" 
d="M430 141l32 -129c-41 -17 -110 -26 -161 -26c-153 0 -255 63 -255 273c0 208 103 267 255 267c53 0 121 -8 161 -22l-32 -130c-29 11 -74 21 -116 21c-75 0 -113 -13 -113 -139c0 -120 38 -138 113 -138c44 0 87 11 116 23zM292 694c52 0 68 -9 68 -64
c0 -60 -16 -71 -68 -71s-69 11 -69 71c0 55 17 64 69 64z" />
    <glyph glyph-name="cedilla" unicode="&#xb8;" horiz-adv-x="635" 
d="M331 0h57v-39c70 0 105 -21 105 -79c0 -65 -38 -85 -143 -85c-45 0 -70 4 -94 13l24 60c13 -6 39 -9 62 -9c26 0 34 6 34 23c0 21 -21 27 -81 22z" />
    <glyph glyph-name="Circumflex" horiz-adv-x="651" 
d="M414 747l-67 72l-64 -72h-130l122 129h147l126 -129h-134z" />
    <glyph glyph-name="commaaccent" unicode="&#xf6c3;" horiz-adv-x="261" 
d="M291 -51l-111 -167h-120l72 167h159z" />
    <glyph glyph-name="dcaron" unicode="&#x10f;" horiz-adv-x="596" 
d="M376 127v235c0 22 -35 39 -80 39c-72 0 -95 -32 -95 -141c0 -124 24 -145 97 -145c26 0 59 4 78 12zM530 722v-700c-56 -21 -152 -36 -232 -36c-174 0 -252 62 -252 272c0 206 90 268 217 268c50 0 84 -10 113 -22v218h154zM586 722h130l-58 -192h-91z" />
    <glyph glyph-name="Dieresis" unicode="&#xf6cb;" horiz-adv-x="478" 
d="M145 872c52 0 69 -8 69 -63c0 -61 -17 -71 -69 -71s-68 10 -68 71c0 55 16 63 68 63zM371 872c51 0 68 -8 68 -63c0 -61 -17 -71 -68 -71c-53 0 -69 10 -69 71c0 55 16 63 69 63z" />
    <glyph glyph-name="Dotaccent" horiz-adv-x="285" 
d="M156 877c52 0 69 -9 69 -64c0 -60 -17 -71 -69 -71c-51 0 -68 11 -68 71c0 55 17 64 68 64z" />
    <glyph glyph-name="ebreve" unicode="&#x115;" horiz-adv-x="556" 
d="M459 131l23 -117c-51 -17 -127 -28 -185 -28c-144 0 -251 63 -251 273c0 206 94 267 241 267c170 0 244 -52 230 -315h-313c2 -82 39 -97 113 -97c37 0 104 7 142 17zM298 410c-64 0 -84 -21 -93 -86h178c-2 71 -25 86 -85 86zM135 697h101c0 -43 20 -52 60 -52
c39 0 60 9 60 52h94c0 -98 -57 -143 -158 -143c-98 0 -157 45 -157 143z" />
    <glyph glyph-name="ecaron" unicode="&#x11b;" horiz-adv-x="556" 
d="M459 131l23 -117c-51 -17 -127 -28 -185 -28c-144 0 -251 63 -251 273c0 206 94 267 241 267c170 0 244 -52 230 -315h-313c2 -82 39 -97 113 -97c37 0 104 7 142 17zM298 410c-64 0 -84 -21 -93 -86h178c-2 71 -25 86 -85 86zM229 697c22 -24 44 -48 66 -71
c21 23 42 47 64 71h130c-41 -43 -81 -86 -122 -129h-147l-126 129h135z" />
    <glyph glyph-name="edotaccent" unicode="&#x117;" horiz-adv-x="556" 
d="M459 131l23 -117c-51 -17 -127 -28 -185 -28c-144 0 -251 63 -251 273c0 206 94 267 241 267c170 0 244 -52 230 -315h-313c2 -82 39 -97 113 -97c37 0 104 7 142 17zM298 410c-64 0 -84 -21 -93 -86h178c-2 71 -25 86 -85 86zM295 694c52 0 68 -9 68 -64
c0 -60 -16 -71 -68 -71s-69 11 -69 71c0 55 17 64 69 64z" />
    <glyph glyph-name="emacron" unicode="&#x113;" horiz-adv-x="556" 
d="M459 131l23 -117c-51 -17 -127 -28 -185 -28c-144 0 -251 63 -251 273c0 206 94 267 241 267c170 0 244 -52 230 -315h-313c2 -82 39 -97 113 -97c37 0 104 7 142 17zM298 410c-64 0 -84 -21 -93 -86h178c-2 71 -25 86 -85 86zM152 572v106h292v-106h-292z" />
    <glyph glyph-name="eogonek" unicode="&#x119;" horiz-adv-x="556" 
d="M459 131l23 -117c-51 -17 -127 -28 -185 -28c-144 0 -251 63 -251 273c0 206 94 267 241 267c170 0 244 -52 230 -315h-313c2 -82 39 -97 113 -97c37 0 104 7 142 17zM298 410c-64 0 -84 -21 -93 -86h178c-2 71 -25 86 -85 86zM412 12h43c-66 -40 -80 -62 -80 -98
c0 -26 11 -38 57 -38c30 0 60 11 78 26l39 -70c-34 -24 -90 -35 -134 -35c-105 0 -135 30 -135 89c0 53 42 102 132 126z" />
    <glyph glyph-name="franc" unicode="&#x20a3;" horiz-adv-x="575" 
d="M47 95v106h35v496h508v-141h-347v-162h210v-138h-210v-55h87v-106h-87v-95h-161v95h-35z" />
    <glyph glyph-name="gacute" horiz-adv-x="596" 
d="M376 154v236c-24 10 -55 14 -78 14c-73 0 -97 -18 -97 -149c0 -108 21 -137 93 -137c45 0 82 14 82 36zM376 18c-30 -15 -74 -29 -124 -29c-132 0 -206 56 -206 263c0 209 78 274 252 274c80 0 176 -15 232 -36v-449c0 -205 -121 -245 -283 -245c-66 0 -140 13 -187 30
l27 120c53 -14 104 -23 157 -23c83 0 132 21 132 95zM324 568h-130l123 129h157z" />
    <glyph glyph-name="gbreve" unicode="&#x11f;" horiz-adv-x="596" 
d="M376 154v236c-24 10 -55 14 -78 14c-73 0 -97 -18 -97 -149c0 -108 21 -137 93 -137c45 0 82 14 82 36zM376 18c-30 -15 -74 -29 -124 -29c-132 0 -206 56 -206 263c0 209 78 274 252 274c80 0 176 -15 232 -36v-449c0 -205 -121 -245 -283 -245c-66 0 -140 13 -187 30
l27 120c53 -14 104 -23 157 -23c83 0 132 21 132 95zM143 697h101c0 -43 20 -52 60 -52c39 0 60 9 60 52h94c0 -98 -57 -143 -158 -143c-98 0 -157 45 -157 143z" />
    <glyph glyph-name="gcircumflex" unicode="&#x11d;" horiz-adv-x="596" 
d="M376 154v236c-24 10 -55 14 -78 14c-73 0 -97 -18 -97 -149c0 -108 21 -137 93 -137c45 0 82 14 82 36zM376 18c-30 -15 -74 -29 -124 -29c-132 0 -206 56 -206 263c0 209 78 274 252 274c80 0 176 -15 232 -36v-449c0 -205 -121 -245 -283 -245c-66 0 -140 13 -187 30
l27 120c53 -14 104 -23 157 -23c83 0 132 21 132 95zM367 568c-22 23 -44 47 -66 71c-22 -24 -43 -48 -64 -71h-131c41 43 81 86 122 129h147l126 -129h-134z" />
    <glyph glyph-name="gcommaaccent" unicode="&#x123;" horiz-adv-x="596" 
d="M376 154v236c-24 10 -55 14 -78 14c-73 0 -97 -18 -97 -149c0 -108 21 -137 93 -137c45 0 82 14 82 36zM376 18c-30 -15 -74 -29 -124 -29c-132 0 -206 56 -206 263c0 209 78 274 252 274c80 0 176 -15 232 -36v-449c0 -205 -121 -245 -283 -245c-66 0 -140 13 -187 30
l27 120c53 -14 104 -23 157 -23c83 0 132 21 132 95zM446 754l-111 -167h-120l72 167h159z" />
    <glyph glyph-name="gdotaccent" unicode="&#x121;" horiz-adv-x="596" 
d="M376 154v236c-24 10 -55 14 -78 14c-73 0 -97 -18 -97 -149c0 -108 21 -137 93 -137c45 0 82 14 82 36zM376 18c-30 -15 -74 -29 -124 -29c-132 0 -206 56 -206 263c0 209 78 274 252 274c80 0 176 -15 232 -36v-449c0 -205 -121 -245 -283 -245c-66 0 -140 13 -187 30
l27 120c53 -14 104 -23 157 -23c83 0 132 21 132 95zM295 694c52 0 68 -9 68 -64c0 -60 -16 -71 -68 -71s-69 11 -69 71c0 55 17 64 69 64z" />
    <glyph glyph-name="Grave" unicode="&#xf6ce;" horiz-adv-x="439" 
d="M409 747h-132l-157 129h160z" />
    <glyph glyph-name="hbar" unicode="&#x127;" horiz-adv-x="597" 
d="M21 574v104h45v44h154v-44h92v-104h-92v-80c36 17 89 32 136 32c110 0 181 -35 181 -228v-298h-154v288c0 86 -36 102 -87 102c-40 0 -76 -11 -76 -32v-358h-154v574h-45z" />
    <glyph glyph-name="hcircumflex" unicode="&#x125;" horiz-adv-x="597" 
d="M356 526c110 0 180 -36 180 -229v-297h-153v291c0 73 -29 99 -87 99c-40 0 -77 -11 -77 -32v-358h-153v722h153v-228c37 16 90 32 137 32zM285 747l-67 72l-64 -72h-130l122 129h147l126 -129h-134z" />
    <glyph glyph-name="Hungarumlaut" unicode="&#xf6cf;" horiz-adv-x="612" 
d="M258 747h-102l94 129h126zM436 747h-102l93 129h127z" />
    <glyph glyph-name="ij" unicode="&#x133;" horiz-adv-x="570" 
d="M220 512v-512h-154v512h154zM143 734c65 0 87 -10 87 -73c0 -69 -22 -81 -87 -81c-66 0 -87 12 -87 81c0 63 21 73 87 73zM427 734c66 0 87 -10 87 -73c0 -69 -21 -81 -87 -81s-87 12 -87 81c0 63 21 73 87 73zM504 512v-514c0 -152 -70 -201 -232 -201v124
c52 0 78 21 78 73v518h154z" />
    <glyph glyph-name="imacron" unicode="&#x12b;" horiz-adv-x="284" 
d="M220 512v-512h-154v512h154zM-3 572v106h292v-106h-292z" />
    <glyph glyph-name="iogonek" unicode="&#x12f;" horiz-adv-x="284" 
d="M220 512v-512h-154v512h154zM143 734c65 0 87 -10 87 -73c0 -69 -22 -81 -87 -81c-66 0 -87 12 -87 81c0 63 21 73 87 73zM155 12h43c-66 -40 -80 -62 -80 -98c0 -26 11 -38 57 -38c30 0 60 11 78 26l39 -70c-34 -24 -90 -35 -134 -35c-105 0 -135 30 -135 89
c0 53 42 102 132 126z" />
    <glyph glyph-name="itilde" unicode="&#x129;" horiz-adv-x="284" 
d="M220 512v-512h-154v512h154zM261 708l72 -58c-19 -51 -60 -94 -124 -94c-63 0 -93 47 -141 47c-19 0 -33 -11 -48 -46l-66 65c26 46 59 80 111 80c74 0 100 -46 146 -46c23 0 35 11 50 52z" />
    <glyph glyph-name="jcircumflex" unicode="&#x135;" horiz-adv-x="284" 
d="M202 568c-22 23 -44 47 -66 71c-21 -24 -42 -48 -64 -71h-130c41 43 81 86 122 129h147l126 -129h-135zM-12 -203v125c51 0 78 20 78 72v517h153v-512c0 -153 -69 -202 -231 -202z" />
    <glyph glyph-name="kcommaaccent" unicode="&#x137;" horiz-adv-x="588" 
d="M220 722v-722h-154v722h154zM589 0h-178c-106 169 -168 259 -191 271c25 23 86 104 177 241h177c-87 -133 -151 -211 -176 -232c24 -16 95 -110 191 -280zM390 -51l-111 -167h-120l72 167h159z" />
    <glyph glyph-name="lacute" unicode="&#x13a;" horiz-adv-x="292" 
d="M220 722v-573c0 -49 10 -87 34 -124l-138 -50c-33 40 -50 96 -50 170v577h154zM188 747h-130l127 129h159z" />
    <glyph glyph-name="lcaron" unicode="&#x13e;" horiz-adv-x="292" 
d="M220 722v-573c0 -49 10 -87 34 -124l-138 -50c-33 40 -50 96 -50 170v577h154zM286 722h130l-58 -192h-91z" />
    <glyph glyph-name="lcommaaccent" unicode="&#x13c;" horiz-adv-x="292" 
d="M220 722v-573c0 -49 10 -87 34 -124l-138 -50c-33 40 -50 96 -50 170v577h154zM266 -51l-111 -167h-120l72 167h159z" />
    <glyph glyph-name="ldotaccent" horiz-adv-x="292" 
d="M220 722v-573c0 -49 10 -87 34 -124l-138 -50c-33 40 -50 96 -50 170v577h154zM316 469c52 0 68 -9 68 -64c0 -60 -16 -71 -68 -71s-69 11 -69 71c0 55 17 64 69 64z" />
    <glyph glyph-name="Macron" unicode="&#xf6d0;" horiz-adv-x="320" 
d="M116 745v107h292v-107h-292z" />
    <glyph glyph-name="nacute" unicode="&#x144;" horiz-adv-x="597" 
d="M220 380v-380h-154v480c66 24 168 46 260 46c141 0 211 -59 211 -243v-283h-154v271c0 93 -15 118 -90 118c-25 0 -48 -3 -73 -9zM315 568h-130l123 129h157z" />
    <glyph glyph-name="ncaron" unicode="&#x148;" horiz-adv-x="597" 
d="M220 380v-380h-154v480c66 24 168 46 260 46c141 0 211 -59 211 -243v-283h-154v271c0 93 -15 118 -90 118c-25 0 -48 -3 -73 -9zM234 697c22 -24 44 -48 66 -71c21 23 42 47 64 71h130c-41 -43 -81 -86 -122 -129h-147l-126 129h135z" />
    <glyph glyph-name="ncommaaccent" unicode="&#x146;" horiz-adv-x="597" 
d="M220 380v-380h-154v480c66 24 168 46 260 46c141 0 211 -59 211 -243v-283h-154v271c0 93 -15 118 -90 118c-25 0 -48 -3 -73 -9zM383 -51l-111 -167h-120l72 167h159z" />
    <glyph glyph-name="obreve" unicode="&#x14f;" horiz-adv-x="590" 
d="M294 -14c-165 0 -248 63 -248 273c0 209 85 267 248 267c166 0 250 -58 250 -267c0 -210 -83 -273 -250 -273zM294 406c-72 0 -93 -16 -93 -150c0 -129 21 -150 93 -150c73 0 94 21 94 150c0 134 -21 150 -94 150zM136 697h101c0 -43 20 -52 60 -52c39 0 60 9 60 52h94
c0 -98 -57 -143 -158 -143c-98 0 -157 45 -157 143z" />
    <glyph glyph-name="ohungarumlaut" unicode="&#x151;" horiz-adv-x="590" 
d="M294 -14c-165 0 -248 63 -248 273c0 209 85 267 248 267c166 0 250 -58 250 -267c0 -210 -83 -273 -250 -273zM294 406c-72 0 -93 -16 -93 -150c0 -129 21 -150 93 -150c73 0 94 21 94 150c0 134 -21 150 -94 150zM233 568h-102l94 129h126zM411 568h-102l93 129h127z
" />
    <glyph glyph-name="omacron" unicode="&#x14d;" horiz-adv-x="590" 
d="M294 -14c-165 0 -248 63 -248 273c0 209 85 267 248 267c166 0 250 -58 250 -267c0 -210 -83 -273 -250 -273zM294 406c-72 0 -93 -16 -93 -150c0 -129 21 -150 93 -150c73 0 94 21 94 150c0 134 -21 150 -94 150zM148 572v106h292v-106h-292z" />
    <glyph glyph-name="racute" unicode="&#x155;" horiz-adv-x="397" 
d="M66 0v512h154v-40c17 30 50 54 124 54c15 0 33 -1 51 -3v-143c-20 6 -47 8 -72 8c-55 0 -103 -18 -103 -52v-336h-154zM279 568h-130l123 129h157z" />
    <glyph glyph-name="rcaron" unicode="&#x159;" horiz-adv-x="397" 
d="M66 0v512h154v-40c17 30 50 54 124 54c15 0 33 -1 51 -3v-143c-20 6 -47 8 -72 8c-55 0 -103 -18 -103 -52v-336h-154zM178 697c22 -24 44 -48 66 -71c21 23 42 47 64 71h130c-41 -43 -81 -86 -122 -129h-147l-126 129h135z" />
    <glyph glyph-name="rcommaaccent" unicode="&#x157;" horiz-adv-x="397" 
d="M66 0v512h154v-40c17 30 50 54 124 54c15 0 33 -1 51 -3v-143c-20 6 -47 8 -72 8c-55 0 -103 -18 -103 -52v-336h-154zM252 -51l-111 -167h-120l72 167h159z" />
    <glyph glyph-name="Ring" horiz-adv-x="708" 
d="M360 899c84 0 123 -23 123 -100s-39 -100 -123 -100c-85 0 -125 23 -125 100s37 100 125 100zM360 837c-39 0 -47 -11 -47 -39s8 -39 47 -39c38 0 46 12 46 39c0 28 -8 39 -46 39z" />
    <glyph glyph-name="sacute" unicode="&#x15b;" horiz-adv-x="484" 
d="M439 498l-30 -114c-40 11 -99 22 -151 22c-48 0 -72 -4 -72 -44c0 -27 14 -34 93 -44c119 -15 172 -51 172 -156c0 -139 -100 -176 -229 -176c-55 0 -135 11 -182 28l30 116c38 -11 95 -21 145 -21c60 0 88 5 88 45c0 28 -17 39 -102 47c-107 10 -164 41 -164 150
c0 139 99 175 227 175c55 0 127 -11 175 -28zM267 568h-130l123 129h157z" />
    <glyph glyph-name="scedilla" unicode="&#x15f;" horiz-adv-x="484" 
d="M439 498l-30 -114c-40 11 -99 22 -151 22c-48 0 -72 -4 -72 -44c0 -27 14 -34 93 -44c119 -15 172 -51 172 -156c0 -139 -100 -176 -229 -176c-55 0 -135 11 -182 28l30 116c38 -11 95 -21 145 -21c60 0 88 5 88 45c0 28 -17 39 -102 47c-107 10 -164 41 -164 150
c0 139 99 175 227 175c55 0 127 -11 175 -28zM209 0h57v-39c70 0 105 -21 105 -79c0 -65 -38 -85 -143 -85c-45 0 -70 4 -94 13l24 60c13 -6 39 -9 62 -9c26 0 34 6 34 23c0 21 -21 27 -81 22z" />
    <glyph glyph-name="scircumflex" unicode="&#x15d;" horiz-adv-x="484" 
d="M439 498l-30 -114c-40 11 -99 22 -151 22c-48 0 -72 -4 -72 -44c0 -27 14 -34 93 -44c119 -15 172 -51 172 -156c0 -139 -100 -176 -229 -176c-55 0 -135 11 -182 28l30 116c38 -11 95 -21 145 -21c60 0 88 5 88 45c0 28 -17 39 -102 47c-107 10 -164 41 -164 150
c0 139 99 175 227 175c55 0 127 -11 175 -28zM321 568c-22 23 -44 47 -66 71c-22 -24 -43 -48 -64 -71h-131c41 43 81 86 122 129h147l126 -129h-134z" />
    <glyph glyph-name="scommaaccent" unicode="&#x219;" horiz-adv-x="484" 
d="M439 498l-30 -114c-40 11 -99 22 -151 22c-48 0 -72 -4 -72 -44c0 -27 14 -34 93 -44c119 -15 172 -51 172 -156c0 -139 -100 -176 -229 -176c-55 0 -135 11 -182 28l30 116c38 -11 95 -21 145 -21c60 0 88 5 88 45c0 28 -17 39 -102 47c-107 10 -164 41 -164 150
c0 139 99 175 227 175c55 0 127 -11 175 -28zM342 -51l-111 -167h-120l72 167h159z" />
    <glyph glyph-name="tbar" unicode="&#x167;" horiz-adv-x="427" 
d="M39 212v92h52v76h-83v132h83v76l154 62v-138h160v-132h-160v-76h86v-92h-86v-23c0 -52 17 -73 71 -73c32 0 56 6 80 14l25 -118c-38 -16 -96 -26 -152 -26c-113 0 -178 34 -178 187v39h-52z" />
    <glyph glyph-name="tcaron" unicode="&#x165;" horiz-adv-x="427" 
d="M405 380h-160v-191c0 -52 15 -73 69 -73c32 0 58 6 82 14l25 -118c-38 -16 -99 -26 -154 -26c-113 0 -176 34 -176 187v207h-83v132h83v76l154 62v-138h160v-132zM331 771h130l-58 -192h-91z" />
    <glyph glyph-name="tcommaaccent" unicode="&#x163;" horiz-adv-x="427" 
d="M405 380h-160v-191c0 -52 15 -73 69 -73c32 0 58 6 82 14l25 -118c-38 -16 -99 -26 -154 -26c-113 0 -176 34 -176 187v207h-83v132h83v76l154 62v-138h160v-132zM321 -51l-111 -167h-120l72 167h159z" />
    <glyph glyph-name="tcommaaccent" unicode="&#x21b;" horiz-adv-x="427" 
d="M405 380h-160v-191c0 -52 15 -73 69 -73c32 0 58 6 82 14l25 -118c-38 -16 -99 -26 -154 -26c-113 0 -176 34 -176 187v207h-83v132h83v76l154 62v-138h160v-132zM321 -51l-111 -167h-120l72 167h159z" />
    <glyph glyph-name="Tilde" horiz-adv-x="702" 
d="M522 885l72 -58c-18 -51 -62 -94 -125 -94s-95 47 -143 47c-19 0 -33 -11 -48 -45l-65 64c26 46 59 79 110 79c73 0 103 -45 149 -45c23 0 35 11 50 52z" />
    <glyph glyph-name="ubreve" unicode="&#x16d;" horiz-adv-x="597" 
d="M379 132v380h152v-481c-65 -23 -168 -46 -259 -46c-142 0 -210 60 -210 243v284h152v-272c0 -92 16 -118 91 -118c25 0 47 4 74 10zM137 697h101c0 -43 20 -52 60 -52c39 0 60 9 60 52h94c0 -98 -57 -143 -158 -143c-98 0 -157 45 -157 143z" />
    <glyph glyph-name="uhungarumlaut" unicode="&#x171;" horiz-adv-x="597" 
d="M379 132v380h152v-481c-65 -23 -168 -46 -259 -46c-142 0 -210 60 -210 243v284h152v-272c0 -92 16 -118 91 -118c25 0 47 4 74 10zM239 568h-102l94 129h126zM417 568h-102l93 129h127z" />
    <glyph glyph-name="umacron" unicode="&#x16b;" horiz-adv-x="597" 
d="M379 132v380h152v-481c-65 -23 -168 -46 -259 -46c-142 0 -210 60 -210 243v284h152v-272c0 -92 16 -118 91 -118c25 0 47 4 74 10zM148 572v106h292v-106h-292z" />
    <glyph glyph-name="uogonek" unicode="&#x173;" horiz-adv-x="597" 
d="M379 132v380h152v-481c-65 -23 -168 -46 -259 -46c-142 0 -210 60 -210 243v284h152v-272c0 -92 16 -118 91 -118c25 0 47 4 74 10zM418 12h43c-66 -40 -80 -62 -80 -98c0 -26 11 -38 57 -38c30 0 60 11 78 26l39 -70c-34 -24 -90 -35 -134 -35c-105 0 -135 30 -135 89
c0 53 42 102 132 126z" />
    <glyph glyph-name="uring" unicode="&#x16f;" horiz-adv-x="597" 
d="M379 132v380h152v-481c-65 -23 -168 -46 -259 -46c-142 0 -210 60 -210 243v284h152v-272c0 -92 16 -118 91 -118c25 0 47 4 74 10zM298 742c84 0 123 -23 123 -100s-39 -100 -123 -100c-85 0 -125 23 -125 100s37 100 125 100zM298 680c-39 0 -47 -11 -47 -39
s8 -38 47 -38c38 0 46 11 46 38c0 29 -8 39 -46 39z" />
    <glyph glyph-name="utilde" unicode="&#x169;" horiz-adv-x="597" 
d="M379 132v380h152v-481c-65 -23 -168 -46 -259 -46c-142 0 -210 60 -210 243v284h152v-272c0 -92 16 -118 91 -118c25 0 47 4 74 10zM416 708l72 -58c-19 -51 -60 -94 -124 -94c-63 0 -93 47 -141 47c-19 0 -33 -11 -48 -46l-66 65c26 46 59 80 111 80
c74 0 100 -46 146 -46c23 0 35 11 50 52z" />
    <glyph glyph-name="wcircumflex" unicode="&#x175;" horiz-adv-x="838" 
d="M418 297c-19 -90 -58 -222 -83 -297h-184c-49 180 -104 350 -163 512h157c40 -108 77 -230 107 -352c31 92 79 265 100 352h139c29 -91 73 -255 95 -352c40 117 78 234 105 352h154c-48 -163 -110 -351 -176 -512h-184c-17 85 -48 224 -67 297zM483 568
c-22 23 -44 47 -66 71c-22 -24 -43 -48 -64 -71h-131c41 43 81 86 122 129h147l126 -129h-134z" />
    <glyph glyph-name="ycircumflex" unicode="&#x177;" horiz-adv-x="512" 
d="M165 -25c-50 181 -116 377 -176 536h155c41 -107 80 -234 112 -356c41 117 81 239 109 356h153c-51 -177 -119 -366 -195 -542c-23 -54 -48 -112 -73 -161h-169c28 48 59 112 84 167zM321 568c-22 23 -44 47 -66 71c-22 -24 -43 -48 -64 -71h-131c41 43 81 86 122 129
h147l126 -129h-134z" />
    <glyph glyph-name="zacute" unicode="&#x17a;" horiz-adv-x="498" 
d="M27 512h458v-25c-64 -107 -174 -269 -238 -355h226v-132h-463v25c84 112 199 282 240 355h-223v132zM294 568h-130l123 129h157z" />
    <glyph glyph-name="zdotaccent" unicode="&#x17c;" horiz-adv-x="498" 
d="M27 512h458v-25c-64 -107 -174 -269 -238 -355h226v-132h-463v25c84 112 199 282 240 355h-223v132zM254 694c52 0 68 -9 68 -64c0 -60 -16 -71 -68 -71s-69 11 -69 71c0 55 17 64 69 64z" />
    <glyph glyph-name="r" unicode="r" horiz-adv-x="397" 
d="M66 0v512h154v-40c17 30 50 54 124 54c15 0 33 -1 51 -3v-143c-20 6 -47 8 -72 8c-55 0 -103 -18 -103 -52v-336h-154z" />
    <glyph glyph-name="m" unicode="m" horiz-adv-x="891" 
d="M220 380v-380h-154v480c66 24 162 46 254 46c54 0 97 -10 128 -33c54 19 119 33 177 33c142 0 205 -59 205 -243v-283h-153v271c0 93 -15 118 -85 118c-19 0 -52 -3 -77 -9c6 -27 10 -59 10 -97v-283h-153v271c0 93 -15 118 -85 118c-22 0 -47 -3 -67 -9z" />
    <glyph glyph-name="o" unicode="o" horiz-adv-x="590" 
d="M294 -14c-165 0 -248 63 -248 273c0 209 85 267 248 267c166 0 250 -58 250 -267c0 -210 -83 -273 -250 -273zM294 406c-72 0 -93 -16 -93 -150c0 -129 21 -150 93 -150c73 0 94 21 94 150c0 134 -21 150 -94 150z" />
    <glyph glyph-name="t" unicode="t" horiz-adv-x="427" 
d="M405 380h-160v-191c0 -52 15 -73 69 -73c32 0 58 6 82 14l25 -118c-38 -16 -99 -26 -154 -26c-113 0 -176 34 -176 187v207h-83v132h83v76l154 62v-138h160v-132z" />
    <glyph glyph-name="w" unicode="w" horiz-adv-x="838" 
d="M418 297c-19 -90 -58 -222 -83 -297h-184c-49 180 -104 350 -163 512h157c40 -108 77 -230 107 -352c31 92 79 265 100 352h139c29 -91 73 -255 95 -352c40 117 78 234 105 352h154c-48 -163 -110 -351 -176 -512h-184c-17 85 -48 224 -67 297z" />
    <glyph glyph-name="y" unicode="y" horiz-adv-x="512" 
d="M165 -25c-50 181 -116 377 -176 536h155c41 -107 80 -234 112 -356c41 117 81 239 109 356h153c-51 -177 -119 -366 -195 -542c-23 -54 -48 -112 -73 -161h-169c28 48 59 112 84 167z" />
    <glyph glyph-name="Ldot" unicode="&#x13f;" horiz-adv-x="553" 
d="M82 697h161v-555h314v-142h-475v697zM375 484c52 0 68 -9 68 -64c0 -60 -16 -71 -68 -71s-69 11 -69 71c0 55 17 64 69 64z" />
    <glyph glyph-name="ldot" unicode="&#x140;" horiz-adv-x="292" 
d="M220 722v-573c0 -49 10 -87 34 -124l-138 -50c-33 40 -50 96 -50 170v577h154zM313 474c52 0 68 -9 68 -64c0 -60 -16 -71 -68 -71s-69 11 -69 71c0 55 17 64 69 64z" />
    <glyph glyph-name="ibreve" unicode="&#x12d;" horiz-adv-x="284" 
d="M220 512v-512h-154v512h154zM-15 697h101c0 -43 20 -52 60 -52c39 0 60 9 60 52h94c0 -98 -57 -143 -158 -143c-98 0 -157 45 -157 143z" />
    <glyph glyph-name="Idotaccent" unicode="&#x130;" horiz-adv-x="325" 
d="M82 697h161v-697h-161v697zM161 877c52 0 69 -9 69 -64c0 -60 -17 -71 -69 -71c-51 0 -68 11 -68 71c0 55 17 64 68 64z" />
    <glyph glyph-name="Ibreve" unicode="&#x12c;" horiz-adv-x="325" 
d="M82 697h161v-697h-161v697zM6 871h101c0 -43 20 -52 60 -52c39 0 60 9 60 52h94c0 -98 -57 -143 -158 -143c-98 0 -157 45 -157 143z" />
    <glyph glyph-name="Dmacron" horiz-adv-x="753" 
d="M82 697h291c223 0 331 -73 331 -345c0 -271 -108 -352 -331 -352h-291v697zM532 350c0 186 -37 206 -178 206h-111v-414h111c141 0 178 28 178 208zM215 745v107h292v-107h-292z" />
    <glyph glyph-name="Atilde" unicode="&#xc3;" horiz-adv-x="689" 
d="M543 0c-17 41 -38 95 -59 154h-287c-18 -58 -33 -111 -45 -154h-172c58 195 167 501 247 697h249c66 -218 170 -515 245 -697h-178zM355 557h-26c-27 -73 -59 -167 -91 -264h200c-32 95 -62 190 -83 264zM459 885l72 -58c-18 -51 -62 -94 -125 -94s-95 47 -143 47
c-19 0 -33 -11 -48 -45l-65 64c26 46 59 79 110 79c73 0 103 -45 149 -45c23 0 35 11 50 52z" />
    <glyph glyph-name="Aring" unicode="&#xc5;" horiz-adv-x="689" 
d="M543 0c-17 41 -38 95 -59 154h-287c-18 -58 -33 -111 -45 -154h-172c58 195 167 501 247 697h249c66 -218 170 -515 245 -697h-178zM355 557h-26c-27 -73 -59 -167 -91 -264h200c-32 95 -62 190 -83 264zM345 899c84 0 123 -23 123 -100s-39 -100 -123 -100
c-85 0 -125 23 -125 100s37 100 125 100zM345 837c-39 0 -47 -11 -47 -39s8 -39 47 -39c38 0 46 12 46 39c0 28 -8 39 -46 39z" />
    <glyph glyph-name="Agrave" unicode="&#xc0;" horiz-adv-x="689" 
d="M543 0c-17 41 -38 95 -59 154h-287c-18 -58 -33 -111 -45 -154h-172c58 195 167 501 247 697h249c66 -218 170 -515 245 -697h-178zM355 557h-26c-27 -73 -59 -167 -91 -264h200c-32 95 -62 190 -83 264zM450 747h-132l-157 129h160z" />
    <glyph glyph-name="Adieresis" unicode="&#xc4;" horiz-adv-x="689" 
d="M543 0c-17 41 -38 95 -59 154h-287c-18 -58 -33 -111 -45 -154h-172c58 195 167 501 247 697h249c66 -218 170 -515 245 -697h-178zM355 557h-26c-27 -73 -59 -167 -91 -264h200c-32 95 -62 190 -83 264zM231 872c52 0 69 -8 69 -63c0 -61 -17 -71 -69 -71s-68 10 -68 71
c0 55 16 63 68 63zM457 872c51 0 68 -8 68 -63c0 -61 -17 -71 -68 -71c-53 0 -69 10 -69 71c0 55 16 63 69 63z" />
    <glyph glyph-name="Acircumflex" unicode="&#xc2;" horiz-adv-x="689" 
d="M543 0c-17 41 -38 95 -59 154h-287c-18 -58 -33 -111 -45 -154h-172c58 195 167 501 247 697h249c66 -218 170 -515 245 -697h-178zM355 557h-26c-27 -73 -59 -167 -91 -264h200c-32 95 -62 190 -83 264zM411 747l-67 72l-64 -72h-130l122 129h147l126 -129h-134z" />
    <glyph glyph-name="Abreve" unicode="&#x102;" horiz-adv-x="689" 
d="M543 0c-17 41 -38 95 -59 154h-287c-18 -58 -33 -111 -45 -154h-172c58 195 167 501 247 697h249c66 -218 170 -515 245 -697h-178zM355 557h-26c-27 -73 -59 -167 -91 -264h200c-32 95 -62 190 -83 264zM185 871h101c0 -43 20 -52 60 -52c39 0 60 9 60 52h94
c0 -98 -57 -143 -158 -143c-98 0 -157 45 -157 143z" />
    <glyph glyph-name="Aacute" unicode="&#xc1;" horiz-adv-x="689" 
d="M543 0c-17 41 -38 95 -59 154h-287c-18 -58 -33 -111 -45 -154h-172c58 195 167 501 247 697h249c66 -218 170 -515 245 -697h-178zM355 557h-26c-27 -73 -59 -167 -91 -264h200c-32 95 -62 190 -83 264zM366 747h-130l127 129h159z" />
    <glyph glyph-name="germandbls" unicode="&#xdf;" horiz-adv-x="673" 
d="M333 714c200 0 279 -48 279 -181c0 -97 -24 -156 -149 -166c132 -6 163 -71 163 -180c0 -150 -80 -201 -283 -201c-23 0 -52 1 -78 4l18 131c19 -2 44 -4 68 -4c86 0 107 24 107 87c0 74 -30 96 -101 96h-46v124h42c77 0 96 30 96 81c0 57 -26 74 -117 74
c-79 0 -112 -33 -112 -83v-496h-154v523c0 145 102 191 267 191z" />
    <glyph glyph-name="Dcroat" unicode="&#x110;" horiz-adv-x="753" 
d="M30 300v110h52v287h291c223 0 331 -73 331 -345c0 -271 -108 -352 -331 -352h-291v300h-52zM532 350c0 186 -37 205 -178 205h-111v-145h158v-110h-158v-158h111c141 0 178 28 178 208z" />
    <glyph glyph-name="caron.alt" unicode="&#xe01e;" horiz-adv-x="321" 
d="M320 722h130l-58 -192h-91z" />
    <glyph glyph-name="dcroat" unicode="&#x111;" horiz-adv-x="596" 
d="M297 572v105h79v45h154v-45h50v-105h-50v-550c-56 -21 -152 -36 -232 -36c-174 0 -252 62 -252 272c0 206 90 268 217 268c50 0 84 -10 113 -22v68h-79zM376 127v235c0 22 -35 39 -80 39c-72 0 -95 -32 -95 -141c0 -124 24 -145 97 -145c26 0 59 4 78 12z" />
    <glyph glyph-name="currency" unicode="&#xa4;" horiz-adv-x="688" 
d="M349 83c-34 0 -62 3 -87 11l-73 -94l-132 90l74 98c-21 40 -31 95 -31 168c0 69 9 120 27 159l-72 94l143 88l64 -84c25 7 53 11 87 11c32 0 60 -4 85 -10l54 83l143 -87l-62 -89c20 -40 30 -93 30 -165c0 -73 -10 -127 -30 -167l69 -99l-143 -90l-62 93
c-25 -7 -53 -10 -84 -10zM349 496c-73 0 -101 -9 -101 -143c0 -129 28 -142 101 -142s101 13 101 142c0 134 -28 143 -101 143z" />
    <glyph glyph-name="h" unicode="h" horiz-adv-x="597" 
d="M356 526c110 0 180 -36 180 -229v-297h-153v291c0 73 -29 99 -87 99c-40 0 -77 -11 -77 -32v-358h-153v722h153v-228c37 16 90 32 137 32z" />
    <glyph glyph-name="p" unicode="p" horiz-adv-x="596" 
d="M220 386v-235c0 -23 34 -39 79 -39c73 0 96 32 96 140c0 124 -24 146 -97 146c-27 0 -60 -5 -78 -12zM66 -192v682c55 21 152 36 232 36c174 0 251 -61 251 -270c0 -207 -90 -270 -217 -270c-50 0 -84 11 -112 23v-201h-154z" />
    <glyph glyph-name="u" unicode="u" horiz-adv-x="597" 
d="M379 132v380h152v-481c-65 -23 -168 -46 -259 -46c-142 0 -210 60 -210 243v284h152v-272c0 -92 16 -118 91 -118c25 0 47 4 74 10z" />
    <glyph glyph-name="q" unicode="q" horiz-adv-x="596" 
d="M376 154v236c-24 10 -55 14 -78 14c-73 0 -97 -18 -97 -149c0 -108 21 -137 93 -137c45 0 82 14 82 36zM530 490v-682h-154v209c-30 -16 -78 -31 -128 -31c-133 0 -202 59 -202 266c0 209 78 274 252 274c80 0 176 -15 232 -36z" />
    <glyph glyph-name="b" unicode="b" horiz-adv-x="596" 
d="M220 358v-236c24 -9 55 -13 78 -13c73 0 97 18 97 149c0 108 -22 136 -93 136c-46 0 -82 -14 -82 -36zM66 22v700h154v-225c29 15 78 29 127 29c133 0 202 -59 202 -265c0 -210 -77 -275 -251 -275c-80 0 -177 15 -232 36z" />
    <glyph glyph-name="d" unicode="d" horiz-adv-x="596" 
d="M376 127v235c0 22 -35 39 -80 39c-72 0 -95 -32 -95 -141c0 -124 24 -145 97 -145c26 0 59 4 78 12zM530 722v-700c-56 -21 -152 -36 -232 -36c-174 0 -252 62 -252 272c0 206 90 268 217 268c50 0 84 -10 113 -22v218h154z" />
    <glyph glyph-name="n" unicode="n" horiz-adv-x="597" 
d="M220 380v-380h-154v480c66 24 168 46 260 46c141 0 211 -59 211 -243v-283h-154v271c0 93 -15 118 -90 118c-25 0 -48 -3 -73 -9z" />
    <glyph glyph-name="g" unicode="g" horiz-adv-x="596" 
d="M376 154v236c-24 10 -55 14 -78 14c-73 0 -97 -18 -97 -149c0 -108 21 -137 93 -137c45 0 82 14 82 36zM376 18c-30 -15 -74 -29 -124 -29c-132 0 -206 56 -206 263c0 209 78 274 252 274c80 0 176 -15 232 -36v-449c0 -205 -121 -245 -283 -245c-66 0 -140 13 -187 30
l27 120c53 -14 104 -23 157 -23c83 0 132 21 132 95z" />
    <glyph glyph-name="c" unicode="c" horiz-adv-x="472" 
d="M430 141l32 -129c-41 -17 -110 -26 -161 -26c-153 0 -255 63 -255 273c0 208 103 267 255 267c53 0 121 -8 161 -22l-32 -130c-29 11 -74 21 -116 21c-75 0 -113 -13 -113 -139c0 -120 38 -138 113 -138c44 0 87 11 116 23z" />
    <glyph glyph-name="e" unicode="e" horiz-adv-x="556" 
d="M459 131l23 -117c-51 -17 -127 -28 -185 -28c-144 0 -251 63 -251 273c0 206 94 267 241 267c170 0 244 -52 230 -315h-313c2 -82 39 -97 113 -97c37 0 104 7 142 17zM298 410c-64 0 -84 -21 -93 -86h178c-2 71 -25 86 -85 86z" />
    <glyph glyph-name="C" unicode="C" horiz-adv-x="588" 
d="M49 355c0 285 106 359 330 359c65 0 149 -10 202 -25l-31 -142c-34 12 -93 19 -137 19c-140 0 -192 -20 -192 -213c0 -192 52 -218 192 -218c44 0 103 8 137 19l31 -145c-54 -14 -137 -23 -202 -23c-224 0 -330 85 -330 369z" />
    <glyph glyph-name="one" unicode="1" 
d="M430 0h-159v523l-156 -63l-42 136l357 133v-729z" />
    <glyph glyph-name="zero" unicode="0" 
d="M314 714c177 0 269 -74 269 -356c0 -287 -92 -372 -269 -372s-270 85 -270 372c0 282 93 356 270 356zM314 134c92 0 109 30 109 224c0 189 -17 210 -109 210c-90 0 -108 -21 -108 -210c0 -194 18 -224 108 -224z" />
    <glyph glyph-name="two" unicode="2" 
d="M96 542l-34 137c57 20 147 35 237 35c175 0 261 -40 261 -209c0 -145 -41 -192 -298 -364h301v-141h-523v131c329 245 349 264 349 357c0 63 -26 81 -107 81c-64 0 -142 -13 -186 -27z" />
    <glyph glyph-name="three" unicode="3" 
d="M186 293v138h105c65 0 88 13 88 69c0 51 -22 67 -135 67c-47 0 -127 -7 -167 -19l-30 141c63 14 155 25 235 25c206 0 269 -48 269 -181c0 -97 -25 -156 -150 -166c132 -6 164 -71 164 -180c0 -150 -81 -201 -284 -201c-73 0 -173 10 -237 24l30 143
c40 -12 121 -19 169 -19c122 0 146 18 146 79c0 63 -26 80 -95 80h-108z" />
    <glyph glyph-name="five" unicode="5" 
d="M89 697h451v-141h-299v-120c23 2 46 3 69 3c198 0 256 -60 256 -218c0 -182 -71 -235 -275 -235c-66 0 -178 10 -233 24l30 143c37 -12 117 -19 165 -19c115 0 137 13 137 81c0 70 -16 86 -136 86c-49 0 -120 -4 -165 -10v406z" />
    <glyph glyph-name="lslash" unicode="&#x142;" horiz-adv-x="312" 
d="M229 722v-212l65 70v-148l-65 -70v-213c0 -45 10 -89 35 -125l-139 -48c-27 31 -49 72 -49 129v94l-60 -64v148l60 63v376h153z" />
    <glyph glyph-name="Lslash" unicode="&#x141;" horiz-adv-x="553" 
d="M395 574v-148l-152 -127v-157h314v-142h-475v169l-64 -53v148l64 53v380h161v-250z" />
    <glyph glyph-name="dollar" unicode="$" horiz-adv-x="622" 
d="M257 825h102v-137c72 -1 145 -12 193 -29l-32 -132c-34 10 -99 20 -161 22v-136c133 -21 205 -78 205 -195c0 -137 -63 -195 -205 -209v-146h-102v142c-73 1 -148 12 -197 29l33 133c36 -11 103 -21 164 -23v141c-126 17 -204 65 -204 180c0 135 67 201 204 218v142z
M200 485c0 -33 12 -48 57 -57v116c-41 -8 -57 -27 -57 -59zM415 208c0 33 -8 51 -56 61v-121c39 8 56 25 56 60z" />
    <glyph glyph-name="six" unicode="6" 
d="M566 688l-31 -142c-35 12 -101 20 -168 20c-90 0 -139 -19 -144 -135c33 5 73 8 107 8c200 0 260 -60 260 -218c0 -183 -68 -235 -268 -235c-202 0 -273 84 -273 368c0 285 81 360 318 360c64 0 146 -11 199 -26zM322 134c82 0 100 22 100 83c0 68 -24 85 -93 85
c-36 0 -74 -2 -109 -6c4 -141 33 -162 102 -162z" />
    <glyph glyph-name="Euro" unicode="&#x20ac;" horiz-adv-x="588" 
d="M49 355c0 285 106 359 330 359c65 0 149 -10 202 -25l-31 -142c-34 12 -93 19 -137 19c-95 0 -149 -10 -173 -79h212v-99h-231v-35v-34h231v-98h-212c24 -73 77 -86 173 -86c44 0 103 8 137 19l31 -145c-54 -14 -137 -23 -202 -23c-224 0 -330 85 -330 369z" />
    <glyph glyph-name="question" unicode="?" horiz-adv-x="506" 
d="M246 163c70 0 93 -11 93 -81c0 -76 -23 -88 -93 -88c-68 0 -91 12 -91 88c0 70 23 81 91 81zM321 223h-154c89 104 137 171 137 278c0 39 -27 65 -110 65c-66 0 -114 -7 -146 -19l-31 142c49 14 133 25 193 25c201 0 279 -65 279 -207c0 -109 -73 -197 -168 -284z" />
    <glyph glyph-name="Yacute" unicode="&#xdd;" horiz-adv-x="653" 
d="M159 697c48 -63 113 -152 179 -247c67 94 128 182 166 247h199c-77 -118 -183 -272 -287 -413v-284h-161v283c-110 154 -235 324 -310 414h214zM363 747h-130l127 129h159z" />
    <glyph glyph-name="bullet" unicode="&#x2022;" horiz-adv-x="590" 
d="M294 56c-165 0 -248 63 -248 273c0 209 85 267 248 267c166 0 250 -58 250 -267c0 -210 -83 -273 -250 -273z" />
    <glyph glyph-name="zerop" horiz-adv-x="637" 
d="M318 714c177 0 270 -74 270 -356c0 -287 -93 -372 -270 -372c-176 0 -269 85 -269 372c0 282 93 356 269 356zM319 134c92 0 109 30 109 224c0 189 -17 210 -109 210c-90 0 -109 -21 -109 -210c0 -194 19 -224 109 -224z" />
    <glyph glyph-name="onep" horiz-adv-x="427" 
d="M345 0h-158v523l-156 -63l-43 136l357 133v-729z" />
    <glyph glyph-name="twop" horiz-adv-x="619" 
d="M94 542l-33 137c57 20 147 35 237 35c174 0 261 -40 261 -209c0 -145 -42 -192 -298 -364h301v-141h-523v131c329 245 348 264 348 357c0 63 -26 81 -106 81c-64 0 -142 -13 -187 -27z" />
    <glyph glyph-name="threep" horiz-adv-x="605" 
d="M180 293v138h105c66 0 88 13 88 69c0 51 -21 67 -135 67c-47 0 -127 -7 -166 -19l-30 141c63 14 155 25 235 25c205 0 269 -48 269 -181c0 -97 -26 -156 -151 -166c132 -6 165 -71 165 -180c0 -150 -81 -201 -285 -201c-73 0 -172 10 -237 24l30 143
c40 -12 122 -19 169 -19c122 0 147 18 147 79c0 63 -27 80 -95 80h-109z" />
    <glyph glyph-name="fourp" horiz-adv-x="618" 
d="M356 166h-344v55c75 135 204 352 292 476h207v-396h90v-135h-90v-166h-155v166zM356 301v247c-53 -73 -121 -187 -153 -247h153z" />
    <glyph glyph-name="fivep" horiz-adv-x="608" 
d="M84 697h451v-141h-299v-120c23 2 47 3 69 3c199 0 256 -60 256 -218c0 -182 -71 -235 -275 -235c-66 0 -177 10 -233 24l30 143c37 -12 118 -19 165 -19c116 0 137 13 137 81c0 70 -15 86 -136 86c-49 0 -119 -4 -165 -10v406z" />
    <glyph glyph-name="sixp" horiz-adv-x="629" 
d="M566 688l-31 -142c-35 12 -101 20 -168 20c-90 0 -139 -19 -144 -135c33 5 73 8 107 8c200 0 260 -60 260 -218c0 -183 -68 -235 -268 -235c-202 0 -273 84 -273 368c0 285 81 360 318 360c64 0 146 -11 199 -26zM322 134c82 0 100 22 100 83c0 68 -24 85 -93 85
c-36 0 -74 -2 -109 -6c4 -141 33 -162 102 -162z" />
    <glyph glyph-name="sevenp" horiz-adv-x="544" 
d="M567 697v-46c-82 -131 -234 -459 -297 -651h-183c69 188 183 448 265 556h-340v141h555z" />
    <glyph glyph-name="eightp" horiz-adv-x="635" 
d="M318 117c79 0 101 21 101 87c0 68 -23 96 -101 96s-101 -28 -101 -96c0 -66 23 -87 101 -87zM318 425c65 0 92 20 92 80c0 61 -26 75 -92 75c-67 0 -93 -14 -93 -75c0 -60 28 -80 93 -80zM318 -14c-204 0 -269 55 -269 201c0 109 30 174 163 180
c-125 10 -150 69 -150 166c0 126 47 181 256 181s256 -55 256 -181c0 -97 -25 -156 -150 -166c133 -6 163 -71 163 -180c0 -146 -64 -201 -269 -201z" />
    <glyph glyph-name="ninep" 
d="M161 0c86 88 165 182 207 264c-12 -1 -53 -2 -62 -2c-200 0 -260 56 -260 214c0 182 67 238 268 238c220 0 272 -56 272 -240c0 -194 -96 -340 -229 -474h-196zM327 398c26 0 55 1 82 4c4 18 5 37 5 57c0 93 -19 108 -100 108c-83 0 -100 -22 -100 -86
c0 -69 16 -83 113 -83z" />
    <glyph glyph-name="g.2" horiz-adv-x="596" 
d="M542 493v-112c0 -147 -107 -206 -257 -206c-21 0 -41 1 -57 5c-3 -6 -4 -14 -4 -20c0 -26 35 -33 142 -37c132 -6 193 -51 193 -142c0 -143 -112 -185 -283 -185c-93 0 -167 12 -214 27l30 132c44 -15 107 -28 177 -28c95 0 133 13 133 42c0 26 -15 31 -114 34
c-162 6 -209 30 -209 114c0 34 12 63 32 87c-42 24 -61 67 -61 142c0 109 65 180 252 180c80 0 184 -14 240 -33zM388 364v29c-24 8 -61 12 -93 12c-66 0 -90 -14 -90 -57s26 -52 86 -52c58 0 97 20 97 68z" />
    <glyph glyph-name="ct" horiz-adv-x="853" 
d="M518 173v207c-96 0 -177 17 -213 17c-73 0 -104 -15 -104 -141c0 -120 31 -140 104 -140c38 0 78 6 108 18l30 -122c-41 -17 -95 -26 -150 -26c-145 0 -247 63 -247 273c0 208 103 267 247 267c58 0 131 -14 225 -14v76l153 62v-138h160v-132h-160v-191
c0 -52 17 -73 72 -73c31 0 55 6 79 14l26 -118c-39 -16 -97 -26 -153 -26c-112 0 -177 34 -177 187z" />
    <glyph glyph-name="quotesingle" unicode="'" horiz-adv-x="219" 
d="M45 697h129l-19 -245h-99z" />
    <glyph glyph-name="parenright" unicode=")" horiz-adv-x="327" 
d="M259 249c0 -317 -100 -467 -230 -522l-70 113c81 44 138 134 138 409c0 273 -57 365 -138 409l70 113c130 -55 230 -205 230 -522z" />
    <glyph glyph-name="bracketright" unicode="]" horiz-adv-x="378" 
d="M-19 755h305v-1015h-305v132h146v750h-146v133z" />
    <glyph glyph-name="backslash" unicode="\" horiz-adv-x="487" 
d="M-20 697h164l356 -697h-163z" />
    <glyph glyph-name="braceright" unicode="}" horiz-adv-x="378" 
d="M339 312v-127c-59 0 -111 -41 -111 -200c0 -170 -89 -232 -172 -260l-72 114c63 25 97 61 97 205c0 152 55 195 88 205c-33 10 -88 54 -88 207c0 144 -31 179 -97 205l72 112c83 -28 172 -90 172 -260c0 -160 52 -201 111 -201z" />
    <glyph glyph-name="partialdiff" unicode="&#x2202;" 
d="M307 435c18 0 40 -1 62 -3c-42 83 -121 176 -207 265h196c133 -135 229 -280 229 -474c0 -184 -52 -240 -272 -240c-201 0 -268 56 -268 237c0 158 60 215 260 215zM415 238c0 19 -1 38 -5 57c-27 3 -56 4 -82 4c-97 0 -113 -14 -113 -84c0 -64 17 -85 100 -85
c81 0 100 15 100 108z" />
    <glyph glyph-name="dagger" unicode="&#x2020;" horiz-adv-x="460" 
d="M30 459v124h137v138h124v-138h138v-124h-138v-215h-124v215h-137z" />
    <glyph glyph-name="daggerdbl" unicode="&#x2021;" horiz-adv-x="460" 
d="M30 459v124h137v138h124v-138h138v-124h-138v-79h138v-124h-138v-138h-124v138h-137v124h137v79h-137z" />
    <glyph glyph-name="quotesinglbase" unicode="&#x201a;" horiz-adv-x="260" 
d="M244 105l-109 -264h-120l78 264h151z" />
    <glyph glyph-name="quotedblbase" unicode="&#x201e;" horiz-adv-x="486" 
d="M463 98l-109 -265h-120l78 265h151zM253 98l-109 -265h-120l78 265h151z" />
    <glyph glyph-name="quotedblright" unicode="&#x201d;" horiz-adv-x="486" 
d="M463 763l-109 -264h-120l78 264h151zM253 763l-109 -264h-120l78 264h151z" />
    <glyph glyph-name="quotedblleft" unicode="&#x201c;" horiz-adv-x="486" 
d="M24 505l109 264h120l-78 -264h-151zM234 505l109 264h120l-78 -264h-151z" />
    <glyph glyph-name="quoteleft" unicode="&#x2018;" horiz-adv-x="275" 
d="M24 505l109 264h120l-78 -264h-151z" />
    <glyph glyph-name="quoteright" unicode="&#x2019;" horiz-adv-x="275" 
d="M252 762l-109 -265h-120l78 265h151z" />
    <glyph glyph-name="guilsinglleft" unicode="&#x2039;" horiz-adv-x="405" 
d="M382 516l-156 -195l156 -199l-86 -90l-273 286l271 286z" />
    <glyph glyph-name="greater" unicode="&#x3e;" horiz-adv-x="563" 
d="M71 156l242 205l-242 208l79 113l365 -282v-74l-363 -281z" />
    <glyph glyph-name="minus" unicode="&#x2212;" horiz-adv-x="563" 
d="M36 290v147h490v-147h-490z" />
    <glyph glyph-name="plus" unicode="+" horiz-adv-x="563" 
d="M36 290v147h171v172h147v-172h172v-147h-172v-171h-147v171h-171z" />
    <glyph glyph-name="guilsinglright" unicode="&#x203a;" horiz-adv-x="405" 
d="M24 121l156 195l-156 199l86 90l272 -287l-271 -285z" />
    <glyph glyph-name="guillemotleft" unicode="&#xab;" horiz-adv-x="705" 
d="M382 516l-156 -195l156 -199l-86 -90l-273 286l271 286zM682 516l-157 -195l157 -199l-87 -90l-272 286l271 286z" />
    <glyph glyph-name="guillemotright" unicode="&#xbb;" horiz-adv-x="705" 
d="M323 121l156 195l-156 199l87 90l272 -287l-271 -285zM24 121l156 195l-156 199l86 90l272 -287l-271 -285z" />
    <glyph glyph-name="brokenbar" unicode="&#xa6;" horiz-adv-x="401" 
d="M120 755h161v-367h-161v367zM120 111h161v-367h-161v367z" />
    <glyph glyph-name="multiply" unicode="&#xd7;" horiz-adv-x="563" 
d="M160 139l-104 104l121 121l-122 121l105 104l120 -121l121 122l105 -105l-122 -121l121 -121l-103 -104l-121 121z" />
    <glyph glyph-name="Eth" unicode="&#xd0;" horiz-adv-x="753" 
d="M30 300v110h52v287h291c223 0 331 -73 331 -345c0 -271 -108 -352 -331 -352h-291v300h-52zM532 350c0 186 -37 205 -178 205h-111v-145h158v-110h-158v-158h111c141 0 178 28 178 208z" />
    <glyph glyph-name="plusminus" unicode="&#xb1;" horiz-adv-x="563" 
d="M36 371v147h171v171h147v-171h172v-147h-172v-171h-147v171h-171zM36 8v147h490v-147h-490z" />
    <glyph glyph-name="lessequal" unicode="&#x2264;" horiz-adv-x="563" 
d="M36 8v147h490v-147h-490zM498 626l-238 -177l238 -179l-78 -99l-362 245v64l361 243z" />
    <glyph glyph-name="greaterequal" unicode="&#x2265;" horiz-adv-x="563" 
d="M527 155v-147h-490v147h490zM304 449l-239 177l79 97l361 -243v-64l-362 -245l-78 99z" />
    <glyph glyph-name="divide" unicode="&#xf7;" horiz-adv-x="563" 
d="M36 290v147h490v-147h-490zM278 232c70 0 92 -11 92 -81c0 -76 -22 -89 -92 -89c-68 0 -91 13 -91 89c0 70 23 81 91 81zM278 664c70 0 92 -11 92 -82c0 -75 -22 -88 -92 -88c-68 0 -91 13 -91 88c0 71 23 82 91 82z" />
    <glyph glyph-name="mu" unicode="&#xb5;" horiz-adv-x="597" 
d="M200 -192h-148l9 414v289h153v-271c0 -80 14 -118 90 -118c25 0 48 3 74 10v379h153v-480c-66 -24 -168 -45 -259 -45c-30 0 -55 2 -76 10z" />
    <glyph glyph-name="mu" unicode="&#x3bc;" horiz-adv-x="597" 
d="M200 -192h-148l9 414v289h153v-271c0 -80 14 -118 90 -118c25 0 48 3 74 10v379h153v-480c-66 -24 -168 -45 -259 -45c-30 0 -55 2 -76 10z" />
    <glyph glyph-name="arrowleft" unicode="&#x2190;" horiz-adv-x="774" 
d="M401 -3l-389 365l389 365l111 -109l-198 -183h448v-146h-448l198 -182z" />
    <glyph glyph-name="arrowup" unicode="&#x2191;" horiz-adv-x="778" 
d="M24 347l365 389l365 -388l-109 -111l-183 198v-448h-146v448l-183 -198z" />
    <glyph glyph-name="arrowright" unicode="&#x2192;" horiz-adv-x="774" 
d="M373 726l389 -364l-389 -365l-111 109l198 182h-448v146h448l-198 183z" />
    <glyph glyph-name="arrowdown" unicode="&#x2193;" horiz-adv-x="778" 
d="M754 376l-365 -389l-365 389l109 111l183 -199v448h146v-448l182 199z" />
    <glyph glyph-name="arrowupleft" horiz-adv-x="682" 
d="M84 97l-16 532l532 -16l2 -156l-269 10l317 -316l-104 -104l-316 317l11 -269z" />
    <glyph glyph-name="arrowupright" horiz-adv-x="681" 
d="M87 612l532 17l-16 -533l-156 -2l10 269l-316 -317l-103 105l317 316l-270 -11z" />
    <glyph glyph-name="arrowdownleft" horiz-adv-x="682" 
d="M68 47l16 533l157 1l-11 -269l316 317l104 -103l-317 -317l269 10l-2 -156z" />
    <glyph glyph-name="arrowdownright" horiz-adv-x="681" 
d="M619 45l-532 18l-2 156l270 -11l-317 316l103 104l316 -317l-10 269l156 -1z" />
    <glyph glyph-name="eth" unicode="&#xf0;" 
d="M248 475l-57 74l69 40c-31 37 -64 72 -98 108h197c10 -10 21 -21 31 -32l54 33l57 -73l-51 -30c84 -108 137 -226 137 -372c0 -184 -52 -240 -271 -240c-201 0 -268 56 -268 238c0 158 60 214 259 214c9 0 50 -1 62 -2c-14 27 -32 55 -53 83zM328 299
c-96 0 -113 -14 -113 -83c0 -64 18 -86 101 -86c80 0 99 15 99 108c0 19 -1 38 -5 57c-27 3 -56 4 -82 4z" />
    <glyph glyph-name="grave" unicode="`" horiz-adv-x="475" 
d="M368 568h-129l-151 129h158z" />
    <glyph glyph-name="onequarter" unicode="&#xbc;" horiz-adv-x="901" 
d="M553 697h148l-449 -697h-148zM682 91h-229v56c53 91 135 214 192 292h160v-239h57v-109h-57v-91h-123v91zM682 200v139c-35 -46 -70 -98 -93 -139h93zM263 270h-124v284l-96 -39l-33 105l253 103v-453z" />
    <glyph glyph-name="onesuperior" unicode="&#xb9;" horiz-adv-x="397" 
d="M285 270h-125v284l-95 -39l-34 105l254 103v-453z" />
    <glyph glyph-name="threequarters" unicode="&#xbe;" horiz-adv-x="901" 
d="M619 697h148l-449 -697h-147zM704 91h-229v56c53 91 135 214 192 292h160v-239h56v-109h-56v-91h-123v91zM704 200v139c-36 -46 -70 -98 -93 -139h93zM106 442v97h61c42 0 52 9 52 37c0 25 -11 33 -78 33c-34 0 -79 -5 -104 -13l-18 101c39 10 97 16 147 16
c129 0 191 -30 191 -114c0 -63 -22 -99 -100 -105c83 -4 110 -43 110 -113c0 -94 -73 -126 -201 -126c-46 0 -109 6 -150 15l19 103c25 -8 75 -13 106 -13c72 0 86 10 86 39c0 35 -14 43 -58 43h-63z" />
    <glyph glyph-name="threesuperior" unicode="&#xb3;" horiz-adv-x="447" 
d="M135 442v97h61c42 0 52 9 52 37c0 25 -11 33 -79 33c-34 0 -79 -5 -103 -13l-19 101c39 10 97 16 147 16c130 0 192 -30 192 -114c0 -63 -22 -99 -101 -105c83 -4 111 -43 111 -113c0 -94 -73 -126 -202 -126c-46 0 -108 6 -149 15l19 103c25 -8 75 -13 106 -13
c71 0 85 10 85 39c0 35 -14 43 -57 43h-63z" />
    <glyph glyph-name="twosuperior" unicode="&#xb2;" horiz-adv-x="454" 
d="M69 582l-20 110c35 12 98 21 153 21c123 0 189 -36 189 -139c0 -57 -19 -112 -79 -134c-80 -27 -120 -35 -125 -65h205v-107h-356c8 129 46 182 135 223c49 22 92 34 92 70c0 29 -17 38 -72 38c-39 0 -95 -9 -122 -17z" />
    <glyph glyph-name="infinity" unicode="&#x221e;" horiz-adv-x="774" 
d="M327 351c0 57 -21 81 -84 81c-64 0 -78 -23 -78 -81s14 -81 78 -81c63 0 84 24 84 81zM387 258c-11 -109 -72 -131 -172 -131c-132 0 -189 41 -189 224s57 224 189 224c100 0 161 -21 172 -131c11 110 72 131 172 131c132 0 189 -41 189 -223c0 -183 -57 -225 -189 -225
c-100 0 -161 22 -172 131zM447 351c0 -57 21 -81 84 -81c64 0 78 23 78 81c0 59 -14 81 -78 81c-63 0 -84 -24 -84 -81z" />
    <glyph glyph-name="product" unicode="&#x220f;" horiz-adv-x="748" 
d="M243 548v-548h-161v697h584v-697h-161v548h-262z" />
    <glyph glyph-name="pi" unicode="&#x3c0;" horiz-adv-x="654" 
d="M22 365v147h610v-147h-82v-365h-153v365h-143v-256c0 -84 -30 -132 -74 -161l-105 99c15 11 25 28 25 60v258h-78z" />
    <glyph glyph-name="integral" unicode="&#x222b;" horiz-adv-x="332" 
d="M398 583c-24 8 -67 14 -97 14c-48 0 -73 -14 -73 -69v-535c-2 -154 -109 -196 -214 -196c-17 0 -33 1 -49 3c-41 3 -81 10 -115 22c10 38 18 75 27 113c34 -11 74 -18 119 -18c4 0 7 0 11 2c43 3 67 26 67 74c0 181 1 363 1 545c0 23 3 44 8 60c20 104 99 129 187 129
c16 0 32 -2 48 -3c42 -4 83 -11 113 -22c-11 -39 -21 -79 -33 -119z" />
    <glyph glyph-name="ordfeminine" unicode="&#xaa;" horiz-adv-x="450" 
d="M390 578v-219c-49 -18 -123 -28 -176 -28c-119 0 -154 24 -154 120c0 102 55 118 141 118c26 0 54 -3 80 -8c0 50 -11 62 -80 62c-42 0 -81 -6 -111 -16l-17 88c41 10 101 19 154 19c107 0 163 -33 163 -136zM281 421v69c-15 4 -35 5 -56 5c-36 0 -52 -4 -52 -40
c0 -34 9 -44 50 -44c21 0 42 4 58 10z" />
    <glyph glyph-name="ordmasculine" unicode="&#xba;" horiz-adv-x="470" 
d="M234 316c-115 0 -181 51 -181 200s67 198 181 198c117 0 183 -49 183 -198s-66 -200 -183 -200zM234 622c-50 0 -66 -15 -66 -108c0 -88 16 -107 66 -107c51 0 67 19 67 107c0 93 -16 108 -67 108z" />
    <glyph glyph-name="Omega" unicode="&#x3a9;" horiz-adv-x="810" 
d="M7 0v147h146c-43 31 -83 137 -83 249c0 244 116 318 334 318s334 -74 334 -318c0 -112 -39 -217 -83 -249h147v-147h-339v139c88 22 104 104 104 255c0 147 -27 172 -163 172s-162 -25 -162 -172c0 -149 15 -232 102 -255v-139h-337z" />
    <glyph glyph-name="Omega" unicode="&#x2126;" horiz-adv-x="810" 
d="M7 0v147h146c-43 31 -83 137 -83 249c0 244 116 318 334 318s334 -74 334 -318c0 -112 -39 -217 -83 -249h147v-147h-339v139c88 22 104 104 104 255c0 147 -27 172 -163 172s-162 -25 -162 -172c0 -149 15 -232 102 -255v-139h-337z" />
    <glyph glyph-name="questiondown" unicode="&#xbf;" horiz-adv-x="506" 
d="M262 356c-70 0 -93 11 -93 81c0 76 23 88 93 88c68 0 91 -12 91 -88c0 -70 -23 -81 -91 -81zM187 296h154c-89 -104 -137 -171 -137 -278c0 -39 27 -65 110 -65c66 0 114 7 146 19l31 -142c-49 -14 -133 -25 -193 -25c-201 0 -279 65 -279 207c0 109 73 197 168 284z" />
    <glyph glyph-name="exclamdown" unicode="&#xa1;" horiz-adv-x="333" 
d="M259 -177h-183l36 461h111zM166 356c-70 0 -93 11 -93 81c0 76 23 89 93 89c68 0 91 -13 91 -89c0 -70 -23 -81 -91 -81z" />
    <glyph glyph-name="radical" unicode="&#x221a;" horiz-adv-x="597" 
d="M0 512h184c41 -109 80 -234 112 -356c41 117 142 423 171 541h153c-48 -163 -175 -534 -242 -697h-183c-35 124 -73 246 -113 359h-82v153z" />
    <glyph glyph-name="florin" unicode="&#x192;" horiz-adv-x="387" 
d="M309 528l-3 -17h165l-24 -131h-166l-73 -387c-25 -132 -136 -195 -238 -195c-56 0 -124 5 -169 24l47 113c29 -10 65 -18 101 -18c51 0 95 12 107 76l72 387h-91l25 131h90l5 27c27 137 120 188 232 188c50 0 117 -10 154 -24l-54 -119c-22 8 -64 14 -94 14
c-48 0 -77 -20 -86 -69z" />
    <glyph glyph-name="approxequal" unicode="&#x2248;" horiz-adv-x="563" 
d="M446 323l96 -77c-24 -64 -81 -122 -164 -122c-84 0 -142 84 -206 84c-24 0 -43 -12 -62 -57l-87 85c34 58 77 102 145 102c96 0 154 -82 213 -82c30 0 46 15 65 67zM446 549l96 -77c-24 -64 -81 -121 -164 -121c-84 0 -142 84 -206 84c-24 0 -43 -13 -62 -58l-87 85
c34 58 77 102 145 102c96 0 154 -81 213 -81c30 0 46 14 65 66z" />
    <glyph glyph-name="asciitilde" unicode="~" horiz-adv-x="563" 
d="M446 455l96 -77c-24 -64 -81 -121 -164 -121c-84 0 -142 83 -206 83c-24 0 -43 -12 -62 -57l-87 85c34 58 77 102 145 102c96 0 154 -81 213 -81c30 0 46 14 65 66z" />
    <glyph glyph-name="Delta" unicode="&#x394;" horiz-adv-x="653" 
d="M674 0h-705c58 195 170 501 251 697h206c65 -215 168 -515 248 -697zM312 523c-43 -108 -89 -249 -130 -382h259c-48 127 -97 273 -129 382z" />
    <glyph glyph-name="Delta" unicode="&#x2206;" horiz-adv-x="653" 
d="M674 0h-705c58 195 170 501 251 697h206c65 -215 168 -515 248 -697zM312 523c-43 -108 -89 -249 -130 -382h259c-48 127 -97 273 -129 382z" />
    <glyph glyph-name="lozenge" unicode="&#x25ca;" horiz-adv-x="648" 
d="M636 258c-64 -142 -131 -300 -180 -438h-249c-61 126 -134 290 -193 438c59 149 132 314 193 440h249c49 -138 116 -297 180 -440zM467 259c-32 82 -110 261 -131 325h-26c-28 -64 -104 -242 -136 -325c32 -83 108 -261 136 -325h26c21 64 99 243 131 325z" />
    <glyph glyph-name="dmacron" horiz-adv-x="596" 
d="M297 572v105h79v45h154v-45h50v-105h-50v-550c-56 -21 -152 -36 -232 -36c-174 0 -252 62 -252 272c0 206 90 268 217 268c50 0 84 -10 113 -22v68h-79zM376 127v235c0 22 -35 39 -80 39c-72 0 -95 -32 -95 -141c0 -124 24 -145 97 -145c26 0 59 4 78 12z" />
    <glyph glyph-name="Ldotaccent" horiz-adv-x="553" 
d="M82 697h161v-555h314v-142h-475v697zM375 484c52 0 68 -9 68 -64c0 -60 -16 -71 -68 -71s-69 11 -69 71c0 55 17 64 69 64z" />
    <glyph glyph-name="Scaron" unicode="&#x160;" horiz-adv-x="622" 
d="M571 681l-33 -138c-42 12 -114 23 -191 23c-104 0 -134 -20 -134 -68c0 -44 20 -60 141 -73c159 -18 230 -79 230 -212c0 -172 -92 -227 -309 -227c-84 0 -170 13 -226 33l33 138c45 -12 115 -23 191 -23c104 0 137 15 137 68c0 44 -19 65 -150 79
c-149 16 -219 65 -219 194c0 173 100 239 307 239c84 0 168 -13 223 -33zM259 876l67 -72l65 72h130l-122 -129h-147l-126 129h133z" />
    <glyph glyph-name="scaron" unicode="&#x161;" horiz-adv-x="484" 
d="M439 498l-30 -114c-40 11 -99 22 -151 22c-48 0 -72 -4 -72 -44c0 -27 14 -34 93 -44c119 -15 172 -51 172 -156c0 -139 -100 -176 -229 -176c-55 0 -135 11 -182 28l30 116c38 -11 95 -21 145 -21c60 0 88 5 88 45c0 28 -17 39 -102 47c-107 10 -164 41 -164 150
c0 139 99 175 227 175c55 0 127 -11 175 -28zM187 697c22 -24 44 -48 66 -71c21 23 42 47 64 71h130c-41 -43 -81 -86 -122 -129h-147l-126 129h135z" />
    <glyph glyph-name="st" horiz-adv-x="897" 
d="M562 173v207c-137 0 -252 26 -304 26c-48 0 -72 -4 -72 -44c0 -27 14 -34 93 -44c119 -15 172 -51 172 -156c0 -139 -100 -176 -229 -176c-55 0 -135 11 -182 28l30 116c38 -11 95 -21 145 -21c60 0 88 5 88 45c0 28 -17 39 -102 47c-107 10 -164 41 -164 150
c0 139 99 175 227 175c55 0 184 -14 298 -14v76l154 62v-138h160v-132h-160v-191c0 -52 17 -73 71 -73c32 0 56 6 80 14l25 -118c-39 -16 -97 -26 -152 -26c-113 0 -178 34 -178 187z" />
    <glyph glyph-name="nbspace" unicode="&#xa0;" horiz-adv-x="257" 
 />
    <glyph glyph-name="orn1" horiz-adv-x="626" 
d="M311 -125c-50 111 -271 30 -271 317c0 143 53 219 151 219c35 0 75 -9 120 -28c47 18 88 28 123 28c100 0 150 -74 150 -216c0 -288 -223 -208 -273 -320zM311 262c-28 15 -52 26 -70 26c-29 0 -45 -26 -45 -95c0 -147 83 -103 115 -163c32 60 117 14 117 164
c0 68 -14 93 -43 93c-19 0 -43 -10 -74 -25zM312 392c7 22 10 42 10 60c0 67 -43 104 -116 104h-206v124h626v-124h-247c8 -10 12 -25 12 -40c0 -42 -25 -96 -79 -124z" />
    <glyph glyph-name="orn2" horiz-adv-x="626" 
d="M315 -125c-49 112 -273 32 -273 320c0 142 50 216 150 216c35 0 77 -10 123 -28c46 19 85 28 120 28c99 0 151 -76 151 -219c0 -287 -220 -206 -271 -317zM314 392c-53 28 -78 82 -78 124c0 15 3 30 11 40h-247v124h626v-124h-206c-73 0 -115 -37 -115 -104
c0 -18 2 -38 9 -60z" />
    <glyph glyph-name="orn3" horiz-adv-x="626" 
d="M311 681c50 -112 273 -32 273 -320c0 -142 -50 -216 -150 -216c-35 0 -76 10 -123 28c-45 -19 -85 -29 -120 -29c-98 0 -151 77 -151 220c0 286 221 205 271 317zM311 294c31 -15 55 -26 74 -26c29 0 43 26 43 93c0 151 -85 104 -117 165c-32 -61 -115 -16 -115 -163
c0 -69 16 -95 45 -95c18 0 42 10 70 26zM312 163c54 -27 79 -81 79 -123c0 -15 -4 -30 -12 -40h247v-125h-626v125h206c73 0 116 37 116 104c0 18 -3 38 -10 59z" />
    <glyph glyph-name="orn4" horiz-adv-x="626" 
d="M315 681c51 -112 271 -31 271 -317c0 -143 -52 -220 -151 -220c-35 0 -74 10 -120 29c-46 -18 -88 -28 -123 -28c-100 0 -150 74 -150 216c0 288 224 208 273 320zM314 163c-7 -21 -9 -41 -9 -59c0 -67 42 -104 115 -104h206v-125h-626v125h247c-8 10 -11 25 -11 40
c0 42 25 96 78 123z" />
    <glyph glyph-name="orn5" horiz-adv-x="881" 
d="M12 280c112 50 31 271 317 271c143 0 220 -53 220 -151c0 -35 -10 -75 -29 -120c18 -47 28 -88 28 -123c0 -100 -74 -150 -216 -150c-288 0 -208 223 -320 273zM399 280c16 28 26 52 26 70c0 29 -26 45 -95 45c-147 0 -102 -83 -163 -115c61 -32 14 -117 165 -117
c67 0 93 14 93 43c0 19 -11 43 -26 74zM530 279c21 -7 41 -10 59 -10c67 0 104 43 104 116v206h125v-626h-125v247c-10 -8 -25 -12 -40 -12c-42 0 -96 25 -123 79z" />
    <glyph glyph-name="orn6" horiz-adv-x="881" 
d="M12 276c112 49 32 273 320 273c142 0 216 -50 216 -150c0 -35 -10 -77 -28 -123c19 -46 29 -85 29 -120c0 -99 -77 -151 -220 -151c-286 0 -205 220 -317 271zM530 277c27 53 81 78 123 78c15 0 30 -3 40 -11v247h125v-626h-125v206c0 73 -37 115 -104 115
c-18 0 -38 -2 -59 -9z" />
    <glyph glyph-name="orn7" horiz-adv-x="881" 
d="M869 280c-112 -49 -32 -273 -320 -273c-142 0 -216 50 -216 150c0 35 10 77 28 123c-19 46 -28 85 -28 120c0 99 76 151 219 151c287 0 206 -220 317 -271zM482 280c-15 -31 -25 -55 -25 -74c0 -29 25 -43 93 -43c150 0 104 86 164 117c-60 32 -16 116 -163 116
c-69 0 -95 -17 -95 -46c0 -18 11 -42 26 -70zM352 279c-28 -53 -82 -78 -124 -78c-15 0 -30 3 -40 11v-247h-124v626h124v-206c0 -73 37 -115 104 -115c18 0 38 2 60 9z" />
    <glyph glyph-name="orn8" horiz-adv-x="881" 
d="M869 276c-111 -50 -30 -271 -317 -271c-143 0 -219 53 -219 151c0 35 9 75 28 120c-18 47 -28 88 -28 123c0 100 74 150 216 150c288 0 208 -223 320 -273zM352 277c-22 7 -42 10 -60 10c-67 0 -104 -43 -104 -116v-206h-124v626h124v-247c10 8 25 12 40 12
c42 0 96 -25 124 -79z" />
    <glyph glyph-name="publish" horiz-adv-x="819" 
d="M767 356c0 -287 -127 -370 -358 -370s-357 83 -357 370c0 283 126 358 357 358s358 -75 358 -358zM478 403c0 31 -8 45 -34 45h-72v-89h71c26 0 35 13 35 44zM598 400c0 -92 -37 -145 -111 -145h-115v-107h-122v401h236c82 0 112 -57 112 -149zM409 604
c-172 0 -228 -28 -228 -248c0 -228 56 -262 228 -262c173 0 229 34 229 262c0 220 -56 248 -229 248z" />
    <glyph glyph-name="estimated" unicode="&#x212e;" horiz-adv-x="721" 
d="M681 285h-459c7 -129 53 -152 174 -152c44 0 137 10 171 21l31 -145c-54 -13 -137 -23 -202 -23c-224 0 -348 85 -348 370c0 283 119 358 320 358c214 0 314 -113 314 -385c0 -14 -1 -29 -1 -44zM368 566c-95 0 -137 -17 -145 -134h286c-7 115 -47 134 -141 134z" />
    <glyph glyph-name="zerob" horiz-adv-x="775" 
d="M387 609c-126 0 -192 -52 -192 -253c0 -204 66 -266 192 -266s192 62 192 266c0 201 -66 253 -192 253zM388 195c-66 0 -79 22 -79 161c0 135 13 150 79 150s78 -15 78 -150c0 -139 -12 -161 -78 -161zM388 714c223 0 339 -75 339 -358c0 -287 -116 -370 -339 -370
c-224 0 -339 83 -339 370c0 283 115 358 339 358z" />
    <glyph glyph-name="oneb" horiz-adv-x="775" 
d="M348 105h112v519l-253 -95l30 -95l111 45v-374zM388 714c223 0 339 -75 339 -358c0 -287 -116 -370 -339 -370c-224 0 -339 83 -339 370c0 283 115 358 339 358z" />
    <glyph glyph-name="twob" horiz-adv-x="775" 
d="M388 714c223 0 339 -75 339 -358c0 -287 -116 -370 -339 -370c-224 0 -339 83 -339 370c0 283 115 358 339 358zM208 587l24 -97c31 10 87 18 133 18c57 0 76 -12 76 -57c0 -67 -14 -81 -249 -256v-93h372v100h-216c185 124 215 157 215 260c0 121 -62 149 -187 149
c-63 0 -127 -10 -168 -24z" />
    <glyph glyph-name="threeb" horiz-adv-x="775" 
d="M304 408v-98h76c50 0 69 -12 69 -58c0 -44 -17 -57 -105 -57c-34 0 -92 5 -121 13l-21 -100c46 -10 117 -18 169 -18c145 0 202 37 202 144c0 77 -23 124 -116 128c88 7 105 50 105 118c0 95 -45 129 -191 129c-57 0 -122 -8 -167 -17l22 -100c28 8 84 14 118 14
c82 0 97 -12 97 -49c0 -40 -15 -49 -63 -49h-74zM388 714c223 0 339 -75 339 -358c0 -287 -116 -370 -339 -370c-224 0 -339 83 -339 370c0 283 115 358 339 358z" />
    <glyph glyph-name="fourb" horiz-adv-x="775" 
d="M158 219h246v-119h109v119h65v95h-65v283h-146c-63 -88 -155 -243 -209 -339v-39zM404 492v-178h-110c23 43 71 125 110 178zM388 714c223 0 339 -75 339 -358c0 -287 -116 -370 -339 -370c-224 0 -339 83 -339 370c0 283 115 358 339 358z" />
    <glyph glyph-name="fiveb" horiz-adv-x="775" 
d="M547 594h-321v-288c32 5 82 8 118 8c85 0 97 -12 97 -63c0 -49 -15 -58 -98 -58c-35 0 -92 5 -118 13l-22 -101c40 -10 119 -17 167 -17c144 0 195 38 195 167c0 113 -40 156 -182 156c-16 0 -33 -1 -50 -3v87h214v99zM388 714c223 0 339 -75 339 -358
c0 -287 -116 -370 -339 -370c-224 0 -339 83 -339 370c0 283 115 358 339 358z" />
    <glyph glyph-name="sixb" horiz-adv-x="775" 
d="M540 491l22 100c-38 11 -96 18 -142 18c-168 0 -226 -53 -226 -256c0 -202 51 -263 194 -263c142 0 191 38 191 168c0 112 -43 155 -185 155c-25 0 -54 -1 -77 -6c6 87 34 98 103 98c48 0 96 -6 120 -14zM461 253c0 -44 -14 -58 -73 -58c-50 0 -71 16 -73 117
c19 3 42 5 64 5c69 0 82 -16 82 -64zM388 714c223 0 339 -75 339 -358c0 -287 -116 -370 -339 -370c-224 0 -339 83 -339 370c0 283 115 358 339 358z" />
    <glyph glyph-name="sevenb" horiz-adv-x="775" 
d="M264 100h126c49 141 132 334 215 497h-399v-100h232c-52 -97 -127 -267 -174 -397zM388 714c223 0 339 -75 339 -358c0 -287 -116 -370 -339 -370c-224 0 -339 83 -339 370c0 283 115 358 339 358z" />
    <glyph glyph-name="eightb" horiz-adv-x="775" 
d="M388 184c-57 0 -73 14 -73 62c0 49 16 68 73 68c56 0 73 -19 73 -68c0 -48 -17 -62 -73 -62zM388 403c-48 0 -67 14 -67 58s18 54 67 54c47 0 66 -10 66 -54s-20 -58 -66 -58zM387 90h1c144 0 190 39 190 144c0 77 -21 124 -115 128c89 7 107 50 107 118
c0 90 -34 129 -183 129c-148 0 -182 -39 -182 -129c0 -68 17 -111 107 -118c-95 -4 -116 -51 -116 -128c0 -105 46 -144 191 -144zM388 714c223 0 339 -75 339 -358c0 -287 -116 -370 -339 -370c-224 0 -339 83 -339 370c0 283 115 358 339 358z" />
    <glyph glyph-name="nineb" horiz-adv-x="775" 
d="M383 289c13 0 30 1 46 2c-31 -59 -88 -126 -149 -189h139c94 95 164 199 164 338c0 132 -38 171 -194 171c-142 0 -190 -40 -190 -169c0 -113 42 -153 184 -153zM462 429c0 -13 -1 -27 -5 -41c-19 -2 -40 -3 -59 -3c-70 0 -81 10 -81 61c0 46 12 62 72 62
c58 0 73 -12 73 -79zM388 -14c-224 0 -340 83 -340 370c0 283 116 358 340 358c223 0 338 -75 338 -358c0 -287 -115 -370 -338 -370z" />
    <glyph glyph-name="apple" horiz-adv-x="904" 
d="M263 -14c-126 0 -217 62 -217 269c0 331 314 224 406 404c91 -180 405 -73 405 -404c0 -207 -91 -269 -217 -269c-50 0 -84 12 -113 23v-201h-151v201c-29 -11 -63 -23 -113 -23zM527 442v-292c0 -22 35 -38 80 -38c72 0 96 32 96 140c0 164 -103 124 -176 190zM376 150
v292c-73 -66 -175 -26 -175 -190c0 -108 23 -140 95 -140c45 0 80 16 80 38z" />
    <glyph glyph-name="perthousand" unicode="&#x2030;" horiz-adv-x="1427" 
d="M654 697h140l-446 -697h-139zM223 714c143 0 197 -47 197 -226c0 -182 -54 -236 -197 -236c-142 0 -196 54 -196 236c0 179 54 226 196 226zM223 359c51 0 63 17 63 128c0 108 -12 121 -63 121c-50 0 -63 -13 -63 -121c0 -111 13 -128 63 -128zM784 448
c143 0 197 -47 197 -227c0 -181 -54 -235 -197 -235s-196 54 -196 235c0 180 53 227 196 227zM784 93c51 0 62 17 62 128c0 107 -11 121 -62 121c-50 0 -63 -14 -63 -121c0 -111 13 -128 63 -128zM1203 448c143 0 197 -47 197 -227c0 -181 -54 -235 -197 -235
s-196 54 -196 235c0 180 53 227 196 227zM1203 93c51 0 62 17 62 128c0 107 -11 121 -62 121c-50 0 -63 -14 -63 -121c0 -111 13 -128 63 -128z" />
    <glyph glyph-name="sp" horiz-adv-x="1078" 
d="M548 -192v550c-107 28 -212 48 -290 48c-48 0 -72 -4 -72 -44c0 -27 14 -34 93 -44c119 -15 172 -51 172 -156c0 -139 -100 -176 -229 -176c-55 0 -135 11 -182 28l30 116c38 -11 95 -21 145 -21c60 0 88 5 88 45c0 28 -17 39 -102 47c-107 10 -164 41 -164 150
c0 139 99 175 227 175c85 0 197 -14 284 -36c55 21 152 36 232 36c174 0 251 -61 251 -270c0 -207 -90 -270 -217 -270c-50 0 -84 11 -112 23v-201h-154zM702 386v-235c0 -23 34 -39 79 -39c73 0 96 32 96 140c0 124 -24 146 -97 146c-27 0 -60 -5 -78 -12z" />
    <glyph glyph-name="at.2" horiz-adv-x="949" 
d="M691 441v-306c-64 -25 -164 -40 -234 -40c-160 0 -207 35 -207 169c0 144 74 166 186 166c37 0 76 -6 112 -13c0 71 -13 91 -113 91c-196 0 -240 -32 -240 -238c0 -213 52 -256 282 -256c240 0 288 61 288 256c0 60 -7 129 -20 163h129c12 -43 19 -107 19 -167
c0 -303 -109 -376 -415 -376c-299 0 -422 80 -422 376c0 295 139 366 396 366c169 0 239 -46 239 -191zM548 222v97c-23 5 -46 7 -76 7c-50 0 -73 -6 -73 -57c0 -48 14 -61 69 -61c29 0 58 5 80 14z" />
    <glyph glyph-name="at" unicode="@" horiz-adv-x="942" 
d="M433 508c-192 0 -247 -32 -247 -238c0 -213 55 -256 285 -256c231 0 289 59 289 293c0 70 -7 139 -20 173h133c12 -44 19 -107 19 -178c0 -316 -125 -412 -420 -412c-299 0 -422 80 -422 376c0 295 146 366 383 366c189 0 256 -44 256 -282c0 -222 -48 -255 -231 -255
c-159 0 -203 35 -203 169c0 137 46 166 183 166c40 0 86 -5 112 -10c-2 68 -21 88 -117 88zM473 326c-54 0 -73 -7 -73 -58c0 -49 14 -60 77 -60c53 0 73 13 73 69v44c-23 3 -56 5 -77 5z" />
    <glyph glyph-name="degree" unicode="&#xb0;" horiz-adv-x="448" 
d="M223 714c143 0 197 -47 197 -226c0 -182 -54 -236 -197 -236c-142 0 -196 54 -196 236c0 179 54 226 196 226zM223 359c51 0 63 17 63 128c0 108 -12 121 -63 121c-50 0 -63 -13 -63 -121c0 -111 13 -128 63 -128z" />
    <glyph glyph-name="slash" unicode="/" horiz-adv-x="487" 
d="M358 697h164l-357 -697h-163z" />
    <glyph glyph-name="ampersand" unicode="&#x26;" horiz-adv-x="815" 
d="M783 394c0 -88 -37 -172 -98 -241c34 -44 70 -95 112 -153h-185c-14 21 -28 42 -42 61c-78 -49 -156 -75 -256 -75c-204 0 -271 49 -271 195c0 109 58 170 191 176c-125 10 -146 69 -146 165c0 127 49 192 253 192c197 0 254 -51 254 -177c0 -97 -42 -154 -167 -164
c41 -3 94 -37 157 -107c20 37 32 80 32 128h166zM314 117c68 0 118 14 172 51c-66 85 -121 131 -168 131c-72 0 -103 -28 -103 -95c0 -66 21 -87 99 -87zM336 424c62 0 96 20 96 80c0 62 -27 76 -90 76c-65 0 -91 -14 -91 -75c0 -60 22 -81 85 -81z" />
    <glyph glyph-name="ampersand.2" horiz-adv-x="769" 
d="M645 294v-256c-84 -32 -209 -52 -315 -52c-175 0 -282 51 -282 201c0 109 33 174 165 180c-118 10 -142 68 -142 165c0 133 88 182 247 182c65 0 116 -10 174 -24l-43 -141c-36 12 -63 18 -105 18c-79 0 -100 -16 -100 -67c0 -53 21 -70 83 -70h163v74l155 62v-136h132
v-136h-132zM490 147v147h-174c-65 0 -92 -18 -92 -81c0 -61 26 -79 129 -79c44 0 101 5 137 13z" />
    <glyph glyph-name="afii10017" unicode="&#x410;" horiz-adv-x="689" 
d="M543 0c-17 41 -38 95 -59 154h-287c-18 -58 -33 -111 -45 -154h-172c58 195 167 501 247 697h249c66 -218 170 -515 245 -697h-178zM355 557h-26c-27 -73 -59 -167 -91 -264h200c-32 95 -62 190 -83 264z" />
    <glyph glyph-name="afii10019" unicode="&#x412;" horiz-adv-x="723" 
d="M243 137h195c34 0 51 23 51 77c0 57 -19 83 -55 83h-191v-160zM243 560v-132h190c31 0 45 18 45 66s-14 66 -45 66h-190zM502 367c133 -6 162 -70 162 -179c0 -140 -71 -188 -184 -188h-398v697h395c139 0 174 -58 174 -167c0 -97 -24 -153 -149 -163z" />
    <glyph glyph-name="afii10022" unicode="&#x415;" horiz-adv-x="626" 
d="M82 697h520v-141h-359v-125h257v-138h-257v-152h359v-141h-520v697z" />
    <glyph glyph-name="afii10028" unicode="&#x41a;" horiz-adv-x="687" 
d="M699 0h-191c-89 256 -155 313 -265 325v-325h-161v697h161v-334c56 62 157 190 246 334h192c-116 -180 -197 -284 -228 -313c74 -28 145 -81 246 -384z" />
    <glyph glyph-name="afii10030" unicode="&#x41c;" horiz-adv-x="939" 
d="M477 289c50 132 119 293 174 408h206v-697h-156v471c-53 -117 -126 -295 -172 -413h-128c-44 116 -113 301 -163 413v-471h-156v697h216c58 -116 127 -277 179 -408z" />
    <glyph glyph-name="afii10031" unicode="&#x41d;" horiz-adv-x="748" 
d="M243 294v-294h-161v697h161v-254h262v254h161v-697h-161v294h-262z" />
    <glyph glyph-name="afii10032" unicode="&#x41e;" horiz-adv-x="775" 
d="M388 714c223 0 339 -75 339 -358c0 -287 -116 -370 -339 -370c-224 0 -339 83 -339 370c0 283 115 358 339 358zM388 133c141 0 167 28 167 221c0 190 -26 212 -167 212s-167 -22 -167 -212c0 -193 26 -221 167 -221z" />
    <glyph glyph-name="afii10034" unicode="&#x420;" horiz-adv-x="684" 
d="M243 350h172c42 0 70 29 70 102c0 76 -24 107 -68 107h-174v-209zM243 0h-161v697h389c143 0 191 -102 191 -245c0 -126 -60 -235 -190 -235h-229v-217z" />
    <glyph glyph-name="afii10035" unicode="&#x421;" horiz-adv-x="588" 
d="M49 355c0 285 106 359 330 359c65 0 149 -10 202 -25l-31 -142c-34 12 -93 19 -137 19c-140 0 -192 -20 -192 -213c0 -192 52 -218 192 -218c44 0 103 8 137 19l31 -145c-54 -14 -137 -23 -202 -23c-224 0 -330 85 -330 369z" />
    <glyph glyph-name="afii10036" unicode="&#x422;" horiz-adv-x="629" 
d="M396 0h-162v556h-233v141h627v-141h-232v-556z" />
    <glyph glyph-name="afii10039" unicode="&#x425;" horiz-adv-x="688" 
d="M200 697c41 -54 93 -124 151 -202c52 73 101 147 134 202h201c-64 -98 -149 -221 -234 -342c95 -135 190 -271 246 -355h-203c-39 59 -89 133 -145 212c-58 -78 -112 -150 -161 -212h-201c56 70 160 211 261 352c-98 134 -198 268 -260 345h211z" />
    <glyph glyph-name="afii10049" unicode="&#x42f;" horiz-adv-x="722" 
d="M479 381v179h-181c-36 0 -59 -29 -59 -92c0 -62 26 -87 61 -87h179zM234 300c-132 7 -174 93 -174 193c0 115 48 204 191 204h389v-697h-161v249h-101c-75 0 -109 -35 -168 -249h-187c85 254 130 290 211 300z" />
    <glyph glyph-name="afii10026" unicode="&#x418;" horiz-adv-x="796" 
d="M714 697v-697h-159v459c-82 -155 -172 -313 -262 -459h-211v697h158v-478c96 157 191 319 277 478h197z" />
    <glyph glyph-name="afii10080" unicode="&#x43e;" horiz-adv-x="590" 
d="M294 -14c-165 0 -248 63 -248 273c0 209 85 267 248 267c166 0 250 -58 250 -267c0 -210 -83 -273 -250 -273zM294 406c-72 0 -93 -16 -93 -150c0 -129 21 -150 93 -150c73 0 94 21 94 150c0 134 -21 150 -94 150z" />
    <glyph glyph-name="afii10082" unicode="&#x440;" horiz-adv-x="596" 
d="M220 386v-235c0 -23 34 -39 79 -39c73 0 96 32 96 140c0 124 -24 146 -97 146c-27 0 -60 -5 -78 -12zM66 -192v682c55 21 152 36 232 36c174 0 251 -61 251 -270c0 -207 -90 -270 -217 -270c-50 0 -84 11 -112 23v-201h-154z" />
    <glyph glyph-name="afii10083" unicode="&#x441;" horiz-adv-x="472" 
d="M430 141l32 -129c-41 -17 -110 -26 -161 -26c-153 0 -255 63 -255 273c0 208 103 267 255 267c53 0 121 -8 161 -22l-32 -130c-29 11 -74 21 -116 21c-75 0 -113 -13 -113 -139c0 -120 38 -138 113 -138c44 0 87 11 116 23z" />
    <glyph glyph-name="afii10085" unicode="&#x443;" horiz-adv-x="512" 
d="M165 -25c-50 181 -116 377 -176 536h155c41 -107 80 -234 112 -356c41 117 81 239 109 356h153c-51 -177 -119 -366 -195 -542c-23 -54 -48 -112 -73 -161h-169c28 48 59 112 84 167z" />
    <glyph glyph-name="afii10087" unicode="&#x445;" horiz-adv-x="520" 
d="M529 0h-169c-22 38 -55 87 -92 140c-42 -57 -79 -106 -107 -140h-167c45 53 121 154 195 255c-71 100 -145 198 -193 256h176c27 -33 63 -83 100 -135c38 53 68 102 89 135h167c-40 -62 -107 -158 -174 -252c66 -94 132 -191 175 -259z" />
    <glyph glyph-name="afii10054" unicode="&#x405;" horiz-adv-x="622" 
d="M571 681l-33 -138c-42 12 -114 23 -191 23c-104 0 -134 -20 -134 -68c0 -44 20 -60 141 -73c159 -18 230 -79 230 -212c0 -172 -92 -227 -309 -227c-84 0 -170 13 -226 33l33 138c45 -12 115 -23 191 -23c104 0 137 15 137 68c0 44 -19 65 -150 79
c-149 16 -219 65 -219 194c0 173 100 239 307 239c84 0 168 -13 223 -33z" />
    <glyph glyph-name="afii10018" unicode="&#x411;" horiz-adv-x="723" 
d="M243 137h195c34 0 51 23 51 77c0 57 -19 83 -55 83h-191v-160zM613 697v-141h-370v-128h234c122 0 187 -72 187 -215c0 -165 -71 -213 -184 -213h-398v697h531z" />
    <glyph glyph-name="afii10020" unicode="&#x413;" horiz-adv-x="550" 
d="M243 0h-161v697h490v-141h-329v-556z" />
    <glyph glyph-name="afii10024" unicode="&#x416;" horiz-adv-x="1007" 
d="M178 0h-190c97 303 162 356 233 384c-30 29 -104 133 -215 313h190c83 -142 174 -268 227 -331v331h161v-331c52 62 143 189 227 331h190c-111 -180 -185 -284 -215 -313c71 -28 136 -81 233 -384h-190c-84 255 -142 314 -245 325v-325h-161v325
c-104 -11 -162 -70 -245 -325z" />
    <glyph glyph-name="afii10025" unicode="&#x417;" horiz-adv-x="645" 
d="M186 293v138h117c68 0 95 13 95 69c0 51 -28 67 -145 67c-48 0 -137 -7 -176 -19l-30 141c63 14 164 25 244 25c207 0 279 -48 279 -181c0 -97 -24 -156 -149 -166c132 -6 164 -71 164 -180c0 -150 -91 -201 -294 -201c-73 0 -183 10 -247 24l30 143
c40 -12 131 -19 179 -19c122 0 156 18 156 79c0 63 -34 80 -102 80h-121z" />
    <glyph glyph-name="afii10033" unicode="&#x41f;" horiz-adv-x="748" 
d="M243 556v-556h-161v697h584v-697h-161v556h-262z" />
    <glyph glyph-name="afii10029" unicode="&#x41b;" horiz-adv-x="736" 
d="M493 556h-178c-16 -171 -52 -364 -119 -556h-171c68 207 130 443 141 697h488v-697h-161v556z" />
    <glyph glyph-name="afii10021" unicode="&#x414;" horiz-adv-x="822" 
d="M699 697v-549h123l-22 -302h-143v154h-484v-154h-144l-22 302h112c53 164 89 344 98 549h482zM539 148v408h-174c-12 -133 -32 -273 -72 -408h246z" />
    <glyph glyph-name="afii10055" unicode="&#x406;" horiz-adv-x="325" 
d="M82 697h161v-697h-161v697z" />
    <glyph glyph-name="afii10105" unicode="&#x458;" horiz-adv-x="284" 
d="M143 734c65 0 87 -10 87 -73c0 -69 -22 -81 -87 -81c-66 0 -87 12 -87 81c0 63 21 73 87 73zM220 512v-514c0 -152 -70 -201 -232 -201v124c52 0 78 21 78 73v518h154z" />
    <glyph glyph-name="afii10027" unicode="&#x419;" horiz-adv-x="796" 
d="M714 697v-697h-159v459c-82 -155 -172 -313 -262 -459h-211v697h158v-478c96 157 191 319 277 478h197zM238 871h101c0 -43 20 -52 60 -52c39 0 60 9 60 52h94c0 -98 -57 -143 -158 -143c-98 0 -157 45 -157 143z" />
    <glyph glyph-name="afii10037" unicode="&#x423;" horiz-adv-x="641" 
d="M331 358c55 114 111 244 144 339h187c-91 -232 -233 -511 -345 -697h-205c36 48 85 123 117 180c-49 130 -165 379 -249 517h194c51 -91 113 -223 157 -339z" />
    <glyph glyph-name="afii10038" unicode="&#x424;" horiz-adv-x="829" 
d="M327 697h161v-80c235 -12 303 -88 303 -267c0 -180 -69 -255 -303 -267v-83h-161v82c-232 12 -293 88 -293 268s61 255 293 267v80zM625 350c0 100 -16 132 -137 135v-272c121 4 137 37 137 137zM197 350c0 -98 18 -132 130 -137v272c-112 -4 -130 -36 -130 -135z" />
    <glyph glyph-name="afii10040" unicode="&#x426;" horiz-adv-x="788" 
d="M243 697v-549h262v549h161v-549h122l-22 -302h-143v154h-541v697h161z" />
    <glyph glyph-name="afii10043" unicode="&#x429;" horiz-adv-x="1050" 
d="M243 697v-549h181v549h162v-549h181v549h160v-549h123l-23 -302h-142v154h-803v697h161z" />
    <glyph glyph-name="afii10042" unicode="&#x428;" horiz-adv-x="1009" 
d="M927 697v-697h-845v697h161v-549h181v549h162v-549h181v549h160z" />
    <glyph glyph-name="afii10046" unicode="&#x42c;" horiz-adv-x="700" 
d="M243 137h182c43 0 64 30 64 100c0 72 -26 99 -66 99h-180v-199zM82 697h161v-225h234c131 0 188 -106 188 -235c0 -146 -53 -237 -185 -237h-398v697z" />
    <glyph glyph-name="afii10045" unicode="&#x42b;" horiz-adv-x="969" 
d="M243 137h182c43 0 64 30 64 100c0 72 -26 99 -66 99h-180v-199zM82 697h161v-225h234c131 0 188 -106 188 -235c0 -146 -53 -237 -185 -237h-398v697zM725 697h162v-697h-162v697z" />
    <glyph glyph-name="afii10044" unicode="&#x42a;" horiz-adv-x="742" 
d="M18 697h267v-225h234c131 0 188 -106 188 -235c0 -28 -2 -54 -8 -77c-15 -102 -71 -160 -177 -160h-398v556h-106v141zM285 137h182c43 0 64 30 64 100c0 72 -26 99 -66 99h-180v-199z" />
    <glyph glyph-name="afii10048" unicode="&#x42e;" horiz-adv-x="989" 
d="M659 714c177 0 281 -74 281 -356c0 -287 -104 -372 -281 -372c-162 0 -269 72 -282 308h-134v-294h-161v697h161v-254h135c19 212 124 271 281 271zM660 134c91 0 112 30 112 224c0 189 -21 210 -112 210s-116 -21 -116 -210c0 -194 25 -224 116 -224z" />
    <glyph glyph-name="afii10047" unicode="&#x42d;" horiz-adv-x="620" 
d="M395 293h-275v138h273c-14 120 -77 135 -194 135c-44 0 -111 -8 -144 -19c-11 47 -21 94 -32 142c54 14 145 25 210 25c224 0 338 -74 338 -359c0 -284 -114 -369 -338 -369c-65 0 -156 10 -210 23c11 48 21 97 32 145c33 -11 100 -19 144 -19c122 0 185 21 196 158z" />
    <glyph glyph-name="afii10041" unicode="&#x427;" horiz-adv-x="701" 
d="M457 398v299h161v-697h-161v214c-33 -16 -99 -28 -169 -28c-140 0 -251 47 -251 252v259h162v-253c0 -86 30 -107 127 -107c87 0 131 21 131 61z" />
    <glyph glyph-name="afii10103" unicode="&#x456;" horiz-adv-x="284" 
d="M220 512v-512h-154v512h154zM143 734c65 0 87 -10 87 -73c0 -69 -22 -81 -87 -81c-66 0 -87 12 -87 81c0 63 21 73 87 73z" />
    <glyph glyph-name="afii10053" unicode="&#x404;" horiz-adv-x="620" 
d="M499 293h-274c11 -137 73 -158 195 -158c44 0 111 8 145 19c10 -48 21 -97 31 -145c-54 -13 -145 -23 -210 -23c-223 0 -338 85 -338 369c0 285 115 359 338 359c65 0 157 -11 210 -25c-10 -48 -21 -95 -31 -142c-34 11 -101 19 -145 19c-117 0 -179 -15 -194 -135h273
v-138z" />
    <glyph glyph-name="afii10052" unicode="&#x403;" horiz-adv-x="553" 
d="M243 0h-161v697h490v-141h-329v-556zM354 747h-129l126 129h160z" />
    <glyph glyph-name="afii10051" unicode="&#x402;" horiz-adv-x="767" 
d="M628 556h-232v-122c36 17 90 32 136 32c120 0 190 -41 190 -283c0 -229 -74 -331 -148 -372l-115 102c58 35 100 85 100 264c0 136 -24 153 -87 153c-38 0 -74 -10 -76 -30v-300h-162v556h-233v141h627v-141z" />
    <glyph glyph-name="afii10099" unicode="&#x452;" horiz-adv-x="591" 
d="M220 574v-97c36 18 89 32 136 32c120 0 189 -49 189 -290c0 -230 -74 -367 -147 -408l-115 102c58 35 100 120 100 300c0 135 -24 152 -87 152c-39 0 -74 -10 -76 -29v-336h-154v574h-45v104h45v44h154v-44h92v-104h-92z" />
    <glyph glyph-name="afii10057" unicode="&#x408;" horiz-adv-x="472" 
d="M394 697v-505c0 -162 -112 -206 -222 -206c-63 0 -122 10 -169 26l27 144c34 -12 76 -20 123 -20c48 0 78 22 78 82v479h163z" />
    <glyph glyph-name="afii10101" unicode="&#x454;" horiz-adv-x="480" 
d="M430 129l31 -117c-41 -17 -109 -26 -160 -26c-146 0 -255 63 -255 273c0 208 109 267 253 267c54 0 122 -8 162 -22l-31 -120c-29 10 -77 17 -119 17c-54 0 -93 -12 -105 -77h186v-114h-188c9 -80 48 -98 107 -98c44 0 90 6 119 17z" />
    <glyph glyph-name="afii10056" unicode="&#x407;" horiz-adv-x="325" 
d="M82 697h161v-697h-161v697zM50 872c52 0 69 -8 69 -63c0 -61 -17 -71 -69 -71s-68 10 -68 71c0 55 16 63 68 63zM276 872c51 0 68 -8 68 -63c0 -61 -17 -71 -68 -71c-53 0 -69 10 -69 71c0 55 16 63 69 63z" />
    <glyph glyph-name="afii10104" unicode="&#x457;" horiz-adv-x="284" 
d="M220 512v-512h-154v512h154zM30 694c52 0 69 -9 69 -64c0 -60 -17 -71 -69 -71c-51 0 -68 11 -68 71c0 55 17 64 68 64zM256 694c51 0 68 -9 68 -64c0 -60 -17 -71 -68 -71c-53 0 -69 11 -69 71c0 55 16 64 69 64z" />
    <glyph glyph-name="afii10058" unicode="&#x409;" horiz-adv-x="1091" 
d="M483 548h-168c-16 -170 -52 -356 -119 -548h-171c68 207 130 443 141 697h478v-227h224c131 0 188 -103 188 -233c0 -145 -53 -237 -185 -237h-388v548zM814 339h-170v-202h172c43 0 64 30 64 101c0 72 -26 101 -66 101z" />
    <glyph glyph-name="afii10059" unicode="&#x40a;" horiz-adv-x="1103" 
d="M243 328v-328h-161v697h161v-233h252v233h161v-233h224c131 0 188 -102 188 -231c0 -146 -53 -233 -185 -233h-388v328h-252zM826 328h-170v-191h172c43 0 64 26 64 96c0 72 -26 95 -66 95z" />
    <glyph glyph-name="afii10071" unicode="&#x451;" horiz-adv-x="556" 
d="M459 131l23 -117c-51 -17 -127 -28 -185 -28c-144 0 -251 63 -251 273c0 206 94 267 241 267c170 0 244 -52 230 -315h-313c2 -82 39 -97 113 -97c37 0 104 7 142 17zM298 410c-64 0 -84 -21 -93 -86h178c-2 71 -25 86 -85 86zM176 694c52 0 69 -9 69 -64
c0 -60 -17 -71 -69 -71c-51 0 -68 11 -68 71c0 55 17 64 68 64zM402 694c51 0 68 -9 68 -64c0 -60 -17 -71 -68 -71c-53 0 -69 11 -69 71c0 55 16 64 69 64z" />
    <glyph glyph-name="afii10023" unicode="&#x401;" horiz-adv-x="626" 
d="M82 697h520v-141h-359v-125h257v-138h-257v-152h359v-141h-520v697zM224 872c52 0 69 -8 69 -63c0 -61 -17 -71 -69 -71s-68 10 -68 71c0 55 16 63 68 63zM450 872c51 0 68 -8 68 -63c0 -61 -17 -71 -68 -71c-53 0 -69 10 -69 71c0 55 16 63 69 63z" />
    <glyph glyph-name="afii10076" unicode="&#x43a;" horiz-adv-x="588" 
d="M584 0h-176c-74 173 -126 215 -188 231v-231h-154v512h154v-246c37 46 104 139 177 246h177c-87 -133 -152 -214 -177 -235c50 -20 96 -57 187 -277z" />
    <glyph glyph-name="afii10066" unicode="&#x431;" horiz-adv-x="580" 
d="M204 246c0 -115 25 -138 83 -138c68 0 92 11 92 139c0 106 -21 127 -89 127c-72 0 -86 -27 -86 -128zM204 449c27 36 73 54 126 54c128 0 205 -48 205 -253c0 -206 -79 -264 -253 -264c-145 0 -233 49 -233 315c0 338 69 388 261 402c78 6 143 16 198 37v-132
c-43 -19 -105 -27 -188 -34c-89 -7 -106 -47 -116 -125z" />
    <glyph glyph-name="afii10067" unicode="&#x432;" horiz-adv-x="594" 
d="M220 114h128c28 0 42 10 42 45c0 38 -16 50 -46 50h-124v-95zM220 398v-82h123c26 0 38 11 38 41c0 32 -12 41 -38 41h-123zM416 269c108 -4 133 -51 133 -131c0 -103 -59 -138 -154 -138h-329v512h326c117 0 147 -43 147 -123c0 -72 -21 -113 -123 -120z" />
    <glyph glyph-name="afii10072" unicode="&#x436;" horiz-adv-x="860" 
d="M178 0h-174c85 220 136 256 183 277c-23 21 -93 102 -174 235h175c65 -104 128 -195 165 -243v243h154v-243c36 48 100 139 164 243h175c-80 -133 -151 -214 -174 -235c47 -21 99 -57 184 -277h-174c-69 164 -123 215 -175 231v-231h-154v231c-52 -16 -107 -67 -175 -231
z" />
    <glyph glyph-name="afii10073" unicode="&#x437;" horiz-adv-x="525" 
d="M153 210v111h80c58 0 77 8 77 37s-15 40 -86 40c-69 0 -122 -10 -165 -23l-29 131c57 12 113 20 197 20c190 0 244 -30 244 -134c0 -75 -24 -116 -120 -123c100 -5 132 -53 132 -134c0 -117 -68 -149 -256 -149c-80 0 -142 8 -200 19l30 136c38 -14 105 -26 166 -26
c80 0 97 12 97 49s-27 46 -87 46h-80z" />
    <glyph glyph-name="afii10086" unicode="&#x444;" horiz-adv-x="836" 
d="M341 520v196h154v-196c19 5 39 6 63 6c169 0 232 -61 232 -270c0 -207 -76 -270 -197 -270c-45 0 -75 11 -98 23v-201h-154v201c-22 -12 -52 -23 -98 -23c-121 0 -197 63 -197 270c0 209 63 270 232 270c24 0 44 -1 63 -6zM276 112c42 0 65 16 65 37v240
c-18 6 -37 9 -63 9c-61 0 -85 -22 -85 -146c0 -108 27 -140 83 -140zM560 112c57 0 83 32 83 140c0 124 -24 146 -85 146c-26 0 -44 -3 -63 -9v-241c1 -21 24 -36 65 -36z" />
    <glyph glyph-name="afii10094" unicode="&#x44c;" horiz-adv-x="593" 
d="M346 108c28 0 44 19 44 57c0 40 -17 56 -47 56h-124v-113h127zM219 336h171c101 0 159 -59 159 -169c0 -125 -58 -167 -159 -167h-324v511h153v-175z" />
    <glyph glyph-name="afii10095" unicode="&#x44d;" horiz-adv-x="480" 
d="M19 12l31 117c29 -11 75 -17 119 -17c59 0 98 18 107 98h-188v114h186c-12 65 -51 77 -105 77c-42 0 -90 -7 -119 -17l-31 120c40 14 108 22 162 22c144 0 253 -59 253 -267c0 -210 -108 -273 -253 -273c-52 0 -121 9 -162 26z" />
    <glyph glyph-name="afii10068" unicode="&#x433;" horiz-adv-x="437" 
d="M220 380v-380h-154v512h370v-132h-216z" />
    <glyph glyph-name="afii10100" unicode="&#x453;" horiz-adv-x="437" 
d="M220 380v-380h-154v512h370v-132h-216zM281 568h-130l123 129h157z" />
    <glyph glyph-name="afii10062" unicode="&#x40e;" horiz-adv-x="627" 
d="M229 180c-7 16 -14 35 -23 56c-55 133 -153 340 -226 461h194c51 -91 112 -223 156 -340c56 115 112 244 145 340h186c-91 -232 -232 -512 -344 -697h-205c36 47 85 123 117 180zM172 871h101c0 -43 20 -52 60 -52c4 0 8 0 11 1c32 2 49 13 49 51h94
c0 -99 -57 -143 -158 -143c-98 0 -157 44 -157 143z" />
    <glyph glyph-name="afii10110" unicode="&#x45e;" horiz-adv-x="512" 
d="M165 -25c-50 181 -116 377 -176 536h155c41 -107 80 -234 112 -356c41 117 81 239 109 356h153c-51 -177 -119 -366 -195 -542c-23 -54 -48 -112 -73 -161h-169c28 48 59 112 84 167zM97 698h101c0 -43 20 -52 60 -52c39 0 60 9 60 52h94c0 -98 -57 -143 -158 -143
c-98 0 -157 45 -157 143z" />
    <glyph glyph-name="afii10061" unicode="&#x40c;" horiz-adv-x="687" 
d="M699 0h-191c-89 256 -155 313 -265 325v-325h-161v697h161v-334c56 62 157 190 246 334h192c-116 -180 -197 -284 -228 -313c74 -28 145 -81 246 -384zM410 747h-130l127 129h159z" />
    <glyph glyph-name="afii10109" unicode="&#x45c;" horiz-adv-x="588" 
d="M584 0h-176c-74 173 -126 215 -188 231v-231h-154v512h154v-246c37 46 104 139 177 246h177c-87 -133 -152 -214 -177 -235c50 -20 96 -57 187 -277zM349 568h-130l123 129h157z" />
    <glyph glyph-name="afii10108" unicode="&#x45b;" horiz-adv-x="597" 
d="M21 574v104h45v44h154v-44h92v-104h-92v-80c36 17 89 32 136 32c110 0 181 -35 181 -228v-298h-154v288c0 86 -36 102 -87 102c-40 0 -76 -11 -76 -32v-358h-154v574h-45z" />
    <glyph glyph-name="afii10084" unicode="&#x442;" horiz-adv-x="487" 
d="M320 380v-380h-153v380h-165v132h482v-132h-164z" />
    <glyph glyph-name="afii10093" unicode="&#x44b;" horiz-adv-x="814" 
d="M346 108c28 0 44 18 44 57s-17 56 -47 56h-124v-113h127zM219 336h171c101 0 159 -59 159 -169c0 -125 -58 -167 -159 -167h-324v511h153v-175zM748 511v-511h-154v511h154z" />
    <glyph glyph-name="afii10092" unicode="&#x44a;" horiz-adv-x="620" 
d="M247 336h171c100 0 158 -59 158 -169c0 -124 -58 -167 -158 -167h-325v380h-86v132h240v-176zM247 109h126c29 0 44 18 44 57s-17 55 -47 55h-123v-112z" />
    <glyph glyph-name="afii10079" unicode="&#x43d;" horiz-adv-x="603" 
d="M383 201h-164v-201h-153v511h153v-179h164v179h153v-511h-153v201z" />
    <glyph glyph-name="afii10081" unicode="&#x43f;" horiz-adv-x="603" 
d="M220 380v-380h-154v512h471v-512h-154v380h-163z" />
    <glyph glyph-name="afii10074" unicode="&#x438;" horiz-adv-x="613" 
d="M393 0v268c-52 -97 -114 -190 -174 -268h-153v511h153v-280c56 68 126 190 174 280h153v-511h-153z" />
    <glyph glyph-name="afii10075" unicode="&#x439;" horiz-adv-x="613" 
d="M393 0v268c-52 -97 -114 -190 -174 -268h-153v511h153v-280c56 68 126 190 174 280h153v-511h-153zM147 697h100c0 -43 20 -52 61 -52c4 0 8 0 11 1c31 2 48 13 48 51h94c0 -99 -56 -143 -157 -143c-99 0 -157 44 -157 143z" />
    <glyph glyph-name="afii10077" unicode="&#x43b;" horiz-adv-x="595" 
d="M376 380h-118c-9 -131 -35 -272 -68 -380h-161c43 147 73 338 84 512h416v-512h-153v380z" />
    <glyph glyph-name="afii10069" unicode="&#x434;" horiz-adv-x="683" 
d="M163 512h416v-380h101l-34 -280h-125v148h-359v-148h-126l-34 280h96c33 126 58 257 65 380zM426 380h-124c-5 -71 -21 -161 -44 -248h168v248z" />
    <glyph glyph-name="afii10088" unicode="&#x446;" horiz-adv-x="663" 
d="M537 132h124l-35 -280h-125v148h-435v512h154v-380h163v380h154v-380z" />
    <glyph glyph-name="afii10078" unicode="&#x43c;" horiz-adv-x="788" 
d="M401 245c37 96 73 183 113 267h207v-512h-151v333c-39 -85 -93 -219 -124 -306h-110c-29 85 -81 224 -118 306v-333h-152v512h216c43 -85 79 -172 119 -267z" />
    <glyph glyph-name="afii10060" unicode="&#x40b;" horiz-adv-x="774" 
d="M713 238v-238h-154v228c0 86 -36 102 -87 102c-38 0 -74 -10 -76 -30v-300h-162v556h-233v141h627v-141h-232v-122c36 17 90 32 136 32c110 0 181 -35 181 -228z" />
    <glyph glyph-name="afii10145" unicode="&#x40f;" horiz-adv-x="748" 
d="M666 0h-217l-21 -190h-105l-21 190h-219v697h161v-549h262v549h160v-697z" />
    <glyph glyph-name="afii10193" unicode="&#x45f;" horiz-adv-x="603" 
d="M220 512v-380h163v380h154v-512h-160l-21 -185h-106l-21 185h-163v512h154z" />
    <glyph glyph-name="afii61352" unicode="&#x2116;" horiz-adv-x="1212" 
d="M714 697v-697h-200c-86 159 -179 319 -274 476v-476h-158v697h210c90 -147 179 -303 262 -459v459h160zM793 92v117h353v-117h-353zM969 714c145 0 198 -46 198 -219c0 -175 -53 -227 -198 -227c-146 0 -198 52 -198 227c0 173 53 219 198 219zM969 375
c53 0 64 15 64 120c0 102 -11 113 -64 113c-54 0 -65 -11 -65 -113c0 -105 11 -120 65 -120z" />
    <glyph glyph-name="afii10106" unicode="&#x459;" horiz-adv-x="903" 
d="M376 380h-118c-9 -131 -35 -272 -68 -380h-161c43 147 73 338 84 512h416v-176h171c100 0 159 -59 159 -169c0 -124 -59 -167 -159 -167h-324v380zM529 109h127c28 0 44 18 44 57s-17 55 -47 55h-124v-112z" />
    <glyph glyph-name="afii10107" unicode="&#x45a;" horiz-adv-x="910" 
d="M537 336h171c100 0 158 -59 158 -169c0 -124 -58 -167 -158 -167h-325v221h-163v-221h-154v512h154v-176h163v176h154v-176zM537 109h126c29 0 44 19 44 57c0 40 -17 55 -47 55h-123v-112z" />
    <glyph glyph-name="afii10096" unicode="&#x44e;" horiz-adv-x="869" 
d="M575 -14c-146 0 -228 51 -243 215h-112v-201h-154v512h154v-180h113c19 150 102 194 242 194c164 0 248 -58 248 -267c0 -210 -83 -273 -248 -273zM575 406c-70 0 -91 -16 -91 -150c0 -129 21 -150 91 -150c71 0 92 21 92 150c0 134 -21 150 -92 150z" />
    <glyph glyph-name="afii10097" unicode="&#x44f;" horiz-adv-x="615" 
d="M395 284v107h-124c-30 0 -47 -14 -47 -53s19 -54 48 -54h123zM202 217c-109 6 -144 71 -144 145c0 84 42 150 163 150h328v-512h-154v166h-68c-60 0 -87 -28 -132 -166h-175c63 169 100 206 182 217z" />
    <glyph glyph-name="afii10089" unicode="&#x447;" horiz-adv-x="571" 
d="M34 377v135h154v-125c0 -86 36 -102 87 -102c40 0 76 11 76 32v195h154v-512h-154v181c-36 -17 -90 -32 -136 -32c-110 0 -181 35 -181 228z" />
    <glyph glyph-name="afii10091" unicode="&#x449;" horiz-adv-x="954" 
d="M791 -147v147h-725v511h153v-379h151v379h153v-379h150v379h154v-379h124l-35 -279h-125z" />
    <glyph glyph-name="afii10090" unicode="&#x448;" horiz-adv-x="893" 
d="M827 512v-512h-761v512h154v-380h150v380h153v-380h151v380h153z" />
    <glyph glyph-name="afii10065" unicode="&#x430;" horiz-adv-x="569" 
d="M508 327v-301c-69 -25 -168 -40 -243 -40c-169 0 -219 36 -219 170c0 144 78 167 200 167c38 0 77 -5 116 -13c0 71 -16 88 -116 88c-59 0 -116 -8 -159 -21l-24 122c59 15 144 27 220 27c153 0 225 -47 225 -199zM362 114v97c-23 6 -52 7 -83 7c-55 0 -75 -6 -75 -57
c0 -52 13 -61 73 -61c29 0 61 5 85 14z" />
    <glyph glyph-name="afii10070" unicode="&#x435;" horiz-adv-x="556" 
d="M459 131l23 -117c-51 -17 -127 -28 -185 -28c-144 0 -251 63 -251 273c0 206 94 267 241 267c170 0 244 -52 230 -315h-313c2 -82 39 -97 113 -97c37 0 104 7 142 17zM298 410c-64 0 -84 -21 -93 -86h178c-2 71 -25 86 -85 86z" />
    <glyph glyph-name="afii10050" unicode="&#x490;" horiz-adv-x="550" 
d="M82 0v697h347l37 185h106v-326h-329v-556h-161z" />
    <glyph glyph-name="afii10098" unicode="&#x491;" horiz-adv-x="437" 
d="M436 379h-217v-379h-153v511h243l36 174h91v-306z" />
    <glyph glyph-name="Asmall" unicode="&#xf761;" horiz-adv-x="577" 
d="M423 0c-13 28 -27 67 -41 108h-203c-12 -40 -23 -78 -31 -108h-156c41 143 123 368 181 511h231c47 -159 121 -377 177 -511h-158zM292 391h-20c-19 -49 -39 -109 -59 -172h131c-22 67 -38 123 -52 172z" />
    <glyph glyph-name="AEsmall" unicode="&#xf7e6;" horiz-adv-x="832" 
d="M732 320v-115h-193v-84h259v-121h-412v112h-218c-27 -42 -50 -81 -69 -112h-162c88 143 245 368 351 511h510v-121h-259v-70h193zM362 403c-36 -50 -81 -116 -122 -180h146v180h-24z" />
    <glyph glyph-name="Abrevesmall" horiz-adv-x="577" 
d="M423 0c-13 28 -27 67 -41 108h-203c-12 -40 -23 -78 -31 -108h-156c41 143 123 368 181 511h231c47 -159 121 -377 177 -511h-158zM292 391h-20c-19 -49 -39 -109 -59 -172h131c-22 67 -38 123 -52 172zM125 697h101c0 -43 20 -52 60 -52c39 0 60 9 60 52h94
c0 -98 -57 -143 -158 -143c-98 0 -157 45 -157 143z" />
    <glyph glyph-name="Amacronsmall" horiz-adv-x="577" 
d="M423 0c-13 28 -27 67 -41 108h-203c-12 -40 -23 -78 -31 -108h-156c41 143 123 368 181 511h231c47 -159 121 -377 177 -511h-158zM292 391h-20c-19 -49 -39 -109 -59 -172h131c-22 67 -38 123 -52 172zM135 572v106h292v-106h-292z" />
    <glyph glyph-name="Aogoneksmall" horiz-adv-x="577" 
d="M423 0c-13 28 -27 67 -41 108h-203c-12 -40 -23 -78 -31 -108h-156c41 143 123 368 181 511h231c47 -159 121 -377 177 -511h-158zM292 391h-20c-19 -49 -39 -109 -59 -172h131c-22 67 -38 123 -52 172zM489 12h43c-66 -40 -80 -62 -80 -98c0 -26 11 -38 57 -38
c30 0 60 11 78 26l39 -70c-34 -24 -90 -35 -134 -35c-105 0 -135 30 -135 89c0 53 42 102 132 126z" />
    <glyph glyph-name="Aacutesmall" unicode="&#xf7e1;" horiz-adv-x="577" 
d="M423 0c-13 28 -27 67 -41 108h-203c-12 -40 -23 -78 -31 -108h-156c41 143 123 368 181 511h231c47 -159 121 -377 177 -511h-158zM292 391h-20c-19 -49 -39 -109 -59 -172h131c-22 67 -38 123 -52 172zM300 568h-130l123 129h157z" />
    <glyph glyph-name="Agravesmall" unicode="&#xf7e0;" horiz-adv-x="577" 
d="M423 0c-13 28 -27 67 -41 108h-203c-12 -40 -23 -78 -31 -108h-156c41 143 123 368 181 511h231c47 -159 121 -377 177 -511h-158zM292 391h-20c-19 -49 -39 -109 -59 -172h131c-22 67 -38 123 -52 172zM402 568h-129l-151 129h158z" />
    <glyph glyph-name="Acircumflexsmall" unicode="&#xf7e2;" horiz-adv-x="577" 
d="M423 0c-13 28 -27 67 -41 108h-203c-12 -40 -23 -78 -31 -108h-156c41 143 123 368 181 511h231c47 -159 121 -377 177 -511h-158zM292 391h-20c-19 -49 -39 -109 -59 -172h131c-22 67 -38 123 -52 172zM349 568c-22 23 -44 47 -66 71c-22 -24 -43 -48 -64 -71h-131
c41 43 81 86 122 129h147l126 -129h-134z" />
    <glyph glyph-name="Adieresissmall" unicode="&#xf7e4;" horiz-adv-x="577" 
d="M423 0c-13 28 -27 67 -41 108h-203c-12 -40 -23 -78 -31 -108h-156c41 143 123 368 181 511h231c47 -159 121 -377 177 -511h-158zM292 391h-20c-19 -49 -39 -109 -59 -172h131c-22 67 -38 123 -52 172zM172 694c52 0 69 -9 69 -64c0 -60 -17 -71 -69 -71
c-51 0 -68 11 -68 71c0 55 17 64 68 64zM398 694c51 0 68 -9 68 -64c0 -60 -17 -71 -68 -71c-53 0 -69 11 -69 71c0 55 16 64 69 64z" />
    <glyph glyph-name="Atildesmall" unicode="&#xf7e3;" horiz-adv-x="577" 
d="M423 0c-13 28 -27 67 -41 108h-203c-12 -40 -23 -78 -31 -108h-156c41 143 123 368 181 511h231c47 -159 121 -377 177 -511h-158zM292 391h-20c-19 -49 -39 -109 -59 -172h131c-22 67 -38 123 -52 172zM402 708l72 -58c-19 -51 -60 -94 -124 -94c-63 0 -93 47 -141 47
c-19 0 -33 -11 -48 -46l-66 65c26 46 59 80 111 80c74 0 100 -46 146 -46c23 0 35 11 50 52z" />
    <glyph glyph-name="Aringsmall" unicode="&#xf7e5;" horiz-adv-x="577" 
d="M423 0c-13 28 -27 67 -41 108h-203c-12 -40 -23 -78 -31 -108h-156c41 143 123 368 181 511h231c47 -159 121 -377 177 -511h-158zM292 391h-20c-19 -49 -39 -109 -59 -172h131c-22 67 -38 123 -52 172zM282 742c84 0 123 -23 123 -100s-39 -100 -123 -100
c-85 0 -125 23 -125 100s37 100 125 100zM282 680c-39 0 -47 -11 -47 -39s8 -38 47 -38c38 0 46 11 46 38c0 29 -8 39 -46 39z" />
    <glyph glyph-name="bracketleftsmall" horiz-adv-x="406" 
d="M92 668h305v-133h-146v-560h146v-132h-305v825z" />
    <glyph glyph-name="braceleftsmall" horiz-adv-x="373" 
d="M42 190v-1v122c54 0 102 24 102 153c0 138 81 188 159 209c21 -36 43 -73 64 -109c-58 -20 -89 -47 -89 -164c0 -123 -58 -143 -96 -149c38 -7 96 -29 96 -153c0 -114 28 -140 89 -162c-21 -36 -43 -71 -64 -107c-78 21 -159 72 -159 209c0 128 -48 152 -102 152z" />
    <glyph glyph-name="Dcaronsmall" horiz-adv-x="598" 
d="M66 512h238c165 0 248 -55 248 -254s-82 -258 -248 -258h-238v512zM286 398h-66v-284h66c73 0 110 20 110 142c0 126 -37 142 -110 142zM226 697c22 -24 44 -48 66 -71c21 23 42 47 64 71h130c-41 -43 -81 -86 -122 -129h-147l-126 129h135z" />
    <glyph glyph-name="Dcroatsmall" horiz-adv-x="598" 
d="M24 210v106h42v196h238c165 0 248 -55 248 -254s-82 -258 -248 -258h-238v210h-42zM286 398h-66v-82h69v-106h-69v-96h66c73 0 110 20 110 142c0 126 -37 142 -110 142z" />
    <glyph glyph-name="Dmacronsmall" horiz-adv-x="598" 
d="M66 512h238c165 0 248 -55 248 -254s-82 -258 -248 -258h-238v512zM286 398h-66v-284h66c73 0 110 20 110 142c0 126 -37 142 -110 142zM141 572v106h292v-106h-292z" />
    <glyph glyph-name="Egravesmall" unicode="&#xf7e8;" horiz-adv-x="512" 
d="M478 512v-122h-258v-70h193v-115h-193v-84h258v-121h-412v512h412zM396 568h-129l-151 129h158z" />
    <glyph glyph-name="Emacronsmall" horiz-adv-x="512" 
d="M478 512v-122h-258v-70h193v-115h-193v-84h258v-121h-412v512h412zM132 572v106h292v-106h-292z" />
    <glyph glyph-name="Eurosmall" horiz-adv-x="465" 
d="M416 119l31 -107c-41 -17 -102 -26 -154 -26c-145 0 -247 63 -247 273c0 208 103 267 247 267c54 0 114 -8 154 -22l-31 -109c-29 11 -68 17 -109 17c-44 0 -74 -11 -91 -52h166v-74h-180c-1 -9 -1 -23 -1 -30c0 -9 0 -18 1 -26h180v-73h-166c16 -43 47 -56 91 -56
s80 6 109 18z" />
    <glyph glyph-name="Eogoneksmall" horiz-adv-x="512" 
d="M478 512v-122h-258v-70h193v-115h-193v-84h258v-121h-412v512h412zM389 12h43c-66 -40 -80 -62 -80 -98c0 -26 11 -38 57 -38c30 0 60 11 78 26l39 -70c-34 -24 -90 -35 -134 -35c-105 0 -135 30 -135 89c0 53 42 102 132 126z" />
    <glyph glyph-name="Ecaronsmall" horiz-adv-x="512" 
d="M478 512v-122h-258v-70h193v-115h-193v-84h258v-121h-412v512h412zM229 697c22 -24 44 -48 66 -71c21 23 42 47 64 71h130c-41 -43 -81 -86 -122 -129h-147l-126 129h135z" />
    <glyph glyph-name="Eacutesmall" unicode="&#xf7e9;" horiz-adv-x="512" 
d="M478 512v-122h-258v-70h193v-115h-193v-84h258v-121h-412v512h412zM298 568h-130l123 129h157z" />
    <glyph glyph-name="Ecircumflexsmall" unicode="&#xf7ea;" horiz-adv-x="512" 
d="M478 512v-122h-258v-70h193v-115h-193v-84h258v-121h-412v512h412zM349 568c-22 23 -44 47 -66 71c-22 -24 -43 -48 -64 -71h-131c41 43 81 86 122 129h147l126 -129h-134z" />
    <glyph glyph-name="Edieresissmall" unicode="&#xf7eb;" horiz-adv-x="512" 
d="M478 512v-122h-258v-70h193v-115h-193v-84h258v-121h-412v512h412zM170 694c52 0 69 -9 69 -64c0 -60 -17 -71 -69 -71c-51 0 -68 11 -68 71c0 55 17 64 68 64zM396 694c51 0 68 -9 68 -64c0 -60 -17 -71 -68 -71c-53 0 -69 11 -69 71c0 55 16 64 69 64z" />
    <glyph glyph-name="Edotaccentsmall" horiz-adv-x="512" 
d="M478 512v-122h-258v-70h193v-115h-193v-84h258v-121h-412v512h412zM284 694c52 0 68 -9 68 -64c0 -60 -16 -71 -68 -71s-69 11 -69 71c0 55 17 64 69 64z" />
    <glyph glyph-name="Ebrevesmall" horiz-adv-x="512" 
d="M478 512v-122h-258v-70h193v-115h-193v-84h258v-121h-412v512h412zM126 697h101c0 -43 20 -52 60 -52c39 0 60 9 60 52h94c0 -98 -57 -143 -158 -143c-98 0 -157 45 -157 143z" />
    <glyph glyph-name="exclamsmall" unicode="&#xf721;" horiz-adv-x="326" 
d="M77 512h170l-31 -287h-111zM162 160c70 0 93 -11 93 -81c0 -76 -23 -90 -93 -90c-68 0 -91 14 -91 90c0 70 23 81 91 81z" />
    <glyph glyph-name="Fsmall" unicode="&#xf766;" horiz-adv-x="484" 
d="M66 0v511h412v-121h-259v-96h193v-117h-193v-177h-153z" />
    <glyph glyph-name="Gsmall" unicode="&#xf767;" horiz-adv-x="578" 
d="M516 308v-287c-61 -20 -145 -35 -220 -35c-150 0 -250 63 -250 273c0 208 113 267 265 267c53 0 137 -8 179 -22l-39 -124c-30 11 -78 21 -134 21c-75 0 -116 -19 -116 -145c0 -120 40 -144 108 -144c25 0 55 5 74 13v65h-92v118h225z" />
    <glyph glyph-name="Gacutesmall" horiz-adv-x="578" 
d="M516 308v-287c-61 -20 -145 -35 -220 -35c-150 0 -250 63 -250 273c0 208 113 267 265 267c53 0 137 -8 179 -22l-39 -124c-30 11 -78 21 -134 21c-75 0 -116 -19 -116 -145c0 -120 40 -144 108 -144c25 0 55 5 74 13v65h-92v118h225zM318 568h-130l123 129h157z" />
    <glyph glyph-name="Gbrevesmall" horiz-adv-x="578" 
d="M516 308v-287c-61 -20 -145 -35 -220 -35c-150 0 -250 63 -250 273c0 208 113 267 265 267c53 0 137 -8 179 -22l-39 -124c-30 11 -78 21 -134 21c-75 0 -116 -19 -116 -145c0 -120 40 -144 108 -144c25 0 55 5 74 13v65h-92v118h225zM155 697h101c0 -43 20 -52 60 -52
c39 0 60 9 60 52h94c0 -98 -57 -143 -158 -143c-98 0 -157 45 -157 143z" />
    <glyph glyph-name="Gcircumflexsmall" horiz-adv-x="578" 
d="M516 308v-287c-61 -20 -145 -35 -220 -35c-150 0 -250 63 -250 273c0 208 113 267 265 267c53 0 137 -8 179 -22l-39 -124c-30 11 -78 21 -134 21c-75 0 -116 -19 -116 -145c0 -120 40 -144 108 -144c25 0 55 5 74 13v65h-92v118h225zM373 568c-22 23 -44 47 -66 71
c-22 -24 -43 -48 -64 -71h-131c41 43 81 86 122 129h147l126 -129h-134z" />
    <glyph glyph-name="Gcommaaccentsmall" horiz-adv-x="578" 
d="M516 308v-287c-61 -20 -145 -35 -220 -35c-150 0 -250 63 -250 273c0 208 113 267 265 267c53 0 137 -8 179 -22l-39 -124c-30 11 -78 21 -134 21c-75 0 -116 -19 -116 -145c0 -120 40 -144 108 -144c25 0 55 5 74 13v65h-92v118h225zM394 -51l-111 -167h-120l72 167h159
z" />
    <glyph glyph-name="Gdotaccentsmall" horiz-adv-x="578" 
d="M516 308v-287c-61 -20 -145 -35 -220 -35c-150 0 -250 63 -250 273c0 208 113 267 265 267c53 0 137 -8 179 -22l-39 -124c-30 11 -78 21 -134 21c-75 0 -116 -19 -116 -145c0 -120 40 -144 108 -144c25 0 55 5 74 13v65h-92v118h225zM309 694c52 0 68 -9 68 -64
c0 -60 -16 -71 -68 -71s-69 11 -69 71c0 55 17 64 69 64z" />
    <glyph glyph-name="Germandblssmall" horiz-adv-x="968" 
d="M923 498l-30 -114c-40 11 -99 22 -151 22c-48 0 -72 -4 -72 -44c0 -27 14 -34 93 -44c119 -15 172 -51 172 -156c0 -139 -100 -176 -229 -176c-55 0 -135 11 -182 28l30 116c38 -11 95 -21 145 -21c60 0 88 5 88 45c0 28 -17 39 -102 47c-107 10 -164 41 -164 150
c0 139 99 175 227 175c55 0 127 -11 175 -28zM439 498l-30 -114c-40 11 -99 22 -151 22c-48 0 -72 -4 -72 -44c0 -27 14 -34 93 -44c119 -15 172 -51 172 -156c0 -139 -100 -176 -229 -176c-55 0 -135 11 -182 28l30 116c38 -11 95 -21 145 -21c60 0 88 5 88 45
c0 28 -17 39 -102 47c-107 10 -164 41 -164 150c0 139 99 175 227 175c55 0 127 -11 175 -28z" />
    <glyph glyph-name="Hbarsmall" horiz-adv-x="603" 
d="M16 376v92h50v44h154v-44h163v44h154v-44h51v-92h-51v-376h-154v201h-163v-201h-154v376h-50zM220 332h163v44h-163v-44z" />
    <glyph glyph-name="Hcircumflexsmall" horiz-adv-x="603" 
d="M383 201h-164v-201h-153v511h153v-179h164v179h153v-511h-153v201zM365 568c-22 23 -44 47 -66 71c-22 -24 -43 -48 -64 -71h-131c41 43 81 86 122 129h147l126 -129h-134z" />
    <glyph glyph-name="IJsmall" horiz-adv-x="726" 
d="M220 512v-512h-154v512h154zM661 512v-328c0 -156 -108 -198 -214 -198c-62 0 -118 9 -164 24l27 129c34 -12 74 -19 118 -19c47 0 79 20 79 77v315h154z" />
    <glyph glyph-name="Imacronsmall" horiz-adv-x="284" 
d="M220 512v-512h-154v512h154zM-3 572v106h292v-106h-292z" />
    <glyph glyph-name="Iogoneksmall" horiz-adv-x="284" 
d="M220 512v-512h-154v512h154zM146 12h43c-66 -40 -80 -62 -80 -98c0 -26 11 -38 57 -38c30 0 60 11 78 26l39 -70c-34 -24 -90 -35 -134 -35c-105 0 -135 30 -135 89c0 53 42 102 132 126z" />
    <glyph glyph-name="Itildesmall" horiz-adv-x="284" 
d="M220 512v-512h-154v512h154zM264 708l72 -58c-19 -51 -60 -94 -124 -94c-63 0 -93 47 -141 47c-19 0 -33 -11 -48 -46l-66 65c26 46 59 80 111 80c74 0 100 -46 146 -46c23 0 35 11 50 52z" />
    <glyph glyph-name="Jcircumflexsmall" horiz-adv-x="443" 
d="M378 512v-328c0 -156 -108 -198 -214 -198c-62 0 -118 9 -164 24l27 129c34 -12 74 -19 118 -19c47 0 79 20 79 77v315h154zM361 568c-22 23 -44 47 -66 71c-22 -24 -43 -48 -64 -71h-131c41 43 81 86 122 129h147l126 -129h-134z" />
    <glyph glyph-name="Kcommaaccentsmall" horiz-adv-x="588" 
d="M220 512v-512h-154v512h154zM589 0h-178c-106 169 -168 259 -191 271c25 23 86 104 177 241h177c-87 -133 -151 -211 -176 -232c24 -16 95 -110 191 -280zM404 -51l-111 -167h-120l72 167h159z" />
    <glyph glyph-name="Lslashsmall" unicode="&#xf6f9;" horiz-adv-x="448" 
d="M220 243v-107h231v-136h-385v118l-39 -33v125l39 33v269h154v-142l89 76v-127z" />
    <glyph glyph-name="Lacutesmall" horiz-adv-x="448" 
d="M220 512v-376h231v-136h-385v512h154zM222 568h-130l123 129h157z" />
    <glyph glyph-name="Lcaronsmall" horiz-adv-x="448" 
d="M220 512v-376h231v-136h-385v512h154zM289 536h130l-58 -192h-91z" />
    <glyph glyph-name="Lcommaaccentsmall" horiz-adv-x="448" 
d="M220 512v-376h231v-136h-385v512h154zM337 -51l-111 -167h-120l72 167h159z" />
    <glyph glyph-name="Ldotsmall" horiz-adv-x="448" 
d="M220 512v-376h231v-136h-385v512h154zM334 403c52 0 68 -9 68 -64c0 -60 -16 -71 -68 -71s-69 11 -69 71c0 55 17 64 69 64z" />
    <glyph glyph-name="Nacutesmall" horiz-adv-x="613" 
d="M393 243v268h153v-511h-153c-48 90 -118 209 -174 276v-276h-153v511h150c60 -78 125 -171 177 -268zM340 568h-130l123 129h157z" />
    <glyph glyph-name="Ncaronsmall" horiz-adv-x="613" 
d="M393 243v268h153v-511h-153c-48 90 -118 209 -174 276v-276h-153v511h150c60 -78 125 -171 177 -268zM245 697c22 -24 44 -48 66 -71c21 23 42 47 64 71h130c-41 -43 -81 -86 -122 -129h-147l-126 129h135z" />
    <glyph glyph-name="Ncommaaccentsmall" horiz-adv-x="613" 
d="M393 243v268h153v-511h-153c-48 90 -118 209 -174 276v-276h-153v511h150c60 -78 125 -171 177 -268zM395 -51l-111 -167h-120l72 167h159z" />
    <glyph glyph-name="Ntildesmall" unicode="&#xf7f1;" horiz-adv-x="613" 
d="M393 243v268h153v-511h-153c-48 90 -118 209 -174 276v-276h-153v511h150c60 -78 125 -171 177 -268zM431 708l72 -58c-19 -51 -60 -94 -124 -94c-63 0 -93 47 -141 47c-19 0 -33 -11 -48 -46l-66 65c26 46 59 80 111 80c74 0 100 -46 146 -46c23 0 35 11 50 52z" />
    <glyph glyph-name="Obrevesmall" horiz-adv-x="590" 
d="M294 -14c-165 0 -248 63 -248 273c0 209 85 267 248 267c166 0 250 -58 250 -267c0 -210 -83 -273 -250 -273zM294 406c-72 0 -93 -16 -93 -150c0 -129 21 -150 93 -150c73 0 94 21 94 150c0 134 -21 150 -94 150zM137 697h100c0 -43 20 -52 60 -52c39 0 60 9 60 52h94
c0 -98 -57 -143 -158 -143c-98 0 -156 45 -156 143z" />
    <glyph glyph-name="OEsmall" unicode="&#xf6fa;" horiz-adv-x="813" 
d="M779 512v-122h-255c9 -20 15 -41 18 -70h172v-115h-172c-2 -37 -9 -63 -20 -84h257v-121h-372c-32 -10 -70 -14 -113 -14c-165 0 -248 63 -248 273c0 209 85 267 248 267c45 0 83 -4 116 -14h369zM294 406c-72 0 -93 -16 -93 -150c0 -129 21 -150 93 -150
c73 0 94 21 94 150c0 134 -21 150 -94 150z" />
    <glyph glyph-name="Ohungarumlautsmall" horiz-adv-x="590" 
d="M294 -14c-165 0 -248 63 -248 273c0 209 85 267 248 267c166 0 250 -58 250 -267c0 -210 -83 -273 -250 -273zM294 406c-72 0 -93 -16 -93 -150c0 -129 21 -150 93 -150c73 0 94 21 94 150c0 134 -21 150 -94 150zM242 568h-102l94 129h126zM420 568h-102l93 129h127z
" />
    <glyph glyph-name="Omacronsmall" horiz-adv-x="590" 
d="M294 -14c-165 0 -248 63 -248 273c0 209 85 267 248 267c166 0 250 -58 250 -267c0 -210 -83 -273 -250 -273zM294 406c-72 0 -93 -16 -93 -150c0 -129 21 -150 93 -150c73 0 94 21 94 150c0 134 -21 150 -94 150zM149 572v106h292v-106h-292z" />
    <glyph glyph-name="parenleftsmall" horiz-adv-x="369" 
d="M68 250c0 246 98 370 227 413l70 -113c-80 -33 -136 -87 -136 -300c0 -212 56 -267 136 -300l-70 -113c-129 43 -227 167 -227 413z" />
    <glyph glyph-name="questionsmall" unicode="&#xf73f;" horiz-adv-x="491" 
d="M231 163c70 0 93 -11 93 -81c0 -76 -23 -88 -93 -88c-68 0 -91 12 -91 88c0 70 23 81 91 81zM303 217h-145c75 61 124 88 124 146c0 29 -12 43 -77 43c-50 0 -109 -8 -152 -20l-20 126c50 9 125 20 187 20c167 0 234 -34 234 -130c0 -76 -39 -125 -151 -185z" />
    <glyph glyph-name="Racutesmall" horiz-adv-x="592" 
d="M391 511c122 0 156 -66 156 -150c0 -73 -27 -139 -136 -145c55 -14 84 -42 178 -216h-176c-70 137 -101 165 -135 165h-59v-165h-153v511h325zM219 284h121c5 0 8 0 12 3c24 3 37 20 37 51c0 7 -1 13 -3 18c-5 25 -19 35 -44 35h-123v-107zM300 568h-130l123 129h157z
" />
    <glyph glyph-name="Rcaronsmall" horiz-adv-x="592" 
d="M391 511c122 0 156 -66 156 -150c0 -73 -27 -139 -136 -145c55 -14 84 -42 178 -216h-176c-70 137 -101 165 -135 165h-59v-165h-153v511h325zM219 284h121c5 0 8 0 12 3c24 3 37 20 37 51c0 7 -1 13 -3 18c-5 25 -19 35 -44 35h-123v-107zM237 697c22 -24 44 -48 66 -71
c21 23 42 47 64 71h130c-41 -43 -81 -86 -122 -129h-147l-126 129h135z" />
    <glyph glyph-name="Rcommaaccentsmall" horiz-adv-x="592" 
d="M391 511c122 0 156 -66 156 -150c0 -73 -27 -139 -136 -145c55 -14 84 -42 178 -216h-176c-70 137 -101 165 -135 165h-59v-165h-153v511h325zM219 284h121c5 0 8 0 12 3c24 3 37 20 37 51c0 7 -1 13 -3 18c-5 25 -19 35 -44 35h-123v-107zM394 -51l-111 -167h-120
l72 167h159z" />
    <glyph glyph-name="sterlingsmall" horiz-adv-x="513" 
d="M25 196v105h46v35c0 122 71 190 246 190c61 0 126 -10 174 -26l-30 -121c-39 11 -96 19 -146 19c-81 0 -98 -26 -98 -66v-31h154v-105h-154v-70h253v-126h-399v196h-46z" />
    <glyph glyph-name="summationsmall" horiz-adv-x="498" 
d="M484 379h-223c16 -28 45 -72 76 -119c-35 -51 -65 -95 -91 -128h227v-132h-464v24c52 69 112 158 162 235c-51 75 -107 164 -145 227v25h458v-132z" />
    <glyph glyph-name="Tbarsmall" horiz-adv-x="487" 
d="M98 158v106h68v115h-164v132h482v-132h-164v-115h69v-106h-69v-158h-154v158h-68z" />
    <glyph glyph-name="Tcommaaccentsmall" horiz-adv-x="487" 
d="M320 380v-380h-153v380h-165v132h482v-132h-164zM341 -51l-111 -167h-120l72 167h159z" />
    <glyph glyph-name="Tcaronsmall" horiz-adv-x="487" 
d="M320 380v-380h-153v380h-165v132h482v-132h-164zM183 697c22 -24 44 -48 66 -71c21 23 42 47 64 71h130c-41 -43 -81 -86 -122 -129h-147l-126 129h135z" />
    <glyph glyph-name="Ucircumflexsmall" unicode="&#xf7fb;" horiz-adv-x="592" 
d="M297 122c66 0 80 27 80 89v301h153v-293c0 -175 -62 -233 -233 -233c-172 0 -235 58 -235 233v293h152v-301c0 -62 17 -89 83 -89zM360 568c-22 23 -44 47 -66 71c-22 -24 -43 -48 -64 -71h-131c41 43 81 86 122 129h147l126 -129h-134z" />
    <glyph glyph-name="Utildesmall" horiz-adv-x="592" 
d="M297 122c66 0 80 27 80 89v301h153v-293c0 -175 -62 -233 -233 -233c-172 0 -235 58 -235 233v293h152v-301c0 -62 17 -89 83 -89zM414 708l72 -58c-19 -51 -60 -94 -124 -94c-63 0 -93 47 -141 47c-19 0 -33 -11 -48 -46l-66 65c26 46 59 80 111 80
c74 0 100 -46 146 -46c23 0 35 11 50 52z" />
    <glyph glyph-name="Uringsmall" horiz-adv-x="592" 
d="M297 122c66 0 80 27 80 89v301h153v-293c0 -175 -62 -233 -233 -233c-172 0 -235 58 -235 233v293h152v-301c0 -62 17 -89 83 -89zM297 742c84 0 123 -23 123 -100s-39 -100 -123 -100c-85 0 -125 23 -125 100s37 100 125 100zM297 680c-39 0 -47 -11 -47 -39
s8 -38 47 -38c38 0 46 11 46 38c0 29 -8 39 -46 39z" />
    <glyph glyph-name="Uogoneksmall" horiz-adv-x="592" 
d="M297 122c66 0 80 27 80 89v301h153v-293c0 -175 -62 -233 -233 -233c-172 0 -235 58 -235 233v293h152v-301c0 -62 17 -89 83 -89zM343 12h43c-66 -40 -80 -62 -80 -98c0 -26 11 -38 57 -38c30 0 60 11 78 26l39 -70c-34 -24 -90 -35 -134 -35c-105 0 -135 30 -135 89
c0 53 42 102 132 126z" />
    <glyph glyph-name="Umacronsmall" horiz-adv-x="592" 
d="M297 122c66 0 80 27 80 89v301h153v-293c0 -175 -62 -233 -233 -233c-172 0 -235 58 -235 233v293h152v-301c0 -62 17 -89 83 -89zM152 572v106h292v-106h-292z" />
    <glyph glyph-name="Uacutesmall" unicode="&#xf7fa;" horiz-adv-x="592" 
d="M297 122c66 0 80 27 80 89v301h153v-293c0 -175 -62 -233 -233 -233c-172 0 -235 58 -235 233v293h152v-301c0 -62 17 -89 83 -89zM312 568h-130l123 129h157z" />
    <glyph glyph-name="Ubrevesmall" horiz-adv-x="592" 
d="M297 122c66 0 80 27 80 89v301h153v-293c0 -175 -62 -233 -233 -233c-172 0 -235 58 -235 233v293h152v-301c0 -62 17 -89 83 -89zM140 697h101c0 -43 20 -52 60 -52c39 0 60 9 60 52h94c0 -98 -57 -143 -158 -143c-98 0 -157 45 -157 143z" />
    <glyph glyph-name="Udieresissmall" unicode="&#xf7fc;" horiz-adv-x="592" 
d="M297 122c66 0 80 27 80 89v301h153v-293c0 -175 -62 -233 -233 -233c-172 0 -235 58 -235 233v293h152v-301c0 -62 17 -89 83 -89zM184 694c52 0 69 -9 69 -64c0 -60 -17 -71 -69 -71c-51 0 -68 11 -68 71c0 55 17 64 68 64zM410 694c51 0 68 -9 68 -64
c0 -60 -17 -71 -68 -71c-53 0 -69 11 -69 71c0 55 16 64 69 64z" />
    <glyph glyph-name="Ugravesmall" unicode="&#xf7f9;" horiz-adv-x="592" 
d="M297 122c66 0 80 27 80 89v301h153v-293c0 -175 -62 -233 -233 -233c-172 0 -235 58 -235 233v293h152v-301c0 -62 17 -89 83 -89zM398 568h-129l-151 129h158z" />
    <glyph glyph-name="Uhungarumlautsmall" horiz-adv-x="592" 
d="M297 122c66 0 80 27 80 89v301h153v-293c0 -175 -62 -233 -233 -233c-172 0 -235 58 -235 233v293h152v-301c0 -62 17 -89 83 -89zM242 568h-102l94 129h126zM420 568h-102l93 129h127z" />
    <glyph glyph-name="Ysmall" unicode="&#xf779;" horiz-adv-x="495" 
d="M256 353c36 46 83 117 108 159h165c-62 -98 -134 -201 -199 -283v-229h-153v229c-70 99 -160 221 -211 283h174c33 -40 81 -106 116 -159z" />
    <glyph glyph-name="yensmall" horiz-adv-x="495" 
d="M47 217v69h90c-61 85 -128 174 -171 226h174c33 -40 80 -106 116 -159c36 46 83 117 108 159h164c-48 -77 -103 -156 -155 -226h77v-69h-120v-59h120v-68h-120v-90h-153v90h-130v68h130v59h-130z" />
    <glyph glyph-name="Yacutesmall" unicode="&#xf7fd;" horiz-adv-x="495" 
d="M256 353c36 46 83 117 108 159h165c-62 -98 -134 -201 -199 -283v-229h-153v229c-70 99 -160 221 -211 283h174c33 -40 81 -106 116 -159zM274 568h-130l123 129h157z" />
    <glyph glyph-name="Ycircumflexsmall" horiz-adv-x="495" 
d="M256 353c36 46 83 117 108 159h165c-62 -98 -134 -201 -199 -283v-229h-153v229c-70 99 -160 221 -211 283h174c33 -40 81 -106 116 -159zM317 568c-22 23 -44 47 -66 71c-22 -24 -43 -48 -64 -71h-131c41 43 81 86 122 129h147l126 -129h-134z" />
    <glyph glyph-name="Ydieresissmall" unicode="&#xf7ff;" horiz-adv-x="495" 
d="M256 353c36 46 83 117 108 159h165c-62 -98 -134 -201 -199 -283v-229h-153v229c-70 99 -160 221 -211 283h174c33 -40 81 -106 116 -159zM145 694c52 0 69 -9 69 -64c0 -60 -17 -71 -69 -71c-51 0 -68 11 -68 71c0 55 17 64 68 64zM371 694c51 0 68 -9 68 -64
c0 -60 -17 -71 -68 -71c-53 0 -69 11 -69 71c0 55 16 64 69 64z" />
    <glyph glyph-name="zerosmall" horiz-adv-x="570" 
d="M284 -14c-145 0 -229 63 -229 273c0 209 85 267 229 267c146 0 230 -58 230 -267c0 -210 -83 -273 -230 -273zM284 406c-52 0 -73 -16 -73 -150c0 -129 21 -150 73 -150c55 0 74 21 74 150c0 134 -21 150 -74 150z" />
    <glyph glyph-name="onesmall" horiz-adv-x="570" 
d="M417 0h-155v330l-156 -64l-42 128l353 132v-526z" />
    <glyph glyph-name="twosmall" horiz-adv-x="570" 
d="M87 364l-36 138c53 13 150 24 224 24c172 0 225 -43 225 -159c0 -91 -42 -158 -227 -246h240v-121h-461v110c261 153 282 176 282 223c0 42 -18 57 -90 57c-45 0 -121 -12 -157 -26z" />
    <glyph glyph-name="foursmall" horiz-adv-x="570" 
d="M315 112h-296v64c64 98 173 244 248 336h190v-282h87v-118h-87v-112h-142v112zM315 230v162c-41 -50 -92 -118 -120 -162h120z" />
    <glyph glyph-name="fivesmall" horiz-adv-x="570" 
d="M90 512h400v-126h-247v-66c17 2 37 3 61 3c151 0 203 -40 203 -159c0 -139 -79 -178 -257 -178c-54 0 -144 6 -189 18l25 124c32 -9 114 -18 152 -18c84 0 116 10 116 50c0 44 -25 54 -113 54c-37 0 -112 -4 -151 -9v307z" />
    <glyph glyph-name="sixsmall" horiz-adv-x="570" 
d="M530 153c0 -131 -79 -167 -234 -167c-145 0 -237 36 -237 270c0 210 101 270 269 270c72 0 130 -9 191 -26l-34 -124c-42 12 -95 25 -154 25c-97 0 -124 -24 -125 -93c37 7 84 12 119 12c135 0 205 -31 205 -167zM372 157c0 49 -19 59 -79 59c-32 0 -63 -3 -87 -8
c0 -95 39 -108 83 -108c63 0 83 12 83 57z" />
    <glyph glyph-name="sevensmall" horiz-adv-x="570" 
d="M45 512h504v-26c-96 -153 -180 -321 -245 -486h-178c61 136 138 276 207 380h-288v132z" />
    <glyph glyph-name="eightsmall" horiz-adv-x="570" 
d="M285 102c68 0 83 13 83 53c0 43 -21 53 -83 53c-61 0 -82 -10 -82 -53c0 -40 15 -53 82 -53zM285 -14c-189 0 -238 32 -238 149c0 81 32 129 132 134c-96 7 -120 48 -120 123c0 104 35 134 226 134c190 0 226 -30 226 -134c0 -75 -25 -116 -121 -123
c100 -5 133 -53 133 -134c0 -117 -50 -149 -238 -149zM285 325c58 0 76 10 76 45c0 37 -16 45 -76 45s-76 -8 -76 -45c0 -35 18 -45 76 -45z" />
    <glyph glyph-name="ninesmall" horiz-adv-x="570" 
d="M231 177c-120 0 -189 37 -189 172c0 132 79 177 235 177c173 0 250 -37 250 -215c0 -122 -76 -211 -188 -311h-197c109 88 179 158 191 187c-36 -6 -60 -10 -102 -10zM366 317c0 77 -23 96 -81 96c-66 0 -85 -18 -85 -63c0 -48 17 -57 79 -57c26 0 52 2 73 5
c6 7 10 12 14 19z" />
    <glyph glyph-name="Thornsmall" unicode="&#xf7fe;" horiz-adv-x="571" 
d="M219 92v-92h-153v511h153v-84h160c117 0 163 -58 163 -168c0 -96 -40 -167 -148 -167h-175zM342 313h-123v-112h123c26 0 41 18 41 55s-15 57 -41 57z" />
    <glyph glyph-name="Bsmall" unicode="&#xf762;" horiz-adv-x="594" 
d="M220 114h128c28 0 42 10 42 45c0 38 -16 50 -46 50h-124v-95zM220 398v-82h123c26 0 38 11 38 41c0 32 -12 41 -38 41h-123zM416 269c108 -4 133 -51 133 -131c0 -103 -59 -138 -154 -138h-329v512h326c117 0 147 -43 147 -123c0 -72 -21 -113 -123 -120z" />
    <glyph glyph-name="Csmall" unicode="&#xf763;" horiz-adv-x="472" 
d="M430 141l32 -129c-41 -17 -110 -26 -161 -26c-153 0 -255 63 -255 273c0 208 103 267 255 267c53 0 121 -8 161 -22l-32 -130c-29 11 -74 21 -116 21c-75 0 -113 -13 -113 -139c0 -120 38 -138 113 -138c44 0 87 11 116 23z" />
    <glyph glyph-name="Ismall" unicode="&#xf769;" horiz-adv-x="284" 
d="M220 512v-512h-154v512h154z" />
    <glyph glyph-name="Osmall" unicode="&#xf76f;" horiz-adv-x="590" 
d="M294 -14c-165 0 -248 63 -248 273c0 209 85 267 248 267c166 0 250 -58 250 -267c0 -210 -83 -273 -250 -273zM294 406c-72 0 -93 -16 -93 -150c0 -129 21 -150 93 -150c73 0 94 21 94 150c0 134 -21 150 -94 150z" />
    <glyph glyph-name="Hsmall" unicode="&#xf768;" horiz-adv-x="603" 
d="M383 201h-164v-201h-153v511h153v-179h164v179h153v-511h-153v201z" />
    <glyph glyph-name="threesmall" horiz-adv-x="570" 
d="M179 210v111h79c59 0 79 8 79 37s-15 40 -87 40c-68 0 -122 -10 -165 -23l-29 131c57 12 114 20 197 20c191 0 245 -30 245 -134c0 -75 -25 -116 -122 -123c101 -5 133 -53 133 -134c0 -117 -68 -149 -257 -149c-79 0 -141 8 -199 19l29 136c39 -14 106 -26 167 -26
c80 0 97 12 97 49s-27 46 -88 46h-79z" />
    <glyph glyph-name="Tsmall" unicode="&#xf774;" horiz-adv-x="487" 
d="M320 380v-380h-153v380h-165v132h482v-132h-164z" />
    <glyph glyph-name="afii10102" unicode="&#x455;" horiz-adv-x="484" 
d="M439 498l-30 -114c-40 11 -99 22 -151 22c-48 0 -72 -4 -72 -44c0 -27 14 -34 93 -44c119 -15 172 -51 172 -156c0 -139 -100 -176 -229 -176c-55 0 -135 11 -182 28l30 116c38 -11 95 -21 145 -21c60 0 88 5 88 45c0 28 -17 39 -102 47c-107 10 -164 41 -164 150
c0 139 99 175 227 175c55 0 127 -11 175 -28z" />
    <glyph glyph-name="Ssmall" unicode="&#xf773;" horiz-adv-x="484" 
d="M439 498l-30 -114c-40 11 -99 22 -151 22c-48 0 -72 -4 -72 -44c0 -27 14 -34 93 -44c119 -15 172 -51 172 -156c0 -139 -100 -176 -229 -176c-55 0 -135 11 -182 28l30 116c38 -11 95 -21 145 -21c60 0 88 5 88 45c0 28 -17 39 -102 47c-107 10 -164 41 -164 150
c0 139 99 175 227 175c55 0 127 -11 175 -28z" />
    <glyph glyph-name="Ksmall" unicode="&#xf76b;" horiz-adv-x="588" 
d="M220 512v-512h-154v512h154zM589 0h-178c-106 169 -168 259 -191 271c25 23 86 104 177 241h177c-87 -133 -151 -211 -176 -232c24 -16 95 -110 191 -280z" />
    <glyph glyph-name="Rsmall" unicode="&#xf772;" horiz-adv-x="592" 
d="M391 511c122 0 156 -66 156 -150c0 -73 -27 -139 -136 -145c55 -14 84 -42 178 -216h-176c-70 137 -101 165 -135 165h-59v-165h-153v511h325zM219 284h121c5 0 8 0 12 3c24 3 37 20 37 51c0 7 -1 13 -3 18c-5 25 -19 35 -44 35h-123v-107z" />
    <glyph glyph-name="Nsmall" unicode="&#xf76e;" horiz-adv-x="613" 
d="M393 243v268h153v-511h-153c-48 90 -118 209 -174 276v-276h-153v511h150c60 -78 125 -171 177 -268z" />
    <glyph glyph-name="Xsmall" unicode="&#xf778;" horiz-adv-x="520" 
d="M529 0h-169c-22 38 -55 87 -92 140c-42 -57 -79 -106 -107 -140h-167c45 53 121 154 195 255c-71 100 -145 198 -193 256h176c27 -33 63 -83 100 -135c38 53 68 102 89 135h167c-40 -62 -107 -158 -174 -252c66 -94 132 -191 175 -259z" />
    <glyph glyph-name="Vsmall" unicode="&#xf776;" horiz-adv-x="529" 
d="M269 156c42 117 81 238 110 355h153c-48 -163 -114 -348 -180 -511h-184c-50 180 -106 352 -167 511h157c41 -108 79 -233 111 -355z" />
    <glyph glyph-name="Wsmall" unicode="&#xf777;" horiz-adv-x="838" 
d="M418 297c-19 -90 -58 -222 -83 -297h-184c-49 180 -104 350 -163 512h157c40 -108 77 -230 107 -352c31 92 79 265 100 352h139c29 -91 73 -255 95 -352c40 117 78 234 105 352h154c-48 -163 -110 -351 -176 -512h-184c-17 85 -48 224 -67 297z" />
    <glyph glyph-name="Jsmall" unicode="&#xf76a;" horiz-adv-x="443" 
d="M378 512v-328c0 -156 -108 -198 -214 -198c-62 0 -118 9 -164 24l27 129c34 -12 74 -19 118 -19c47 0 79 20 79 77v315h154z" />
    <glyph glyph-name="Lsmall" unicode="&#xf76c;" horiz-adv-x="448" 
d="M220 512v-376h231v-136h-385v512h154z" />
    <glyph glyph-name="Psmall" unicode="&#xf770;" horiz-adv-x="571" 
d="M342 397h-123v-112h123c26 0 41 18 41 55s-15 57 -41 57zM394 176h-175v-176h-153v511h313c117 0 163 -58 163 -168c0 -96 -40 -167 -148 -167z" />
    <glyph glyph-name="Msmall" unicode="&#xf76d;" horiz-adv-x="788" 
d="M401 245c37 96 73 183 113 267h207v-512h-151v333c-39 -85 -93 -219 -124 -306h-110c-29 85 -81 224 -118 306v-333h-152v512h216c43 -85 79 -172 119 -267z" />
    <glyph glyph-name="Usmall" unicode="&#xf775;" horiz-adv-x="592" 
d="M297 122c66 0 80 27 80 89v301h153v-293c0 -175 -62 -233 -233 -233c-172 0 -235 58 -235 233v293h152v-301c0 -62 17 -89 83 -89z" />
    <glyph glyph-name="Esmall" unicode="&#xf765;" horiz-adv-x="512" 
d="M478 512v-122h-258v-70h193v-115h-193v-84h258v-121h-412v512h412z" />
    <glyph glyph-name="Dsmall" unicode="&#xf764;" horiz-adv-x="598" 
d="M66 512h238c165 0 248 -55 248 -254s-82 -258 -248 -258h-238v512zM286 398h-66v-284h66c73 0 110 20 110 142c0 126 -37 142 -110 142z" />
    <glyph glyph-name="Zsmall" unicode="&#xf77a;" horiz-adv-x="498" 
d="M27 512h458v-25c-64 -107 -174 -269 -238 -355h226v-132h-463v25c84 112 199 282 240 355h-223v132z" />
    <glyph glyph-name="Qsmall" unicode="&#xf771;" horiz-adv-x="590" 
d="M279 -14c-143 0 -233 63 -233 273c0 209 85 267 248 267c166 0 250 -58 250 -267c0 -136 -40 -212 -110 -246c45 -13 88 -58 178 -195h-166c-66 109 -122 168 -167 168zM294 406c-72 0 -93 -16 -93 -150c0 -129 21 -150 93 -150c73 0 94 21 94 150c0 134 -21 150 -94 150
z" />
    <glyph glyph-name="Oslashsmall" unicode="&#xf7f8;" horiz-adv-x="590" 
d="M453 511h136l-76 -85c21 -41 31 -94 31 -168c0 -210 -83 -272 -250 -272c-59 0 -107 9 -144 27l-12 -13h-136l75 85c-21 41 -32 97 -32 173c0 209 85 268 249 268c60 0 109 -8 147 -28zM294 406c-66 0 -94 -15 -94 -115c0 -24 1 -45 3 -65l147 169c-14 8 -32 11 -56 11z
M294 106c80 0 93 48 93 135c0 13 0 27 -1 41l-146 -167c13 -7 31 -9 54 -9z" />
    <glyph glyph-name="Zcaronsmall" unicode="&#xf6ff;" horiz-adv-x="498" 
d="M27 512h458v-25c-64 -107 -174 -269 -238 -355h226v-132h-463v25c84 112 199 282 240 355h-223v132zM190 697c22 -24 44 -48 66 -71c21 23 42 47 64 71h130c-41 -43 -81 -86 -122 -129h-147l-126 129h135z" />
    <glyph glyph-name="Scaronsmall" unicode="&#xf6fd;" horiz-adv-x="484" 
d="M439 498l-30 -114c-40 11 -99 22 -151 22c-48 0 -72 -4 -72 -44c0 -27 14 -34 93 -44c119 -15 172 -51 172 -156c0 -139 -100 -176 -229 -176c-55 0 -135 11 -182 28l30 116c38 -11 95 -21 145 -21c60 0 88 5 88 45c0 28 -17 39 -102 47c-107 10 -164 41 -164 150
c0 139 99 175 227 175c55 0 127 -11 175 -28zM187 697c22 -24 44 -48 66 -71c21 23 42 47 64 71h130c-41 -43 -81 -86 -122 -129h-147l-126 129h135z" />
    <glyph glyph-name="atsmall" horiz-adv-x="728" 
d="M334 431c-134 0 -175 -21 -175 -168c0 -151 41 -180 203 -180s206 41 206 207c0 50 -5 97 -16 132h113c10 -35 17 -88 17 -136c0 -234 -100 -304 -319 -304c-223 0 -317 59 -317 279c0 218 111 270 288 270c143 0 193 -32 193 -210c0 -165 -37 -190 -175 -190
c-122 0 -154 26 -154 127c0 102 35 126 139 126c28 0 55 -2 75 -5c-2 40 -18 52 -78 52zM363 299c-35 0 -46 -5 -46 -37s9 -38 49 -38c33 0 46 8 46 44v28c-15 1 -37 3 -49 3z" />
    <glyph glyph-name="backslashsmall" horiz-adv-x="427" 
d="M-10 512h164l286 -512h-164z" />
    <glyph glyph-name="slashsmall" horiz-adv-x="427" 
d="M276 512h165l-287 -512h-164z" />
    <glyph glyph-name="barsmall" horiz-adv-x="401" 
d="M120 678h161v-851h-161v851z" />
    <glyph glyph-name="bracketrightsmall" horiz-adv-x="406" 
d="M9 668h305v-825h-305v132h146v560h-146v133z" />
    <glyph glyph-name="bracerightsmall" horiz-adv-x="373" 
d="M331 311v1v-122c-54 0 -102 -24 -102 -152c0 -138 -81 -189 -159 -210l-64 110c58 20 89 46 89 163c0 123 58 143 96 150c-38 6 -96 29 -96 152c0 116 -28 141 -89 163l64 107c78 -21 159 -71 159 -209c0 -129 48 -153 102 -153z" />
    <glyph glyph-name="Cdotaccentsmall" horiz-adv-x="472" 
d="M430 141l32 -129c-41 -17 -110 -26 -161 -26c-153 0 -255 63 -255 273c0 208 103 267 255 267c53 0 121 -8 161 -22l-32 -130c-29 11 -74 21 -116 21c-75 0 -113 -13 -113 -139c0 -120 38 -138 113 -138c44 0 87 11 116 23zM292 694c52 0 68 -9 68 -64
c0 -60 -16 -71 -68 -71s-69 11 -69 71c0 55 17 64 69 64z" />
    <glyph glyph-name="Cacutesmall" horiz-adv-x="472" 
d="M430 141l32 -129c-41 -17 -110 -26 -161 -26c-153 0 -255 63 -255 273c0 208 103 267 255 267c53 0 121 -8 161 -22l-32 -130c-29 11 -74 21 -116 21c-75 0 -113 -13 -113 -139c0 -120 38 -138 113 -138c44 0 87 11 116 23zM318 568h-130l123 129h157z" />
    <glyph glyph-name="Ccaronsmall" horiz-adv-x="472" 
d="M430 141l32 -129c-41 -17 -110 -26 -161 -26c-153 0 -255 63 -255 273c0 208 103 267 255 267c53 0 121 -8 161 -22l-32 -130c-29 11 -74 21 -116 21c-75 0 -113 -13 -113 -139c0 -120 38 -138 113 -138c44 0 87 11 116 23zM227 697c22 -24 44 -48 66 -71
c21 23 42 47 64 71h130c-41 -43 -81 -86 -122 -129h-147l-126 129h135z" />
    <glyph glyph-name="centsmall" horiz-adv-x="402" 
d="M203 526h73v-75c26 -2 61 -7 82 -14l-26 -85c-14 6 -39 8 -56 10v-201c16 1 42 5 56 10l26 -84c-22 -8 -56 -14 -82 -17v-84h-73v85c-92 12 -156 62 -156 192c0 128 65 176 156 188v75zM163 261c0 -51 17 -85 40 -89v179c-23 -3 -40 -37 -40 -90z" />
    <glyph glyph-name="daggersmall" horiz-adv-x="460" 
d="M30 388v123h137v138h124v-138h138v-123h-138v-216h-124v216h-137z" />
    <glyph glyph-name="degreesmall" horiz-adv-x="343" 
d="M171 526c102 0 148 -31 148 -152c0 -124 -46 -159 -148 -159s-146 35 -146 159c0 121 44 152 146 152zM171 293c34 0 40 12 40 81c0 65 -6 76 -40 76c-32 0 -40 -11 -40 -76c0 -69 8 -81 40 -81z" />
    <glyph glyph-name="dollarsmall" horiz-adv-x="502" 
d="M213 623h75v-100c51 -1 115 -12 157 -26l-29 -113c-29 8 -83 16 -128 18v-87c108 -17 170 -55 170 -154c0 -111 -73 -158 -170 -169v-113h-75v109c-53 2 -123 10 -166 25l30 116c33 -9 91 -17 136 -19v92c-103 11 -169 44 -169 150c0 112 71 157 169 168v103zM177 361
c0 -19 7 -29 36 -35v75c-23 -3 -36 -15 -36 -40zM326 154c0 18 -9 30 -38 37v-78c23 5 38 17 38 41z" />
    <glyph glyph-name="numbersignsmall" horiz-adv-x="616" 
d="M42 307l6 101h97l8 104h126l-8 -104h86l8 104h125l-8 -104h105l-6 -101h-105l-7 -95h106l-7 -100h-105l-8 -112h-126l8 112h-86l-8 -112h-125l7 112h-96l7 100h96l7 95h-97zM265 307l-8 -95h86l8 95h-86z" />
    <glyph glyph-name="parenrightsmall" horiz-adv-x="369" 
d="M301 250c0 -247 -99 -370 -228 -413l-70 112c80 34 137 87 137 301c0 212 -57 267 -137 300l70 113c129 -43 228 -167 228 -413z" />
    <glyph glyph-name="percentsmall" horiz-adv-x="752" 
d="M507 512h120l-384 -512h-121zM171 526c102 0 148 -31 148 -152c0 -124 -46 -159 -148 -159s-146 35 -146 159c0 121 44 152 146 152zM171 293c34 0 40 12 40 81c0 65 -6 76 -40 76c-32 0 -40 -11 -40 -76c0 -69 8 -81 40 -81zM580 297c102 0 148 -32 148 -152
c0 -124 -46 -159 -148 -159s-146 35 -146 159c0 120 44 152 146 152zM580 64c34 0 40 12 40 80c0 66 -6 77 -40 77c-32 0 -40 -11 -40 -77c0 -68 8 -80 40 -80z" />
    <glyph glyph-name="sectionsmall" horiz-adv-x="481" 
d="M427 505l-27 -91c-31 9 -81 19 -133 19c-64 0 -82 -10 -82 -31s12 -24 88 -30c109 -9 172 -39 172 -116c0 -28 -15 -56 -34 -76c15 -16 22 -37 22 -62c0 -98 -79 -132 -221 -132c-57 0 -119 9 -159 20l28 92c30 -11 80 -19 132 -19c64 0 83 9 83 31c0 21 -13 24 -89 31
c-109 10 -171 39 -171 116c0 29 11 57 31 77c-12 16 -20 36 -20 60c0 98 79 132 222 132c55 0 118 -8 158 -21zM175 290c-7 -5 -11 -12 -11 -20c0 -20 29 -27 76 -34c22 -3 45 -8 69 -13c6 5 10 12 10 20c0 19 -26 26 -83 35c-21 3 -41 7 -61 12z" />
    <glyph glyph-name="Sacutesmall" horiz-adv-x="484" 
d="M439 498l-30 -114c-40 11 -99 22 -151 22c-48 0 -72 -4 -72 -44c0 -27 14 -34 93 -44c119 -15 172 -51 172 -156c0 -139 -100 -176 -229 -176c-55 0 -135 11 -182 28l30 116c38 -11 95 -21 145 -21c60 0 88 5 88 45c0 28 -17 39 -102 47c-107 10 -164 41 -164 150
c0 139 99 175 227 175c55 0 127 -11 175 -28zM267 568h-130l123 129h157z" />
    <glyph glyph-name="Scedillasmall" horiz-adv-x="484" 
d="M439 498l-30 -114c-40 11 -99 22 -151 22c-48 0 -72 -4 -72 -44c0 -27 14 -34 93 -44c119 -15 172 -51 172 -156c0 -139 -100 -176 -229 -176c-55 0 -135 11 -182 28l30 116c38 -11 95 -21 145 -21c60 0 88 5 88 45c0 28 -17 39 -102 47c-107 10 -164 41 -164 150
c0 139 99 175 227 175c55 0 127 -11 175 -28zM209 0h57v-39c70 0 105 -21 105 -79c0 -65 -38 -85 -143 -85c-45 0 -70 4 -94 13l24 60c13 -6 39 -9 62 -9c26 0 34 6 34 23c0 21 -21 27 -81 22z" />
    <glyph glyph-name="Scircumflexsmall" horiz-adv-x="484" 
d="M439 498l-30 -114c-40 11 -99 22 -151 22c-48 0 -72 -4 -72 -44c0 -27 14 -34 93 -44c119 -15 172 -51 172 -156c0 -139 -100 -176 -229 -176c-55 0 -135 11 -182 28l30 116c38 -11 95 -21 145 -21c60 0 88 5 88 45c0 28 -17 39 -102 47c-107 10 -164 41 -164 150
c0 139 99 175 227 175c55 0 127 -11 175 -28zM321 568c-22 23 -44 47 -66 71c-22 -24 -43 -48 -64 -71h-131c41 43 81 86 122 129h147l126 -129h-134z" />
    <glyph glyph-name="Scommaaccentsmall" horiz-adv-x="484" 
d="M439 498l-30 -114c-40 11 -99 22 -151 22c-48 0 -72 -4 -72 -44c0 -27 14 -34 93 -44c119 -15 172 -51 172 -156c0 -139 -100 -176 -229 -176c-55 0 -135 11 -182 28l30 116c38 -11 95 -21 145 -21c60 0 88 5 88 45c0 28 -17 39 -102 47c-107 10 -164 41 -164 150
c0 139 99 175 227 175c55 0 127 -11 175 -28zM342 -51l-111 -167h-120l72 167h159z" />
    <glyph glyph-name="Wcircumflexsmall" horiz-adv-x="838" 
d="M418 297c-19 -90 -58 -222 -83 -297h-184c-49 180 -104 350 -163 512h157c40 -108 77 -230 107 -352c31 92 79 265 100 352h139c29 -91 73 -255 95 -352c40 117 78 234 105 352h154c-48 -163 -110 -351 -176 -512h-184c-17 85 -48 224 -67 297zM483 568
c-22 23 -44 47 -66 71c-22 -24 -43 -48 -64 -71h-131c41 43 81 86 122 129h147l126 -129h-134z" />
    <glyph glyph-name="Zacutesmall" horiz-adv-x="498" 
d="M27 512h458v-25c-64 -107 -174 -269 -238 -355h226v-132h-463v25c84 112 199 282 240 355h-223v132zM294 568h-130l123 129h157z" />
    <glyph glyph-name="Zdotaccentsmall" horiz-adv-x="498" 
d="M27 512h458v-25c-64 -107 -174 -269 -238 -355h226v-132h-463v25c84 112 199 282 240 355h-223v132zM254 694c52 0 68 -9 68 -64c0 -60 -16 -71 -68 -71s-69 11 -69 71c0 55 17 64 69 64z" />
    <glyph glyph-name="Ccedillasmall" unicode="&#xf7e7;" horiz-adv-x="472" 
d="M430 141l32 -129c-41 -17 -110 -26 -161 -26c-153 0 -255 63 -255 273c0 208 103 267 255 267c53 0 121 -8 161 -22l-32 -130c-29 11 -74 21 -116 21c-75 0 -113 -13 -113 -139c0 -120 38 -138 113 -138c44 0 87 11 116 23zM257 0h57v-39c70 0 105 -21 105 -79
c0 -65 -38 -85 -143 -85c-45 0 -70 4 -94 13l24 60c13 -6 39 -9 62 -9c26 0 34 6 34 23c0 21 -21 27 -81 22z" />
    <glyph glyph-name="Igravesmall" unicode="&#xf7ec;" horiz-adv-x="284" 
d="M220 512v-512h-154v512h154zM240 568h-129l-151 129h158z" />
    <glyph glyph-name="Iacutesmall" unicode="&#xf7ed;" horiz-adv-x="284" 
d="M220 512v-512h-154v512h154zM170 568h-130l123 129h157z" />
    <glyph glyph-name="Icircumflexsmall" unicode="&#xf7ee;" horiz-adv-x="284" 
d="M220 512v-512h-154v512h154zM207 568c-22 23 -44 47 -66 71c-22 -24 -43 -48 -64 -71h-131c41 43 81 86 122 129h147l126 -129h-134z" />
    <glyph glyph-name="Idieresissmall" unicode="&#xf7ef;" horiz-adv-x="284" 
d="M220 512v-512h-154v512h154zM31 694c52 0 69 -9 69 -64c0 -60 -17 -71 -69 -71c-51 0 -68 11 -68 71c0 55 17 64 68 64zM257 694c51 0 68 -9 68 -64c0 -60 -17 -71 -68 -71c-53 0 -69 11 -69 71c0 55 16 64 69 64z" />
    <glyph glyph-name="Ethsmall" unicode="&#xf7f0;" horiz-adv-x="598" 
d="M24 210v106h42v196h238c165 0 248 -55 248 -254s-82 -258 -248 -258h-238v210h-42zM286 398h-66v-82h69v-106h-69v-96h66c73 0 110 20 110 142c0 126 -37 142 -110 142z" />
    <glyph glyph-name="Ogravesmall" unicode="&#xf7f2;" horiz-adv-x="590" 
d="M294 -14c-165 0 -248 63 -248 273c0 209 85 267 248 267c166 0 250 -58 250 -267c0 -210 -83 -273 -250 -273zM294 406c-72 0 -93 -16 -93 -150c0 -129 21 -150 93 -150c73 0 94 21 94 150c0 134 -21 150 -94 150zM402 568h-129l-151 129h158z" />
    <glyph glyph-name="Oacutesmall" unicode="&#xf7f3;" horiz-adv-x="590" 
d="M294 -14c-165 0 -248 63 -248 273c0 209 85 267 248 267c166 0 250 -58 250 -267c0 -210 -83 -273 -250 -273zM294 406c-72 0 -93 -16 -93 -150c0 -129 21 -150 93 -150c73 0 94 21 94 150c0 134 -21 150 -94 150zM318 568h-130l123 129h157z" />
    <glyph glyph-name="Ocircumflexsmall" unicode="&#xf7f4;" horiz-adv-x="590" 
d="M294 -14c-165 0 -248 63 -248 273c0 209 85 267 248 267c166 0 250 -58 250 -267c0 -210 -83 -273 -250 -273zM294 406c-72 0 -93 -16 -93 -150c0 -129 21 -150 93 -150c73 0 94 21 94 150c0 134 -21 150 -94 150zM356 568c-22 23 -44 47 -66 71c-22 -24 -43 -48 -64 -71
h-131c41 43 81 86 122 129h147l126 -129h-134z" />
    <glyph glyph-name="Otildesmall" unicode="&#xf7f5;" horiz-adv-x="590" 
d="M294 -14c-165 0 -248 63 -248 273c0 209 85 267 248 267c166 0 250 -58 250 -267c0 -210 -83 -273 -250 -273zM294 406c-72 0 -93 -16 -93 -150c0 -129 21 -150 93 -150c73 0 94 21 94 150c0 134 -21 150 -94 150zM411 708l72 -58c-19 -51 -60 -94 -124 -94
c-63 0 -93 47 -141 47c-19 0 -33 -11 -48 -46l-66 65c26 46 59 80 111 80c74 0 100 -46 146 -46c23 0 35 11 50 52z" />
    <glyph glyph-name="Odieresissmall" unicode="&#xf7f6;" horiz-adv-x="590" 
d="M294 -14c-165 0 -248 63 -248 273c0 209 85 267 248 267c166 0 250 -58 250 -267c0 -210 -83 -273 -250 -273zM294 406c-72 0 -93 -16 -93 -150c0 -129 21 -150 93 -150c73 0 94 21 94 150c0 134 -21 150 -94 150zM181 694c52 0 69 -9 69 -64c0 -60 -17 -71 -69 -71
c-51 0 -68 11 -68 71c0 55 17 64 68 64zM407 694c51 0 68 -9 68 -64c0 -60 -17 -71 -68 -71c-53 0 -69 11 -69 71c0 55 16 64 69 64z" />
    <glyph glyph-name="questiondownsmall" unicode="&#xf7bf;" horiz-adv-x="491" 
d="M257 357c-70 0 -93 11 -93 81c0 76 23 88 93 88c68 0 91 -12 91 -88c0 -70 -23 -81 -91 -81zM185 303h145c-75 -61 -124 -88 -124 -146c0 -29 12 -43 77 -43c50 0 109 8 152 20l20 -126c-50 -9 -125 -20 -187 -20c-167 0 -234 34 -234 130c0 76 39 125 151 185z" />
    <glyph glyph-name="exclamdownsmall" unicode="&#xf7a1;" horiz-adv-x="326" 
d="M248 0h-170l31 287h111zM163 352c-70 0 -92 12 -92 82c0 76 22 89 92 89c68 0 91 -13 91 -89c0 -70 -23 -82 -91 -82z" />
    <glyph glyph-name="threeoldstyle" unicode="&#xf733;" 
d="M186 106v139h104c66 0 89 12 89 67c0 52 -22 68 -135 68c-48 0 -128 -8 -167 -19l-30 141c63 13 155 24 235 24c205 0 269 -48 269 -181c0 -96 -26 -155 -150 -165c132 -6 164 -70 164 -179c0 -150 -81 -201 -284 -201c-74 0 -173 10 -237 24l29 143
c41 -12 122 -19 169 -19c123 0 147 18 147 79c0 63 -27 79 -95 79h-108z" />
    <glyph glyph-name="fouroldstyle" unicode="&#xf734;" 
d="M357 0h-342v52c75 130 202 340 290 460h205v-387h90v-125h-90v-192h-153v192zM357 125v244c-53 -72 -119 -186 -151 -244h151z" />
    <glyph glyph-name="fiveoldstyle" unicode="&#xf735;" 
d="M89 512h451v-141h-299v-120c22 2 46 3 68 3c199 0 257 -60 257 -218c0 -183 -71 -239 -275 -239c-66 0 -178 10 -234 24l30 143c37 -12 118 -19 166 -19c115 0 137 16 137 85c0 70 -16 87 -136 87c-50 0 -120 -4 -165 -11v406z" />
    <glyph glyph-name="sixoldstyle" unicode="&#xf736;" 
d="M566 688l-31 -142c-35 12 -101 20 -168 20c-90 0 -139 -19 -144 -135c33 5 73 8 107 8c200 0 260 -60 260 -218c0 -183 -68 -235 -268 -235c-202 0 -273 84 -273 368c0 285 81 360 318 360c64 0 146 -11 199 -26zM322 134c82 0 100 22 100 83c0 68 -24 85 -93 85
c-36 0 -74 -2 -109 -6c4 -141 33 -162 102 -162z" />
    <glyph glyph-name="sevenoldstyle" unicode="&#xf737;" 
d="M608 512v-47c-81 -131 -243 -465 -306 -657h-182c68 188 192 455 274 563h-341v141h555z" />
    <glyph glyph-name="eightoldstyle" unicode="&#xf738;" 
d="M315 117c78 0 100 21 100 87c0 68 -23 96 -100 96c-79 0 -102 -28 -102 -96c0 -66 23 -87 102 -87zM315 425c64 0 92 20 92 80c0 61 -26 75 -92 75c-68 0 -94 -14 -94 -75c0 -60 28 -80 94 -80zM315 -14h-1c-204 0 -269 55 -269 201c0 109 30 174 163 180
c-125 10 -150 69 -150 166c0 126 47 181 256 181s256 -55 256 -181c0 -97 -25 -156 -150 -166c133 -6 163 -71 163 -180c0 -146 -64 -201 -268 -201z" />
    <glyph glyph-name="nineoldstyle" unicode="&#xf739;" 
d="M158 -192c86 88 170 186 211 269c-12 -2 -53 -3 -62 -3c-199 0 -259 57 -259 215c0 181 67 237 268 237c219 0 271 -56 271 -240c0 -194 -100 -344 -232 -478h-197zM328 210c26 0 55 1 82 4c4 19 5 38 5 57c0 93 -19 108 -99 108c-83 0 -101 -21 -101 -85
c0 -70 17 -84 113 -84z" />
    <glyph glyph-name="zerooldstyle" unicode="&#xf730;" 
d="M314 -14c-147 0 -233 63 -233 273c0 209 87 267 233 267c149 0 233 -58 233 -267c0 -210 -83 -273 -233 -273zM314 406c-57 0 -78 -16 -78 -150c0 -129 21 -150 78 -150c61 0 77 21 77 150c0 134 -18 150 -77 150z" />
    <glyph glyph-name="oneoldstyle" unicode="&#xf731;" 
d="M456 0h-154v330l-156 -64l-43 128l353 132v-526z" />
    <glyph glyph-name="twooldstyle" unicode="&#xf732;" 
d="M117 364l-35 138c53 13 153 24 227 24c177 0 229 -43 229 -159c0 -91 -50 -165 -235 -246h249v-121h-470v110c262 146 291 176 291 223c0 41 -18 57 -95 57c-45 0 -124 -12 -161 -26z" />
    <glyph glyph-name="zeroop" horiz-adv-x="558" 
d="M279 -14c-148 0 -233 63 -233 273c0 209 87 267 233 267c149 0 233 -58 233 -267c0 -210 -83 -273 -233 -273zM279 406c-57 0 -78 -16 -78 -150c0 -129 21 -150 78 -150c61 0 77 21 77 150c0 134 -19 150 -77 150z" />
    <glyph glyph-name="oneop" horiz-adv-x="408" 
d="M341 0h-154v330l-156 -64l-43 128l353 132v-526z" />
    <glyph glyph-name="twoop" horiz-adv-x="583" 
d="M96 364l-36 138c54 13 154 24 228 24c177 0 229 -43 229 -159c0 -91 -50 -165 -235 -246h248v-121h-469v110c261 146 290 176 290 223c0 41 -17 57 -94 57c-45 0 -125 -12 -161 -26z" />
    <glyph glyph-name="threeop" horiz-adv-x="587" 
d="M162 106v139h105c66 0 88 12 88 67c0 52 -21 68 -135 68c-47 0 -127 -8 -166 -19l-30 141c63 13 155 24 235 24c205 0 269 -48 269 -181c0 -96 -26 -155 -151 -165c132 -6 165 -70 165 -179c0 -150 -81 -201 -285 -201c-73 0 -172 10 -237 24l30 143
c40 -12 122 -19 169 -19c122 0 147 18 147 79c0 63 -27 79 -95 79h-109z" />
    <glyph glyph-name="fourop" horiz-adv-x="610" 
d="M352 0h-343v52c75 130 202 340 290 460h205v-387h90v-125h-90v-192h-152v192zM352 125v244c-54 -72 -119 -186 -151 -244h151z" />
    <glyph glyph-name="fiveop" horiz-adv-x="604" 
d="M81 512h451v-141h-299v-120c23 2 46 3 69 3c198 0 256 -60 256 -218c0 -183 -71 -239 -275 -239c-66 0 -178 10 -233 24l30 143c37 -12 117 -19 165 -19c115 0 137 16 137 85c0 70 -16 87 -136 87c-49 0 -120 -4 -165 -11v406z" />
    <glyph glyph-name="sixop" horiz-adv-x="632" 
d="M563 688c-10 -47 -21 -94 -31 -142c-35 12 -101 20 -168 20c-10 0 -18 0 -26 -2c-80 -5 -110 -27 -119 -133c34 5 73 8 108 8c199 0 259 -60 259 -218c0 -183 -67 -235 -268 -235s-273 84 -273 368c0 285 82 360 318 360c65 0 147 -11 200 -26zM318 134
c82 0 101 20 101 81c0 58 -15 82 -83 86c-14 1 -29 1 -46 1c-26 -1 -50 -4 -73 -6c4 -141 32 -162 101 -162z" />
    <glyph glyph-name="sevenop" horiz-adv-x="547" 
d="M555 512v-47c-82 -131 -243 -465 -306 -657h-183c69 188 192 455 274 563h-340v141h555z" />
    <glyph glyph-name="eightop" horiz-adv-x="629" 
d="M315 117c79 0 101 21 101 87c0 68 -23 96 -101 96s-101 -28 -101 -96c0 -66 23 -87 101 -87zM315 425c65 0 92 20 92 80c0 61 -26 75 -92 75c-67 0 -93 -14 -93 -75c0 -60 28 -80 93 -80zM315 -14c-204 0 -269 55 -269 201c0 109 30 174 163 180
c-125 10 -150 69 -150 166c0 126 47 181 256 181s256 -55 256 -181c0 -97 -25 -156 -150 -166c133 -6 163 -71 163 -180c0 -146 -64 -201 -269 -201z" />
    <glyph glyph-name="nineop" horiz-adv-x="631" 
d="M156 -192c86 88 170 186 211 269c-12 -2 -53 -3 -62 -3c-199 0 -259 57 -259 215c0 181 67 237 268 237c219 0 271 -56 271 -240c0 -194 -100 -344 -232 -478h-197zM326 210c26 0 55 1 82 4c4 19 5 38 5 57c0 93 -19 108 -99 108c-83 0 -101 -21 -101 -85
c0 -70 17 -84 113 -84z" />
    <glyph glyph-name="two.alt" horiz-adv-x="619" 
d="M89 542l-33 137c57 20 152 35 242 35c175 0 261 -37 261 -207c0 -94 -34 -164 -157 -223c-99 -47 -141 -80 -153 -143h310v-141h-521c13 212 95 281 225 360c69 41 124 67 124 130c0 67 -25 79 -106 79c-64 0 -147 -13 -192 -27z" />
    <glyph glyph-name="Ccircumflexsmall" horiz-adv-x="472" 
d="M430 141l32 -129c-41 -17 -110 -26 -161 -26c-153 0 -255 63 -255 273c0 208 103 267 255 267c53 0 121 -8 161 -22l-32 -130c-29 11 -74 21 -116 21c-75 0 -113 -13 -113 -139c0 -120 38 -138 113 -138c44 0 87 11 116 23zM357 568c-22 23 -44 47 -66 71
c-22 -24 -43 -48 -64 -71h-131c41 43 81 86 122 129h147l126 -129h-134z" />
    <glyph glyph-name="ccaront" horiz-adv-x="853" 
d="M518 173v207c-96 0 -177 17 -213 17c-73 0 -104 -15 -104 -141c0 -120 31 -140 104 -140c38 0 78 6 108 18l30 -122c-41 -17 -95 -26 -150 -26c-145 0 -247 63 -247 273c0 208 103 267 247 267c58 0 131 -14 225 -14v76l153 62v-138h160v-132h-160v-191
c0 -52 17 -73 72 -73c31 0 55 6 79 14l26 -118c-39 -16 -97 -26 -153 -26c-112 0 -177 34 -177 187zM231 697c22 -24 44 -48 66 -71c21 23 42 47 64 71h130c-41 -43 -81 -86 -122 -129h-147l-126 129h135z" />
    <glyph glyph-name="scaront" horiz-adv-x="897" 
d="M562 173v207c-137 0 -252 26 -304 26c-48 0 -72 -4 -72 -44c0 -27 14 -34 93 -44c119 -15 172 -51 172 -156c0 -139 -100 -176 -229 -176c-55 0 -135 11 -182 28l30 116c38 -11 95 -21 145 -21c60 0 88 5 88 45c0 28 -17 39 -102 47c-107 10 -164 41 -164 150
c0 139 99 175 227 175c55 0 184 -14 298 -14v76l154 62v-138h160v-132h-160v-191c0 -52 17 -73 71 -73c32 0 56 6 80 14l25 -118c-39 -16 -97 -26 -152 -26c-113 0 -178 34 -178 187zM194 697c22 -24 44 -48 66 -71c21 23 42 47 64 71h130c-41 -43 -81 -86 -122 -129h-147
l-126 129h135z" />
    <glyph glyph-name="ampersandsmall.2" horiz-adv-x="676" 
d="M671 210h-116v-191c-121 -25 -183 -33 -262 -33c-189 0 -257 32 -257 149c0 81 32 129 132 134c-96 7 -121 46 -121 121c0 103 54 136 245 136c83 0 140 -8 197 -20l-29 -131c-43 13 -97 23 -165 23c-72 0 -87 -10 -87 -40c0 -29 20 -37 79 -37h384v-111zM199 165
c0 -37 17 -50 97 -50c41 0 84 5 120 13v82h-131c-60 0 -86 -9 -86 -45z" />
    <glyph glyph-name="ampersandsmall" unicode="&#xf726;" horiz-adv-x="723" 
d="M705 0h-168c-13 18 -26 35 -37 50c-72 -39 -156 -64 -237 -64c-183 0 -232 31 -232 148c0 81 41 130 142 135c-97 7 -113 48 -113 123c0 103 34 134 225 134c190 0 224 -31 224 -134c0 -75 -30 -116 -127 -124c32 -3 74 -20 121 -56c22 28 35 59 38 87h167
c-5 -63 -43 -124 -99 -176c33 -35 65 -76 96 -123zM269 100c54 0 114 19 148 47c-49 45 -96 62 -147 62c-47 0 -77 -11 -77 -55c0 -43 20 -54 76 -54zM286 324c52 0 75 10 75 46c0 34 -15 45 -73 45c-59 0 -75 -11 -75 -45c0 -36 20 -46 73 -46z" />
    <glyph glyph-name="man" horiz-adv-x="524" 
d="M345 419v-611h-76v372h-13v-372h-76v611c-30 -1 -36 -11 -36 -48v-191h-94v194c0 112 40 135 212 135s212 -24 212 -135v-194h-94v191c0 37 -5 47 -35 48zM262 721c78 0 103 -12 103 -89c0 -86 -25 -101 -103 -101c-81 0 -106 15 -106 101c0 77 25 89 106 89z" />
    <glyph glyph-name="woman" horiz-adv-x="524" 
d="M324 419v-239c47 -109 115 -260 180 -372h-484c51 111 135 292 180 372v239c-50 -1 -56 -11 -56 -48v-191h-74v194c0 112 40 135 192 135s192 -24 192 -135v-194h-74v191c0 37 -6 47 -56 48zM262 721c78 0 103 -12 103 -89c0 -86 -25 -101 -103 -101
c-81 0 -106 15 -106 101c0 77 25 89 106 89z" />
    <glyph glyph-name="escaperight" horiz-adv-x="1267" 
d="M446 509c15 -68 98 -176 210 -176l-14 -80c-97 0 -185 52 -222 136l-49 -229c133 -3 216 -81 166 -292h-84c39 160 12 221 -152 221c-49 -171 -130 -237 -279 -237l18 77c82 0 146 37 178 190l65 308c-45 0 -103 -42 -127 -174h-82c37 151 89 256 225 256h147zM1245 293
l-273 -256l-54 57l163 159h-388l13 80h375l-163 159l54 57zM530 531h-74c-81 0 -106 15 -106 101c0 77 25 89 106 89c78 0 112 -14 96 -89z" />
    <glyph glyph-name="noentry" horiz-adv-x="853" 
d="M838 0h-124l-215 215v-407h-66v372h-13v-372h-66v407l-215 -215h-124l199 202v172c0 47 7 78 28 99l-223 224h133l187 -191c25 2 53 3 87 3c33 0 62 -1 86 -4l189 192h133l-224 -225c21 -20 28 -51 28 -98v-171zM426 721c78 0 103 -12 103 -89c0 -86 -25 -101 -103 -101
c-81 0 -106 15 -106 101c0 77 25 89 106 89zM308 371v-73l46 47v16l-42 41c-4 -7 -4 -17 -4 -31zM544 371c0 14 -1 24 -4 31l-41 -41v-16l45 -46v72z" />
    <glyph glyph-name="escapeleft" horiz-adv-x="1267" 
d="M821 509h147c136 0 188 -105 225 -256h-82c-24 132 -82 174 -127 174l65 -308c32 -153 96 -190 178 -190l18 -77c-149 0 -230 66 -279 237c-164 0 -191 -61 -152 -221h-84c-50 211 33 289 166 292l-49 229c-37 -84 -125 -136 -222 -136l-14 80c112 0 195 108 210 176z
M295 37l-273 256l273 256l54 -57l-163 -159h375l13 -80h-388l163 -159zM811 531h-74l-22 101c-16 75 18 89 96 89c81 0 106 -12 106 -89c0 -86 -25 -101 -106 -101z" />
    <glyph glyph-name="manneg" horiz-adv-x="684" 
d="M426 -192v611c30 -1 35 -11 35 -48v-191h94v194c0 111 -40 135 -212 135s-212 -23 -212 -135v-194h94v191c0 37 6 47 36 48v-611h76v372h13v-372h76zM343 721c-81 0 -106 -12 -106 -89c0 -86 25 -101 106 -101c78 0 103 15 103 101c0 77 -25 89 -103 89zM551 -232h-418
c-78 0 -103 15 -103 101v803c0 77 25 89 103 89h418c78 0 103 -12 103 -89v-803c0 -86 -25 -101 -103 -101z" />
    <glyph glyph-name="womanneg" horiz-adv-x="684" 
d="M405 180v239c50 -1 56 -11 56 -48v-191h74v194c0 111 -40 135 -192 135s-192 -23 -192 -135v-194h74v191c0 37 6 47 56 48v-239c-45 -80 -129 -261 -180 -372h484c-65 112 -133 263 -180 372zM343 721c-81 0 -106 -12 -106 -89c0 -86 25 -101 106 -101
c78 0 103 15 103 101c0 77 -25 89 -103 89zM551 -232h-418c-78 0 -103 15 -103 101v803c0 77 25 89 103 89h418c78 0 103 -12 103 -89v-803c0 -86 -25 -101 -103 -101z" />
    <glyph glyph-name="escaperightneg" horiz-adv-x="1373" 
d="M1240 -232h-1107c-78 0 -103 15 -103 101v803c0 77 25 89 103 89h1107c78 0 103 -12 103 -89v-803c0 -86 -25 -101 -103 -101zM505 509h-147c-136 0 -188 -105 -225 -256h82c24 132 82 174 127 174l-65 -308c-32 -153 -96 -190 -178 -190l-18 -77c149 0 230 66 279 237
c164 0 191 -61 152 -221h84c50 211 -33 289 -166 292l49 229c37 -84 125 -136 222 -136l14 80c-112 0 -195 108 -210 176zM1031 37l273 256l-273 256l-54 -57l163 -159h-375l-13 -80h388l-163 -159zM515 531h74l22 101c16 75 -18 89 -96 89c-81 0 -106 -12 -106 -89
c0 -86 25 -101 106 -101z" />
    <glyph glyph-name="escapeleftneg" horiz-adv-x="1373" 
d="M1240 -232h-1107c-78 0 -103 15 -103 101v803c0 77 25 89 103 89h1107c78 0 103 -12 103 -89v-803c0 -86 -25 -101 -103 -101zM868 509c-15 -68 -98 -176 -210 -176l14 -80c97 0 185 52 222 136l49 -229c-133 -3 -216 -81 -166 -292h84c-39 160 -12 221 152 221
c49 -171 130 -237 279 -237l-18 77c-82 0 -146 37 -178 190l-65 308c45 0 103 -42 127 -174h82c-37 151 -89 256 -225 256h-147zM69 293l273 -256l54 57l-163 159h388l-13 80h-375l163 159l-54 57zM784 531h74c81 0 106 15 106 101c0 77 -25 89 -106 89
c-78 0 -112 -14 -96 -89z" />
    <glyph glyph-name="noentryneg" horiz-adv-x="960" 
d="M827 -232h-694c-78 0 -103 15 -103 101v803c0 77 25 89 103 89h694c78 0 103 -12 103 -89v-803c0 -86 -25 -101 -103 -101zM767 0h124l-200 203v171c0 47 -7 78 -28 98l224 225h-133l-189 -192c-24 3 -53 4 -86 4c-34 0 -62 -1 -87 -3l-187 191h-133l223 -224
c-21 -21 -28 -52 -28 -99v-172l-199 -202h124l215 215v-407h66v372h13v-372h66v407zM479 721c-81 0 -106 -12 -106 -89c0 -86 25 -101 106 -101c78 0 103 15 103 101c0 77 -25 89 -103 89zM361 298v73c0 14 0 24 4 31l42 -41v-16zM597 371v-72l-45 46v16l41 41
c3 -7 4 -17 4 -31z" />
    <glyph glyph-name="trash" horiz-adv-x="1068" 
d="M171 334h46l20 -127h294l21 127h46l-85 -526h-257zM803 509l76 -329v-372h-66v372h-13l-60 -372h-66l60 372l-58 249h-363l-14 80h504zM684 531h-74l-22 101c-16 75 18 89 96 89c81 0 106 -12 106 -89c0 -86 -25 -101 -106 -101zM343 412c31 -34 96 -46 160 -46l-83 -122
c-63 5 -123 73 -123 102c0 27 45 64 46 66zM245 162l19 -122h98v122h-117zM407 162v-122h97l20 122h-117zM272 -5l23 -142h67v142h-90zM407 -5v-142h67l23 142h-90z" />
    <glyph glyph-name="material" horiz-adv-x="1068" 
d="M904 258l130 -226c12 -21 18 -47 18 -73c0 -85 -67 -151 -151 -151h-239v-122l-183 162l183 161v-122h239c39 0 72 32 72 72c0 12 -2 23 -8 33l-130 227zM425 -192h-260c-116 0 -184 130 -128 227l119 207l-105 61l232 78l48 -239l-106 61l-120 -207
c-25 -44 4 -108 59 -108h261v-80zM277 452l130 225c59 102 205 92 260 -3l120 -206l105 60l-48 -240l-231 78l106 62l-119 207c-24 42 -95 51 -123 3l-131 -226z" />
    <glyph glyph-name="recycling" horiz-adv-x="1068" 
d="M30 256c0 278 226 504 504 504s504 -226 504 -504s-226 -504 -504 -504s-504 226 -504 504zM534 739c-266 0 -485 -216 -485 -483c0 -266 218 -484 484 -484c-524 0 -710 776 1 808v159c127 -82 213 -163 302 -282c-92 -118 -193 -213 -302 -282v161
c-109 -69 -210 -164 -302 -282c89 -119 175 -200 302 -282v159c711 32 522 808 0 808z" />
    <glyph glyph-name="flammable" horiz-adv-x="1068" 
d="M881 -192h-694c-78 0 -103 13 -103 92v733c0 70 25 81 103 81h694c78 0 103 -11 103 -81v-733c0 -79 -25 -92 -103 -92zM195 -161h678c71 0 79 5 79 77v700c0 64 -8 68 -79 68h-678c-71 0 -80 -4 -80 -68v-700c0 -72 9 -77 80 -77zM225 -79v39h158
c-99 44 -48 271 -170 253c98 44 146 -18 189 -83c-35 96 -26 328 -108 341c118 18 151 -94 178 -195c-9 107 56 321 -28 354c191 -15 117 -246 158 -354c42 93 95 199 53 240c157 -79 17 -282 18 -385c0 -4 -1 -8 -2 -12c58 48 125 88 96 133c120 -82 -22 -170 -40 -263
c-1 -12 -8 -22 -18 -29h143v-39h-627zM472 41c22 -18 2 -64 -34 -81h185c-15 9 -25 24 -26 44c-2 33 17 62 43 88c-28 -10 -66 -1 -79 43c-5 17 1 42 12 72c-25 -14 -60 -13 -86 22c-1 1 -2 3 -3 4c9 -31 19 -58 33 -77c25 -34 -30 -106 -90 -64c14 -20 29 -39 45 -51z" />
    <glyph glyph-name="poison" horiz-adv-x="1068" 
d="M881 -192h-694c-78 0 -103 13 -103 92v733c0 70 25 81 103 81h694c78 0 103 -11 103 -81v-733c0 -79 -25 -92 -103 -92zM195 -161h678c71 0 79 5 79 77v700c0 64 -8 68 -79 68h-678c-71 0 -80 -4 -80 -68v-700c0 -72 9 -77 80 -77zM280 -104l-118 117l253 254l-253 255
l115 113l253 -252l255 257l119 -118l-256 -256l254 -253l-116 -117l-254 255z" />
    <glyph glyph-name="Pct" horiz-adv-x="1068" 
d="M532 266c0 -139 140 -208 311 -208c25 0 70 2 93 5v-92c-90 -62 -238 -92 -378 -92c-272 0 -497 174 -497 386c0 214 225 388 497 388c140 0 289 -29 378 -92v-91c-23 3 -68 5 -93 5c-171 0 -311 -70 -311 -209zM242 1v361c0 85 17 108 96 108c57 0 83 -27 83 -106
c0 -77 -26 -106 -101 -106c-30 0 -48 6 -63 18v-66c18 -10 34 -17 70 -17c110 0 176 52 176 172c0 117 -64 171 -172 171c-91 0 -169 -40 -169 -159v-315zM936 347v-240h-100v240h-96v73h292v-73h-96z" />
    </font>
</defs>
</svg>
